<?xml version="1.0" encoding="UTF-8" standalone="no"?><svg xmlns="http://www.w3.org/2000/svg" xmlns:xlink="http://www.w3.org/1999/xlink" contentScriptType="application/ecmascript" contentStyleType="text/css" height="411px" preserveAspectRatio="none" style="width:594px;height:411px;" version="1.1" viewBox="0 0 594 411" width="594px" zoomAndPan="magnify"><defs><filter height="300%" id="fibyuj8fy77pf" width="300%" x="-1" y="-1"><feGaussianBlur result="blurOut" stdDeviation="2.0"/><feColorMatrix in="blurOut" result="blurOut2" type="matrix" values="0 0 0 0 0 0 0 0 0 0 0 0 0 0 0 0 0 0 .4 0"/><feOffset dx="4.0" dy="4.0" in="blurOut2" result="blurOut3"/><feBlend in="SourceGraphic" in2="blurOut3" mode="normal"/></filter></defs><g><text fill="#000000" font-family="sans-serif" font-size="18" font-weight="bold" lengthAdjust="spacingAndGlyphs" textLength="240" x="180" y="16.708">Parents and Children of</text><text fill="#000000" font-family="sans-serif" font-size="18" font-weight="bold" lengthAdjust="spacingAndGlyphs" textLength="221" x="189.5" y="37.6611">'helm-type-bookmark'</text><text fill="#000000" font-family="sans-serif" font-size="18" lengthAdjust="spacingAndGlyphs" textLength="0" x="303" y="58.6143"/><text fill="#000000" font-family="sans-serif" font-size="18" lengthAdjust="spacingAndGlyphs" textLength="0" x="303" y="79.5674"/><!--MD5=[8da85e6ec6935d54267014e974a66b51]
class helm-source--><rect fill="#FEFECE" filter="url(#fibyuj8fy77pf)" height="48" id="helm-source" style="stroke: #A80036; stroke-width: 1.5;" width="119" x="219" y="91.8125"/><ellipse cx="234" cy="107.8125" fill="#ADD1B2" rx="11" ry="11" style="stroke: #A80036; stroke-width: 1.0;"/><path d="M236.9688,113.4531 Q236.3906,113.75 235.75,113.8906 Q235.1094,114.0469 234.4063,114.0469 Q231.9063,114.0469 230.5781,112.4063 Q229.2656,110.75 229.2656,107.625 Q229.2656,104.5 230.5781,102.8438 Q231.9063,101.1875 234.4063,101.1875 Q235.1094,101.1875 235.75,101.3438 Q236.4063,101.5 236.9688,101.7969 L236.9688,104.5156 Q236.3438,103.9375 235.75,103.6719 Q235.1563,103.3906 234.5313,103.3906 Q233.1875,103.3906 232.5,104.4688 Q231.8125,105.5313 231.8125,107.625 Q231.8125,109.7188 232.5,110.7969 Q233.1875,111.8594 234.5313,111.8594 Q235.1563,111.8594 235.75,111.5938 Q236.3438,111.3125 236.9688,110.7344 L236.9688,113.4531 Z "/><text fill="#000000" font-family="sans-serif" font-size="12" font-weight="bold" lengthAdjust="spacingAndGlyphs" textLength="87" x="248" y="111.9668">helm-source</text><line style="stroke: #A80036; stroke-width: 1.5;" x1="220" x2="337" y1="123.8125" y2="123.8125"/><line style="stroke: #A80036; stroke-width: 1.5;" x1="220" x2="337" y1="131.8125" y2="131.8125"/><!--MD5=[257e0c9decabcf296fc5e077c0fe3da7]
class helm-type-bookmark--><rect fill="#FEFECE" filter="url(#fibyuj8fy77pf)" height="92.8164" id="helm-type-bookmark" style="stroke: #A80036; stroke-width: 1.5;" width="178" x="189.5" y="199.8125"/><ellipse cx="204.5" cy="215.8125" fill="#ADD1B2" rx="11" ry="11" style="stroke: #A80036; stroke-width: 1.0;"/><path d="M207.4688,221.4531 Q206.8906,221.75 206.25,221.8906 Q205.6094,222.0469 204.9063,222.0469 Q202.4063,222.0469 201.0781,220.4063 Q199.7656,218.75 199.7656,215.625 Q199.7656,212.5 201.0781,210.8438 Q202.4063,209.1875 204.9063,209.1875 Q205.6094,209.1875 206.25,209.3438 Q206.9063,209.5 207.4688,209.7969 L207.4688,212.5156 Q206.8438,211.9375 206.25,211.6719 Q205.6563,211.3906 205.0313,211.3906 Q203.6875,211.3906 203,212.4688 Q202.3125,213.5313 202.3125,215.625 Q202.3125,217.7188 203,218.7969 Q203.6875,219.8594 205.0313,219.8594 Q205.6563,219.8594 206.25,219.5938 Q206.8438,219.3125 207.4688,218.7344 L207.4688,221.4531 Z "/><text fill="#000000" font-family="sans-serif" font-size="12" font-weight="bold" lengthAdjust="spacingAndGlyphs" textLength="146" x="218.5" y="219.9668">helm-type-bookmark</text><line style="stroke: #A80036; stroke-width: 1.5;" x1="190.5" x2="366.5" y1="231.8125" y2="231.8125"/><text fill="#000000" font-family="sans-serif" font-size="11" lengthAdjust="spacingAndGlyphs" textLength="119" x="195.5" y="246.0229">A class to define type</text><text fill="#000000" font-family="sans-serif" font-size="11" lengthAdjust="spacingAndGlyphs" textLength="67" x="195.5" y="258.8276">bookmarks.</text><line style="stroke: #A80036; stroke-width: 1.0;" x1="190.5" x2="366.5" y1="265.4219" y2="265.4219"/><line style="stroke: #A80036; stroke-width: 1.0;" x1="190.5" x2="366.5" y1="267.4219" y2="267.4219"/><line style="stroke: #A80036; stroke-width: 1.5;" x1="190.5" x2="215" y1="279.8242" y2="279.8242"/><text fill="#000000" font-family="sans-serif" font-size="11" lengthAdjust="spacingAndGlyphs" textLength="127" x="215" y="283.1323">some interesting slots</text><line style="stroke: #A80036; stroke-width: 1.5;" x1="342" x2="366.5" y1="279.8242" y2="279.8242"/><path d="M403,218.8125 L403,242.3125 L367.53,246.3125 L403,250.3125 L403,274.2109 A0,0 0 0 0 403,274.2109 L582,274.2109 A0,0 0 0 0 582,274.2109 L582,228.8125 L572,218.8125 L403,218.8125 A0,0 0 0 0 403,218.8125 " fill="#FBFB77" filter="url(#fibyuj8fy77pf)" style="stroke: #A80036; stroke-width: 1.0;"/><path d="M572,218.8125 L572,228.8125 L582,228.8125 L572,218.8125 " fill="#FBFB77" style="stroke: #A80036; stroke-width: 1.0;"/><text fill="#000000" font-family="sans-serif" font-size="13" font-weight="bold" lengthAdjust="spacingAndGlyphs" textLength="154" x="409" y="235.8794">helm-type-bookmark</text><text fill="#000000" font-family="sans-serif" font-size="13" lengthAdjust="spacingAndGlyphs" textLength="4" x="563" y="235.8794">:</text><text fill="#000000" font-family="sans-serif" font-size="13" lengthAdjust="spacingAndGlyphs" textLength="137" x="409" y="251.0122">A class to define type</text><text fill="#000000" font-family="sans-serif" font-size="13" lengthAdjust="spacingAndGlyphs" textLength="75" x="409" y="266.145">bookmarks.</text><!--MD5=[1b5f639ef80bc5f44c8cc4600bf3e2e4]
class helm-source-filtered-bookmarks--><rect fill="#FEFECE" filter="url(#fibyuj8fy77pf)" height="48" id="helm-source-filtered-bookmarks" style="stroke: #A80036; stroke-width: 1.5;" width="259" x="6" y="352.8125"/><ellipse cx="21" cy="368.8125" fill="#ADD1B2" rx="11" ry="11" style="stroke: #A80036; stroke-width: 1.0;"/><path d="M23.9688,374.4531 Q23.3906,374.75 22.75,374.8906 Q22.1094,375.0469 21.4063,375.0469 Q18.9063,375.0469 17.5781,373.4063 Q16.2656,371.75 16.2656,368.625 Q16.2656,365.5 17.5781,363.8438 Q18.9063,362.1875 21.4063,362.1875 Q22.1094,362.1875 22.75,362.3438 Q23.4063,362.5 23.9688,362.7969 L23.9688,365.5156 Q23.3438,364.9375 22.75,364.6719 Q22.1563,364.3906 21.5313,364.3906 Q20.1875,364.3906 19.5,365.4688 Q18.8125,366.5313 18.8125,368.625 Q18.8125,370.7188 19.5,371.7969 Q20.1875,372.8594 21.5313,372.8594 Q22.1563,372.8594 22.75,372.5938 Q23.3438,372.3125 23.9688,371.7344 L23.9688,374.4531 Z "/><text fill="#000000" font-family="sans-serif" font-size="12" font-weight="bold" lengthAdjust="spacingAndGlyphs" textLength="227" x="35" y="372.9668">helm-source-filtered-bookmarks</text><line style="stroke: #A80036; stroke-width: 1.5;" x1="7" x2="264" y1="384.8125" y2="384.8125"/><line style="stroke: #A80036; stroke-width: 1.5;" x1="7" x2="264" y1="392.8125" y2="392.8125"/><!--MD5=[bf73905ec5fe3c8fa1d96a26605c7c43]
class helm-source-basic-bookmarks--><rect fill="#FEFECE" filter="url(#fibyuj8fy77pf)" height="48" id="helm-source-basic-bookmarks" style="stroke: #A80036; stroke-width: 1.5;" width="244" x="300.5" y="352.8125"/><ellipse cx="315.5" cy="368.8125" fill="#ADD1B2" rx="11" ry="11" style="stroke: #A80036; stroke-width: 1.0;"/><path d="M318.4688,374.4531 Q317.8906,374.75 317.25,374.8906 Q316.6094,375.0469 315.9063,375.0469 Q313.4063,375.0469 312.0781,373.4063 Q310.7656,371.75 310.7656,368.625 Q310.7656,365.5 312.0781,363.8438 Q313.4063,362.1875 315.9063,362.1875 Q316.6094,362.1875 317.25,362.3438 Q317.9063,362.5 318.4688,362.7969 L318.4688,365.5156 Q317.8438,364.9375 317.25,364.6719 Q316.6563,364.3906 316.0313,364.3906 Q314.6875,364.3906 314,365.4688 Q313.3125,366.5313 313.3125,368.625 Q313.3125,370.7188 314,371.7969 Q314.6875,372.8594 316.0313,372.8594 Q316.6563,372.8594 317.25,372.5938 Q317.8438,372.3125 318.4688,371.7344 L318.4688,374.4531 Z "/><text fill="#000000" font-family="sans-serif" font-size="12" font-weight="bold" lengthAdjust="spacingAndGlyphs" textLength="212" x="329.5" y="372.9668">helm-source-basic-bookmarks</text><line style="stroke: #A80036; stroke-width: 1.5;" x1="301.5" x2="543.5" y1="384.8125" y2="384.8125"/><line style="stroke: #A80036; stroke-width: 1.5;" x1="301.5" x2="543.5" y1="392.8125" y2="392.8125"/><!--MD5=[b3073f519ff1e7a9af7ffffd7406ad63]
reverse link helm-source to helm-type-bookmark--><path d="M278.5,160.4125 C278.5,173.0325 278.5,186.8425 278.5,199.5825 " fill="none" id="helm-source&lt;-helm-type-bookmark" style="stroke: #A80036; stroke-width: 1.0;"/><polygon fill="none" points="271.5,160.0825,278.5,140.0825,285.5,160.0825,271.5,160.0825" style="stroke: #A80036; stroke-width: 1.0;"/><!--MD5=[36bf56344c9fb562b92d13c27d56d2e6]
reverse link helm-type-bookmark to helm-source-filtered-bookmarks--><path d="M212.61,306.5225 C194.4,322.8825 175.7,339.6825 161.28,352.6425 " fill="none" id="helm-type-bookmark&lt;-helm-source-filtered-bookmarks" style="stroke: #A80036; stroke-width: 1.0;"/><polygon fill="none" points="208.13,301.1425,227.68,292.9825,217.48,311.5525,208.13,301.1425" style="stroke: #A80036; stroke-width: 1.0;"/><!--MD5=[d74130942a07ed6c44229600fa80fecc]
reverse link helm-type-bookmark to helm-source-basic-bookmarks--><path d="M344.85,306.5225 C363.19,322.8825 382.02,339.6825 396.54,352.6425 " fill="none" id="helm-type-bookmark&lt;-helm-source-basic-bookmarks" style="stroke: #A80036; stroke-width: 1.0;"/><polygon fill="none" points="339.94,311.5225,329.67,292.9825,349.26,301.0725,339.94,311.5225" style="stroke: #A80036; stroke-width: 1.0;"/><!--MD5=[b53f6f79b67e2b8ebf99e4330447bc90]
@startuml
skinparam classFontStyle bold
skinparam captionFontStyle bold
title **Parents and Children of**\n**'helm-type-bookmark'**\n\n
"helm-source" <|- - "helm-type-bookmark"
class "helm-source"
class "helm-type-bookmark" {
	A class to define type
	bookmarks.
	==
	__ some interesting slots __
}
note right of "helm-type-bookmark"
	**helm-type-bookmark**:
	A class to define type
	bookmarks.
end note
"helm-type-bookmark" <|- - "helm-source-filtered-bookmarks"
"helm-type-bookmark" <|- - "helm-source-basic-bookmarks"
@enduml

PlantUML version 1.2020.02(Sun Mar 01 15:52:07 IST 2020)
(GPL source distribution)
Java Runtime: OpenJDK Runtime Environment
JVM: OpenJDK 64-Bit Server VM
Java Version: 11.0.11-ea+8-post-Debian-1
Operating System: Linux
Default Encoding: UTF-8
Language: en
Country: IN
--></g></svg>