<?xml version="1.0" encoding="UTF-8" standalone="no"?><svg xmlns="http://www.w3.org/2000/svg" xmlns:xlink="http://www.w3.org/1999/xlink" contentScriptType="application/ecmascript" contentStyleType="text/css" height="426px" preserveAspectRatio="none" style="width:486px;height:426px;" version="1.1" viewBox="0 0 486 426" width="486px" zoomAndPan="magnify"><defs><filter height="300%" id="f1el3d0bmhyfr0" width="300%" x="-1" y="-1"><feGaussianBlur result="blurOut" stdDeviation="2.0"/><feColorMatrix in="blurOut" result="blurOut2" type="matrix" values="0 0 0 0 0 0 0 0 0 0 0 0 0 0 0 0 0 0 .4 0"/><feOffset dx="4.0" dy="4.0" in="blurOut2" result="blurOut3"/><feBlend in="SourceGraphic" in2="blurOut3" mode="normal"/></filter></defs><g><text fill="#000000" font-family="sans-serif" font-size="18" font-weight="bold" lengthAdjust="spacingAndGlyphs" textLength="240" x="126.5" y="16.708">Parents and Children of</text><text fill="#000000" font-family="sans-serif" font-size="18" font-weight="bold" lengthAdjust="spacingAndGlyphs" textLength="277" x="108" y="37.6611">'helm-source-session-class'</text><text fill="#000000" font-family="sans-serif" font-size="18" lengthAdjust="spacingAndGlyphs" textLength="0" x="249.5" y="58.6143"/><text fill="#000000" font-family="sans-serif" font-size="18" lengthAdjust="spacingAndGlyphs" textLength="0" x="249.5" y="79.5674"/><!--MD5=[29825b4f2a07190321f66d6028a4dd26]
class helm-source-sync--><rect fill="#FEFECE" filter="url(#f1el3d0bmhyfr0)" height="48" id="helm-source-sync" style="stroke: #A80036; stroke-width: 1.5;" width="156" x="38" y="199.8125"/><ellipse cx="53" cy="215.8125" fill="#ADD1B2" rx="11" ry="11" style="stroke: #A80036; stroke-width: 1.0;"/><path d="M55.9688,221.4531 Q55.3906,221.75 54.75,221.8906 Q54.1094,222.0469 53.4063,222.0469 Q50.9063,222.0469 49.5781,220.4063 Q48.2656,218.75 48.2656,215.625 Q48.2656,212.5 49.5781,210.8438 Q50.9063,209.1875 53.4063,209.1875 Q54.1094,209.1875 54.75,209.3438 Q55.4063,209.5 55.9688,209.7969 L55.9688,212.5156 Q55.3438,211.9375 54.75,211.6719 Q54.1563,211.3906 53.5313,211.3906 Q52.1875,211.3906 51.5,212.4688 Q50.8125,213.5313 50.8125,215.625 Q50.8125,217.7188 51.5,218.7969 Q52.1875,219.8594 53.5313,219.8594 Q54.1563,219.8594 54.75,219.5938 Q55.3438,219.3125 55.9688,218.7344 L55.9688,221.4531 Z "/><text fill="#000000" font-family="sans-serif" font-size="12" font-weight="bold" lengthAdjust="spacingAndGlyphs" textLength="124" x="67" y="219.9668">helm-source-sync</text><line style="stroke: #A80036; stroke-width: 1.5;" x1="39" x2="193" y1="231.8125" y2="231.8125"/><line style="stroke: #A80036; stroke-width: 1.5;" x1="39" x2="193" y1="239.8125" y2="239.8125"/><!--MD5=[47156fd6f6930ad01ab8c92c260b1066]
class helm-source-session-class--><rect fill="#FEFECE" filter="url(#f1el3d0bmhyfr0)" height="108.0234" id="helm-source-session-class" style="stroke: #A80036; stroke-width: 1.5;" width="220" x="6" y="307.8125"/><ellipse cx="21" cy="323.8125" fill="#ADD1B2" rx="11" ry="11" style="stroke: #A80036; stroke-width: 1.0;"/><path d="M23.9688,329.4531 Q23.3906,329.75 22.75,329.8906 Q22.1094,330.0469 21.4063,330.0469 Q18.9063,330.0469 17.5781,328.4063 Q16.2656,326.75 16.2656,323.625 Q16.2656,320.5 17.5781,318.8438 Q18.9063,317.1875 21.4063,317.1875 Q22.1094,317.1875 22.75,317.3438 Q23.4063,317.5 23.9688,317.7969 L23.9688,320.5156 Q23.3438,319.9375 22.75,319.6719 Q22.1563,319.3906 21.5313,319.3906 Q20.1875,319.3906 19.5,320.4688 Q18.8125,321.5313 18.8125,323.625 Q18.8125,325.7188 19.5,326.7969 Q20.1875,327.8594 21.5313,327.8594 Q22.1563,327.8594 22.75,327.5938 Q23.3438,327.3125 23.9688,326.7344 L23.9688,329.4531 Z "/><text fill="#000000" font-family="sans-serif" font-size="12" font-weight="bold" lengthAdjust="spacingAndGlyphs" textLength="188" x="35" y="327.9668">helm-source-session-class</text><line style="stroke: #A80036; stroke-width: 1.5;" x1="7" x2="225" y1="339.8125" y2="339.8125"/><text fill="#000000" font-family="sans-serif" font-size="11" lengthAdjust="spacingAndGlyphs" textLength="34" x="12" y="370.8276">action</text><text fill="#000000" font-family="sans-serif" font-size="11" lengthAdjust="spacingAndGlyphs" textLength="62" x="12" y="383.6323">candidates</text><text fill="#000000" font-family="sans-serif" font-size="11" lengthAdjust="spacingAndGlyphs" textLength="81" x="12" y="396.437">help-message</text><text fill="#000000" font-family="sans-serif" font-size="11" lengthAdjust="spacingAndGlyphs" textLength="44" x="12" y="409.2417">keymap</text><line style="stroke: #A80036; stroke-width: 1.5;" x1="7" x2="52.5" y1="354.2148" y2="354.2148"/><text fill="#000000" font-family="sans-serif" font-size="11" lengthAdjust="spacingAndGlyphs" textLength="127" x="52.5" y="357.5229">some interesting slots</text><line style="stroke: #A80036; stroke-width: 1.5;" x1="179.5" x2="225" y1="354.2148" y2="354.2148"/><!--MD5=[8da85e6ec6935d54267014e974a66b51]
class helm-source--><rect fill="#FEFECE" filter="url(#f1el3d0bmhyfr0)" height="48" id="helm-source" style="stroke: #A80036; stroke-width: 1.5;" width="119" x="56.5" y="91.8125"/><ellipse cx="71.5" cy="107.8125" fill="#ADD1B2" rx="11" ry="11" style="stroke: #A80036; stroke-width: 1.0;"/><path d="M74.4688,113.4531 Q73.8906,113.75 73.25,113.8906 Q72.6094,114.0469 71.9063,114.0469 Q69.4063,114.0469 68.0781,112.4063 Q66.7656,110.75 66.7656,107.625 Q66.7656,104.5 68.0781,102.8438 Q69.4063,101.1875 71.9063,101.1875 Q72.6094,101.1875 73.25,101.3438 Q73.9063,101.5 74.4688,101.7969 L74.4688,104.5156 Q73.8438,103.9375 73.25,103.6719 Q72.6563,103.3906 72.0313,103.3906 Q70.6875,103.3906 70,104.4688 Q69.3125,105.5313 69.3125,107.625 Q69.3125,109.7188 70,110.7969 Q70.6875,111.8594 72.0313,111.8594 Q72.6563,111.8594 73.25,111.5938 Q73.8438,111.3125 74.4688,110.7344 L74.4688,113.4531 Z "/><text fill="#000000" font-family="sans-serif" font-size="12" font-weight="bold" lengthAdjust="spacingAndGlyphs" textLength="87" x="85.5" y="111.9668">helm-source</text><line style="stroke: #A80036; stroke-width: 1.5;" x1="57.5" x2="174.5" y1="123.8125" y2="123.8125"/><line style="stroke: #A80036; stroke-width: 1.5;" x1="57.5" x2="174.5" y1="131.8125" y2="131.8125"/><path d="M261.5,349.3125 L261.5,357.8125 L226.25,361.8125 L261.5,365.8125 L261.5,374.4453 A0,0 0 0 0 261.5,374.4453 L474.5,374.4453 A0,0 0 0 0 474.5,374.4453 L474.5,359.3125 L464.5,349.3125 L261.5,349.3125 A0,0 0 0 0 261.5,349.3125 " fill="#FBFB77" filter="url(#f1el3d0bmhyfr0)" style="stroke: #A80036; stroke-width: 1.0;"/><path d="M464.5,349.3125 L464.5,359.3125 L474.5,359.3125 L464.5,349.3125 " fill="#FBFB77" style="stroke: #A80036; stroke-width: 1.0;"/><text fill="#000000" font-family="sans-serif" font-size="13" font-weight="bold" lengthAdjust="spacingAndGlyphs" textLength="192" x="267.5" y="366.3794">helm-source-session-class</text><!--MD5=[52d97fd4d153f2c53b55b3f398cc83b3]
reverse link helm-source-sync to helm-source-session-class--><path d="M116,268.0525 C116,280.6325 116,294.5225 116,307.6325 " fill="none" id="helm-source-sync&lt;-helm-source-session-class" style="stroke: #A80036; stroke-width: 1.0;"/><polygon fill="none" points="109,267.8825,116,247.8825,123,267.8825,109,267.8825" style="stroke: #A80036; stroke-width: 1.0;"/><!--MD5=[7fac0f6d78841877506d9722364fbb5e]
reverse link helm-source to helm-source-sync--><path d="M116,159.8325 C116,173.3925 116,187.8525 116,199.4925 " fill="none" id="helm-source&lt;-helm-source-sync" style="stroke: #A80036; stroke-width: 1.0;"/><polygon fill="none" points="109,159.8125,116,139.8125,123,159.8125,109,159.8125" style="stroke: #A80036; stroke-width: 1.0;"/><!--MD5=[94019577c49d9fd63ba82dd181fa04ee]
@startuml
skinparam classFontStyle bold
skinparam captionFontStyle bold
title **Parents and Children of**\n**'helm-source-session-class'**\n\n
"helm-source-sync" <|- - "helm-source-session-class"
class "helm-source-sync"
"helm-source" <|- - "helm-source-sync"
class "helm-source"
class "helm-source-session-class" {
	__ some interesting slots __
	action
	candidates
	help-message
	keymap
}
note right of "helm-source-session-class"
	**helm-source-session-class**
end note
@enduml

PlantUML version 1.2020.02(Sun Mar 01 15:52:07 IST 2020)
(GPL source distribution)
Java Runtime: OpenJDK Runtime Environment
JVM: OpenJDK 64-Bit Server VM
Java Version: 11.0.11-ea+8-post-Debian-1
Operating System: Linux
Default Encoding: UTF-8
Language: en
Country: IN
--></g></svg>