<?xml version="1.0" encoding="UTF-8" standalone="no"?><svg xmlns="http://www.w3.org/2000/svg" xmlns:xlink="http://www.w3.org/1999/xlink" contentScriptType="application/ecmascript" contentStyleType="text/css" height="1063px" preserveAspectRatio="none" style="width:3873px;height:1063px;" version="1.1" viewBox="0 0 3873 1063" width="3873px" zoomAndPan="magnify"><defs><filter height="300%" id="fvi1fky2n6wnd" width="300%" x="-1" y="-1"><feGaussianBlur result="blurOut" stdDeviation="2.0"/><feColorMatrix in="blurOut" result="blurOut2" type="matrix" values="0 0 0 0 0 0 0 0 0 0 0 0 0 0 0 0 0 0 .4 0"/><feOffset dx="4.0" dy="4.0" in="blurOut2" result="blurOut3"/><feBlend in="SourceGraphic" in2="blurOut3" mode="normal"/></filter></defs><g><text fill="#000000" font-family="sans-serif" font-size="24" font-weight="bold" lengthAdjust="spacingAndGlyphs" textLength="321" x="1782" y="22.2773">Classes in library 'Helm'</text><text fill="#000000" font-family="sans-serif" font-size="24" font-weight="bold" lengthAdjust="spacingAndGlyphs" textLength="0" x="1946.5" y="50.2148"/><text fill="#000000" font-family="sans-serif" font-size="24" font-weight="bold" lengthAdjust="spacingAndGlyphs" textLength="0" x="1946.5" y="78.1523"/><!--MD5=[8ce10cd09361e4167f55d438848e6970]
cluster Other classes similar to 'helm-fd-class'--><polygon fill="#FFFFFF" filter="url(#fvi1fky2n6wnd)" points="22,501.8125,333,501.8125,340,524.1094,343,524.1094,343,835.8125,22,835.8125,22,501.8125" style="stroke: #000000; stroke-width: 1.5;"/><line style="stroke: #000000; stroke-width: 1.5;" x1="22" x2="340" y1="524.1094" y2="524.1094"/><text fill="#000000" font-family="sans-serif" font-size="14" font-weight="bold" lengthAdjust="spacingAndGlyphs" textLength="305" x="26" y="516.8076">Other classes similar to 'helm-fd-class'</text><!--MD5=[1d7d7e4c89e9aed475db4e8e47094d84]
cluster Other classes similar to 'helm-absolute-time-timers-class'--><polygon fill="#FFFFFF" filter="url(#fvi1fky2n6wnd)" points="2468,501.8125,2927,501.8125,2934,524.1094,2937,524.1094,2937,600.8125,2468,600.8125,2468,501.8125" style="stroke: #000000; stroke-width: 1.5;"/><line style="stroke: #000000; stroke-width: 1.5;" x1="2468" x2="2934" y1="524.1094" y2="524.1094"/><text fill="#000000" font-family="sans-serif" font-size="14" font-weight="bold" lengthAdjust="spacingAndGlyphs" textLength="453" x="2472" y="516.8076">Other classes similar to 'helm-absolute-time-timers-class'</text><!--MD5=[64376e55737c45266b98e7ea58f0e433]
cluster Other classes similar to 'helm-source-session-class'--><polygon fill="#FFFFFF" filter="url(#fvi1fky2n6wnd)" points="2961,501.8125,3378,501.8125,3385,524.1094,3388,524.1094,3388,1051.8125,2961,1051.8125,2961,501.8125" style="stroke: #000000; stroke-width: 1.5;"/><line style="stroke: #000000; stroke-width: 1.5;" x1="2961" x2="3385" y1="524.1094" y2="524.1094"/><text fill="#000000" font-family="sans-serif" font-size="14" font-weight="bold" lengthAdjust="spacingAndGlyphs" textLength="411" x="2965" y="516.8076">Other classes similar to 'helm-source-session-class'</text><!--MD5=[5fb8059fef4bce7eccbf3235476dbc4c]
cluster Other classes similar to 'helm-files-dired-source'--><polygon fill="#FFFFFF" filter="url(#fvi1fky2n6wnd)" points="1786,501.8125,2176,501.8125,2183,524.1094,2186,524.1094,2186,727.8125,1786,727.8125,1786,501.8125" style="stroke: #000000; stroke-width: 1.5;"/><line style="stroke: #000000; stroke-width: 1.5;" x1="1786" x2="2183" y1="524.1094" y2="524.1094"/><text fill="#000000" font-family="sans-serif" font-size="14" font-weight="bold" lengthAdjust="spacingAndGlyphs" textLength="384" x="1790" y="516.8076">Other classes similar to 'helm-files-dired-source'</text><!--MD5=[909ed6805a604b57f4d669b1baed76e3]
cluster Other classes similar to 'helm-source-in-file'--><polygon fill="#FFFFFF" filter="url(#fvi1fky2n6wnd)" points="1357,501.8125,1711,501.8125,1718,524.1094,1721,524.1094,1721,1051.8125,1357,1051.8125,1357,501.8125" style="stroke: #000000; stroke-width: 1.5;"/><line style="stroke: #000000; stroke-width: 1.5;" x1="1357" x2="1718" y1="524.1094" y2="524.1094"/><text fill="#000000" font-family="sans-serif" font-size="14" font-weight="bold" lengthAdjust="spacingAndGlyphs" textLength="348" x="1361" y="516.8076">Other classes similar to 'helm-source-in-file'</text><!--MD5=[1441e299cd506ca9dbbc97dd119b1228]
cluster Other classes similar to 'helm-source-dummy'--><polygon fill="#FFFFFF" filter="url(#fvi1fky2n6wnd)" points="3474,355.8125,3841,355.8125,3848,378.1094,3851,378.1094,3851,454.8125,3474,454.8125,3474,355.8125" style="stroke: #000000; stroke-width: 1.5;"/><line style="stroke: #000000; stroke-width: 1.5;" x1="3474" x2="3848" y1="378.1094" y2="378.1094"/><text fill="#000000" font-family="sans-serif" font-size="14" font-weight="bold" lengthAdjust="spacingAndGlyphs" textLength="361" x="3478" y="370.8076">Other classes similar to 'helm-source-dummy'</text><!--MD5=[91bb0adfdf7bf369d8d23bbe4e952f89]
class helm-grep-class--><rect fill="#FBFB77" filter="url(#fvi1fky2n6wnd)" height="48" id="helm-grep-class" style="stroke: #A80036; stroke-width: 1.5;" width="145" x="109.5" y="536.8125"/><ellipse cx="124.5" cy="552.8125" fill="#ADD1B2" rx="11" ry="11" style="stroke: #A80036; stroke-width: 1.0;"/><path d="M127.4688,558.4531 Q126.8906,558.75 126.25,558.8906 Q125.6094,559.0469 124.9063,559.0469 Q122.4063,559.0469 121.0781,557.4063 Q119.7656,555.75 119.7656,552.625 Q119.7656,549.5 121.0781,547.8438 Q122.4063,546.1875 124.9063,546.1875 Q125.6094,546.1875 126.25,546.3438 Q126.9063,546.5 127.4688,546.7969 L127.4688,549.5156 Q126.8438,548.9375 126.25,548.6719 Q125.6563,548.3906 125.0313,548.3906 Q123.6875,548.3906 123,549.4688 Q122.3125,550.5313 122.3125,552.625 Q122.3125,554.7188 123,555.7969 Q123.6875,556.8594 125.0313,556.8594 Q125.6563,556.8594 126.25,556.5938 Q126.8438,556.3125 127.4688,555.7344 L127.4688,558.4531 Z "/><text fill="#000000" font-family="sans-serif" font-size="12" font-weight="bold" lengthAdjust="spacingAndGlyphs" textLength="113" x="138.5" y="556.9668">helm-grep-class</text><line style="stroke: #A80036; stroke-width: 1.5;" x1="110.5" x2="253.5" y1="568.8125" y2="568.8125"/><line style="stroke: #A80036; stroke-width: 1.5;" x1="110.5" x2="253.5" y1="576.8125" y2="576.8125"/><!--MD5=[48c627d917d22eb9e4865aed3bf653fb]
class helm-grep-ag-class--><rect fill="#FBFB77" filter="url(#fvi1fky2n6wnd)" height="48" id="helm-grep-ag-class" style="stroke: #A80036; stroke-width: 1.5;" width="168" x="98" y="663.8125"/><ellipse cx="113" cy="679.8125" fill="#ADD1B2" rx="11" ry="11" style="stroke: #A80036; stroke-width: 1.0;"/><path d="M115.9688,685.4531 Q115.3906,685.75 114.75,685.8906 Q114.1094,686.0469 113.4063,686.0469 Q110.9063,686.0469 109.5781,684.4063 Q108.2656,682.75 108.2656,679.625 Q108.2656,676.5 109.5781,674.8438 Q110.9063,673.1875 113.4063,673.1875 Q114.1094,673.1875 114.75,673.3438 Q115.4063,673.5 115.9688,673.7969 L115.9688,676.5156 Q115.3438,675.9375 114.75,675.6719 Q114.1563,675.3906 113.5313,675.3906 Q112.1875,675.3906 111.5,676.4688 Q110.8125,677.5313 110.8125,679.625 Q110.8125,681.7188 111.5,682.7969 Q112.1875,683.8594 113.5313,683.8594 Q114.1563,683.8594 114.75,683.5938 Q115.3438,683.3125 115.9688,682.7344 L115.9688,685.4531 Z "/><text fill="#000000" font-family="sans-serif" font-size="12" font-weight="bold" lengthAdjust="spacingAndGlyphs" textLength="136" x="127" y="683.9668">helm-grep-ag-class</text><line style="stroke: #A80036; stroke-width: 1.5;" x1="99" x2="265" y1="695.8125" y2="695.8125"/><line style="stroke: #A80036; stroke-width: 1.5;" x1="99" x2="265" y1="703.8125" y2="703.8125"/><!--MD5=[d36bc6d3d79507f675f4471be5eaf52f]
class helm-gid-source--><rect fill="#FBFB77" filter="url(#fvi1fky2n6wnd)" height="48" id="helm-gid-source" style="stroke: #A80036; stroke-width: 1.5;" width="146" x="109" y="771.8125"/><ellipse cx="124" cy="787.8125" fill="#ADD1B2" rx="11" ry="11" style="stroke: #A80036; stroke-width: 1.0;"/><path d="M126.9688,793.4531 Q126.3906,793.75 125.75,793.8906 Q125.1094,794.0469 124.4063,794.0469 Q121.9063,794.0469 120.5781,792.4063 Q119.2656,790.75 119.2656,787.625 Q119.2656,784.5 120.5781,782.8438 Q121.9063,781.1875 124.4063,781.1875 Q125.1094,781.1875 125.75,781.3438 Q126.4063,781.5 126.9688,781.7969 L126.9688,784.5156 Q126.3438,783.9375 125.75,783.6719 Q125.1563,783.3906 124.5313,783.3906 Q123.1875,783.3906 122.5,784.4688 Q121.8125,785.5313 121.8125,787.625 Q121.8125,789.7188 122.5,790.7969 Q123.1875,791.8594 124.5313,791.8594 Q125.1563,791.8594 125.75,791.5938 Q126.3438,791.3125 126.9688,790.7344 L126.9688,793.4531 Z "/><text fill="#000000" font-family="sans-serif" font-size="12" font-weight="bold" lengthAdjust="spacingAndGlyphs" textLength="114" x="138" y="791.9668">helm-gid-source</text><line style="stroke: #A80036; stroke-width: 1.5;" x1="110" x2="254" y1="803.8125" y2="803.8125"/><line style="stroke: #A80036; stroke-width: 1.5;" x1="110" x2="254" y1="811.8125" y2="811.8125"/><!--MD5=[65c9e2a5e033ac2de329b35010304c74]
class helm-idle-time-timers-class--><rect fill="#FBFB77" filter="url(#fvi1fky2n6wnd)" height="48" id="helm-idle-time-timers-class" style="stroke: #A80036; stroke-width: 1.5;" width="224" x="2576" y="536.8125"/><ellipse cx="2591" cy="552.8125" fill="#ADD1B2" rx="11" ry="11" style="stroke: #A80036; stroke-width: 1.0;"/><path d="M2593.9688,558.4531 Q2593.3906,558.75 2592.75,558.8906 Q2592.1094,559.0469 2591.4063,559.0469 Q2588.9063,559.0469 2587.5781,557.4063 Q2586.2656,555.75 2586.2656,552.625 Q2586.2656,549.5 2587.5781,547.8438 Q2588.9063,546.1875 2591.4063,546.1875 Q2592.1094,546.1875 2592.75,546.3438 Q2593.4063,546.5 2593.9688,546.7969 L2593.9688,549.5156 Q2593.3438,548.9375 2592.75,548.6719 Q2592.1563,548.3906 2591.5313,548.3906 Q2590.1875,548.3906 2589.5,549.4688 Q2588.8125,550.5313 2588.8125,552.625 Q2588.8125,554.7188 2589.5,555.7969 Q2590.1875,556.8594 2591.5313,556.8594 Q2592.1563,556.8594 2592.75,556.5938 Q2593.3438,556.3125 2593.9688,555.7344 L2593.9688,558.4531 Z "/><text fill="#000000" font-family="sans-serif" font-size="12" font-weight="bold" lengthAdjust="spacingAndGlyphs" textLength="192" x="2605" y="556.9668">helm-idle-time-timers-class</text><line style="stroke: #A80036; stroke-width: 1.5;" x1="2577" x2="2799" y1="568.8125" y2="568.8125"/><line style="stroke: #A80036; stroke-width: 1.5;" x1="2577" x2="2799" y1="576.8125" y2="576.8125"/><!--MD5=[75687e4369f49c6cba1a6ff12ff0e7fa]
class helm-epa--><rect fill="#FBFB77" filter="url(#fvi1fky2n6wnd)" height="48" id="helm-epa" style="stroke: #A80036; stroke-width: 1.5;" width="98" x="2990" y="536.8125"/><ellipse cx="3005" cy="552.8125" fill="#ADD1B2" rx="11" ry="11" style="stroke: #A80036; stroke-width: 1.0;"/><path d="M3007.9688,558.4531 Q3007.3906,558.75 3006.75,558.8906 Q3006.1094,559.0469 3005.4063,559.0469 Q3002.9063,559.0469 3001.5781,557.4063 Q3000.2656,555.75 3000.2656,552.625 Q3000.2656,549.5 3001.5781,547.8438 Q3002.9063,546.1875 3005.4063,546.1875 Q3006.1094,546.1875 3006.75,546.3438 Q3007.4063,546.5 3007.9688,546.7969 L3007.9688,549.5156 Q3007.3438,548.9375 3006.75,548.6719 Q3006.1563,548.3906 3005.5313,548.3906 Q3004.1875,548.3906 3003.5,549.4688 Q3002.8125,550.5313 3002.8125,552.625 Q3002.8125,554.7188 3003.5,555.7969 Q3004.1875,556.8594 3005.5313,556.8594 Q3006.1563,556.8594 3006.75,556.5938 Q3007.3438,556.3125 3007.9688,555.7344 L3007.9688,558.4531 Z "/><text fill="#000000" font-family="sans-serif" font-size="12" font-weight="bold" lengthAdjust="spacingAndGlyphs" textLength="66" x="3019" y="556.9668">helm-epa</text><line style="stroke: #A80036; stroke-width: 1.5;" x1="2991" x2="3087" y1="568.8125" y2="568.8125"/><line style="stroke: #A80036; stroke-width: 1.5;" x1="2991" x2="3087" y1="576.8125" y2="576.8125"/><!--MD5=[3960967beb69c61591e67bd0b8c5ae1c]
class helm-esh-source--><rect fill="#FBFB77" filter="url(#fvi1fky2n6wnd)" height="48" id="helm-esh-source" style="stroke: #A80036; stroke-width: 1.5;" width="150" x="2995" y="663.8125"/><ellipse cx="3010" cy="679.8125" fill="#ADD1B2" rx="11" ry="11" style="stroke: #A80036; stroke-width: 1.0;"/><path d="M3012.9688,685.4531 Q3012.3906,685.75 3011.75,685.8906 Q3011.1094,686.0469 3010.4063,686.0469 Q3007.9063,686.0469 3006.5781,684.4063 Q3005.2656,682.75 3005.2656,679.625 Q3005.2656,676.5 3006.5781,674.8438 Q3007.9063,673.1875 3010.4063,673.1875 Q3011.1094,673.1875 3011.75,673.3438 Q3012.4063,673.5 3012.9688,673.7969 L3012.9688,676.5156 Q3012.3438,675.9375 3011.75,675.6719 Q3011.1563,675.3906 3010.5313,675.3906 Q3009.1875,675.3906 3008.5,676.4688 Q3007.8125,677.5313 3007.8125,679.625 Q3007.8125,681.7188 3008.5,682.7969 Q3009.1875,683.8594 3010.5313,683.8594 Q3011.1563,683.8594 3011.75,683.5938 Q3012.3438,683.3125 3012.9688,682.7344 L3012.9688,685.4531 Z "/><text fill="#000000" font-family="sans-serif" font-size="12" font-weight="bold" lengthAdjust="spacingAndGlyphs" textLength="118" x="3024" y="683.9668">helm-esh-source</text><line style="stroke: #A80036; stroke-width: 1.5;" x1="2996" x2="3144" y1="695.8125" y2="695.8125"/><line style="stroke: #A80036; stroke-width: 1.5;" x1="2996" x2="3144" y1="703.8125" y2="703.8125"/><!--MD5=[282aa25f9d306cf00c48aa2e4e60e732]
class helm-eshell-history-source--><rect fill="#FBFB77" filter="url(#fvi1fky2n6wnd)" height="48" id="helm-eshell-history-source" style="stroke: #A80036; stroke-width: 1.5;" width="222" x="2977" y="771.8125"/><ellipse cx="2992" cy="787.8125" fill="#ADD1B2" rx="11" ry="11" style="stroke: #A80036; stroke-width: 1.0;"/><path d="M2994.9688,793.4531 Q2994.3906,793.75 2993.75,793.8906 Q2993.1094,794.0469 2992.4063,794.0469 Q2989.9063,794.0469 2988.5781,792.4063 Q2987.2656,790.75 2987.2656,787.625 Q2987.2656,784.5 2988.5781,782.8438 Q2989.9063,781.1875 2992.4063,781.1875 Q2993.1094,781.1875 2993.75,781.3438 Q2994.4063,781.5 2994.9688,781.7969 L2994.9688,784.5156 Q2994.3438,783.9375 2993.75,783.6719 Q2993.1563,783.3906 2992.5313,783.3906 Q2991.1875,783.3906 2990.5,784.4688 Q2989.8125,785.5313 2989.8125,787.625 Q2989.8125,789.7188 2990.5,790.7969 Q2991.1875,791.8594 2992.5313,791.8594 Q2993.1563,791.8594 2993.75,791.5938 Q2994.3438,791.3125 2994.9688,790.7344 L2994.9688,793.4531 Z "/><text fill="#000000" font-family="sans-serif" font-size="12" font-weight="bold" lengthAdjust="spacingAndGlyphs" textLength="190" x="3006" y="791.9668">helm-eshell-history-source</text><line style="stroke: #A80036; stroke-width: 1.5;" x1="2978" x2="3198" y1="803.8125" y2="803.8125"/><line style="stroke: #A80036; stroke-width: 1.5;" x1="2978" x2="3198" y1="811.8125" y2="811.8125"/><!--MD5=[4700ddfab9e311ad1ae5061cdd5496ba]
class helm-source-ffiles--><rect fill="#FBFB77" filter="url(#fvi1fky2n6wnd)" height="48" id="helm-source-ffiles" style="stroke: #A80036; stroke-width: 1.5;" width="159" x="3008.5" y="879.8125"/><ellipse cx="3023.5" cy="895.8125" fill="#ADD1B2" rx="11" ry="11" style="stroke: #A80036; stroke-width: 1.0;"/><path d="M3026.4688,901.4531 Q3025.8906,901.75 3025.25,901.8906 Q3024.6094,902.0469 3023.9063,902.0469 Q3021.4063,902.0469 3020.0781,900.4063 Q3018.7656,898.75 3018.7656,895.625 Q3018.7656,892.5 3020.0781,890.8438 Q3021.4063,889.1875 3023.9063,889.1875 Q3024.6094,889.1875 3025.25,889.3438 Q3025.9063,889.5 3026.4688,889.7969 L3026.4688,892.5156 Q3025.8438,891.9375 3025.25,891.6719 Q3024.6563,891.3906 3024.0313,891.3906 Q3022.6875,891.3906 3022,892.4688 Q3021.3125,893.5313 3021.3125,895.625 Q3021.3125,897.7188 3022,898.7969 Q3022.6875,899.8594 3024.0313,899.8594 Q3024.6563,899.8594 3025.25,899.5938 Q3025.8438,899.3125 3026.4688,898.7344 L3026.4688,901.4531 Z "/><text fill="#000000" font-family="sans-serif" font-size="12" font-weight="bold" lengthAdjust="spacingAndGlyphs" textLength="127" x="3037.5" y="899.9668">helm-source-ffiles</text><line style="stroke: #A80036; stroke-width: 1.5;" x1="3009.5" x2="3166.5" y1="911.8125" y2="911.8125"/><line style="stroke: #A80036; stroke-width: 1.5;" x1="3009.5" x2="3166.5" y1="919.8125" y2="919.8125"/><!--MD5=[a7554553637232b99c06721dc00b929c]
class helm-imenu-source--><rect fill="#FBFB77" filter="url(#fvi1fky2n6wnd)" height="48" id="helm-imenu-source" style="stroke: #A80036; stroke-width: 1.5;" width="167" x="3004.5" y="987.8125"/><ellipse cx="3019.5" cy="1003.8125" fill="#ADD1B2" rx="11" ry="11" style="stroke: #A80036; stroke-width: 1.0;"/><path d="M3022.4688,1009.4531 Q3021.8906,1009.75 3021.25,1009.8906 Q3020.6094,1010.0469 3019.9063,1010.0469 Q3017.4063,1010.0469 3016.0781,1008.4063 Q3014.7656,1006.75 3014.7656,1003.625 Q3014.7656,1000.5 3016.0781,998.8438 Q3017.4063,997.1875 3019.9063,997.1875 Q3020.6094,997.1875 3021.25,997.3438 Q3021.9063,997.5 3022.4688,997.7969 L3022.4688,1000.5156 Q3021.8438,999.9375 3021.25,999.6719 Q3020.6563,999.3906 3020.0313,999.3906 Q3018.6875,999.3906 3018,1000.4688 Q3017.3125,1001.5313 3017.3125,1003.625 Q3017.3125,1005.7188 3018,1006.7969 Q3018.6875,1007.8594 3020.0313,1007.8594 Q3020.6563,1007.8594 3021.25,1007.5938 Q3021.8438,1007.3125 3022.4688,1006.7344 L3022.4688,1009.4531 Z "/><text fill="#000000" font-family="sans-serif" font-size="12" font-weight="bold" lengthAdjust="spacingAndGlyphs" textLength="135" x="3033.5" y="1007.9668">helm-imenu-source</text><line style="stroke: #A80036; stroke-width: 1.5;" x1="3005.5" x2="3170.5" y1="1019.8125" y2="1019.8125"/><line style="stroke: #A80036; stroke-width: 1.5;" x1="3005.5" x2="3170.5" y1="1027.8125" y2="1027.8125"/><!--MD5=[f9787a7e913788f0fbbca93390d6041a]
class helm-recentf-source--><rect fill="#FBFB77" filter="url(#fvi1fky2n6wnd)" height="48" id="helm-recentf-source" style="stroke: #A80036; stroke-width: 1.5;" width="175" x="1960.5" y="536.8125"/><ellipse cx="1975.5" cy="552.8125" fill="#ADD1B2" rx="11" ry="11" style="stroke: #A80036; stroke-width: 1.0;"/><path d="M1978.4688,558.4531 Q1977.8906,558.75 1977.25,558.8906 Q1976.6094,559.0469 1975.9063,559.0469 Q1973.4063,559.0469 1972.0781,557.4063 Q1970.7656,555.75 1970.7656,552.625 Q1970.7656,549.5 1972.0781,547.8438 Q1973.4063,546.1875 1975.9063,546.1875 Q1976.6094,546.1875 1977.25,546.3438 Q1977.9063,546.5 1978.4688,546.7969 L1978.4688,549.5156 Q1977.8438,548.9375 1977.25,548.6719 Q1976.6563,548.3906 1976.0313,548.3906 Q1974.6875,548.3906 1974,549.4688 Q1973.3125,550.5313 1973.3125,552.625 Q1973.3125,554.7188 1974,555.7969 Q1974.6875,556.8594 1976.0313,556.8594 Q1976.6563,556.8594 1977.25,556.5938 Q1977.8438,556.3125 1978.4688,555.7344 L1978.4688,558.4531 Z "/><text fill="#000000" font-family="sans-serif" font-size="12" font-weight="bold" lengthAdjust="spacingAndGlyphs" textLength="143" x="1989.5" y="556.9668">helm-recentf-source</text><line style="stroke: #A80036; stroke-width: 1.5;" x1="1961.5" x2="2134.5" y1="568.8125" y2="568.8125"/><line style="stroke: #A80036; stroke-width: 1.5;" x1="1961.5" x2="2134.5" y1="576.8125" y2="576.8125"/><!--MD5=[b49d18483e901ae1bf6135ad896f4fad]
class helm-files-in-current-dir-source--><rect fill="#FBFB77" filter="url(#fvi1fky2n6wnd)" height="48" id="helm-files-in-current-dir-source" style="stroke: #A80036; stroke-width: 1.5;" width="253" x="1916.5" y="663.8125"/><ellipse cx="1931.5" cy="679.8125" fill="#ADD1B2" rx="11" ry="11" style="stroke: #A80036; stroke-width: 1.0;"/><path d="M1934.4688,685.4531 Q1933.8906,685.75 1933.25,685.8906 Q1932.6094,686.0469 1931.9063,686.0469 Q1929.4063,686.0469 1928.0781,684.4063 Q1926.7656,682.75 1926.7656,679.625 Q1926.7656,676.5 1928.0781,674.8438 Q1929.4063,673.1875 1931.9063,673.1875 Q1932.6094,673.1875 1933.25,673.3438 Q1933.9063,673.5 1934.4688,673.7969 L1934.4688,676.5156 Q1933.8438,675.9375 1933.25,675.6719 Q1932.6563,675.3906 1932.0313,675.3906 Q1930.6875,675.3906 1930,676.4688 Q1929.3125,677.5313 1929.3125,679.625 Q1929.3125,681.7188 1930,682.7969 Q1930.6875,683.8594 1932.0313,683.8594 Q1932.6563,683.8594 1933.25,683.5938 Q1933.8438,683.3125 1934.4688,682.7344 L1934.4688,685.4531 Z "/><text fill="#000000" font-family="sans-serif" font-size="12" font-weight="bold" lengthAdjust="spacingAndGlyphs" textLength="221" x="1945.5" y="683.9668">helm-files-in-current-dir-source</text><line style="stroke: #A80036; stroke-width: 1.5;" x1="1917.5" x2="2168.5" y1="695.8125" y2="695.8125"/><line style="stroke: #A80036; stroke-width: 1.5;" x1="1917.5" x2="2168.5" y1="703.8125" y2="703.8125"/><!--MD5=[cea65451dee1c19877355cf9a9f1c806]
class helm-list-el-package-source--><rect fill="#FBFB77" filter="url(#fvi1fky2n6wnd)" height="48" id="helm-list-el-package-source" style="stroke: #A80036; stroke-width: 1.5;" width="229" x="1448.5" y="536.8125"/><ellipse cx="1463.5" cy="552.8125" fill="#ADD1B2" rx="11" ry="11" style="stroke: #A80036; stroke-width: 1.0;"/><path d="M1466.4688,558.4531 Q1465.8906,558.75 1465.25,558.8906 Q1464.6094,559.0469 1463.9063,559.0469 Q1461.4063,559.0469 1460.0781,557.4063 Q1458.7656,555.75 1458.7656,552.625 Q1458.7656,549.5 1460.0781,547.8438 Q1461.4063,546.1875 1463.9063,546.1875 Q1464.6094,546.1875 1465.25,546.3438 Q1465.9063,546.5 1466.4688,546.7969 L1466.4688,549.5156 Q1465.8438,548.9375 1465.25,548.6719 Q1464.6563,548.3906 1464.0313,548.3906 Q1462.6875,548.3906 1462,549.4688 Q1461.3125,550.5313 1461.3125,552.625 Q1461.3125,554.7188 1462,555.7969 Q1462.6875,556.8594 1464.0313,556.8594 Q1464.6563,556.8594 1465.25,556.5938 Q1465.8438,556.3125 1466.4688,555.7344 L1466.4688,558.4531 Z "/><text fill="#000000" font-family="sans-serif" font-size="12" font-weight="bold" lengthAdjust="spacingAndGlyphs" textLength="197" x="1477.5" y="556.9668">helm-list-el-package-source</text><line style="stroke: #A80036; stroke-width: 1.5;" x1="1449.5" x2="1676.5" y1="568.8125" y2="568.8125"/><line style="stroke: #A80036; stroke-width: 1.5;" x1="1449.5" x2="1676.5" y1="576.8125" y2="576.8125"/><!--MD5=[1d6ee517c209485192c7fd1a0dfbbf09]
class helm-info-source--><rect fill="#FBFB77" filter="url(#fvi1fky2n6wnd)" height="48" id="helm-info-source" style="stroke: #A80036; stroke-width: 1.5;" width="151" x="1487.5" y="663.8125"/><ellipse cx="1502.5" cy="679.8125" fill="#ADD1B2" rx="11" ry="11" style="stroke: #A80036; stroke-width: 1.0;"/><path d="M1505.4688,685.4531 Q1504.8906,685.75 1504.25,685.8906 Q1503.6094,686.0469 1502.9063,686.0469 Q1500.4063,686.0469 1499.0781,684.4063 Q1497.7656,682.75 1497.7656,679.625 Q1497.7656,676.5 1499.0781,674.8438 Q1500.4063,673.1875 1502.9063,673.1875 Q1503.6094,673.1875 1504.25,673.3438 Q1504.9063,673.5 1505.4688,673.7969 L1505.4688,676.5156 Q1504.8438,675.9375 1504.25,675.6719 Q1503.6563,675.3906 1503.0313,675.3906 Q1501.6875,675.3906 1501,676.4688 Q1500.3125,677.5313 1500.3125,679.625 Q1500.3125,681.7188 1501,682.7969 Q1501.6875,683.8594 1503.0313,683.8594 Q1503.6563,683.8594 1504.25,683.5938 Q1504.8438,683.3125 1505.4688,682.7344 L1505.4688,685.4531 Z "/><text fill="#000000" font-family="sans-serif" font-size="12" font-weight="bold" lengthAdjust="spacingAndGlyphs" textLength="119" x="1516.5" y="683.9668">helm-info-source</text><line style="stroke: #A80036; stroke-width: 1.5;" x1="1488.5" x2="1637.5" y1="695.8125" y2="695.8125"/><line style="stroke: #A80036; stroke-width: 1.5;" x1="1488.5" x2="1637.5" y1="703.8125" y2="703.8125"/><!--MD5=[56407064ffc9bf78a0cd848588044ef4]
class helm-locate-subdirs-source--><rect fill="#FBFB77" filter="url(#fvi1fky2n6wnd)" height="48" id="helm-locate-subdirs-source" style="stroke: #A80036; stroke-width: 1.5;" width="226" x="1450" y="771.8125"/><ellipse cx="1465" cy="787.8125" fill="#ADD1B2" rx="11" ry="11" style="stroke: #A80036; stroke-width: 1.0;"/><path d="M1467.9688,793.4531 Q1467.3906,793.75 1466.75,793.8906 Q1466.1094,794.0469 1465.4063,794.0469 Q1462.9063,794.0469 1461.5781,792.4063 Q1460.2656,790.75 1460.2656,787.625 Q1460.2656,784.5 1461.5781,782.8438 Q1462.9063,781.1875 1465.4063,781.1875 Q1466.1094,781.1875 1466.75,781.3438 Q1467.4063,781.5 1467.9688,781.7969 L1467.9688,784.5156 Q1467.3438,783.9375 1466.75,783.6719 Q1466.1563,783.3906 1465.5313,783.3906 Q1464.1875,783.3906 1463.5,784.4688 Q1462.8125,785.5313 1462.8125,787.625 Q1462.8125,789.7188 1463.5,790.7969 Q1464.1875,791.8594 1465.5313,791.8594 Q1466.1563,791.8594 1466.75,791.5938 Q1467.3438,791.3125 1467.9688,790.7344 L1467.9688,793.4531 Z "/><text fill="#000000" font-family="sans-serif" font-size="12" font-weight="bold" lengthAdjust="spacingAndGlyphs" textLength="194" x="1479" y="791.9668">helm-locate-subdirs-source</text><line style="stroke: #A80036; stroke-width: 1.5;" x1="1451" x2="1675" y1="803.8125" y2="803.8125"/><line style="stroke: #A80036; stroke-width: 1.5;" x1="1451" x2="1675" y1="811.8125" y2="811.8125"/><!--MD5=[073c45925f2697dc8d5dd1a44a8a3365]
class helm-moccur-class--><rect fill="#FBFB77" filter="url(#fvi1fky2n6wnd)" height="48" id="helm-moccur-class" style="stroke: #A80036; stroke-width: 1.5;" width="162" x="1482" y="879.8125"/><ellipse cx="1497" cy="895.8125" fill="#ADD1B2" rx="11" ry="11" style="stroke: #A80036; stroke-width: 1.0;"/><path d="M1499.9688,901.4531 Q1499.3906,901.75 1498.75,901.8906 Q1498.1094,902.0469 1497.4063,902.0469 Q1494.9063,902.0469 1493.5781,900.4063 Q1492.2656,898.75 1492.2656,895.625 Q1492.2656,892.5 1493.5781,890.8438 Q1494.9063,889.1875 1497.4063,889.1875 Q1498.1094,889.1875 1498.75,889.3438 Q1499.4063,889.5 1499.9688,889.7969 L1499.9688,892.5156 Q1499.3438,891.9375 1498.75,891.6719 Q1498.1563,891.3906 1497.5313,891.3906 Q1496.1875,891.3906 1495.5,892.4688 Q1494.8125,893.5313 1494.8125,895.625 Q1494.8125,897.7188 1495.5,898.7969 Q1496.1875,899.8594 1497.5313,899.8594 Q1498.1563,899.8594 1498.75,899.5938 Q1499.3438,899.3125 1499.9688,898.7344 L1499.9688,901.4531 Z "/><text fill="#000000" font-family="sans-serif" font-size="12" font-weight="bold" lengthAdjust="spacingAndGlyphs" textLength="130" x="1511" y="899.9668">helm-moccur-class</text><line style="stroke: #A80036; stroke-width: 1.5;" x1="1483" x2="1643" y1="911.8125" y2="911.8125"/><line style="stroke: #A80036; stroke-width: 1.5;" x1="1483" x2="1643" y1="919.8125" y2="919.8125"/><!--MD5=[6a7a1e548828873723640eef38a6053c]
class helm-semantic-source--><rect fill="#FBFB77" filter="url(#fvi1fky2n6wnd)" height="48" id="helm-semantic-source" style="stroke: #A80036; stroke-width: 1.5;" width="188" x="1469" y="987.8125"/><ellipse cx="1484" cy="1003.8125" fill="#ADD1B2" rx="11" ry="11" style="stroke: #A80036; stroke-width: 1.0;"/><path d="M1486.9688,1009.4531 Q1486.3906,1009.75 1485.75,1009.8906 Q1485.1094,1010.0469 1484.4063,1010.0469 Q1481.9063,1010.0469 1480.5781,1008.4063 Q1479.2656,1006.75 1479.2656,1003.625 Q1479.2656,1000.5 1480.5781,998.8438 Q1481.9063,997.1875 1484.4063,997.1875 Q1485.1094,997.1875 1485.75,997.3438 Q1486.4063,997.5 1486.9688,997.7969 L1486.9688,1000.5156 Q1486.3438,999.9375 1485.75,999.6719 Q1485.1563,999.3906 1484.5313,999.3906 Q1483.1875,999.3906 1482.5,1000.4688 Q1481.8125,1001.5313 1481.8125,1003.625 Q1481.8125,1005.7188 1482.5,1006.7969 Q1483.1875,1007.8594 1484.5313,1007.8594 Q1485.1563,1007.8594 1485.75,1007.5938 Q1486.3438,1007.3125 1486.9688,1006.7344 L1486.9688,1009.4531 Z "/><text fill="#000000" font-family="sans-serif" font-size="12" font-weight="bold" lengthAdjust="spacingAndGlyphs" textLength="156" x="1498" y="1007.9668">helm-semantic-source</text><line style="stroke: #A80036; stroke-width: 1.5;" x1="1470" x2="1656" y1="1019.8125" y2="1019.8125"/><line style="stroke: #A80036; stroke-width: 1.5;" x1="1470" x2="1656" y1="1027.8125" y2="1027.8125"/><!--MD5=[e7e10cea49efd04a6bea9ed9f44f1841]
class helm-type-function--><rect fill="#FBFB77" filter="url(#fvi1fky2n6wnd)" height="48" id="helm-type-function" style="stroke: #A80036; stroke-width: 1.5;" width="166" x="3492" y="390.8125"/><ellipse cx="3507" cy="406.8125" fill="#ADD1B2" rx="11" ry="11" style="stroke: #A80036; stroke-width: 1.0;"/><path d="M3509.9688,412.4531 Q3509.3906,412.75 3508.75,412.8906 Q3508.1094,413.0469 3507.4063,413.0469 Q3504.9063,413.0469 3503.5781,411.4063 Q3502.2656,409.75 3502.2656,406.625 Q3502.2656,403.5 3503.5781,401.8438 Q3504.9063,400.1875 3507.4063,400.1875 Q3508.1094,400.1875 3508.75,400.3438 Q3509.4063,400.5 3509.9688,400.7969 L3509.9688,403.5156 Q3509.3438,402.9375 3508.75,402.6719 Q3508.1563,402.3906 3507.5313,402.3906 Q3506.1875,402.3906 3505.5,403.4688 Q3504.8125,404.5313 3504.8125,406.625 Q3504.8125,408.7188 3505.5,409.7969 Q3506.1875,410.8594 3507.5313,410.8594 Q3508.1563,410.8594 3508.75,410.5938 Q3509.3438,410.3125 3509.9688,409.7344 L3509.9688,412.4531 Z "/><text fill="#000000" font-family="sans-serif" font-size="12" font-weight="bold" lengthAdjust="spacingAndGlyphs" textLength="134" x="3521" y="410.9668">helm-type-function</text><line style="stroke: #A80036; stroke-width: 1.5;" x1="3493" x2="3657" y1="422.8125" y2="422.8125"/><line style="stroke: #A80036; stroke-width: 1.5;" x1="3493" x2="3657" y1="430.8125" y2="430.8125"/><!--MD5=[78e52b23f8e756ae73535f85f4ae9d39]
class helm-locate-source--><rect fill="#FBFB77" filter="url(#fvi1fky2n6wnd)" height="48" id="helm-locate-source" style="stroke: #A80036; stroke-width: 1.5;" width="168" x="533" y="536.8125"/><ellipse cx="548" cy="552.8125" fill="#ADD1B2" rx="11" ry="11" style="stroke: #A80036; stroke-width: 1.0;"/><path d="M550.9688,558.4531 Q550.3906,558.75 549.75,558.8906 Q549.1094,559.0469 548.4063,559.0469 Q545.9063,559.0469 544.5781,557.4063 Q543.2656,555.75 543.2656,552.625 Q543.2656,549.5 544.5781,547.8438 Q545.9063,546.1875 548.4063,546.1875 Q549.1094,546.1875 549.75,546.3438 Q550.4063,546.5 550.9688,546.7969 L550.9688,549.5156 Q550.3438,548.9375 549.75,548.6719 Q549.1563,548.3906 548.5313,548.3906 Q547.1875,548.3906 546.5,549.4688 Q545.8125,550.5313 545.8125,552.625 Q545.8125,554.7188 546.5,555.7969 Q547.1875,556.8594 548.5313,556.8594 Q549.1563,556.8594 549.75,556.5938 Q550.3438,556.3125 550.9688,555.7344 L550.9688,558.4531 Z "/><text fill="#000000" font-family="sans-serif" font-size="12" font-weight="bold" lengthAdjust="spacingAndGlyphs" textLength="136" x="562" y="556.9668">helm-locate-source</text><line style="stroke: #A80036; stroke-width: 1.5;" x1="534" x2="700" y1="568.8125" y2="568.8125"/><line style="stroke: #A80036; stroke-width: 1.5;" x1="534" x2="700" y1="576.8125" y2="576.8125"/><!--MD5=[12d16a9c65828dace8d907a7ab3ef450]
class helm-source-async--><rect fill="#FBFB77" filter="url(#fvi1fky2n6wnd)" height="86.4141" id="helm-source-async" style="stroke: #A80036; stroke-width: 1.5;" width="165" x="297.5" y="225.8125"/><ellipse cx="312.5" cy="241.8125" fill="#ADD1B2" rx="11" ry="11" style="stroke: #A80036; stroke-width: 1.0;"/><path d="M315.4688,247.4531 Q314.8906,247.75 314.25,247.8906 Q313.6094,248.0469 312.9063,248.0469 Q310.4063,248.0469 309.0781,246.4063 Q307.7656,244.75 307.7656,241.625 Q307.7656,238.5 309.0781,236.8438 Q310.4063,235.1875 312.9063,235.1875 Q313.6094,235.1875 314.25,235.3438 Q314.9063,235.5 315.4688,235.7969 L315.4688,238.5156 Q314.8438,237.9375 314.25,237.6719 Q313.6563,237.3906 313.0313,237.3906 Q311.6875,237.3906 311,238.4688 Q310.3125,239.5313 310.3125,241.625 Q310.3125,243.7188 311,244.7969 Q311.6875,245.8594 313.0313,245.8594 Q313.6563,245.8594 314.25,245.5938 Q314.8438,245.3125 315.4688,244.7344 L315.4688,247.4531 Z "/><text fill="#000000" font-family="sans-serif" font-size="12" font-weight="bold" lengthAdjust="spacingAndGlyphs" textLength="133" x="326.5" y="245.9668">helm-source-async</text><line style="stroke: #A80036; stroke-width: 1.5;" x1="298.5" x2="461.5" y1="257.8125" y2="257.8125"/><text fill="#000000" font-family="sans-serif" font-size="11" lengthAdjust="spacingAndGlyphs" textLength="141" x="303.5" y="272.0229">Use this class to define a</text><text fill="#000000" font-family="sans-serif" font-size="11" lengthAdjust="spacingAndGlyphs" textLength="126" x="303.5" y="284.8276">helm source calling an</text><text fill="#000000" font-family="sans-serif" font-size="11" lengthAdjust="spacingAndGlyphs" textLength="99" x="303.5" y="297.6323">external process.</text><line style="stroke: #A80036; stroke-width: 1.0;" x1="298.5" x2="461.5" y1="304.2266" y2="304.2266"/><line style="stroke: #A80036; stroke-width: 1.0;" x1="298.5" x2="461.5" y1="306.2266" y2="306.2266"/><!--MD5=[2e3d3b2922e1daf59c103872c87a469e]
class helm-locate-override-inheritor--><rect fill="#FBFB77" filter="url(#fvi1fky2n6wnd)" height="48" id="helm-locate-override-inheritor" style="stroke: #A80036; stroke-width: 1.5;" width="246" x="608" y="390.8125"/><ellipse cx="623" cy="406.8125" fill="#ADD1B2" rx="11" ry="11" style="stroke: #A80036; stroke-width: 1.0;"/><path d="M625.9688,412.4531 Q625.3906,412.75 624.75,412.8906 Q624.1094,413.0469 623.4063,413.0469 Q620.9063,413.0469 619.5781,411.4063 Q618.2656,409.75 618.2656,406.625 Q618.2656,403.5 619.5781,401.8438 Q620.9063,400.1875 623.4063,400.1875 Q624.1094,400.1875 624.75,400.3438 Q625.4063,400.5 625.9688,400.7969 L625.9688,403.5156 Q625.3438,402.9375 624.75,402.6719 Q624.1563,402.3906 623.5313,402.3906 Q622.1875,402.3906 621.5,403.4688 Q620.8125,404.5313 620.8125,406.625 Q620.8125,408.7188 621.5,409.7969 Q622.1875,410.8594 623.5313,410.8594 Q624.1563,410.8594 624.75,410.5938 Q625.3438,410.3125 625.9688,409.7344 L625.9688,412.4531 Z "/><text fill="#000000" font-family="sans-serif" font-size="12" font-weight="bold" lengthAdjust="spacingAndGlyphs" textLength="214" x="637" y="410.9668">helm-locate-override-inheritor</text><line style="stroke: #A80036; stroke-width: 1.5;" x1="609" x2="853" y1="422.8125" y2="422.8125"/><line style="stroke: #A80036; stroke-width: 1.5;" x1="609" x2="853" y1="430.8125" y2="430.8125"/><!--MD5=[d7d577ca8c64ccce694dba4b3c283648]
class helm-type-file--><rect fill="#FBFB77" filter="url(#fvi1fky2n6wnd)" height="73.6094" id="helm-type-file" style="stroke: #A80036; stroke-width: 1.5;" width="162" x="1093" y="231.8125"/><ellipse cx="1122.4" cy="247.8125" fill="#ADD1B2" rx="11" ry="11" style="stroke: #A80036; stroke-width: 1.0;"/><path d="M1125.3688,253.4531 Q1124.7906,253.75 1124.15,253.8906 Q1123.5094,254.0469 1122.8063,254.0469 Q1120.3063,254.0469 1118.9781,252.4063 Q1117.6656,250.75 1117.6656,247.625 Q1117.6656,244.5 1118.9781,242.8438 Q1120.3063,241.1875 1122.8063,241.1875 Q1123.5094,241.1875 1124.15,241.3438 Q1124.8063,241.5 1125.3688,241.7969 L1125.3688,244.5156 Q1124.7438,243.9375 1124.15,243.6719 Q1123.5563,243.3906 1122.9313,243.3906 Q1121.5875,243.3906 1120.9,244.4688 Q1120.2125,245.5313 1120.2125,247.625 Q1120.2125,249.7188 1120.9,250.7969 Q1121.5875,251.8594 1122.9313,251.8594 Q1123.5563,251.8594 1124.15,251.5938 Q1124.7438,251.3125 1125.3688,250.7344 L1125.3688,253.4531 Z "/><text fill="#000000" font-family="sans-serif" font-size="12" font-weight="bold" lengthAdjust="spacingAndGlyphs" textLength="98" x="1139.6" y="251.9668">helm-type-file</text><line style="stroke: #A80036; stroke-width: 1.5;" x1="1094" x2="1254" y1="263.8125" y2="263.8125"/><text fill="#000000" font-family="sans-serif" font-size="11" lengthAdjust="spacingAndGlyphs" textLength="150" x="1099" y="278.0229">A class to define helm type</text><text fill="#000000" font-family="sans-serif" font-size="11" lengthAdjust="spacingAndGlyphs" textLength="21" x="1099" y="290.8276">file.</text><line style="stroke: #A80036; stroke-width: 1.0;" x1="1094" x2="1254" y1="297.4219" y2="297.4219"/><line style="stroke: #A80036; stroke-width: 1.0;" x1="1094" x2="1254" y1="299.4219" y2="299.4219"/><!--MD5=[11858bbdb8c329cf3bf1e5498cb0b794]
class helm-file-cache--><rect fill="#FBFB77" filter="url(#fvi1fky2n6wnd)" height="48" id="helm-file-cache" style="stroke: #A80036; stroke-width: 1.5;" width="139" x="1234.5" y="390.8125"/><ellipse cx="1249.5" cy="406.8125" fill="#ADD1B2" rx="11" ry="11" style="stroke: #A80036; stroke-width: 1.0;"/><path d="M1252.4688,412.4531 Q1251.8906,412.75 1251.25,412.8906 Q1250.6094,413.0469 1249.9063,413.0469 Q1247.4063,413.0469 1246.0781,411.4063 Q1244.7656,409.75 1244.7656,406.625 Q1244.7656,403.5 1246.0781,401.8438 Q1247.4063,400.1875 1249.9063,400.1875 Q1250.6094,400.1875 1251.25,400.3438 Q1251.9063,400.5 1252.4688,400.7969 L1252.4688,403.5156 Q1251.8438,402.9375 1251.25,402.6719 Q1250.6563,402.3906 1250.0313,402.3906 Q1248.6875,402.3906 1248,403.4688 Q1247.3125,404.5313 1247.3125,406.625 Q1247.3125,408.7188 1248,409.7969 Q1248.6875,410.8594 1250.0313,410.8594 Q1250.6563,410.8594 1251.25,410.5938 Q1251.8438,410.3125 1252.4688,409.7344 L1252.4688,412.4531 Z "/><text fill="#000000" font-family="sans-serif" font-size="12" font-weight="bold" lengthAdjust="spacingAndGlyphs" textLength="107" x="1263.5" y="410.9668">helm-file-cache</text><line style="stroke: #A80036; stroke-width: 1.5;" x1="1235.5" x2="1372.5" y1="422.8125" y2="422.8125"/><line style="stroke: #A80036; stroke-width: 1.5;" x1="1235.5" x2="1372.5" y1="430.8125" y2="430.8125"/><!--MD5=[df56542e8c7b1aabe649dc484b739778]
class helm-source-in-buffer--><rect fill="#FBFB77" filter="url(#fvi1fky2n6wnd)" height="86.4141" id="helm-source-in-buffer" style="stroke: #A80036; stroke-width: 1.5;" width="185" x="1590.5" y="225.8125"/><ellipse cx="1605.5" cy="241.8125" fill="#ADD1B2" rx="11" ry="11" style="stroke: #A80036; stroke-width: 1.0;"/><path d="M1608.4688,247.4531 Q1607.8906,247.75 1607.25,247.8906 Q1606.6094,248.0469 1605.9063,248.0469 Q1603.4063,248.0469 1602.0781,246.4063 Q1600.7656,244.75 1600.7656,241.625 Q1600.7656,238.5 1602.0781,236.8438 Q1603.4063,235.1875 1605.9063,235.1875 Q1606.6094,235.1875 1607.25,235.3438 Q1607.9063,235.5 1608.4688,235.7969 L1608.4688,238.5156 Q1607.8438,237.9375 1607.25,237.6719 Q1606.6563,237.3906 1606.0313,237.3906 Q1604.6875,237.3906 1604,238.4688 Q1603.3125,239.5313 1603.3125,241.625 Q1603.3125,243.7188 1604,244.7969 Q1604.6875,245.8594 1606.0313,245.8594 Q1606.6563,245.8594 1607.25,245.5938 Q1607.8438,245.3125 1608.4688,244.7344 L1608.4688,247.4531 Z "/><text fill="#000000" font-family="sans-serif" font-size="12" font-weight="bold" lengthAdjust="spacingAndGlyphs" textLength="153" x="1619.5" y="245.9668">helm-source-in-buffer</text><line style="stroke: #A80036; stroke-width: 1.5;" x1="1591.5" x2="1774.5" y1="257.8125" y2="257.8125"/><text fill="#000000" font-family="sans-serif" font-size="11" lengthAdjust="spacingAndGlyphs" textLength="167" x="1596.5" y="272.0229">Use this source to make helm</text><text fill="#000000" font-family="sans-serif" font-size="11" lengthAdjust="spacingAndGlyphs" textLength="154" x="1596.5" y="284.8276">sources storing candidates</text><text fill="#000000" font-family="sans-serif" font-size="11" lengthAdjust="spacingAndGlyphs" textLength="85" x="1596.5" y="297.6323">inside a buffer.</text><line style="stroke: #A80036; stroke-width: 1.0;" x1="1591.5" x2="1774.5" y1="304.2266" y2="304.2266"/><line style="stroke: #A80036; stroke-width: 1.0;" x1="1591.5" x2="1774.5" y1="306.2266" y2="306.2266"/><!--MD5=[c55ffa29bbb752794a043d0ccea5fc00]
class helm-browse-project-source--><rect fill="#FBFB77" filter="url(#fvi1fky2n6wnd)" height="86.4141" id="helm-browse-project-source" style="stroke: #A80036; stroke-width: 1.5;" width="232" x="1018" y="517.8125"/><ellipse cx="1033" cy="533.8125" fill="#ADD1B2" rx="11" ry="11" style="stroke: #A80036; stroke-width: 1.0;"/><path d="M1035.9688,539.4531 Q1035.3906,539.75 1034.75,539.8906 Q1034.1094,540.0469 1033.4063,540.0469 Q1030.9063,540.0469 1029.5781,538.4063 Q1028.2656,536.75 1028.2656,533.625 Q1028.2656,530.5 1029.5781,528.8438 Q1030.9063,527.1875 1033.4063,527.1875 Q1034.1094,527.1875 1034.75,527.3438 Q1035.4063,527.5 1035.9688,527.7969 L1035.9688,530.5156 Q1035.3438,529.9375 1034.75,529.6719 Q1034.1563,529.3906 1033.5313,529.3906 Q1032.1875,529.3906 1031.5,530.4688 Q1030.8125,531.5313 1030.8125,533.625 Q1030.8125,535.7188 1031.5,536.7969 Q1032.1875,537.8594 1033.5313,537.8594 Q1034.1563,537.8594 1034.75,537.5938 Q1035.3438,537.3125 1035.9688,536.7344 L1035.9688,539.4531 Z "/><text fill="#000000" font-family="sans-serif" font-size="12" font-weight="bold" lengthAdjust="spacingAndGlyphs" textLength="200" x="1047" y="537.9668">helm-browse-project-source</text><line style="stroke: #A80036; stroke-width: 1.5;" x1="1019" x2="1249" y1="549.8125" y2="549.8125"/><text fill="#000000" font-family="sans-serif" font-size="11" lengthAdjust="spacingAndGlyphs" textLength="149" x="1024" y="564.0229">Class to define a source in</text><text fill="#000000" font-family="sans-serif" font-size="11" lengthAdjust="spacingAndGlyphs" textLength="177" x="1024" y="576.8276">`helm-browse-project' handling</text><text fill="#000000" font-family="sans-serif" font-size="11" lengthAdjust="spacingAndGlyphs" textLength="21" x="1024" y="589.6323">non</text><line style="stroke: #A80036; stroke-width: 1.0;" x1="1019" x2="1249" y1="596.2266" y2="596.2266"/><line style="stroke: #A80036; stroke-width: 1.0;" x1="1019" x2="1249" y1="598.2266" y2="598.2266"/><!--MD5=[473c7582700aad271b06bfe20c99b25e]
class helm-browse-project-override-inheritor--><rect fill="#FBFB77" filter="url(#fvi1fky2n6wnd)" height="48" id="helm-browse-project-override-inheritor" style="stroke: #A80036; stroke-width: 1.5;" width="310" x="889" y="390.8125"/><ellipse cx="904" cy="406.8125" fill="#ADD1B2" rx="11" ry="11" style="stroke: #A80036; stroke-width: 1.0;"/><path d="M906.9688,412.4531 Q906.3906,412.75 905.75,412.8906 Q905.1094,413.0469 904.4063,413.0469 Q901.9063,413.0469 900.5781,411.4063 Q899.2656,409.75 899.2656,406.625 Q899.2656,403.5 900.5781,401.8438 Q901.9063,400.1875 904.4063,400.1875 Q905.1094,400.1875 905.75,400.3438 Q906.4063,400.5 906.9688,400.7969 L906.9688,403.5156 Q906.3438,402.9375 905.75,402.6719 Q905.1563,402.3906 904.5313,402.3906 Q903.1875,402.3906 902.5,403.4688 Q901.8125,404.5313 901.8125,406.625 Q901.8125,408.7188 902.5,409.7969 Q903.1875,410.8594 904.5313,410.8594 Q905.1563,410.8594 905.75,410.5938 Q906.3438,410.3125 906.9688,409.7344 L906.9688,412.4531 Z "/><text fill="#000000" font-family="sans-serif" font-size="12" font-weight="bold" lengthAdjust="spacingAndGlyphs" textLength="278" x="918" y="410.9668">helm-browse-project-override-inheritor</text><line style="stroke: #A80036; stroke-width: 1.5;" x1="890" x2="1198" y1="422.8125" y2="422.8125"/><line style="stroke: #A80036; stroke-width: 1.5;" x1="890" x2="1198" y1="430.8125" y2="430.8125"/><!--MD5=[bd2ea1af02554a0352e5fd98d33b66ab]
class helm-fd-class--><rect fill="#FBFB77" filter="url(#fvi1fky2n6wnd)" height="48" id="helm-fd-class" style="stroke: #A80036; stroke-width: 1.5;" width="126" x="119" y="390.8125"/><ellipse cx="134" cy="406.8125" fill="#ADD1B2" rx="11" ry="11" style="stroke: #A80036; stroke-width: 1.0;"/><path d="M136.9688,412.4531 Q136.3906,412.75 135.75,412.8906 Q135.1094,413.0469 134.4063,413.0469 Q131.9063,413.0469 130.5781,411.4063 Q129.2656,409.75 129.2656,406.625 Q129.2656,403.5 130.5781,401.8438 Q131.9063,400.1875 134.4063,400.1875 Q135.1094,400.1875 135.75,400.3438 Q136.4063,400.5 136.9688,400.7969 L136.9688,403.5156 Q136.3438,402.9375 135.75,402.6719 Q135.1563,402.3906 134.5313,402.3906 Q133.1875,402.3906 132.5,403.4688 Q131.8125,404.5313 131.8125,406.625 Q131.8125,408.7188 132.5,409.7969 Q133.1875,410.8594 134.5313,410.8594 Q135.1563,410.8594 135.75,410.5938 Q136.3438,410.3125 136.9688,409.7344 L136.9688,412.4531 Z "/><text fill="#000000" font-family="sans-serif" font-size="12" font-weight="bold" lengthAdjust="spacingAndGlyphs" textLength="94" x="148" y="410.9668">helm-fd-class</text><line style="stroke: #A80036; stroke-width: 1.5;" x1="120" x2="244" y1="422.8125" y2="422.8125"/><line style="stroke: #A80036; stroke-width: 1.5;" x1="120" x2="244" y1="430.8125" y2="430.8125"/><!--MD5=[b0e60113aba2bebbe59d6cbba30a4a7f]
class helm-absolute-time-timers-class--><rect fill="#FBFB77" filter="url(#fvi1fky2n6wnd)" height="48" id="helm-absolute-time-timers-class" style="stroke: #A80036; stroke-width: 1.5;" width="261" x="2557.5" y="390.8125"/><ellipse cx="2572.5" cy="406.8125" fill="#ADD1B2" rx="11" ry="11" style="stroke: #A80036; stroke-width: 1.0;"/><path d="M2575.4688,412.4531 Q2574.8906,412.75 2574.25,412.8906 Q2573.6094,413.0469 2572.9063,413.0469 Q2570.4063,413.0469 2569.0781,411.4063 Q2567.7656,409.75 2567.7656,406.625 Q2567.7656,403.5 2569.0781,401.8438 Q2570.4063,400.1875 2572.9063,400.1875 Q2573.6094,400.1875 2574.25,400.3438 Q2574.9063,400.5 2575.4688,400.7969 L2575.4688,403.5156 Q2574.8438,402.9375 2574.25,402.6719 Q2573.6563,402.3906 2573.0313,402.3906 Q2571.6875,402.3906 2571,403.4688 Q2570.3125,404.5313 2570.3125,406.625 Q2570.3125,408.7188 2571,409.7969 Q2571.6875,410.8594 2573.0313,410.8594 Q2573.6563,410.8594 2574.25,410.5938 Q2574.8438,410.3125 2575.4688,409.7344 L2575.4688,412.4531 Z "/><text fill="#000000" font-family="sans-serif" font-size="12" font-weight="bold" lengthAdjust="spacingAndGlyphs" textLength="229" x="2586.5" y="410.9668">helm-absolute-time-timers-class</text><line style="stroke: #A80036; stroke-width: 1.5;" x1="2558.5" x2="2817.5" y1="422.8125" y2="422.8125"/><line style="stroke: #A80036; stroke-width: 1.5;" x1="2558.5" x2="2817.5" y1="430.8125" y2="430.8125"/><!--MD5=[29825b4f2a07190321f66d6028a4dd26]
class helm-source-sync--><rect fill="#FBFB77" filter="url(#fvi1fky2n6wnd)" height="86.4141" id="helm-source-sync" style="stroke: #A80036; stroke-width: 1.5;" width="170" x="2865" y="225.8125"/><ellipse cx="2886.3" cy="241.8125" fill="#ADD1B2" rx="11" ry="11" style="stroke: #A80036; stroke-width: 1.0;"/><path d="M2889.2688,247.4531 Q2888.6906,247.75 2888.05,247.8906 Q2887.4094,248.0469 2886.7063,248.0469 Q2884.2063,248.0469 2882.8781,246.4063 Q2881.5656,244.75 2881.5656,241.625 Q2881.5656,238.5 2882.8781,236.8438 Q2884.2063,235.1875 2886.7063,235.1875 Q2887.4094,235.1875 2888.05,235.3438 Q2888.7063,235.5 2889.2688,235.7969 L2889.2688,238.5156 Q2888.6438,237.9375 2888.05,237.6719 Q2887.4563,237.3906 2886.8313,237.3906 Q2885.4875,237.3906 2884.8,238.4688 Q2884.1125,239.5313 2884.1125,241.625 Q2884.1125,243.7188 2884.8,244.7969 Q2885.4875,245.8594 2886.8313,245.8594 Q2887.4563,245.8594 2888.05,245.5938 Q2888.6438,245.3125 2889.2688,244.7344 L2889.2688,247.4531 Z "/><text fill="#000000" font-family="sans-serif" font-size="12" font-weight="bold" lengthAdjust="spacingAndGlyphs" textLength="124" x="2901.7" y="245.9668">helm-source-sync</text><line style="stroke: #A80036; stroke-width: 1.5;" x1="2866" x2="3034" y1="257.8125" y2="257.8125"/><text fill="#000000" font-family="sans-serif" font-size="11" lengthAdjust="spacingAndGlyphs" textLength="158" x="2871" y="272.0229">Use this class to make helm</text><text fill="#000000" font-family="sans-serif" font-size="11" lengthAdjust="spacingAndGlyphs" textLength="124" x="2871" y="284.8276">sources using a list of</text><text fill="#000000" font-family="sans-serif" font-size="11" lengthAdjust="spacingAndGlyphs" textLength="66" x="2871" y="297.6323">candidates.</text><line style="stroke: #A80036; stroke-width: 1.0;" x1="2866" x2="3034" y1="304.2266" y2="304.2266"/><line style="stroke: #A80036; stroke-width: 1.0;" x1="2866" x2="3034" y1="306.2266" y2="306.2266"/><!--MD5=[d89fbe3a66aa0ad58442d3fbb0e3c04d]
class helm-type-timers--><rect fill="#FBFB77" filter="url(#fvi1fky2n6wnd)" height="73.6094" id="helm-type-timers" style="stroke: #A80036; stroke-width: 1.5;" width="162" x="2668" y="231.8125"/><ellipse cx="2687.05" cy="247.8125" fill="#ADD1B2" rx="11" ry="11" style="stroke: #A80036; stroke-width: 1.0;"/><path d="M2690.0188,253.4531 Q2689.4406,253.75 2688.8,253.8906 Q2688.1594,254.0469 2687.4563,254.0469 Q2684.9563,254.0469 2683.6281,252.4063 Q2682.3156,250.75 2682.3156,247.625 Q2682.3156,244.5 2683.6281,242.8438 Q2684.9563,241.1875 2687.4563,241.1875 Q2688.1594,241.1875 2688.8,241.3438 Q2689.4563,241.5 2690.0188,241.7969 L2690.0188,244.5156 Q2689.3938,243.9375 2688.8,243.6719 Q2688.2063,243.3906 2687.5813,243.3906 Q2686.2375,243.3906 2685.55,244.4688 Q2684.8625,245.5313 2684.8625,247.625 Q2684.8625,249.7188 2685.55,250.7969 Q2686.2375,251.8594 2687.5813,251.8594 Q2688.2063,251.8594 2688.8,251.5938 Q2689.3938,251.3125 2690.0188,250.7344 L2690.0188,253.4531 Z "/><text fill="#000000" font-family="sans-serif" font-size="12" font-weight="bold" lengthAdjust="spacingAndGlyphs" textLength="121" x="2701.95" y="251.9668">helm-type-timers</text><line style="stroke: #A80036; stroke-width: 1.5;" x1="2669" x2="2829" y1="263.8125" y2="263.8125"/><text fill="#000000" font-family="sans-serif" font-size="11" lengthAdjust="spacingAndGlyphs" textLength="150" x="2674" y="278.0229">A class to define helm type</text><text fill="#000000" font-family="sans-serif" font-size="11" lengthAdjust="spacingAndGlyphs" textLength="41" x="2674" y="290.8276">timers.</text><line style="stroke: #A80036; stroke-width: 1.0;" x1="2669" x2="2829" y1="297.4219" y2="297.4219"/><line style="stroke: #A80036; stroke-width: 1.0;" x1="2669" x2="2829" y1="299.4219" y2="299.4219"/><!--MD5=[9bb915cdd04b5f6bf4c2c1633cbdfbdc]
class helm-M-x-class--><rect fill="#FBFB77" filter="url(#fvi1fky2n6wnd)" height="48" id="helm-M-x-class" style="stroke: #A80036; stroke-width: 1.5;" width="136" x="3109" y="390.8125"/><ellipse cx="3124" cy="406.8125" fill="#ADD1B2" rx="11" ry="11" style="stroke: #A80036; stroke-width: 1.0;"/><path d="M3126.9688,412.4531 Q3126.3906,412.75 3125.75,412.8906 Q3125.1094,413.0469 3124.4063,413.0469 Q3121.9063,413.0469 3120.5781,411.4063 Q3119.2656,409.75 3119.2656,406.625 Q3119.2656,403.5 3120.5781,401.8438 Q3121.9063,400.1875 3124.4063,400.1875 Q3125.1094,400.1875 3125.75,400.3438 Q3126.4063,400.5 3126.9688,400.7969 L3126.9688,403.5156 Q3126.3438,402.9375 3125.75,402.6719 Q3125.1563,402.3906 3124.5313,402.3906 Q3123.1875,402.3906 3122.5,403.4688 Q3121.8125,404.5313 3121.8125,406.625 Q3121.8125,408.7188 3122.5,409.7969 Q3123.1875,410.8594 3124.5313,410.8594 Q3125.1563,410.8594 3125.75,410.5938 Q3126.3438,410.3125 3126.9688,409.7344 L3126.9688,412.4531 Z "/><text fill="#000000" font-family="sans-serif" font-size="12" font-weight="bold" lengthAdjust="spacingAndGlyphs" textLength="104" x="3138" y="410.9668">helm-M-x-class</text><line style="stroke: #A80036; stroke-width: 1.5;" x1="3110" x2="3244" y1="422.8125" y2="422.8125"/><line style="stroke: #A80036; stroke-width: 1.5;" x1="3110" x2="3244" y1="430.8125" y2="430.8125"/><!--MD5=[beabceb98eda0d1152a0edf286dc7000]
class helm-type-command--><rect fill="#FBFB77" filter="url(#fvi1fky2n6wnd)" height="73.6094" id="helm-type-command" style="stroke: #A80036; stroke-width: 1.5;" width="175" x="3070.5" y="231.8125"/><ellipse cx="3085.5" cy="247.8125" fill="#ADD1B2" rx="11" ry="11" style="stroke: #A80036; stroke-width: 1.0;"/><path d="M3088.4688,253.4531 Q3087.8906,253.75 3087.25,253.8906 Q3086.6094,254.0469 3085.9063,254.0469 Q3083.4063,254.0469 3082.0781,252.4063 Q3080.7656,250.75 3080.7656,247.625 Q3080.7656,244.5 3082.0781,242.8438 Q3083.4063,241.1875 3085.9063,241.1875 Q3086.6094,241.1875 3087.25,241.3438 Q3087.9063,241.5 3088.4688,241.7969 L3088.4688,244.5156 Q3087.8438,243.9375 3087.25,243.6719 Q3086.6563,243.3906 3086.0313,243.3906 Q3084.6875,243.3906 3084,244.4688 Q3083.3125,245.5313 3083.3125,247.625 Q3083.3125,249.7188 3084,250.7969 Q3084.6875,251.8594 3086.0313,251.8594 Q3086.6563,251.8594 3087.25,251.5938 Q3087.8438,251.3125 3088.4688,250.7344 L3088.4688,253.4531 Z "/><text fill="#000000" font-family="sans-serif" font-size="12" font-weight="bold" lengthAdjust="spacingAndGlyphs" textLength="143" x="3099.5" y="251.9668">helm-type-command</text><line style="stroke: #A80036; stroke-width: 1.5;" x1="3071.5" x2="3244.5" y1="263.8125" y2="263.8125"/><text fill="#000000" font-family="sans-serif" font-size="11" lengthAdjust="spacingAndGlyphs" textLength="150" x="3076.5" y="278.0229">A class to define helm type</text><text fill="#000000" font-family="sans-serif" font-size="11" lengthAdjust="spacingAndGlyphs" textLength="60" x="3076.5" y="290.8276">command.</text><line style="stroke: #A80036; stroke-width: 1.0;" x1="3071.5" x2="3244.5" y1="297.4219" y2="297.4219"/><line style="stroke: #A80036; stroke-width: 1.0;" x1="3071.5" x2="3244.5" y1="299.4219" y2="299.4219"/><!--MD5=[5e8ec52a80544584992cb03033476cca]
class helm-source-buffers--><rect fill="#FBFB77" filter="url(#fvi1fky2n6wnd)" height="48" id="helm-source-buffers" style="stroke: #A80036; stroke-width: 1.5;" width="175" x="3280.5" y="390.8125"/><ellipse cx="3295.5" cy="406.8125" fill="#ADD1B2" rx="11" ry="11" style="stroke: #A80036; stroke-width: 1.0;"/><path d="M3298.4688,412.4531 Q3297.8906,412.75 3297.25,412.8906 Q3296.6094,413.0469 3295.9063,413.0469 Q3293.4063,413.0469 3292.0781,411.4063 Q3290.7656,409.75 3290.7656,406.625 Q3290.7656,403.5 3292.0781,401.8438 Q3293.4063,400.1875 3295.9063,400.1875 Q3296.6094,400.1875 3297.25,400.3438 Q3297.9063,400.5 3298.4688,400.7969 L3298.4688,403.5156 Q3297.8438,402.9375 3297.25,402.6719 Q3296.6563,402.3906 3296.0313,402.3906 Q3294.6875,402.3906 3294,403.4688 Q3293.3125,404.5313 3293.3125,406.625 Q3293.3125,408.7188 3294,409.7969 Q3294.6875,410.8594 3296.0313,410.8594 Q3296.6563,410.8594 3297.25,410.5938 Q3297.8438,410.3125 3298.4688,409.7344 L3298.4688,412.4531 Z "/><text fill="#000000" font-family="sans-serif" font-size="12" font-weight="bold" lengthAdjust="spacingAndGlyphs" textLength="143" x="3309.5" y="410.9668">helm-source-buffers</text><line style="stroke: #A80036; stroke-width: 1.5;" x1="3281.5" x2="3454.5" y1="422.8125" y2="422.8125"/><line style="stroke: #A80036; stroke-width: 1.5;" x1="3281.5" x2="3454.5" y1="430.8125" y2="430.8125"/><!--MD5=[44eb50c21698d944c3f7c5a7441762ef]
class helm-type-buffer--><rect fill="#FBFB77" filter="url(#fvi1fky2n6wnd)" height="60.8047" id="helm-type-buffer" style="stroke: #A80036; stroke-width: 1.5;" width="172" x="3281" y="238.3125"/><ellipse cx="3305.45" cy="254.3125" fill="#ADD1B2" rx="11" ry="11" style="stroke: #A80036; stroke-width: 1.0;"/><path d="M3308.4188,259.9531 Q3307.8406,260.25 3307.2,260.3906 Q3306.5594,260.5469 3305.8563,260.5469 Q3303.3563,260.5469 3302.0281,258.9063 Q3300.7156,257.25 3300.7156,254.125 Q3300.7156,251 3302.0281,249.3438 Q3303.3563,247.6875 3305.8563,247.6875 Q3306.5594,247.6875 3307.2,247.8438 Q3307.8563,248 3308.4188,248.2969 L3308.4188,251.0156 Q3307.7938,250.4375 3307.2,250.1719 Q3306.6063,249.8906 3305.9813,249.8906 Q3304.6375,249.8906 3303.95,250.9688 Q3303.2625,252.0313 3303.2625,254.125 Q3303.2625,256.2188 3303.95,257.2969 Q3304.6375,258.3594 3305.9813,258.3594 Q3306.6063,258.3594 3307.2,258.0938 Q3307.7938,257.8125 3308.4188,257.2344 L3308.4188,259.9531 Z "/><text fill="#000000" font-family="sans-serif" font-size="12" font-weight="bold" lengthAdjust="spacingAndGlyphs" textLength="119" x="3321.55" y="258.4668">helm-type-buffer</text><line style="stroke: #A80036; stroke-width: 1.5;" x1="3282" x2="3452" y1="270.3125" y2="270.3125"/><text fill="#000000" font-family="sans-serif" font-size="11" lengthAdjust="spacingAndGlyphs" textLength="160" x="3287" y="284.5229">A class to define type buffer.</text><line style="stroke: #A80036; stroke-width: 1.0;" x1="3282" x2="3452" y1="291.1172" y2="291.1172"/><line style="stroke: #A80036; stroke-width: 1.0;" x1="3282" x2="3452" y1="293.1172" y2="293.1172"/><!--MD5=[f325aa84e92746ce6f670c419a69be3e]
class helm-bookmark-find-files-class--><rect fill="#FBFB77" filter="url(#fvi1fky2n6wnd)" height="48" id="helm-bookmark-find-files-class" style="stroke: #A80036; stroke-width: 1.5;" width="249" x="2202.5" y="536.8125"/><ellipse cx="2217.5" cy="552.8125" fill="#ADD1B2" rx="11" ry="11" style="stroke: #A80036; stroke-width: 1.0;"/><path d="M2220.4688,558.4531 Q2219.8906,558.75 2219.25,558.8906 Q2218.6094,559.0469 2217.9063,559.0469 Q2215.4063,559.0469 2214.0781,557.4063 Q2212.7656,555.75 2212.7656,552.625 Q2212.7656,549.5 2214.0781,547.8438 Q2215.4063,546.1875 2217.9063,546.1875 Q2218.6094,546.1875 2219.25,546.3438 Q2219.9063,546.5 2220.4688,546.7969 L2220.4688,549.5156 Q2219.8438,548.9375 2219.25,548.6719 Q2218.6563,548.3906 2218.0313,548.3906 Q2216.6875,548.3906 2216,549.4688 Q2215.3125,550.5313 2215.3125,552.625 Q2215.3125,554.7188 2216,555.7969 Q2216.6875,556.8594 2218.0313,556.8594 Q2218.6563,556.8594 2219.25,556.5938 Q2219.8438,556.3125 2220.4688,555.7344 L2220.4688,558.4531 Z "/><text fill="#000000" font-family="sans-serif" font-size="12" font-weight="bold" lengthAdjust="spacingAndGlyphs" textLength="217" x="2231.5" y="556.9668">helm-bookmark-find-files-class</text><line style="stroke: #A80036; stroke-width: 1.5;" x1="2203.5" x2="2450.5" y1="568.8125" y2="568.8125"/><line style="stroke: #A80036; stroke-width: 1.5;" x1="2203.5" x2="2450.5" y1="576.8125" y2="576.8125"/><!--MD5=[1b5f639ef80bc5f44c8cc4600bf3e2e4]
class helm-source-filtered-bookmarks--><rect fill="#FBFB77" filter="url(#fvi1fky2n6wnd)" height="48" id="helm-source-filtered-bookmarks" style="stroke: #A80036; stroke-width: 1.5;" width="259" x="2191.5" y="390.8125"/><ellipse cx="2206.5" cy="406.8125" fill="#ADD1B2" rx="11" ry="11" style="stroke: #A80036; stroke-width: 1.0;"/><path d="M2209.4688,412.4531 Q2208.8906,412.75 2208.25,412.8906 Q2207.6094,413.0469 2206.9063,413.0469 Q2204.4063,413.0469 2203.0781,411.4063 Q2201.7656,409.75 2201.7656,406.625 Q2201.7656,403.5 2203.0781,401.8438 Q2204.4063,400.1875 2206.9063,400.1875 Q2207.6094,400.1875 2208.25,400.3438 Q2208.9063,400.5 2209.4688,400.7969 L2209.4688,403.5156 Q2208.8438,402.9375 2208.25,402.6719 Q2207.6563,402.3906 2207.0313,402.3906 Q2205.6875,402.3906 2205,403.4688 Q2204.3125,404.5313 2204.3125,406.625 Q2204.3125,408.7188 2205,409.7969 Q2205.6875,410.8594 2207.0313,410.8594 Q2207.6563,410.8594 2208.25,410.5938 Q2208.8438,410.3125 2209.4688,409.7344 L2209.4688,412.4531 Z "/><text fill="#000000" font-family="sans-serif" font-size="12" font-weight="bold" lengthAdjust="spacingAndGlyphs" textLength="227" x="2220.5" y="410.9668">helm-source-filtered-bookmarks</text><line style="stroke: #A80036; stroke-width: 1.5;" x1="2192.5" x2="2449.5" y1="422.8125" y2="422.8125"/><line style="stroke: #A80036; stroke-width: 1.5;" x1="2192.5" x2="2449.5" y1="430.8125" y2="430.8125"/><!--MD5=[1a4f21f1efd4e6c0dd550e1e5e387e5d]
class helm-bookmark-override-inheritor--><rect fill="#FBFB77" filter="url(#fvi1fky2n6wnd)" height="48" id="helm-bookmark-override-inheritor" style="stroke: #A80036; stroke-width: 1.5;" width="272" x="2361" y="244.8125"/><ellipse cx="2376" cy="260.8125" fill="#ADD1B2" rx="11" ry="11" style="stroke: #A80036; stroke-width: 1.0;"/><path d="M2378.9688,266.4531 Q2378.3906,266.75 2377.75,266.8906 Q2377.1094,267.0469 2376.4063,267.0469 Q2373.9063,267.0469 2372.5781,265.4063 Q2371.2656,263.75 2371.2656,260.625 Q2371.2656,257.5 2372.5781,255.8438 Q2373.9063,254.1875 2376.4063,254.1875 Q2377.1094,254.1875 2377.75,254.3438 Q2378.4063,254.5 2378.9688,254.7969 L2378.9688,257.5156 Q2378.3438,256.9375 2377.75,256.6719 Q2377.1563,256.3906 2376.5313,256.3906 Q2375.1875,256.3906 2374.5,257.4688 Q2373.8125,258.5313 2373.8125,260.625 Q2373.8125,262.7188 2374.5,263.7969 Q2375.1875,264.8594 2376.5313,264.8594 Q2377.1563,264.8594 2377.75,264.5938 Q2378.3438,264.3125 2378.9688,263.7344 L2378.9688,266.4531 Z "/><text fill="#000000" font-family="sans-serif" font-size="12" font-weight="bold" lengthAdjust="spacingAndGlyphs" textLength="240" x="2390" y="264.9668">helm-bookmark-override-inheritor</text><line style="stroke: #A80036; stroke-width: 1.5;" x1="2362" x2="2632" y1="276.8125" y2="276.8125"/><line style="stroke: #A80036; stroke-width: 1.5;" x1="2362" x2="2632" y1="284.8125" y2="284.8125"/><!--MD5=[8da85e6ec6935d54267014e974a66b51]
class helm-source--><rect fill="#FBFB77" filter="url(#fvi1fky2n6wnd)" height="73.6094" id="helm-source" style="stroke: #A80036; stroke-width: 1.5;" width="174" x="2536" y="91.8125"/><ellipse cx="2575.75" cy="107.8125" fill="#ADD1B2" rx="11" ry="11" style="stroke: #A80036; stroke-width: 1.0;"/><path d="M2578.7188,113.4531 Q2578.1406,113.75 2577.5,113.8906 Q2576.8594,114.0469 2576.1563,114.0469 Q2573.6563,114.0469 2572.3281,112.4063 Q2571.0156,110.75 2571.0156,107.625 Q2571.0156,104.5 2572.3281,102.8438 Q2573.6563,101.1875 2576.1563,101.1875 Q2576.8594,101.1875 2577.5,101.3438 Q2578.1563,101.5 2578.7188,101.7969 L2578.7188,104.5156 Q2578.0938,103.9375 2577.5,103.6719 Q2576.9063,103.3906 2576.2813,103.3906 Q2574.9375,103.3906 2574.25,104.4688 Q2573.5625,105.5313 2573.5625,107.625 Q2573.5625,109.7188 2574.25,110.7969 Q2574.9375,111.8594 2576.2813,111.8594 Q2576.9063,111.8594 2577.5,111.5938 Q2578.0938,111.3125 2578.7188,110.7344 L2578.7188,113.4531 Z "/><text fill="#000000" font-family="sans-serif" font-size="12" font-weight="bold" lengthAdjust="spacingAndGlyphs" textLength="87" x="2595.25" y="111.9668">helm-source</text><line style="stroke: #A80036; stroke-width: 1.5;" x1="2537" x2="2709" y1="123.8125" y2="123.8125"/><text fill="#000000" font-family="sans-serif" font-size="11" lengthAdjust="spacingAndGlyphs" textLength="162" x="2542" y="138.0229">Main interface to define helm</text><text fill="#000000" font-family="sans-serif" font-size="11" lengthAdjust="spacingAndGlyphs" textLength="50" x="2542" y="150.8276">sources.</text><line style="stroke: #A80036; stroke-width: 1.0;" x1="2537" x2="2709" y1="157.4219" y2="157.4219"/><line style="stroke: #A80036; stroke-width: 1.0;" x1="2537" x2="2709" y1="159.4219" y2="159.4219"/><!--MD5=[257e0c9decabcf296fc5e077c0fe3da7]
class helm-type-bookmark--><rect fill="#FBFB77" filter="url(#fvi1fky2n6wnd)" height="73.6094" id="helm-type-bookmark" style="stroke: #A80036; stroke-width: 1.5;" width="178" x="2148" y="231.8125"/><ellipse cx="2163" cy="247.8125" fill="#ADD1B2" rx="11" ry="11" style="stroke: #A80036; stroke-width: 1.0;"/><path d="M2165.9688,253.4531 Q2165.3906,253.75 2164.75,253.8906 Q2164.1094,254.0469 2163.4063,254.0469 Q2160.9063,254.0469 2159.5781,252.4063 Q2158.2656,250.75 2158.2656,247.625 Q2158.2656,244.5 2159.5781,242.8438 Q2160.9063,241.1875 2163.4063,241.1875 Q2164.1094,241.1875 2164.75,241.3438 Q2165.4063,241.5 2165.9688,241.7969 L2165.9688,244.5156 Q2165.3438,243.9375 2164.75,243.6719 Q2164.1563,243.3906 2163.5313,243.3906 Q2162.1875,243.3906 2161.5,244.4688 Q2160.8125,245.5313 2160.8125,247.625 Q2160.8125,249.7188 2161.5,250.7969 Q2162.1875,251.8594 2163.5313,251.8594 Q2164.1563,251.8594 2164.75,251.5938 Q2165.3438,251.3125 2165.9688,250.7344 L2165.9688,253.4531 Z "/><text fill="#000000" font-family="sans-serif" font-size="12" font-weight="bold" lengthAdjust="spacingAndGlyphs" textLength="146" x="2177" y="251.9668">helm-type-bookmark</text><line style="stroke: #A80036; stroke-width: 1.5;" x1="2149" x2="2325" y1="263.8125" y2="263.8125"/><text fill="#000000" font-family="sans-serif" font-size="11" lengthAdjust="spacingAndGlyphs" textLength="119" x="2154" y="278.0229">A class to define type</text><text fill="#000000" font-family="sans-serif" font-size="11" lengthAdjust="spacingAndGlyphs" textLength="67" x="2154" y="290.8276">bookmarks.</text><line style="stroke: #A80036; stroke-width: 1.0;" x1="2149" x2="2325" y1="297.4219" y2="297.4219"/><line style="stroke: #A80036; stroke-width: 1.0;" x1="2149" x2="2325" y1="299.4219" y2="299.4219"/><!--MD5=[bf73905ec5fe3c8fa1d96a26605c7c43]
class helm-source-basic-bookmarks--><rect fill="#FBFB77" filter="url(#fvi1fky2n6wnd)" height="48" id="helm-source-basic-bookmarks" style="stroke: #A80036; stroke-width: 1.5;" width="244" x="1681" y="390.8125"/><ellipse cx="1696" cy="406.8125" fill="#ADD1B2" rx="11" ry="11" style="stroke: #A80036; stroke-width: 1.0;"/><path d="M1698.9688,412.4531 Q1698.3906,412.75 1697.75,412.8906 Q1697.1094,413.0469 1696.4063,413.0469 Q1693.9063,413.0469 1692.5781,411.4063 Q1691.2656,409.75 1691.2656,406.625 Q1691.2656,403.5 1692.5781,401.8438 Q1693.9063,400.1875 1696.4063,400.1875 Q1697.1094,400.1875 1697.75,400.3438 Q1698.4063,400.5 1698.9688,400.7969 L1698.9688,403.5156 Q1698.3438,402.9375 1697.75,402.6719 Q1697.1563,402.3906 1696.5313,402.3906 Q1695.1875,402.3906 1694.5,403.4688 Q1693.8125,404.5313 1693.8125,406.625 Q1693.8125,408.7188 1694.5,409.7969 Q1695.1875,410.8594 1696.5313,410.8594 Q1697.1563,410.8594 1697.75,410.5938 Q1698.3438,410.3125 1698.9688,409.7344 L1698.9688,412.4531 Z "/><text fill="#000000" font-family="sans-serif" font-size="12" font-weight="bold" lengthAdjust="spacingAndGlyphs" textLength="212" x="1710" y="410.9668">helm-source-basic-bookmarks</text><line style="stroke: #A80036; stroke-width: 1.5;" x1="1682" x2="1924" y1="422.8125" y2="422.8125"/><line style="stroke: #A80036; stroke-width: 1.5;" x1="1682" x2="1924" y1="430.8125" y2="430.8125"/><!--MD5=[acc538c4de58be324c7884953f9df4c3]
class helm-mac-spotlight-source--><rect fill="#FBFB77" filter="url(#fvi1fky2n6wnd)" height="48" id="helm-mac-spotlight-source" style="stroke: #A80036; stroke-width: 1.5;" width="221" x="351.5" y="390.8125"/><ellipse cx="366.5" cy="406.8125" fill="#ADD1B2" rx="11" ry="11" style="stroke: #A80036; stroke-width: 1.0;"/><path d="M369.4688,412.4531 Q368.8906,412.75 368.25,412.8906 Q367.6094,413.0469 366.9063,413.0469 Q364.4063,413.0469 363.0781,411.4063 Q361.7656,409.75 361.7656,406.625 Q361.7656,403.5 363.0781,401.8438 Q364.4063,400.1875 366.9063,400.1875 Q367.6094,400.1875 368.25,400.3438 Q368.9063,400.5 369.4688,400.7969 L369.4688,403.5156 Q368.8438,402.9375 368.25,402.6719 Q367.6563,402.3906 367.0313,402.3906 Q365.6875,402.3906 365,403.4688 Q364.3125,404.5313 364.3125,406.625 Q364.3125,408.7188 365,409.7969 Q365.6875,410.8594 367.0313,410.8594 Q367.6563,410.8594 368.25,410.5938 Q368.8438,410.3125 369.4688,409.7344 L369.4688,412.4531 Z "/><text fill="#000000" font-family="sans-serif" font-size="12" font-weight="bold" lengthAdjust="spacingAndGlyphs" textLength="189" x="380.5" y="410.9668">helm-mac-spotlight-source</text><line style="stroke: #A80036; stroke-width: 1.5;" x1="352.5" x2="571.5" y1="422.8125" y2="422.8125"/><line style="stroke: #A80036; stroke-width: 1.5;" x1="352.5" x2="571.5" y1="430.8125" y2="430.8125"/><!--MD5=[47156fd6f6930ad01ab8c92c260b1066]
class helm-source-session-class--><rect fill="#FBFB77" filter="url(#fvi1fky2n6wnd)" height="48" id="helm-source-session-class" style="stroke: #A80036; stroke-width: 1.5;" width="220" x="2854" y="390.8125"/><ellipse cx="2869" cy="406.8125" fill="#ADD1B2" rx="11" ry="11" style="stroke: #A80036; stroke-width: 1.0;"/><path d="M2871.9688,412.4531 Q2871.3906,412.75 2870.75,412.8906 Q2870.1094,413.0469 2869.4063,413.0469 Q2866.9063,413.0469 2865.5781,411.4063 Q2864.2656,409.75 2864.2656,406.625 Q2864.2656,403.5 2865.5781,401.8438 Q2866.9063,400.1875 2869.4063,400.1875 Q2870.1094,400.1875 2870.75,400.3438 Q2871.4063,400.5 2871.9688,400.7969 L2871.9688,403.5156 Q2871.3438,402.9375 2870.75,402.6719 Q2870.1563,402.3906 2869.5313,402.3906 Q2868.1875,402.3906 2867.5,403.4688 Q2866.8125,404.5313 2866.8125,406.625 Q2866.8125,408.7188 2867.5,409.7969 Q2868.1875,410.8594 2869.5313,410.8594 Q2870.1563,410.8594 2870.75,410.5938 Q2871.3438,410.3125 2871.9688,409.7344 L2871.9688,412.4531 Z "/><text fill="#000000" font-family="sans-serif" font-size="12" font-weight="bold" lengthAdjust="spacingAndGlyphs" textLength="188" x="2883" y="410.9668">helm-source-session-class</text><line style="stroke: #A80036; stroke-width: 1.5;" x1="2855" x2="3073" y1="422.8125" y2="422.8125"/><line style="stroke: #A80036; stroke-width: 1.5;" x1="2855" x2="3073" y1="430.8125" y2="430.8125"/><!--MD5=[9c6bffcc58873ff705394a767f912448]
class helm-files-dired-source--><rect fill="#FBFB77" filter="url(#fvi1fky2n6wnd)" height="48" id="helm-files-dired-source" style="stroke: #A80036; stroke-width: 1.5;" width="196" x="1960" y="390.8125"/><ellipse cx="1975" cy="406.8125" fill="#ADD1B2" rx="11" ry="11" style="stroke: #A80036; stroke-width: 1.0;"/><path d="M1977.9688,412.4531 Q1977.3906,412.75 1976.75,412.8906 Q1976.1094,413.0469 1975.4063,413.0469 Q1972.9063,413.0469 1971.5781,411.4063 Q1970.2656,409.75 1970.2656,406.625 Q1970.2656,403.5 1971.5781,401.8438 Q1972.9063,400.1875 1975.4063,400.1875 Q1976.1094,400.1875 1976.75,400.3438 Q1977.4063,400.5 1977.9688,400.7969 L1977.9688,403.5156 Q1977.3438,402.9375 1976.75,402.6719 Q1976.1563,402.3906 1975.5313,402.3906 Q1974.1875,402.3906 1973.5,403.4688 Q1972.8125,404.5313 1972.8125,406.625 Q1972.8125,408.7188 1973.5,409.7969 Q1974.1875,410.8594 1975.5313,410.8594 Q1976.1563,410.8594 1976.75,410.5938 Q1977.3438,410.3125 1977.9688,409.7344 L1977.9688,412.4531 Z "/><text fill="#000000" font-family="sans-serif" font-size="12" font-weight="bold" lengthAdjust="spacingAndGlyphs" textLength="164" x="1989" y="410.9668">helm-files-dired-source</text><line style="stroke: #A80036; stroke-width: 1.5;" x1="1961" x2="2155" y1="422.8125" y2="422.8125"/><line style="stroke: #A80036; stroke-width: 1.5;" x1="1961" x2="2155" y1="430.8125" y2="430.8125"/><!--MD5=[2a25ce0fce2e5578c6c8a1e5bf210dba]
class helm-source-in-file--><rect fill="#FBFB77" filter="url(#fvi1fky2n6wnd)" height="86.4141" id="helm-source-in-file" style="stroke: #A80036; stroke-width: 1.5;" width="166" x="1480" y="371.8125"/><ellipse cx="1495.9" cy="387.8125" fill="#ADD1B2" rx="11" ry="11" style="stroke: #A80036; stroke-width: 1.0;"/><path d="M1498.8688,393.4531 Q1498.2906,393.75 1497.65,393.8906 Q1497.0094,394.0469 1496.3063,394.0469 Q1493.8063,394.0469 1492.4781,392.4063 Q1491.1656,390.75 1491.1656,387.625 Q1491.1656,384.5 1492.4781,382.8438 Q1493.8063,381.1875 1496.3063,381.1875 Q1497.0094,381.1875 1497.65,381.3438 Q1498.3063,381.5 1498.8688,381.7969 L1498.8688,384.5156 Q1498.2438,383.9375 1497.65,383.6719 Q1497.0563,383.3906 1496.4313,383.3906 Q1495.0875,383.3906 1494.4,384.4688 Q1493.7125,385.5313 1493.7125,387.625 Q1493.7125,389.7188 1494.4,390.7969 Q1495.0875,391.8594 1496.4313,391.8594 Q1497.0563,391.8594 1497.65,391.5938 Q1498.2438,391.3125 1498.8688,390.7344 L1498.8688,393.4531 Z "/><text fill="#000000" font-family="sans-serif" font-size="12" font-weight="bold" lengthAdjust="spacingAndGlyphs" textLength="132" x="1510.1" y="391.9668">helm-source-in-file</text><line style="stroke: #A80036; stroke-width: 1.5;" x1="1481" x2="1645" y1="403.8125" y2="403.8125"/><text fill="#000000" font-family="sans-serif" font-size="11" lengthAdjust="spacingAndGlyphs" textLength="154" x="1486" y="418.0229">The contents of the FILE will</text><text fill="#000000" font-family="sans-serif" font-size="11" lengthAdjust="spacingAndGlyphs" textLength="140" x="1486" y="430.8276">be used as candidates in</text><text fill="#000000" font-family="sans-serif" font-size="11" lengthAdjust="spacingAndGlyphs" textLength="38" x="1486" y="443.6323">buffer.</text><line style="stroke: #A80036; stroke-width: 1.0;" x1="1481" x2="1645" y1="450.2266" y2="450.2266"/><line style="stroke: #A80036; stroke-width: 1.0;" x1="1481" x2="1645" y1="452.2266" y2="452.2266"/><!--MD5=[5adfb603e84a1ac071a064f5c8c4d8a3]
class helm-source-dummy--><rect fill="#FBFB77" filter="url(#fvi1fky2n6wnd)" height="48" id="helm-source-dummy" style="stroke: #A80036; stroke-width: 1.5;" width="174" x="3488" y="244.8125"/><ellipse cx="3503" cy="260.8125" fill="#ADD1B2" rx="11" ry="11" style="stroke: #A80036; stroke-width: 1.0;"/><path d="M3505.9688,266.4531 Q3505.3906,266.75 3504.75,266.8906 Q3504.1094,267.0469 3503.4063,267.0469 Q3500.9063,267.0469 3499.5781,265.4063 Q3498.2656,263.75 3498.2656,260.625 Q3498.2656,257.5 3499.5781,255.8438 Q3500.9063,254.1875 3503.4063,254.1875 Q3504.1094,254.1875 3504.75,254.3438 Q3505.4063,254.5 3505.9688,254.7969 L3505.9688,257.5156 Q3505.3438,256.9375 3504.75,256.6719 Q3504.1563,256.3906 3503.5313,256.3906 Q3502.1875,256.3906 3501.5,257.4688 Q3500.8125,258.5313 3500.8125,260.625 Q3500.8125,262.7188 3501.5,263.7969 Q3502.1875,264.8594 3503.5313,264.8594 Q3504.1563,264.8594 3504.75,264.5938 Q3505.3438,264.3125 3505.9688,263.7344 L3505.9688,266.4531 Z "/><text fill="#000000" font-family="sans-serif" font-size="12" font-weight="bold" lengthAdjust="spacingAndGlyphs" textLength="142" x="3517" y="264.9668">helm-source-dummy</text><line style="stroke: #A80036; stroke-width: 1.5;" x1="3489" x2="3661" y1="276.8125" y2="276.8125"/><line style="stroke: #A80036; stroke-width: 1.5;" x1="3489" x2="3661" y1="284.8125" y2="284.8125"/><!--MD5=[7d486a52fcabfa08acb8358ffa257dfe]
reverse link helm-source-async to helm-locate-source--><path d="M340.4,330.0825 C337.83,335.9025 335.62,341.8625 334,347.8125 C320.54,397.1225 304.29,421.2225 334,462.8125 C378.83,525.5725 466.88,548.1625 532.92,556.0625 " fill="none" id="helm-source-async&lt;-helm-locate-source" style="stroke: #A80036; stroke-width: 1.0;"/><polygon fill="none" points="334.26,326.7225,349.6,312.1025,346.72,333.1025,334.26,326.7225" style="stroke: #A80036; stroke-width: 1.0;"/><!--MD5=[59ec1b2dfc99414670695ca2c7ef7be5]
reverse link helm-locate-override-inheritor to helm-locate-source--><path d="M700.06,454.9025 C679.31,481.1025 652.71,514.7125 635.27,536.7325 " fill="none" id="helm-locate-override-inheritor&lt;-helm-locate-source" style="stroke: #A80036; stroke-width: 1.0;"/><polygon fill="none" points="694.78,450.2825,712.68,438.9525,705.76,458.9725,694.78,450.2825" style="stroke: #A80036; stroke-width: 1.0;"/><!--MD5=[ea3943677655752665563907a8ed1189]
reverse link helm-type-file to helm-locate-override-inheritor--><path d="M1073.12,290.9425 C1013.75,304.5925 937.67,324.1925 872,347.8125 C838.56,359.8425 802.27,376.9325 774.88,390.7025 " fill="none" id="helm-type-file&lt;-helm-locate-override-inheritor" style="stroke: #A80036; stroke-width: 1.0;"/><polygon fill="none" points="1071.93,284.0325,1092.98,286.4525,1075.01,297.6925,1071.93,284.0325" style="stroke: #A80036; stroke-width: 1.0;"/><!--MD5=[c3c98643be5ce25a89a8fc176b95e73f]
reverse link helm-source-in-buffer to helm-file-cache--><path d="M1570.73,291.9425 C1517.8,304.5925 1454.65,322.9725 1401,347.8125 C1376.42,359.1925 1351.2,376.5625 1332.63,390.6325 " fill="none" id="helm-source-in-buffer&lt;-helm-file-cache" style="stroke: #A80036; stroke-width: 1.0;"/><polygon fill="none" points="1569.4,285.0625,1590.47,287.3725,1572.56,298.7025,1569.4,285.0625" style="stroke: #A80036; stroke-width: 1.0;"/><!--MD5=[20fb0892ad389f5d9224faeaf3fbf8f9]
reverse link helm-type-file to helm-file-cache--><path d="M1220.34,321.1425 C1241.76,344.8625 1266.12,371.8625 1283.01,390.5625 " fill="none" id="helm-type-file&lt;-helm-file-cache" style="stroke: #A80036; stroke-width: 1.0;"/><polygon fill="none" points="1215.01,325.6825,1206.8,306.1525,1225.4,316.3025,1215.01,325.6825" style="stroke: #A80036; stroke-width: 1.0;"/><!--MD5=[bab36c04217b3237bb981b2ca6f1bcf5]
reverse link helm-source-in-buffer to helm-browse-project-source--><path d="M1571.06,293.6725 C1533.93,305.5125 1494.15,322.8225 1463,347.8125 C1415.96,385.5425 1437.65,424.6025 1391,462.8125 C1350.51,495.9725 1297.5,518.5325 1250.15,533.4825 " fill="none" id="helm-source-in-buffer&lt;-helm-browse-project-source" style="stroke: #A80036; stroke-width: 1.0;"/><polygon fill="none" points="1569.31,286.8925,1590.48,287.8925,1573.31,300.3125,1569.31,286.8925" style="stroke: #A80036; stroke-width: 1.0;"/><!--MD5=[ae9062e7e7a1f661ae844e732112097a]
reverse link helm-browse-project-override-inheritor to helm-browse-project-source--><path d="M1069.09,455.9525 C1081.08,475.1425 1095.44,498.1125 1107.6,517.5625 " fill="none" id="helm-browse-project-override-inheritor&lt;-helm-browse-project-source" style="stroke: #A80036; stroke-width: 1.0;"/><polygon fill="none" points="1063.12,459.6225,1058.46,438.9525,1075,452.2025,1063.12,459.6225" style="stroke: #A80036; stroke-width: 1.0;"/><!--MD5=[7dce46f1711674df8238e0c6e8679f53]
reverse link helm-type-file to helm-browse-project-override-inheritor--><path d="M1127.66,321.1425 C1106.24,344.8625 1081.88,371.8625 1064.99,390.5625 " fill="none" id="helm-type-file&lt;-helm-browse-project-override-inheritor" style="stroke: #A80036; stroke-width: 1.0;"/><polygon fill="none" points="1122.6,316.3025,1141.2,306.1525,1132.99,325.6825,1122.6,316.3025" style="stroke: #A80036; stroke-width: 1.0;"/><!--MD5=[5fa17a1efdd398e28fa7575bea335940]
reverse link helm-source-async to helm-fd-class--><path d="M305.07,323.8225 C293.97,331.8525 282.68,340.0425 272,347.8125 C252.57,361.9525 230.85,377.8725 213.61,390.5425 " fill="none" id="helm-source-async&lt;-helm-fd-class" style="stroke: #A80036; stroke-width: 1.0;"/><polygon fill="none" points="301.34,317.8825,321.65,311.8325,309.54,329.2225,301.34,317.8825" style="stroke: #A80036; stroke-width: 1.0;"/><!--MD5=[2dab3ea9bdbd523a70d6b4309b981517]
reverse link helm-source-sync to helm-absolute-time-timers-class--><path d="M2855.77,321.6025 C2812.68,345.2825 2763.81,372.1425 2729.98,390.7425 " fill="none" id="helm-source-sync&lt;-helm-absolute-time-timers-class" style="stroke: #A80036; stroke-width: 1.0;"/><polygon fill="none" points="2852.62,315.3525,2873.51,311.8525,2859.36,327.6225,2852.62,315.3525" style="stroke: #A80036; stroke-width: 1.0;"/><!--MD5=[69966f233324ab1b41ca6bc5703528d7]
reverse link helm-type-timers to helm-absolute-time-timers-class--><path d="M2725.66,324.9025 C2716.02,347.6725 2705.36,372.8425 2697.85,390.5625 " fill="none" id="helm-type-timers&lt;-helm-absolute-time-timers-class" style="stroke: #A80036; stroke-width: 1.0;"/><polygon fill="none" points="2719.36,321.8325,2733.61,306.1525,2732.25,327.2925,2719.36,321.8325" style="stroke: #A80036; stroke-width: 1.0;"/><!--MD5=[9f4d7494bd3425cac0331b57ecd466c2]
reverse link helm-source-sync to helm-M-x-class--><path d="M3049.55,321.8725 C3064.01,330.1925 3078.55,338.9725 3092,347.8125 C3111.99,360.9425 3133.24,377.4425 3149.49,390.6625 " fill="none" id="helm-source-sync&lt;-helm-M-x-class" style="stroke: #A80036; stroke-width: 1.0;"/><polygon fill="none" points="3046.01,327.9125,3032.03,311.9925,3052.89,315.7225,3046.01,327.9125" style="stroke: #A80036; stroke-width: 1.0;"/><!--MD5=[4ac71f6dd5cea0c13d2b9c31bc00a812]
reverse link helm-type-command to helm-M-x-class--><path d="M3165.45,326.2725 C3168.41,348.6825 3171.64,373.1925 3173.93,390.5625 " fill="none" id="helm-type-command&lt;-helm-M-x-class" style="stroke: #A80036; stroke-width: 1.0;"/><polygon fill="none" points="3158.47,326.8925,3162.79,306.1525,3172.35,325.0625,3158.47,326.8925" style="stroke: #A80036; stroke-width: 1.0;"/><!--MD5=[bd9832b2051106d13c2f652e2dc85e4c]
reverse link helm-source-sync to helm-source-buffers--><path d="M3054.73,311.5125 C3148.09,335.0825 3180.09,316.0825 3263,347.8125 C3290.35,358.2825 3318.27,376.2525 3338.44,390.8025 " fill="none" id="helm-source-sync&lt;-helm-source-buffers" style="stroke: #A80036; stroke-width: 1.0;"/><polygon fill="none" points="3052.67,318.2025,3035.21,306.2025,3056.35,304.7025,3052.67,318.2025" style="stroke: #A80036; stroke-width: 1.0;"/><!--MD5=[88c02f9cf13fd6689df37b68aefeb8b8]
reverse link helm-type-buffer to helm-source-buffers--><path d="M3367.35,319.9525 C3367.52,343.9925 3367.71,371.6225 3367.84,390.6425 " fill="none" id="helm-type-buffer&lt;-helm-source-buffers" style="stroke: #A80036; stroke-width: 1.0;"/><polygon fill="none" points="3360.35,319.7025,3367.21,299.6525,3374.35,319.6025,3360.35,319.7025" style="stroke: #A80036; stroke-width: 1.0;"/><!--MD5=[97418b6d899cd58bad59cfd77e9ec07d]
reverse link helm-source-filtered-bookmarks to helm-bookmark-find-files-class--><path d="M2322.8,459.0725 C2323.87,484.5925 2325.17,515.8625 2326.04,536.7325 " fill="none" id="helm-source-filtered-bookmarks&lt;-helm-bookmark-find-files-class" style="stroke: #A80036; stroke-width: 1.0;"/><polygon fill="none" points="2315.8,459.2225,2321.96,438.9525,2329.79,458.6425,2315.8,459.2225" style="stroke: #A80036; stroke-width: 1.0;"/><!--MD5=[9dfed791578fb3f1a7675a563d26d6dc]
reverse link helm-bookmark-override-inheritor to helm-bookmark-find-files-class--><path d="M2499.98,312.9825 C2500.78,354.4725 2496.39,417.3925 2468,462.8125 C2447.29,495.9425 2410.65,520.6325 2379.91,536.8125 " fill="none" id="helm-bookmark-override-inheritor&lt;-helm-bookmark-find-files-class" style="stroke: #A80036; stroke-width: 1.0;"/><polygon fill="none" points="2492.98,313.1825,2499.15,292.9125,2506.97,312.6125,2492.98,313.1825" style="stroke: #A80036; stroke-width: 1.0;"/><!--MD5=[116a0e90e894ac99238d97b5f2f654c6]
reverse link helm-source to helm-bookmark-override-inheritor--><path d="M2576.21,181.0625 C2556.21,202.9625 2533.88,227.4225 2518.04,244.7725 " fill="none" id="helm-source&lt;-helm-bookmark-override-inheritor" style="stroke: #A80036; stroke-width: 1.0;"/><polygon fill="none" points="2571.24,176.1225,2589.89,166.0725,2581.58,185.5625,2571.24,176.1225" style="stroke: #A80036; stroke-width: 1.0;"/><!--MD5=[38d3222c9d6413d0e8be51642b02db5a]
reverse link helm-source-in-buffer to helm-source-filtered-bookmarks--><path d="M1795.65,279.1625 C1896.4,289.5325 2047.29,310.0325 2174,347.8125 C2210.19,358.6025 2249.09,376.3725 2277.78,390.7525 " fill="none" id="helm-source-in-buffer&lt;-helm-source-filtered-bookmarks" style="stroke: #A80036; stroke-width: 1.0;"/><polygon fill="none" points="1794.77,286.1125,1775.56,277.1625,1796.16,272.1825,1794.77,286.1125" style="stroke: #A80036; stroke-width: 1.0;"/><!--MD5=[36bf56344c9fb562b92d13c27d56d2e6]
reverse link helm-type-bookmark to helm-source-filtered-bookmarks--><path d="M2268.33,323.5325 C2281.83,346.6525 2296.89,372.4825 2307.44,390.5625 " fill="none" id="helm-type-bookmark&lt;-helm-source-filtered-bookmarks" style="stroke: #A80036; stroke-width: 1.0;"/><polygon fill="none" points="2262.23,326.9525,2258.2,306.1525,2274.32,319.9025,2262.23,326.9525" style="stroke: #A80036; stroke-width: 1.0;"/><!--MD5=[560569eff9650cc936c24e2acd6b7c35]
reverse link helm-source-in-buffer to helm-source-basic-bookmarks--><path d="M1731.08,327.5125 C1749.54,349.6525 1769.55,373.6725 1783.77,390.7425 " fill="none" id="helm-source-in-buffer&lt;-helm-source-basic-bookmarks" style="stroke: #A80036; stroke-width: 1.0;"/><polygon fill="none" points="1725.46,331.6925,1718.03,311.8525,1736.21,322.7325,1725.46,331.6925" style="stroke: #A80036; stroke-width: 1.0;"/><!--MD5=[d74130942a07ed6c44229600fa80fecc]
reverse link helm-type-bookmark to helm-source-basic-bookmarks--><path d="M2128.26,293.6725 C2072.18,307.2325 2003.11,325.8725 1943,347.8125 C1909.81,359.9225 1873.77,377.0125 1846.58,390.7625 " fill="none" id="helm-type-bookmark&lt;-helm-source-basic-bookmarks" style="stroke: #A80036; stroke-width: 1.0;"/><polygon fill="none" points="2126.83,286.8225,2147.91,289.0025,2130.07,300.4425,2126.83,286.8225" style="stroke: #A80036; stroke-width: 1.0;"/><!--MD5=[4124b062e967a48c84822db18248b7ac]
reverse link helm-source-async to helm-mac-spotlight-source--><path d="M413.96,329.4525 C426.26,351.0525 439.43,374.1725 448.86,390.7425 " fill="none" id="helm-source-async&lt;-helm-mac-spotlight-source" style="stroke: #A80036; stroke-width: 1.0;"/><polygon fill="none" points="407.75,332.6925,403.94,311.8525,419.92,325.7625,407.75,332.6925" style="stroke: #A80036; stroke-width: 1.0;"/><!--MD5=[a474bc848475b2374c1d2bb84f271e9b]
reverse link helm-type-file to helm-mac-spotlight-source--><path d="M1072.93,272.9725 C954.87,279.0125 754.83,296.6025 591,347.8125 C558.22,358.0525 523.73,376.1425 498.66,390.7925 " fill="none" id="helm-type-file&lt;-helm-mac-spotlight-source" style="stroke: #A80036; stroke-width: 1.0;"/><polygon fill="none" points="1072.62,265.9825,1092.93,272.0225,1073.29,279.9625,1072.62,265.9825" style="stroke: #A80036; stroke-width: 1.0;"/><!--MD5=[52d97fd4d153f2c53b55b3f398cc83b3]
reverse link helm-source-sync to helm-source-session-class--><path d="M2956.05,332.0525 C2958.08,352.8925 2960.21,374.8325 2961.76,390.7425 " fill="none" id="helm-source-sync&lt;-helm-source-session-class" style="stroke: #A80036; stroke-width: 1.0;"/><polygon fill="none" points="2949.06,332.4325,2954.09,311.8525,2962.99,331.0825,2949.06,332.4325" style="stroke: #A80036; stroke-width: 1.0;"/><!--MD5=[808f17c2ae4c57b94c9dcfc78a1aa516]
reverse link helm-source-sync to helm-files-dired-source--><path d="M2845.32,311.5625 C2551.27,373.0325 2455.67,265.1925 2174,347.8125 C2143.1,356.8825 2111.55,375.5525 2089.18,390.7325 " fill="none" id="helm-source-sync&lt;-helm-files-dired-source" style="stroke: #A80036; stroke-width: 1.0;"/><polygon fill="none" points="2843.94,304.6925,2864.98,307.2625,2846.93,318.3725,2843.94,304.6925" style="stroke: #A80036; stroke-width: 1.0;"/><!--MD5=[05800070c5d625a950fe67b1123c2019]
reverse link helm-type-file to helm-files-dired-source--><path d="M1275.34,280.7025 C1355.97,289.3125 1471.69,301.5525 1573,311.8125 C1737.38,328.4625 1785.6,297.5625 1943,347.8125 C1973.04,357.4025 2003.87,375.6325 2026.03,390.5025 " fill="none" id="helm-type-file&lt;-helm-files-dired-source" style="stroke: #A80036; stroke-width: 1.0;"/><polygon fill="none" points="1274.51,287.6525,1255.36,278.5625,1276,273.7325,1274.51,287.6525" style="stroke: #A80036; stroke-width: 1.0;"/><!--MD5=[687fc8ec140e945488f732dae3c46e2b]
reverse link helm-source to helm-type-timers--><path d="M2669.75,181.0125 C2685.16,197.8925 2701.96,216.2925 2716.12,231.7925 " fill="none" id="helm-source&lt;-helm-type-timers" style="stroke: #A80036; stroke-width: 1.0;"/><polygon fill="none" points="2664.42,185.5625,2656.11,166.0725,2674.76,176.1225,2664.42,185.5625" style="stroke: #A80036; stroke-width: 1.0;"/><!--MD5=[fde896bcedf28e4926ec99232971bb19]
reverse link helm-source to helm-type-command--><path d="M2729.91,148.7125 C2817.68,165.4125 2944.7,192.3025 3053,225.8125 C3058.91,227.6425 3064.95,229.6525 3071.01,231.7825 " fill="none" id="helm-source&lt;-helm-type-command" style="stroke: #A80036; stroke-width: 1.0;"/><polygon fill="none" points="2728.5,155.5725,2710.14,145.0025,2731.09,141.8125,2728.5,155.5725" style="stroke: #A80036; stroke-width: 1.0;"/><!--MD5=[528fc0d38c023ea499a6c44f22caf734]
reverse link helm-source to helm-type-buffer--><path d="M2730.44,138.1625 C2858.9,149.9225 3079.53,175.7525 3263,225.8125 C3275.3,229.1725 3288.12,233.5625 3300.38,238.2325 " fill="none" id="helm-source&lt;-helm-type-buffer" style="stroke: #A80036; stroke-width: 1.0;"/><polygon fill="none" points="2729.55,145.1125,2710.25,136.3625,2730.8,131.1725,2729.55,145.1125" style="stroke: #A80036; stroke-width: 1.0;"/><!--MD5=[b3073f519ff1e7a9af7ffffd7406ad63]
reverse link helm-source to helm-type-bookmark--><path d="M2516.89,165.1325 C2464.64,182.8325 2400.82,204.8925 2344,225.8125 C2338.19,227.9525 2332.23,230.1825 2326.22,232.4625 " fill="none" id="helm-source&lt;-helm-type-bookmark" style="stroke: #A80036; stroke-width: 1.0;"/><polygon fill="none" points="2514.76,158.4725,2535.95,158.7025,2519.24,171.7325,2514.76,158.4725" style="stroke: #A80036; stroke-width: 1.0;"/><!--MD5=[4dcf8b063d240b570d0bdaa319fd46e4]
reverse link helm-source to helm-type-file--><path d="M2515.67,139.1325 C2325.59,155.7625 1917.33,191.9525 1573,225.8125 C1462.96,236.6325 1335.96,250.1825 1255.35,258.9225 " fill="none" id="helm-source&lt;-helm-type-file" style="stroke: #A80036; stroke-width: 1.0;"/><polygon fill="none" points="2515.31,132.1425,2535.84,137.3725,2516.53,146.0925,2515.31,132.1425" style="stroke: #A80036; stroke-width: 1.0;"/><!--MD5=[573dc56a4a24525e354df005e91e161f]
reverse link helm-source-in-buffer to helm-source-in-file--><path d="M1635.03,327.3725 C1622.76,342.1025 1609.79,357.6725 1598.28,371.4725 " fill="none" id="helm-source-in-buffer&lt;-helm-source-in-file" style="stroke: #A80036; stroke-width: 1.0;"/><polygon fill="none" points="1629.79,322.7325,1647.97,311.8525,1640.54,331.6925,1629.79,322.7325" style="stroke: #A80036; stroke-width: 1.0;"/><!--MD5=[08cc1f31d63ae7c2a5398bb390fce2ff]
reverse link helm-source to helm-source-dummy--><path d="M2730.63,132.6925 C2893.3,139.1125 3210.44,159.7625 3471,225.8125 C3489.31,230.4525 3508.67,237.6125 3525.67,244.7025 " fill="none" id="helm-source&lt;-helm-source-dummy" style="stroke: #A80036; stroke-width: 1.0;"/><polygon fill="none" points="2729.87,139.6625,2710.15,131.9225,2730.4,125.6725,2729.87,139.6625" style="stroke: #A80036; stroke-width: 1.0;"/><!--MD5=[720fe72c7a837b3f6a94e411349ef229]
reverse link helm-source to helm-source-in-buffer--><path d="M2516.04,145.5125 C2330.24,172.7925 1950.96,228.4725 1775.65,254.2125 " fill="none" id="helm-source&lt;-helm-source-in-buffer" style="stroke: #A80036; stroke-width: 1.0;"/><polygon fill="none" points="2515.03,138.5925,2535.83,142.6125,2517.06,152.4425,2515.03,138.5925" style="stroke: #A80036; stroke-width: 1.0;"/><!--MD5=[894eacf2e17d1c2f4b307c7f81f3aeea]
reverse link helm-source to helm-source-async--><path d="M2515.6,136.4225 C2128.14,160.2625 806.99,241.5425 462.62,262.7325 " fill="none" id="helm-source&lt;-helm-source-async" style="stroke: #A80036; stroke-width: 1.0;"/><polygon fill="none" points="2515.37,129.4225,2535.76,135.1825,2516.23,143.3925,2515.37,129.4225" style="stroke: #A80036; stroke-width: 1.0;"/><!--MD5=[7fac0f6d78841877506d9722364fbb5e]
reverse link helm-source to helm-source-sync--><path d="M2727.05,173.7225 C2771.45,192.4625 2822.62,214.0525 2864.73,231.8225 " fill="none" id="helm-source&lt;-helm-source-sync" style="stroke: #A80036; stroke-width: 1.0;"/><polygon fill="none" points="2724.19,180.1125,2708.49,165.8925,2729.64,167.2125,2724.19,180.1125" style="stroke: #A80036; stroke-width: 1.0;"/><!--MD5=[1ff86e10578f21ae8b7c2c33ec0b4b37]
link helm-fd-class to helm-grep-class--><!--MD5=[47763c2a1b2b86ef2e5cabf3ea1dc8e3]
link helm-grep-class to helm-grep-ag-class--><!--MD5=[7400861ebebd0193d7a8c5b8cf12d9cf]
link helm-grep-ag-class to helm-gid-source--><!--MD5=[4c84627f8180be92cb025c49c1995b74]
link helm-absolute-time-timers-class to helm-idle-time-timers-class--><!--MD5=[0121459bc19ca9b3817fd88a0f63b53f]
link helm-source-session-class to helm-epa--><!--MD5=[77493b019ff1f193b2083288c0aa7870]
link helm-epa to helm-esh-source--><!--MD5=[14248811f7820f097ffd7d933601bee6]
link helm-esh-source to helm-eshell-history-source--><!--MD5=[87c4543d29bc52c4081d0e780f2252f0]
link helm-eshell-history-source to helm-source-ffiles--><!--MD5=[e434868026635c23c12b73aa0f47c6ac]
link helm-source-ffiles to helm-imenu-source--><!--MD5=[f316749d092a8c76e9bb7295c831b5d0]
link helm-files-dired-source to helm-recentf-source--><!--MD5=[53fcd5504441ea495b261488ef408624]
link helm-recentf-source to helm-files-in-current-dir-source--><!--MD5=[9014fc316cbcf9d4bdba39d695ece610]
link helm-source-in-file to helm-list-el-package-source--><!--MD5=[4ac2637ea05c1f7d30e55ffaf8aec6e4]
link helm-list-el-package-source to helm-info-source--><!--MD5=[0d1a75ebf8e8ae432e94545a2f4c4527]
link helm-info-source to helm-locate-subdirs-source--><!--MD5=[d05c8f04ac81bce8613bbc82747cf830]
link helm-locate-subdirs-source to helm-moccur-class--><!--MD5=[9c0181d7378f27cb4d8a6a4a75598756]
link helm-moccur-class to helm-semantic-source--><!--MD5=[ef1dcaf54a93132f95b48d757e1b16bd]
link helm-source-dummy to helm-type-function--><!--MD5=[5b5a5040aa2a50170216d4a0d161b718]
@startuml
skinparam classFontStyle bold
skinparam classBackGroundColor #fbfb77
skinparam TitleFontStyle bold
skinparam TitleFontSize 24
title Classes in library 'Helm'\n\n
class "helm-locate-source" {
}
"helm-source-async" <|- - "helm-locate-source"
"helm-locate-override-inheritor" <|- - "helm-locate-source"
class "helm-locate-override-inheritor" {
}
"helm-type-file" <|- - "helm-locate-override-inheritor"
class "helm-file-cache" {
}
"helm-source-in-buffer" <|- - "helm-file-cache"
"helm-type-file" <|- - "helm-file-cache"
class "helm-browse-project-source" {
	Class to define a source in
	`helm-browse-project' handling
	non
	==
}
"helm-source-in-buffer" <|- - "helm-browse-project-source"
"helm-browse-project-override-inheritor" <|- - "helm-browse-project-source"
class "helm-browse-project-override-inheritor" {
}
"helm-type-file" <|- - "helm-browse-project-override-inheritor"
class "helm-fd-class" {
}
"helm-source-async" <|- - "helm-fd-class"
class "helm-absolute-time-timers-class" {
}
"helm-source-sync" <|- - "helm-absolute-time-timers-class"
"helm-type-timers" <|- - "helm-absolute-time-timers-class"
class "helm-M-x-class" {
}
"helm-source-sync" <|- - "helm-M-x-class"
"helm-type-command" <|- - "helm-M-x-class"
class "helm-source-buffers" {
}
"helm-source-sync" <|- - "helm-source-buffers"
"helm-type-buffer" <|- - "helm-source-buffers"
class "helm-bookmark-find-files-class" {
}
"helm-source-filtered-bookmarks" <|- - "helm-bookmark-find-files-class"
"helm-bookmark-override-inheritor" <|- - "helm-bookmark-find-files-class"
class "helm-bookmark-override-inheritor" {
}
"helm-source" <|- - "helm-bookmark-override-inheritor"
class "helm-source-filtered-bookmarks" {
}
"helm-source-in-buffer" <|- - "helm-source-filtered-bookmarks"
"helm-type-bookmark" <|- - "helm-source-filtered-bookmarks"
class "helm-source-basic-bookmarks" {
}
"helm-source-in-buffer" <|- - "helm-source-basic-bookmarks"
"helm-type-bookmark" <|- - "helm-source-basic-bookmarks"
class "helm-mac-spotlight-source" {
}
"helm-source-async" <|- - "helm-mac-spotlight-source"
"helm-type-file" <|- - "helm-mac-spotlight-source"
class "helm-source-session-class" {
}
"helm-source-sync" <|- - "helm-source-session-class"
class "helm-files-dired-source" {
}
"helm-source-sync" <|- - "helm-files-dired-source"
"helm-type-file" <|- - "helm-files-dired-source"
class "helm-type-timers" {
	A class to define helm type
	timers.
	==
}
"helm-source" <|- - "helm-type-timers"
class "helm-type-command" {
	A class to define helm type
	command.
	==
}
"helm-source" <|- - "helm-type-command"
class "helm-type-buffer" {
	A class to define type buffer.
	==
}
"helm-source" <|- - "helm-type-buffer"
class "helm-type-bookmark" {
	A class to define type
	bookmarks.
	==
}
"helm-source" <|- - "helm-type-bookmark"
class "helm-type-file" {
	A class to define helm type
	file.
	==
}
"helm-source" <|- - "helm-type-file"
class "helm-source-in-file" {
	The contents of the FILE will
	be used as candidates in
	buffer.
	==
}
"helm-source-in-buffer" <|- - "helm-source-in-file"
class "helm-source-dummy" {
}
"helm-source" <|- - "helm-source-dummy"
class "helm-source-in-buffer" {
	Use this source to make helm
	sources storing candidates
	inside a buffer.
	==
}
"helm-source" <|- - "helm-source-in-buffer"
class "helm-source-async" {
	Use this class to define a
	helm source calling an
	external process.
	==
}
"helm-source" <|- - "helm-source-async"
class "helm-source-sync" {
	Use this class to make helm
	sources using a list of
	candidates.
	==
}
"helm-source" <|- - "helm-source-sync"
class "helm-source" {
	Main interface to define helm
	sources.
	==
}
package "Other classes similar to 'helm-fd-class'" {
	"helm-fd-class" -down[hidden]-> "helm-grep-class"
	"helm-grep-class" -down[hidden]-> "helm-grep-ag-class"
	"helm-grep-ag-class" -down[hidden]-> "helm-gid-source"
}
package "Other classes similar to 'helm-absolute-time-timers-class'" {
	"helm-absolute-time-timers-class" -down[hidden]-> "helm-idle-time-timers-class"
}
package "Other classes similar to 'helm-source-session-class'" {
	"helm-source-session-class" -down[hidden]-> "helm-epa"
	"helm-epa" -down[hidden]-> "helm-esh-source"
	"helm-esh-source" -down[hidden]-> "helm-eshell-history-source"
	"helm-eshell-history-source" -down[hidden]-> "helm-source-ffiles"
	"helm-source-ffiles" -down[hidden]-> "helm-imenu-source"
}
package "Other classes similar to 'helm-files-dired-source'" {
	"helm-files-dired-source" -down[hidden]-> "helm-recentf-source"
	"helm-recentf-source" -down[hidden]-> "helm-files-in-current-dir-source"
}
package "Other classes similar to 'helm-source-in-file'" {
	"helm-source-in-file" -down[hidden]-> "helm-list-el-package-source"
	"helm-list-el-package-source" -down[hidden]-> "helm-info-source"
	"helm-info-source" -down[hidden]-> "helm-locate-subdirs-source"
	"helm-locate-subdirs-source" -down[hidden]-> "helm-moccur-class"
	"helm-moccur-class" -down[hidden]-> "helm-semantic-source"
}
package "Other classes similar to 'helm-source-dummy'" {
	"helm-source-dummy" -down[hidden]-> "helm-type-function"
}
@enduml

PlantUML version 1.2020.02(Sun Mar 01 15:52:07 IST 2020)
(GPL source distribution)
Java Runtime: OpenJDK Runtime Environment
JVM: OpenJDK 64-Bit Server VM
Java Version: 11.0.11-ea+8-post-Debian-1
Operating System: Linux
Default Encoding: UTF-8
Language: en
Country: IN
--></g></svg>