<?xml version="1.0" encoding="UTF-8" standalone="no"?><svg xmlns="http://www.w3.org/2000/svg" xmlns:xlink="http://www.w3.org/1999/xlink" contentScriptType="application/ecmascript" contentStyleType="text/css" height="503px" preserveAspectRatio="none" style="width:619px;height:503px;" version="1.1" viewBox="0 0 619 503" width="619px" zoomAndPan="magnify"><defs><filter height="300%" id="fpc0u6r2kx4ng" width="300%" x="-1" y="-1"><feGaussianBlur result="blurOut" stdDeviation="2.0"/><feColorMatrix in="blurOut" result="blurOut2" type="matrix" values="0 0 0 0 0 0 0 0 0 0 0 0 0 0 0 0 0 0 .4 0"/><feOffset dx="4.0" dy="4.0" in="blurOut2" result="blurOut3"/><feBlend in="SourceGraphic" in2="blurOut3" mode="normal"/></filter></defs><g><text fill="#000000" font-family="sans-serif" font-size="18" font-weight="bold" lengthAdjust="spacingAndGlyphs" textLength="240" x="192.5" y="16.708">Parents and Children of</text><text fill="#000000" font-family="sans-serif" font-size="18" font-weight="bold" lengthAdjust="spacingAndGlyphs" textLength="314" x="155.5" y="37.6611">'helm-source-basic-bookmarks'</text><text fill="#000000" font-family="sans-serif" font-size="18" lengthAdjust="spacingAndGlyphs" textLength="0" x="315.5" y="58.6143"/><text fill="#000000" font-family="sans-serif" font-size="18" lengthAdjust="spacingAndGlyphs" textLength="0" x="315.5" y="79.5674"/><!--MD5=[df56542e8c7b1aabe649dc484b739778]
class helm-source-in-buffer--><rect fill="#FEFECE" filter="url(#fpc0u6r2kx4ng)" height="48" id="helm-source-in-buffer" style="stroke: #A80036; stroke-width: 1.5;" width="185" x="6" y="199.8125"/><ellipse cx="21" cy="215.8125" fill="#ADD1B2" rx="11" ry="11" style="stroke: #A80036; stroke-width: 1.0;"/><path d="M23.9688,221.4531 Q23.3906,221.75 22.75,221.8906 Q22.1094,222.0469 21.4063,222.0469 Q18.9063,222.0469 17.5781,220.4063 Q16.2656,218.75 16.2656,215.625 Q16.2656,212.5 17.5781,210.8438 Q18.9063,209.1875 21.4063,209.1875 Q22.1094,209.1875 22.75,209.3438 Q23.4063,209.5 23.9688,209.7969 L23.9688,212.5156 Q23.3438,211.9375 22.75,211.6719 Q22.1563,211.3906 21.5313,211.3906 Q20.1875,211.3906 19.5,212.4688 Q18.8125,213.5313 18.8125,215.625 Q18.8125,217.7188 19.5,218.7969 Q20.1875,219.8594 21.5313,219.8594 Q22.1563,219.8594 22.75,219.5938 Q23.3438,219.3125 23.9688,218.7344 L23.9688,221.4531 Z "/><text fill="#000000" font-family="sans-serif" font-size="12" font-weight="bold" lengthAdjust="spacingAndGlyphs" textLength="153" x="35" y="219.9668">helm-source-in-buffer</text><line style="stroke: #A80036; stroke-width: 1.5;" x1="7" x2="190" y1="231.8125" y2="231.8125"/><line style="stroke: #A80036; stroke-width: 1.5;" x1="7" x2="190" y1="239.8125" y2="239.8125"/><!--MD5=[bf73905ec5fe3c8fa1d96a26605c7c43]
class helm-source-basic-bookmarks--><rect fill="#FEFECE" filter="url(#fpc0u6r2kx4ng)" height="184.8516" id="helm-source-basic-bookmarks" style="stroke: #A80036; stroke-width: 1.5;" width="244" x="84.5" y="307.8125"/><ellipse cx="99.5" cy="323.8125" fill="#ADD1B2" rx="11" ry="11" style="stroke: #A80036; stroke-width: 1.0;"/><path d="M102.4688,329.4531 Q101.8906,329.75 101.25,329.8906 Q100.6094,330.0469 99.9063,330.0469 Q97.4063,330.0469 96.0781,328.4063 Q94.7656,326.75 94.7656,323.625 Q94.7656,320.5 96.0781,318.8438 Q97.4063,317.1875 99.9063,317.1875 Q100.6094,317.1875 101.25,317.3438 Q101.9063,317.5 102.4688,317.7969 L102.4688,320.5156 Q101.8438,319.9375 101.25,319.6719 Q100.6563,319.3906 100.0313,319.3906 Q98.6875,319.3906 98,320.4688 Q97.3125,321.5313 97.3125,323.625 Q97.3125,325.7188 98,326.7969 Q98.6875,327.8594 100.0313,327.8594 Q100.6563,327.8594 101.25,327.5938 Q101.8438,327.3125 102.4688,326.7344 L102.4688,329.4531 Z "/><text fill="#000000" font-family="sans-serif" font-size="12" font-weight="bold" lengthAdjust="spacingAndGlyphs" textLength="212" x="113.5" y="327.9668">helm-source-basic-bookmarks</text><line style="stroke: #A80036; stroke-width: 1.5;" x1="85.5" x2="327.5" y1="339.8125" y2="339.8125"/><text fill="#000000" font-family="sans-serif" font-size="11" lengthAdjust="spacingAndGlyphs" textLength="17" x="90.5" y="370.8276">init</text><text fill="#000000" font-family="sans-serif" font-size="11" lengthAdjust="spacingAndGlyphs" textLength="62" x="90.5" y="383.6323">candidates</text><text fill="#000000" font-family="sans-serif" font-size="11" lengthAdjust="spacingAndGlyphs" textLength="25" x="90.5" y="396.437">data</text><text fill="#000000" font-family="sans-serif" font-size="11" lengthAdjust="spacingAndGlyphs" textLength="172" x="90.5" y="409.2417">filtered-candidate-transformer</text><text fill="#000000" font-family="sans-serif" font-size="11" lengthAdjust="spacingAndGlyphs" textLength="42" x="90.5" y="422.0464">get-line</text><text fill="#000000" font-family="sans-serif" font-size="11" lengthAdjust="spacingAndGlyphs" textLength="35" x="90.5" y="434.8511">match</text><text fill="#000000" font-family="sans-serif" font-size="11" lengthAdjust="spacingAndGlyphs" textLength="46" x="90.5" y="447.6558">migemo</text><text fill="#000000" font-family="sans-serif" font-size="11" lengthAdjust="spacingAndGlyphs" textLength="39" x="90.5" y="460.4604">search</text><text fill="#000000" font-family="sans-serif" font-size="11" lengthAdjust="spacingAndGlyphs" textLength="72" x="90.5" y="473.2651">search-strict</text><text fill="#000000" font-family="sans-serif" font-size="11" lengthAdjust="spacingAndGlyphs" textLength="40" x="90.5" y="486.0698">volatile</text><line style="stroke: #A80036; stroke-width: 1.5;" x1="85.5" x2="143" y1="354.2148" y2="354.2148"/><text fill="#000000" font-family="sans-serif" font-size="11" lengthAdjust="spacingAndGlyphs" textLength="127" x="143" y="357.5229">some interesting slots</text><line style="stroke: #A80036; stroke-width: 1.5;" x1="270" x2="327.5" y1="354.2148" y2="354.2148"/><!--MD5=[257e0c9decabcf296fc5e077c0fe3da7]
class helm-type-bookmark--><rect fill="#FEFECE" filter="url(#fpc0u6r2kx4ng)" height="48" id="helm-type-bookmark" style="stroke: #A80036; stroke-width: 1.5;" width="178" x="225.5" y="199.8125"/><ellipse cx="240.5" cy="215.8125" fill="#ADD1B2" rx="11" ry="11" style="stroke: #A80036; stroke-width: 1.0;"/><path d="M243.4688,221.4531 Q242.8906,221.75 242.25,221.8906 Q241.6094,222.0469 240.9063,222.0469 Q238.4063,222.0469 237.0781,220.4063 Q235.7656,218.75 235.7656,215.625 Q235.7656,212.5 237.0781,210.8438 Q238.4063,209.1875 240.9063,209.1875 Q241.6094,209.1875 242.25,209.3438 Q242.9063,209.5 243.4688,209.7969 L243.4688,212.5156 Q242.8438,211.9375 242.25,211.6719 Q241.6563,211.3906 241.0313,211.3906 Q239.6875,211.3906 239,212.4688 Q238.3125,213.5313 238.3125,215.625 Q238.3125,217.7188 239,218.7969 Q239.6875,219.8594 241.0313,219.8594 Q241.6563,219.8594 242.25,219.5938 Q242.8438,219.3125 243.4688,218.7344 L243.4688,221.4531 Z "/><text fill="#000000" font-family="sans-serif" font-size="12" font-weight="bold" lengthAdjust="spacingAndGlyphs" textLength="146" x="254.5" y="219.9668">helm-type-bookmark</text><line style="stroke: #A80036; stroke-width: 1.5;" x1="226.5" x2="402.5" y1="231.8125" y2="231.8125"/><line style="stroke: #A80036; stroke-width: 1.5;" x1="226.5" x2="402.5" y1="239.8125" y2="239.8125"/><!--MD5=[8da85e6ec6935d54267014e974a66b51]
class helm-source--><rect fill="#FEFECE" filter="url(#fpc0u6r2kx4ng)" height="48" id="helm-source" style="stroke: #A80036; stroke-width: 1.5;" width="119" x="147" y="91.8125"/><ellipse cx="162" cy="107.8125" fill="#ADD1B2" rx="11" ry="11" style="stroke: #A80036; stroke-width: 1.0;"/><path d="M164.9688,113.4531 Q164.3906,113.75 163.75,113.8906 Q163.1094,114.0469 162.4063,114.0469 Q159.9063,114.0469 158.5781,112.4063 Q157.2656,110.75 157.2656,107.625 Q157.2656,104.5 158.5781,102.8438 Q159.9063,101.1875 162.4063,101.1875 Q163.1094,101.1875 163.75,101.3438 Q164.4063,101.5 164.9688,101.7969 L164.9688,104.5156 Q164.3438,103.9375 163.75,103.6719 Q163.1563,103.3906 162.5313,103.3906 Q161.1875,103.3906 160.5,104.4688 Q159.8125,105.5313 159.8125,107.625 Q159.8125,109.7188 160.5,110.7969 Q161.1875,111.8594 162.5313,111.8594 Q163.1563,111.8594 163.75,111.5938 Q164.3438,111.3125 164.9688,110.7344 L164.9688,113.4531 Z "/><text fill="#000000" font-family="sans-serif" font-size="12" font-weight="bold" lengthAdjust="spacingAndGlyphs" textLength="87" x="176" y="111.9668">helm-source</text><line style="stroke: #A80036; stroke-width: 1.5;" x1="148" x2="265" y1="123.8125" y2="123.8125"/><line style="stroke: #A80036; stroke-width: 1.5;" x1="148" x2="265" y1="131.8125" y2="131.8125"/><path d="M364,387.8125 L364,396.3125 L328.56,400.3125 L364,404.3125 L364,412.9453 A0,0 0 0 0 364,412.9453 L607,412.9453 A0,0 0 0 0 607,412.9453 L607,397.8125 L597,387.8125 L364,387.8125 A0,0 0 0 0 364,387.8125 " fill="#FBFB77" filter="url(#fpc0u6r2kx4ng)" style="stroke: #A80036; stroke-width: 1.0;"/><path d="M597,387.8125 L597,397.8125 L607,397.8125 L597,387.8125 " fill="#FBFB77" style="stroke: #A80036; stroke-width: 1.0;"/><text fill="#000000" font-family="sans-serif" font-size="13" font-weight="bold" lengthAdjust="spacingAndGlyphs" textLength="222" x="370" y="404.8794">helm-source-basic-bookmarks</text><!--MD5=[560569eff9650cc936c24e2acd6b7c35]
reverse link helm-source-in-buffer to helm-source-basic-bookmarks--><path d="M123.49,265.1925 C131.42,278.0125 140.55,292.7425 149.77,307.6625 " fill="none" id="helm-source-in-buffer&lt;-helm-source-basic-bookmarks" style="stroke: #A80036; stroke-width: 1.0;"/><polygon fill="none" points="117.41,268.6725,112.84,247.9825,129.32,261.3025,117.41,268.6725" style="stroke: #A80036; stroke-width: 1.0;"/><!--MD5=[d74130942a07ed6c44229600fa80fecc]
reverse link helm-type-bookmark to helm-source-basic-bookmarks--><path d="M289.51,265.1925 C281.58,278.0125 272.45,292.7425 263.23,307.6625 " fill="none" id="helm-type-bookmark&lt;-helm-source-basic-bookmarks" style="stroke: #A80036; stroke-width: 1.0;"/><polygon fill="none" points="283.68,261.3025,300.16,247.9825,295.59,268.6725,283.68,261.3025" style="stroke: #A80036; stroke-width: 1.0;"/><!--MD5=[720fe72c7a837b3f6a94e411349ef229]
reverse link helm-source to helm-source-in-buffer--><path d="M168.52,154.0925 C153.12,169.2025 135.82,186.1925 122.26,199.4925 " fill="none" id="helm-source&lt;-helm-source-in-buffer" style="stroke: #A80036; stroke-width: 1.0;"/><polygon fill="none" points="163.89,148.8225,183.07,139.8125,173.7,158.8225,163.89,148.8225" style="stroke: #A80036; stroke-width: 1.0;"/><!--MD5=[b3073f519ff1e7a9af7ffffd7406ad63]
reverse link helm-source to helm-type-bookmark--><path d="M244.48,154.0925 C259.88,169.2025 277.18,186.1925 290.74,199.4925 " fill="none" id="helm-source&lt;-helm-type-bookmark" style="stroke: #A80036; stroke-width: 1.0;"/><polygon fill="none" points="239.3,158.8225,229.93,139.8125,249.11,148.8225,239.3,158.8225" style="stroke: #A80036; stroke-width: 1.0;"/><!--MD5=[6a23b050d668cecb3462418c9809aca7]
@startuml
skinparam classFontStyle bold
skinparam captionFontStyle bold
title **Parents and Children of**\n**'helm-source-basic-bookmarks'**\n\n
"helm-source-in-buffer" <|- - "helm-source-basic-bookmarks"
"helm-type-bookmark" <|- - "helm-source-basic-bookmarks"
class "helm-source-in-buffer"
"helm-source" <|- - "helm-source-in-buffer"
class "helm-source"
class "helm-type-bookmark"
"helm-source" <|- - "helm-type-bookmark"
class "helm-source"
class "helm-source-basic-bookmarks" {
	__ some interesting slots __
	init
	candidates
	data
	filtered-candidate-transformer
	get-line
	match
	migemo
	search
	search-strict
	volatile
}
note right of "helm-source-basic-bookmarks"
	**helm-source-basic-bookmarks**
end note
@enduml

PlantUML version 1.2020.02(Sun Mar 01 15:52:07 IST 2020)
(GPL source distribution)
Java Runtime: OpenJDK Runtime Environment
JVM: OpenJDK 64-Bit Server VM
Java Version: 11.0.11-ea+8-post-Debian-1
Operating System: Linux
Default Encoding: UTF-8
Language: en
Country: IN
--></g></svg>