<?xml version="1.0" encoding="UTF-8" standalone="no"?><svg xmlns="http://www.w3.org/2000/svg" xmlns:xlink="http://www.w3.org/1999/xlink" contentScriptType="application/ecmascript" contentStyleType="text/css" height="411px" preserveAspectRatio="none" style="width:1768px;height:411px;" version="1.1" viewBox="0 0 1768 411" width="1768px" zoomAndPan="magnify"><defs><filter height="300%" id="ff6var1b9e2it" width="300%" x="-1" y="-1"><feGaussianBlur result="blurOut" stdDeviation="2.0"/><feColorMatrix in="blurOut" result="blurOut2" type="matrix" values="0 0 0 0 0 0 0 0 0 0 0 0 0 0 0 0 0 0 .4 0"/><feOffset dx="4.0" dy="4.0" in="blurOut2" result="blurOut3"/><feBlend in="SourceGraphic" in2="blurOut3" mode="normal"/></filter></defs><g><text fill="#000000" font-family="sans-serif" font-size="18" font-weight="bold" lengthAdjust="spacingAndGlyphs" textLength="240" x="768" y="16.708">Parents and Children of</text><text fill="#000000" font-family="sans-serif" font-size="18" font-weight="bold" lengthAdjust="spacingAndGlyphs" textLength="153" x="811.5" y="37.6611">'helm-type-file'</text><text fill="#000000" font-family="sans-serif" font-size="18" lengthAdjust="spacingAndGlyphs" textLength="0" x="891" y="58.6143"/><text fill="#000000" font-family="sans-serif" font-size="18" lengthAdjust="spacingAndGlyphs" textLength="0" x="891" y="79.5674"/><!--MD5=[8da85e6ec6935d54267014e974a66b51]
class helm-source--><rect fill="#FEFECE" filter="url(#ff6var1b9e2it)" height="48" id="helm-source" style="stroke: #A80036; stroke-width: 1.5;" width="119" x="810" y="91.8125"/><ellipse cx="825" cy="107.8125" fill="#ADD1B2" rx="11" ry="11" style="stroke: #A80036; stroke-width: 1.0;"/><path d="M827.9688,113.4531 Q827.3906,113.75 826.75,113.8906 Q826.1094,114.0469 825.4063,114.0469 Q822.9063,114.0469 821.5781,112.4063 Q820.2656,110.75 820.2656,107.625 Q820.2656,104.5 821.5781,102.8438 Q822.9063,101.1875 825.4063,101.1875 Q826.1094,101.1875 826.75,101.3438 Q827.4063,101.5 827.9688,101.7969 L827.9688,104.5156 Q827.3438,103.9375 826.75,103.6719 Q826.1563,103.3906 825.5313,103.3906 Q824.1875,103.3906 823.5,104.4688 Q822.8125,105.5313 822.8125,107.625 Q822.8125,109.7188 823.5,110.7969 Q824.1875,111.8594 825.5313,111.8594 Q826.1563,111.8594 826.75,111.5938 Q827.3438,111.3125 827.9688,110.7344 L827.9688,113.4531 Z "/><text fill="#000000" font-family="sans-serif" font-size="12" font-weight="bold" lengthAdjust="spacingAndGlyphs" textLength="87" x="839" y="111.9668">helm-source</text><line style="stroke: #A80036; stroke-width: 1.5;" x1="811" x2="928" y1="123.8125" y2="123.8125"/><line style="stroke: #A80036; stroke-width: 1.5;" x1="811" x2="928" y1="131.8125" y2="131.8125"/><!--MD5=[d7d577ca8c64ccce694dba4b3c283648]
class helm-type-file--><rect fill="#FEFECE" filter="url(#ff6var1b9e2it)" height="92.8164" id="helm-type-file" style="stroke: #A80036; stroke-width: 1.5;" width="162" x="788.5" y="199.8125"/><ellipse cx="817.9" cy="215.8125" fill="#ADD1B2" rx="11" ry="11" style="stroke: #A80036; stroke-width: 1.0;"/><path d="M820.8688,221.4531 Q820.2906,221.75 819.65,221.8906 Q819.0094,222.0469 818.3063,222.0469 Q815.8063,222.0469 814.4781,220.4063 Q813.1656,218.75 813.1656,215.625 Q813.1656,212.5 814.4781,210.8438 Q815.8063,209.1875 818.3063,209.1875 Q819.0094,209.1875 819.65,209.3438 Q820.3063,209.5 820.8688,209.7969 L820.8688,212.5156 Q820.2438,211.9375 819.65,211.6719 Q819.0563,211.3906 818.4313,211.3906 Q817.0875,211.3906 816.4,212.4688 Q815.7125,213.5313 815.7125,215.625 Q815.7125,217.7188 816.4,218.7969 Q817.0875,219.8594 818.4313,219.8594 Q819.0563,219.8594 819.65,219.5938 Q820.2438,219.3125 820.8688,218.7344 L820.8688,221.4531 Z "/><text fill="#000000" font-family="sans-serif" font-size="12" font-weight="bold" lengthAdjust="spacingAndGlyphs" textLength="98" x="835.1" y="219.9668">helm-type-file</text><line style="stroke: #A80036; stroke-width: 1.5;" x1="789.5" x2="949.5" y1="231.8125" y2="231.8125"/><text fill="#000000" font-family="sans-serif" font-size="11" lengthAdjust="spacingAndGlyphs" textLength="150" x="794.5" y="246.0229">A class to define helm type</text><text fill="#000000" font-family="sans-serif" font-size="11" lengthAdjust="spacingAndGlyphs" textLength="21" x="794.5" y="258.8276">file.</text><line style="stroke: #A80036; stroke-width: 1.0;" x1="789.5" x2="949.5" y1="265.4219" y2="265.4219"/><line style="stroke: #A80036; stroke-width: 1.0;" x1="789.5" x2="949.5" y1="267.4219" y2="267.4219"/><line style="stroke: #A80036; stroke-width: 1.5;" x1="789.5" x2="806" y1="279.8242" y2="279.8242"/><text fill="#000000" font-family="sans-serif" font-size="11" lengthAdjust="spacingAndGlyphs" textLength="127" x="806" y="283.1323">some interesting slots</text><line style="stroke: #A80036; stroke-width: 1.5;" x1="933" x2="949.5" y1="279.8242" y2="279.8242"/><path d="M985.5,218.8125 L985.5,242.3125 L950.62,246.3125 L985.5,250.3125 L985.5,274.2109 A0,0 0 0 0 985.5,274.2109 L1179.5,274.2109 A0,0 0 0 0 1179.5,274.2109 L1179.5,228.8125 L1169.5,218.8125 L985.5,218.8125 A0,0 0 0 0 985.5,218.8125 " fill="#FBFB77" filter="url(#ff6var1b9e2it)" style="stroke: #A80036; stroke-width: 1.0;"/><path d="M1169.5,218.8125 L1169.5,228.8125 L1179.5,228.8125 L1169.5,218.8125 " fill="#FBFB77" style="stroke: #A80036; stroke-width: 1.0;"/><text fill="#000000" font-family="sans-serif" font-size="13" font-weight="bold" lengthAdjust="spacingAndGlyphs" textLength="102" x="991.5" y="235.8794">helm-type-file</text><text fill="#000000" font-family="sans-serif" font-size="13" lengthAdjust="spacingAndGlyphs" textLength="4" x="1093.5" y="235.8794">:</text><text fill="#000000" font-family="sans-serif" font-size="13" lengthAdjust="spacingAndGlyphs" textLength="173" x="991.5" y="251.0122">A class to define helm type</text><text fill="#000000" font-family="sans-serif" font-size="13" lengthAdjust="spacingAndGlyphs" textLength="22" x="991.5" y="266.145">file.</text><!--MD5=[acc538c4de58be324c7884953f9df4c3]
class helm-mac-spotlight-source--><rect fill="#FEFECE" filter="url(#ff6var1b9e2it)" height="48" id="helm-mac-spotlight-source" style="stroke: #A80036; stroke-width: 1.5;" width="221" x="6" y="352.8125"/><ellipse cx="21" cy="368.8125" fill="#ADD1B2" rx="11" ry="11" style="stroke: #A80036; stroke-width: 1.0;"/><path d="M23.9688,374.4531 Q23.3906,374.75 22.75,374.8906 Q22.1094,375.0469 21.4063,375.0469 Q18.9063,375.0469 17.5781,373.4063 Q16.2656,371.75 16.2656,368.625 Q16.2656,365.5 17.5781,363.8438 Q18.9063,362.1875 21.4063,362.1875 Q22.1094,362.1875 22.75,362.3438 Q23.4063,362.5 23.9688,362.7969 L23.9688,365.5156 Q23.3438,364.9375 22.75,364.6719 Q22.1563,364.3906 21.5313,364.3906 Q20.1875,364.3906 19.5,365.4688 Q18.8125,366.5313 18.8125,368.625 Q18.8125,370.7188 19.5,371.7969 Q20.1875,372.8594 21.5313,372.8594 Q22.1563,372.8594 22.75,372.5938 Q23.3438,372.3125 23.9688,371.7344 L23.9688,374.4531 Z "/><text fill="#000000" font-family="sans-serif" font-size="12" font-weight="bold" lengthAdjust="spacingAndGlyphs" textLength="189" x="35" y="372.9668">helm-mac-spotlight-source</text><line style="stroke: #A80036; stroke-width: 1.5;" x1="7" x2="226" y1="384.8125" y2="384.8125"/><line style="stroke: #A80036; stroke-width: 1.5;" x1="7" x2="226" y1="392.8125" y2="392.8125"/><!--MD5=[9c6bffcc58873ff705394a767f912448]
class helm-files-dired-source--><rect fill="#FEFECE" filter="url(#ff6var1b9e2it)" height="48" id="helm-files-dired-source" style="stroke: #A80036; stroke-width: 1.5;" width="196" x="262.5" y="352.8125"/><ellipse cx="277.5" cy="368.8125" fill="#ADD1B2" rx="11" ry="11" style="stroke: #A80036; stroke-width: 1.0;"/><path d="M280.4688,374.4531 Q279.8906,374.75 279.25,374.8906 Q278.6094,375.0469 277.9063,375.0469 Q275.4063,375.0469 274.0781,373.4063 Q272.7656,371.75 272.7656,368.625 Q272.7656,365.5 274.0781,363.8438 Q275.4063,362.1875 277.9063,362.1875 Q278.6094,362.1875 279.25,362.3438 Q279.9063,362.5 280.4688,362.7969 L280.4688,365.5156 Q279.8438,364.9375 279.25,364.6719 Q278.6563,364.3906 278.0313,364.3906 Q276.6875,364.3906 276,365.4688 Q275.3125,366.5313 275.3125,368.625 Q275.3125,370.7188 276,371.7969 Q276.6875,372.8594 278.0313,372.8594 Q278.6563,372.8594 279.25,372.5938 Q279.8438,372.3125 280.4688,371.7344 L280.4688,374.4531 Z "/><text fill="#000000" font-family="sans-serif" font-size="12" font-weight="bold" lengthAdjust="spacingAndGlyphs" textLength="164" x="291.5" y="372.9668">helm-files-dired-source</text><line style="stroke: #A80036; stroke-width: 1.5;" x1="263.5" x2="457.5" y1="384.8125" y2="384.8125"/><line style="stroke: #A80036; stroke-width: 1.5;" x1="263.5" x2="457.5" y1="392.8125" y2="392.8125"/><!--MD5=[b49d18483e901ae1bf6135ad896f4fad]
class helm-files-in-current-dir-source--><rect fill="#FEFECE" filter="url(#ff6var1b9e2it)" height="48" id="helm-files-in-current-dir-source" style="stroke: #A80036; stroke-width: 1.5;" width="253" x="494" y="352.8125"/><ellipse cx="509" cy="368.8125" fill="#ADD1B2" rx="11" ry="11" style="stroke: #A80036; stroke-width: 1.0;"/><path d="M511.9688,374.4531 Q511.3906,374.75 510.75,374.8906 Q510.1094,375.0469 509.4063,375.0469 Q506.9063,375.0469 505.5781,373.4063 Q504.2656,371.75 504.2656,368.625 Q504.2656,365.5 505.5781,363.8438 Q506.9063,362.1875 509.4063,362.1875 Q510.1094,362.1875 510.75,362.3438 Q511.4063,362.5 511.9688,362.7969 L511.9688,365.5156 Q511.3438,364.9375 510.75,364.6719 Q510.1563,364.3906 509.5313,364.3906 Q508.1875,364.3906 507.5,365.4688 Q506.8125,366.5313 506.8125,368.625 Q506.8125,370.7188 507.5,371.7969 Q508.1875,372.8594 509.5313,372.8594 Q510.1563,372.8594 510.75,372.5938 Q511.3438,372.3125 511.9688,371.7344 L511.9688,374.4531 Z "/><text fill="#000000" font-family="sans-serif" font-size="12" font-weight="bold" lengthAdjust="spacingAndGlyphs" textLength="221" x="523" y="372.9668">helm-files-in-current-dir-source</text><line style="stroke: #A80036; stroke-width: 1.5;" x1="495" x2="746" y1="384.8125" y2="384.8125"/><line style="stroke: #A80036; stroke-width: 1.5;" x1="495" x2="746" y1="392.8125" y2="392.8125"/><!--MD5=[f9787a7e913788f0fbbca93390d6041a]
class helm-recentf-source--><rect fill="#FEFECE" filter="url(#ff6var1b9e2it)" height="48" id="helm-recentf-source" style="stroke: #A80036; stroke-width: 1.5;" width="175" x="782" y="352.8125"/><ellipse cx="797" cy="368.8125" fill="#ADD1B2" rx="11" ry="11" style="stroke: #A80036; stroke-width: 1.0;"/><path d="M799.9688,374.4531 Q799.3906,374.75 798.75,374.8906 Q798.1094,375.0469 797.4063,375.0469 Q794.9063,375.0469 793.5781,373.4063 Q792.2656,371.75 792.2656,368.625 Q792.2656,365.5 793.5781,363.8438 Q794.9063,362.1875 797.4063,362.1875 Q798.1094,362.1875 798.75,362.3438 Q799.4063,362.5 799.9688,362.7969 L799.9688,365.5156 Q799.3438,364.9375 798.75,364.6719 Q798.1563,364.3906 797.5313,364.3906 Q796.1875,364.3906 795.5,365.4688 Q794.8125,366.5313 794.8125,368.625 Q794.8125,370.7188 795.5,371.7969 Q796.1875,372.8594 797.5313,372.8594 Q798.1563,372.8594 798.75,372.5938 Q799.3438,372.3125 799.9688,371.7344 L799.9688,374.4531 Z "/><text fill="#000000" font-family="sans-serif" font-size="12" font-weight="bold" lengthAdjust="spacingAndGlyphs" textLength="143" x="811" y="372.9668">helm-recentf-source</text><line style="stroke: #A80036; stroke-width: 1.5;" x1="783" x2="956" y1="384.8125" y2="384.8125"/><line style="stroke: #A80036; stroke-width: 1.5;" x1="783" x2="956" y1="392.8125" y2="392.8125"/><!--MD5=[11858bbdb8c329cf3bf1e5498cb0b794]
class helm-file-cache--><rect fill="#FEFECE" filter="url(#ff6var1b9e2it)" height="48" id="helm-file-cache" style="stroke: #A80036; stroke-width: 1.5;" width="139" x="992" y="352.8125"/><ellipse cx="1007" cy="368.8125" fill="#ADD1B2" rx="11" ry="11" style="stroke: #A80036; stroke-width: 1.0;"/><path d="M1009.9688,374.4531 Q1009.3906,374.75 1008.75,374.8906 Q1008.1094,375.0469 1007.4063,375.0469 Q1004.9063,375.0469 1003.5781,373.4063 Q1002.2656,371.75 1002.2656,368.625 Q1002.2656,365.5 1003.5781,363.8438 Q1004.9063,362.1875 1007.4063,362.1875 Q1008.1094,362.1875 1008.75,362.3438 Q1009.4063,362.5 1009.9688,362.7969 L1009.9688,365.5156 Q1009.3438,364.9375 1008.75,364.6719 Q1008.1563,364.3906 1007.5313,364.3906 Q1006.1875,364.3906 1005.5,365.4688 Q1004.8125,366.5313 1004.8125,368.625 Q1004.8125,370.7188 1005.5,371.7969 Q1006.1875,372.8594 1007.5313,372.8594 Q1008.1563,372.8594 1008.75,372.5938 Q1009.3438,372.3125 1009.9688,371.7344 L1009.9688,374.4531 Z "/><text fill="#000000" font-family="sans-serif" font-size="12" font-weight="bold" lengthAdjust="spacingAndGlyphs" textLength="107" x="1021" y="372.9668">helm-file-cache</text><line style="stroke: #A80036; stroke-width: 1.5;" x1="993" x2="1130" y1="384.8125" y2="384.8125"/><line style="stroke: #A80036; stroke-width: 1.5;" x1="993" x2="1130" y1="392.8125" y2="392.8125"/><!--MD5=[473c7582700aad271b06bfe20c99b25e]
class helm-browse-project-override-inheritor--><rect fill="#FEFECE" filter="url(#ff6var1b9e2it)" height="48" id="helm-browse-project-override-inheritor" style="stroke: #A80036; stroke-width: 1.5;" width="310" x="1166.5" y="352.8125"/><ellipse cx="1181.5" cy="368.8125" fill="#ADD1B2" rx="11" ry="11" style="stroke: #A80036; stroke-width: 1.0;"/><path d="M1184.4688,374.4531 Q1183.8906,374.75 1183.25,374.8906 Q1182.6094,375.0469 1181.9063,375.0469 Q1179.4063,375.0469 1178.0781,373.4063 Q1176.7656,371.75 1176.7656,368.625 Q1176.7656,365.5 1178.0781,363.8438 Q1179.4063,362.1875 1181.9063,362.1875 Q1182.6094,362.1875 1183.25,362.3438 Q1183.9063,362.5 1184.4688,362.7969 L1184.4688,365.5156 Q1183.8438,364.9375 1183.25,364.6719 Q1182.6563,364.3906 1182.0313,364.3906 Q1180.6875,364.3906 1180,365.4688 Q1179.3125,366.5313 1179.3125,368.625 Q1179.3125,370.7188 1180,371.7969 Q1180.6875,372.8594 1182.0313,372.8594 Q1182.6563,372.8594 1183.25,372.5938 Q1183.8438,372.3125 1184.4688,371.7344 L1184.4688,374.4531 Z "/><text fill="#000000" font-family="sans-serif" font-size="12" font-weight="bold" lengthAdjust="spacingAndGlyphs" textLength="278" x="1195.5" y="372.9668">helm-browse-project-override-inheritor</text><line style="stroke: #A80036; stroke-width: 1.5;" x1="1167.5" x2="1475.5" y1="384.8125" y2="384.8125"/><line style="stroke: #A80036; stroke-width: 1.5;" x1="1167.5" x2="1475.5" y1="392.8125" y2="392.8125"/><!--MD5=[2e3d3b2922e1daf59c103872c87a469e]
class helm-locate-override-inheritor--><rect fill="#FEFECE" filter="url(#ff6var1b9e2it)" height="48" id="helm-locate-override-inheritor" style="stroke: #A80036; stroke-width: 1.5;" width="246" x="1511.5" y="352.8125"/><ellipse cx="1526.5" cy="368.8125" fill="#ADD1B2" rx="11" ry="11" style="stroke: #A80036; stroke-width: 1.0;"/><path d="M1529.4688,374.4531 Q1528.8906,374.75 1528.25,374.8906 Q1527.6094,375.0469 1526.9063,375.0469 Q1524.4063,375.0469 1523.0781,373.4063 Q1521.7656,371.75 1521.7656,368.625 Q1521.7656,365.5 1523.0781,363.8438 Q1524.4063,362.1875 1526.9063,362.1875 Q1527.6094,362.1875 1528.25,362.3438 Q1528.9063,362.5 1529.4688,362.7969 L1529.4688,365.5156 Q1528.8438,364.9375 1528.25,364.6719 Q1527.6563,364.3906 1527.0313,364.3906 Q1525.6875,364.3906 1525,365.4688 Q1524.3125,366.5313 1524.3125,368.625 Q1524.3125,370.7188 1525,371.7969 Q1525.6875,372.8594 1527.0313,372.8594 Q1527.6563,372.8594 1528.25,372.5938 Q1528.8438,372.3125 1529.4688,371.7344 L1529.4688,374.4531 Z "/><text fill="#000000" font-family="sans-serif" font-size="12" font-weight="bold" lengthAdjust="spacingAndGlyphs" textLength="214" x="1540.5" y="372.9668">helm-locate-override-inheritor</text><line style="stroke: #A80036; stroke-width: 1.5;" x1="1512.5" x2="1756.5" y1="384.8125" y2="384.8125"/><line style="stroke: #A80036; stroke-width: 1.5;" x1="1512.5" x2="1756.5" y1="392.8125" y2="392.8125"/><!--MD5=[4dcf8b063d240b570d0bdaa319fd46e4]
reverse link helm-source to helm-type-file--><path d="M869.5,160.4125 C869.5,173.0325 869.5,186.8425 869.5,199.5825 " fill="none" id="helm-source&lt;-helm-type-file" style="stroke: #A80036; stroke-width: 1.0;"/><polygon fill="none" points="862.5,160.0825,869.5,140.0825,876.5,160.0825,862.5,160.0825" style="stroke: #A80036; stroke-width: 1.0;"/><!--MD5=[a474bc848475b2374c1d2bb84f271e9b]
reverse link helm-type-file to helm-mac-spotlight-source--><path d="M768.27,264.0625 C644.62,284.6025 429.09,320.6525 244.5,352.8125 C238.83,353.8025 233.02,354.8225 227.15,355.8525 " fill="none" id="helm-type-file&lt;-helm-mac-spotlight-source" style="stroke: #A80036; stroke-width: 1.0;"/><polygon fill="none" points="767.17,257.1525,788.05,260.7825,769.47,270.9625,767.17,257.1525" style="stroke: #A80036; stroke-width: 1.0;"/><!--MD5=[05800070c5d625a950fe67b1123c2019]
reverse link helm-type-file to helm-files-dired-source--><path d="M768.7,272.7625 C676.38,296.0625 540.92,330.2625 451.74,352.7825 " fill="none" id="helm-type-file&lt;-helm-files-dired-source" style="stroke: #A80036; stroke-width: 1.0;"/><polygon fill="none" points="767.18,265.9225,788.28,267.8125,770.61,279.5025,767.18,265.9225" style="stroke: #A80036; stroke-width: 1.0;"/><!--MD5=[3570d02ac558741aaeedfaae7abb82a0]
reverse link helm-type-file to helm-files-in-current-dir-source--><path d="M770.21,298.5525 C733.86,317.3125 694.51,337.6125 665.29,352.7025 " fill="none" id="helm-type-file&lt;-helm-files-in-current-dir-source" style="stroke: #A80036; stroke-width: 1.0;"/><polygon fill="none" points="767.33,292.1625,788.31,289.2125,773.75,304.6025,767.33,292.1625" style="stroke: #A80036; stroke-width: 1.0;"/><!--MD5=[c214b1996ffa22e8ee90459314819dd7]
reverse link helm-type-file to helm-recentf-source--><path d="M869.5,313.4125 C869.5,327.5125 869.5,341.5025 869.5,352.6425 " fill="none" id="helm-type-file&lt;-helm-recentf-source" style="stroke: #A80036; stroke-width: 1.0;"/><polygon fill="none" points="862.5,312.9825,869.5,292.9825,876.5,312.9825,862.5,312.9825" style="stroke: #A80036; stroke-width: 1.0;"/><!--MD5=[20fb0892ad389f5d9224faeaf3fbf8f9]
reverse link helm-type-file to helm-file-cache--><path d="M954.68,304.3225 C980.15,321.3625 1006.65,339.1025 1026.88,352.6425 " fill="none" id="helm-type-file&lt;-helm-file-cache" style="stroke: #A80036; stroke-width: 1.0;"/><polygon fill="none" points="950.46,309.9225,937.73,292.9825,958.25,298.2825,950.46,309.9225" style="stroke: #A80036; stroke-width: 1.0;"/><!--MD5=[7dce46f1711674df8238e0c6e8679f53]
reverse link helm-type-file to helm-browse-project-override-inheritor--><path d="M969.6,292.6425 C1054.4,321.0625 1132.88,339.5825 1196.44,352.7625 " fill="none" id="helm-type-file&lt;-helm-browse-project-override-inheritor" style="stroke: #A80036; stroke-width: 1.0;"/><polygon fill="none" points="967.21,299.2225,950.55,286.1225,971.74,285.9725,967.21,299.2225" style="stroke: #A80036; stroke-width: 1.0;"/><!--MD5=[ea3943677655752665563907a8ed1189]
reverse link helm-type-file to helm-locate-override-inheritor--><path d="M969.9,292.3625 C1198.81,354.2025 1267.71,321.2725 1494.5,352.8125 C1499.99,353.5725 1505.59,354.3825 1511.25,355.2225 " fill="none" id="helm-type-file&lt;-helm-locate-override-inheritor" style="stroke: #A80036; stroke-width: 1.0;"/><polygon fill="none" points="967.99,299.0925,950.58,287.0225,971.72,285.6025,967.99,299.0925" style="stroke: #A80036; stroke-width: 1.0;"/><!--MD5=[f161b674adc892f9bea226323700e36f]
@startuml
skinparam classFontStyle bold
skinparam captionFontStyle bold
title **Parents and Children of**\n**'helm-type-file'**\n\n
"helm-source" <|- - "helm-type-file"
class "helm-source"
class "helm-type-file" {
	A class to define helm type
	file.
	==
	__ some interesting slots __
}
note right of "helm-type-file"
	**helm-type-file**:
	A class to define helm type
	file.
end note
"helm-type-file" <|- - "helm-mac-spotlight-source"
"helm-type-file" <|- - "helm-files-dired-source"
"helm-type-file" <|- - "helm-files-in-current-dir-source"
"helm-type-file" <|- - "helm-recentf-source"
"helm-type-file" <|- - "helm-file-cache"
"helm-type-file" <|- - "helm-browse-project-override-inheritor"
"helm-type-file" <|- - "helm-locate-override-inheritor"
@enduml

PlantUML version 1.2020.02(Sun Mar 01 15:52:07 IST 2020)
(GPL source distribution)
Java Runtime: OpenJDK Runtime Environment
JVM: OpenJDK 64-Bit Server VM
Java Version: 11.0.11-ea+8-post-Debian-1
Operating System: Linux
Default Encoding: UTF-8
Language: en
Country: IN
--></g></svg>