<?xml version="1.0" encoding="UTF-8" standalone="no"?><svg xmlns="http://www.w3.org/2000/svg" xmlns:xlink="http://www.w3.org/1999/xlink" contentScriptType="application/ecmascript" contentStyleType="text/css" height="447px" preserveAspectRatio="none" style="width:1167px;height:447px;" version="1.1" viewBox="0 0 1167 447" width="1167px" zoomAndPan="magnify"><defs><filter height="300%" id="f137s0e9njoo0n" width="300%" x="-1" y="-1"><feGaussianBlur result="blurOut" stdDeviation="2.0"/><feColorMatrix in="blurOut" result="blurOut2" type="matrix" values="0 0 0 0 0 0 0 0 0 0 0 0 0 0 0 0 0 0 .4 0"/><feOffset dx="4.0" dy="4.0" in="blurOut2" result="blurOut3"/><feBlend in="SourceGraphic" in2="blurOut3" mode="normal"/></filter></defs><g><text fill="#000000" font-family="sans-serif" font-size="18" font-weight="bold" lengthAdjust="spacingAndGlyphs" textLength="240" x="467" y="16.708">Parents and Children of</text><text fill="#000000" font-family="sans-serif" font-size="18" font-weight="bold" lengthAdjust="spacingAndGlyphs" textLength="202" x="486" y="37.6611">'helm-source-async'</text><text fill="#000000" font-family="sans-serif" font-size="18" lengthAdjust="spacingAndGlyphs" textLength="0" x="590" y="58.6143"/><text fill="#000000" font-family="sans-serif" font-size="18" lengthAdjust="spacingAndGlyphs" textLength="0" x="590" y="79.5674"/><!--MD5=[8da85e6ec6935d54267014e974a66b51]
class helm-source--><rect fill="#FEFECE" filter="url(#f137s0e9njoo0n)" height="48" id="helm-source" style="stroke: #A80036; stroke-width: 1.5;" width="119" x="538" y="91.8125"/><ellipse cx="553" cy="107.8125" fill="#ADD1B2" rx="11" ry="11" style="stroke: #A80036; stroke-width: 1.0;"/><path d="M555.9688,113.4531 Q555.3906,113.75 554.75,113.8906 Q554.1094,114.0469 553.4063,114.0469 Q550.9063,114.0469 549.5781,112.4063 Q548.2656,110.75 548.2656,107.625 Q548.2656,104.5 549.5781,102.8438 Q550.9063,101.1875 553.4063,101.1875 Q554.1094,101.1875 554.75,101.3438 Q555.4063,101.5 555.9688,101.7969 L555.9688,104.5156 Q555.3438,103.9375 554.75,103.6719 Q554.1563,103.3906 553.5313,103.3906 Q552.1875,103.3906 551.5,104.4688 Q550.8125,105.5313 550.8125,107.625 Q550.8125,109.7188 551.5,110.7969 Q552.1875,111.8594 553.5313,111.8594 Q554.1563,111.8594 554.75,111.5938 Q555.3438,111.3125 555.9688,110.7344 L555.9688,113.4531 Z "/><text fill="#000000" font-family="sans-serif" font-size="12" font-weight="bold" lengthAdjust="spacingAndGlyphs" textLength="87" x="567" y="111.9668">helm-source</text><line style="stroke: #A80036; stroke-width: 1.5;" x1="539" x2="656" y1="123.8125" y2="123.8125"/><line style="stroke: #A80036; stroke-width: 1.5;" x1="539" x2="656" y1="131.8125" y2="131.8125"/><!--MD5=[12d16a9c65828dace8d907a7ab3ef450]
class helm-source-async--><rect fill="#FEFECE" filter="url(#f137s0e9njoo0n)" height="128.8281" id="helm-source-async" style="stroke: #A80036; stroke-width: 1.5;" width="165" x="515" y="199.8125"/><ellipse cx="530" cy="215.8125" fill="#ADD1B2" rx="11" ry="11" style="stroke: #A80036; stroke-width: 1.0;"/><path d="M532.9688,221.4531 Q532.3906,221.75 531.75,221.8906 Q531.1094,222.0469 530.4063,222.0469 Q527.9063,222.0469 526.5781,220.4063 Q525.2656,218.75 525.2656,215.625 Q525.2656,212.5 526.5781,210.8438 Q527.9063,209.1875 530.4063,209.1875 Q531.1094,209.1875 531.75,209.3438 Q532.4063,209.5 532.9688,209.7969 L532.9688,212.5156 Q532.3438,211.9375 531.75,211.6719 Q531.1563,211.3906 530.5313,211.3906 Q529.1875,211.3906 528.5,212.4688 Q527.8125,213.5313 527.8125,215.625 Q527.8125,217.7188 528.5,218.7969 Q529.1875,219.8594 530.5313,219.8594 Q531.1563,219.8594 531.75,219.5938 Q532.3438,219.3125 532.9688,218.7344 L532.9688,221.4531 Z "/><text fill="#000000" font-family="sans-serif" font-size="12" font-weight="bold" lengthAdjust="spacingAndGlyphs" textLength="133" x="544" y="219.9668">helm-source-async</text><line style="stroke: #A80036; stroke-width: 1.5;" x1="516" x2="679" y1="231.8125" y2="231.8125"/><text fill="#000000" font-family="sans-serif" font-size="11" lengthAdjust="spacingAndGlyphs" textLength="141" x="521" y="246.0229">Use this class to define a</text><text fill="#000000" font-family="sans-serif" font-size="11" lengthAdjust="spacingAndGlyphs" textLength="126" x="521" y="258.8276">helm source calling an</text><text fill="#000000" font-family="sans-serif" font-size="11" lengthAdjust="spacingAndGlyphs" textLength="99" x="521" y="271.6323">external process.</text><line style="stroke: #A80036; stroke-width: 1.0;" x1="516" x2="679" y1="278.2266" y2="278.2266"/><line style="stroke: #A80036; stroke-width: 1.0;" x1="516" x2="679" y1="280.2266" y2="280.2266"/><text fill="#000000" font-family="sans-serif" font-size="11" lengthAdjust="spacingAndGlyphs" textLength="112" x="521" y="309.2417">candidates-process</text><text fill="#000000" font-family="sans-serif" font-size="11" lengthAdjust="spacingAndGlyphs" textLength="63" x="521" y="322.0464">multimatch</text><line style="stroke: #A80036; stroke-width: 1.5;" x1="516" x2="534" y1="292.6289" y2="292.6289"/><text fill="#000000" font-family="sans-serif" font-size="11" lengthAdjust="spacingAndGlyphs" textLength="127" x="534" y="295.937">some interesting slots</text><line style="stroke: #A80036; stroke-width: 1.5;" x1="661" x2="679" y1="292.6289" y2="292.6289"/><path d="M715,228.8125 L715,260.3125 L680.38,264.3125 L715,268.3125 L715,299.3438 A0,0 0 0 0 715,299.3438 L896,299.3438 A0,0 0 0 0 896,299.3438 L896,238.8125 L886,228.8125 L715,228.8125 A0,0 0 0 0 715,228.8125 " fill="#FBFB77" filter="url(#f137s0e9njoo0n)" style="stroke: #A80036; stroke-width: 1.0;"/><path d="M886,228.8125 L886,238.8125 L896,238.8125 L886,228.8125 " fill="#FBFB77" style="stroke: #A80036; stroke-width: 1.0;"/><text fill="#000000" font-family="sans-serif" font-size="13" font-weight="bold" lengthAdjust="spacingAndGlyphs" textLength="137" x="721" y="245.8794">helm-source-async</text><text fill="#000000" font-family="sans-serif" font-size="13" lengthAdjust="spacingAndGlyphs" textLength="4" x="858" y="245.8794">:</text><text fill="#000000" font-family="sans-serif" font-size="13" lengthAdjust="spacingAndGlyphs" textLength="160" x="721" y="261.0122">Use this class to define a</text><text fill="#000000" font-family="sans-serif" font-size="13" lengthAdjust="spacingAndGlyphs" textLength="143" x="721" y="276.145">helm source calling an</text><text fill="#000000" font-family="sans-serif" font-size="13" lengthAdjust="spacingAndGlyphs" textLength="110" x="721" y="291.2778">external process.</text><!--MD5=[acc538c4de58be324c7884953f9df4c3]
class helm-mac-spotlight-source--><rect fill="#FEFECE" filter="url(#f137s0e9njoo0n)" height="48" id="helm-mac-spotlight-source" style="stroke: #A80036; stroke-width: 1.5;" width="221" x="6" y="388.8125"/><ellipse cx="21" cy="404.8125" fill="#ADD1B2" rx="11" ry="11" style="stroke: #A80036; stroke-width: 1.0;"/><path d="M23.9688,410.4531 Q23.3906,410.75 22.75,410.8906 Q22.1094,411.0469 21.4063,411.0469 Q18.9063,411.0469 17.5781,409.4063 Q16.2656,407.75 16.2656,404.625 Q16.2656,401.5 17.5781,399.8438 Q18.9063,398.1875 21.4063,398.1875 Q22.1094,398.1875 22.75,398.3438 Q23.4063,398.5 23.9688,398.7969 L23.9688,401.5156 Q23.3438,400.9375 22.75,400.6719 Q22.1563,400.3906 21.5313,400.3906 Q20.1875,400.3906 19.5,401.4688 Q18.8125,402.5313 18.8125,404.625 Q18.8125,406.7188 19.5,407.7969 Q20.1875,408.8594 21.5313,408.8594 Q22.1563,408.8594 22.75,408.5938 Q23.3438,408.3125 23.9688,407.7344 L23.9688,410.4531 Z "/><text fill="#000000" font-family="sans-serif" font-size="12" font-weight="bold" lengthAdjust="spacingAndGlyphs" textLength="189" x="35" y="408.9668">helm-mac-spotlight-source</text><line style="stroke: #A80036; stroke-width: 1.5;" x1="7" x2="226" y1="420.8125" y2="420.8125"/><line style="stroke: #A80036; stroke-width: 1.5;" x1="7" x2="226" y1="428.8125" y2="428.8125"/><!--MD5=[d36bc6d3d79507f675f4471be5eaf52f]
class helm-gid-source--><rect fill="#FEFECE" filter="url(#f137s0e9njoo0n)" height="48" id="helm-gid-source" style="stroke: #A80036; stroke-width: 1.5;" width="146" x="262.5" y="388.8125"/><ellipse cx="277.5" cy="404.8125" fill="#ADD1B2" rx="11" ry="11" style="stroke: #A80036; stroke-width: 1.0;"/><path d="M280.4688,410.4531 Q279.8906,410.75 279.25,410.8906 Q278.6094,411.0469 277.9063,411.0469 Q275.4063,411.0469 274.0781,409.4063 Q272.7656,407.75 272.7656,404.625 Q272.7656,401.5 274.0781,399.8438 Q275.4063,398.1875 277.9063,398.1875 Q278.6094,398.1875 279.25,398.3438 Q279.9063,398.5 280.4688,398.7969 L280.4688,401.5156 Q279.8438,400.9375 279.25,400.6719 Q278.6563,400.3906 278.0313,400.3906 Q276.6875,400.3906 276,401.4688 Q275.3125,402.5313 275.3125,404.625 Q275.3125,406.7188 276,407.7969 Q276.6875,408.8594 278.0313,408.8594 Q278.6563,408.8594 279.25,408.5938 Q279.8438,408.3125 280.4688,407.7344 L280.4688,410.4531 Z "/><text fill="#000000" font-family="sans-serif" font-size="12" font-weight="bold" lengthAdjust="spacingAndGlyphs" textLength="114" x="291.5" y="408.9668">helm-gid-source</text><line style="stroke: #A80036; stroke-width: 1.5;" x1="263.5" x2="407.5" y1="420.8125" y2="420.8125"/><line style="stroke: #A80036; stroke-width: 1.5;" x1="263.5" x2="407.5" y1="428.8125" y2="428.8125"/><!--MD5=[bd2ea1af02554a0352e5fd98d33b66ab]
class helm-fd-class--><rect fill="#FEFECE" filter="url(#f137s0e9njoo0n)" height="48" id="helm-fd-class" style="stroke: #A80036; stroke-width: 1.5;" width="126" x="443.5" y="388.8125"/><ellipse cx="458.5" cy="404.8125" fill="#ADD1B2" rx="11" ry="11" style="stroke: #A80036; stroke-width: 1.0;"/><path d="M461.4688,410.4531 Q460.8906,410.75 460.25,410.8906 Q459.6094,411.0469 458.9063,411.0469 Q456.4063,411.0469 455.0781,409.4063 Q453.7656,407.75 453.7656,404.625 Q453.7656,401.5 455.0781,399.8438 Q456.4063,398.1875 458.9063,398.1875 Q459.6094,398.1875 460.25,398.3438 Q460.9063,398.5 461.4688,398.7969 L461.4688,401.5156 Q460.8438,400.9375 460.25,400.6719 Q459.6563,400.3906 459.0313,400.3906 Q457.6875,400.3906 457,401.4688 Q456.3125,402.5313 456.3125,404.625 Q456.3125,406.7188 457,407.7969 Q457.6875,408.8594 459.0313,408.8594 Q459.6563,408.8594 460.25,408.5938 Q460.8438,408.3125 461.4688,407.7344 L461.4688,410.4531 Z "/><text fill="#000000" font-family="sans-serif" font-size="12" font-weight="bold" lengthAdjust="spacingAndGlyphs" textLength="94" x="472.5" y="408.9668">helm-fd-class</text><line style="stroke: #A80036; stroke-width: 1.5;" x1="444.5" x2="568.5" y1="420.8125" y2="420.8125"/><line style="stroke: #A80036; stroke-width: 1.5;" x1="444.5" x2="568.5" y1="428.8125" y2="428.8125"/><!--MD5=[78e52b23f8e756ae73535f85f4ae9d39]
class helm-locate-source--><rect fill="#FEFECE" filter="url(#f137s0e9njoo0n)" height="48" id="helm-locate-source" style="stroke: #A80036; stroke-width: 1.5;" width="168" x="604.5" y="388.8125"/><ellipse cx="619.5" cy="404.8125" fill="#ADD1B2" rx="11" ry="11" style="stroke: #A80036; stroke-width: 1.0;"/><path d="M622.4688,410.4531 Q621.8906,410.75 621.25,410.8906 Q620.6094,411.0469 619.9063,411.0469 Q617.4063,411.0469 616.0781,409.4063 Q614.7656,407.75 614.7656,404.625 Q614.7656,401.5 616.0781,399.8438 Q617.4063,398.1875 619.9063,398.1875 Q620.6094,398.1875 621.25,398.3438 Q621.9063,398.5 622.4688,398.7969 L622.4688,401.5156 Q621.8438,400.9375 621.25,400.6719 Q620.6563,400.3906 620.0313,400.3906 Q618.6875,400.3906 618,401.4688 Q617.3125,402.5313 617.3125,404.625 Q617.3125,406.7188 618,407.7969 Q618.6875,408.8594 620.0313,408.8594 Q620.6563,408.8594 621.25,408.5938 Q621.8438,408.3125 622.4688,407.7344 L622.4688,410.4531 Z "/><text fill="#000000" font-family="sans-serif" font-size="12" font-weight="bold" lengthAdjust="spacingAndGlyphs" textLength="136" x="633.5" y="408.9668">helm-locate-source</text><line style="stroke: #A80036; stroke-width: 1.5;" x1="605.5" x2="771.5" y1="420.8125" y2="420.8125"/><line style="stroke: #A80036; stroke-width: 1.5;" x1="605.5" x2="771.5" y1="428.8125" y2="428.8125"/><!--MD5=[48c627d917d22eb9e4865aed3bf653fb]
class helm-grep-ag-class--><rect fill="#FEFECE" filter="url(#f137s0e9njoo0n)" height="48" id="helm-grep-ag-class" style="stroke: #A80036; stroke-width: 1.5;" width="168" x="807.5" y="388.8125"/><ellipse cx="822.5" cy="404.8125" fill="#ADD1B2" rx="11" ry="11" style="stroke: #A80036; stroke-width: 1.0;"/><path d="M825.4688,410.4531 Q824.8906,410.75 824.25,410.8906 Q823.6094,411.0469 822.9063,411.0469 Q820.4063,411.0469 819.0781,409.4063 Q817.7656,407.75 817.7656,404.625 Q817.7656,401.5 819.0781,399.8438 Q820.4063,398.1875 822.9063,398.1875 Q823.6094,398.1875 824.25,398.3438 Q824.9063,398.5 825.4688,398.7969 L825.4688,401.5156 Q824.8438,400.9375 824.25,400.6719 Q823.6563,400.3906 823.0313,400.3906 Q821.6875,400.3906 821,401.4688 Q820.3125,402.5313 820.3125,404.625 Q820.3125,406.7188 821,407.7969 Q821.6875,408.8594 823.0313,408.8594 Q823.6563,408.8594 824.25,408.5938 Q824.8438,408.3125 825.4688,407.7344 L825.4688,410.4531 Z "/><text fill="#000000" font-family="sans-serif" font-size="12" font-weight="bold" lengthAdjust="spacingAndGlyphs" textLength="136" x="836.5" y="408.9668">helm-grep-ag-class</text><line style="stroke: #A80036; stroke-width: 1.5;" x1="808.5" x2="974.5" y1="420.8125" y2="420.8125"/><line style="stroke: #A80036; stroke-width: 1.5;" x1="808.5" x2="974.5" y1="428.8125" y2="428.8125"/><!--MD5=[91bb0adfdf7bf369d8d23bbe4e952f89]
class helm-grep-class--><rect fill="#FEFECE" filter="url(#f137s0e9njoo0n)" height="48" id="helm-grep-class" style="stroke: #A80036; stroke-width: 1.5;" width="145" x="1011" y="388.8125"/><ellipse cx="1026" cy="404.8125" fill="#ADD1B2" rx="11" ry="11" style="stroke: #A80036; stroke-width: 1.0;"/><path d="M1028.9688,410.4531 Q1028.3906,410.75 1027.75,410.8906 Q1027.1094,411.0469 1026.4063,411.0469 Q1023.9063,411.0469 1022.5781,409.4063 Q1021.2656,407.75 1021.2656,404.625 Q1021.2656,401.5 1022.5781,399.8438 Q1023.9063,398.1875 1026.4063,398.1875 Q1027.1094,398.1875 1027.75,398.3438 Q1028.4063,398.5 1028.9688,398.7969 L1028.9688,401.5156 Q1028.3438,400.9375 1027.75,400.6719 Q1027.1563,400.3906 1026.5313,400.3906 Q1025.1875,400.3906 1024.5,401.4688 Q1023.8125,402.5313 1023.8125,404.625 Q1023.8125,406.7188 1024.5,407.7969 Q1025.1875,408.8594 1026.5313,408.8594 Q1027.1563,408.8594 1027.75,408.5938 Q1028.3438,408.3125 1028.9688,407.7344 L1028.9688,410.4531 Z "/><text fill="#000000" font-family="sans-serif" font-size="12" font-weight="bold" lengthAdjust="spacingAndGlyphs" textLength="113" x="1040" y="408.9668">helm-grep-class</text><line style="stroke: #A80036; stroke-width: 1.5;" x1="1012" x2="1155" y1="420.8125" y2="420.8125"/><line style="stroke: #A80036; stroke-width: 1.5;" x1="1012" x2="1155" y1="428.8125" y2="428.8125"/><!--MD5=[894eacf2e17d1c2f4b307c7f81f3aeea]
reverse link helm-source to helm-source-async--><path d="M597.5,160.4125 C597.5,172.7625 597.5,186.4725 597.5,199.7425 " fill="none" id="helm-source&lt;-helm-source-async" style="stroke: #A80036; stroke-width: 1.0;"/><polygon fill="none" points="590.5,160.0225,597.5,140.0225,604.5,160.0225,590.5,160.0225" style="stroke: #A80036; stroke-width: 1.0;"/><!--MD5=[4124b062e967a48c84822db18248b7ac]
reverse link helm-source-async to helm-mac-spotlight-source--><path d="M495.51,296.3725 C404.71,324.0325 273.95,363.8625 192.17,388.7625 " fill="none" id="helm-source-async&lt;-helm-mac-spotlight-source" style="stroke: #A80036; stroke-width: 1.0;"/><polygon fill="none" points="493.64,289.6325,514.81,290.4925,497.72,303.0225,493.64,289.6325" style="stroke: #A80036; stroke-width: 1.0;"/><!--MD5=[b87e7a6cd6a876f20d8b301dfc1041b2]
reverse link helm-source-async to helm-gid-source--><path d="M497.37,321.3025 C455.56,344.6825 409.31,370.5425 376.99,388.6125 " fill="none" id="helm-source-async&lt;-helm-gid-source" style="stroke: #A80036; stroke-width: 1.0;"/><polygon fill="none" points="494.09,315.1125,514.96,311.4625,500.92,327.3325,494.09,315.1125" style="stroke: #A80036; stroke-width: 1.0;"/><!--MD5=[5fa17a1efdd398e28fa7575bea335940]
reverse link helm-source-async to helm-fd-class--><path d="M547.03,346.5625 C537.47,361.9525 528.22,376.8525 520.96,388.5225 " fill="none" id="helm-source-async&lt;-helm-fd-class" style="stroke: #A80036; stroke-width: 1.0;"/><polygon fill="none" points="541.35,342.4425,557.85,329.1425,553.24,349.8225,541.35,342.4425" style="stroke: #A80036; stroke-width: 1.0;"/><!--MD5=[7d486a52fcabfa08acb8358ffa257dfe]
reverse link helm-source-async to helm-locate-source--><path d="M647.97,346.5625 C657.53,361.9525 666.78,376.8525 674.04,388.5225 " fill="none" id="helm-source-async&lt;-helm-locate-source" style="stroke: #A80036; stroke-width: 1.0;"/><polygon fill="none" points="641.76,349.8225,637.15,329.1425,653.65,342.4425,641.76,349.8225" style="stroke: #A80036; stroke-width: 1.0;"/><!--MD5=[e220d22ad778b6230f0552c8a1eae9ee]
reverse link helm-source-async to helm-grep-ag-class--><path d="M697.94,328.5625 C750.79,355.8525 795.53,374.7425 830.47,388.6525 " fill="none" id="helm-source-async&lt;-helm-grep-ag-class" style="stroke: #A80036; stroke-width: 1.0;"/><polygon fill="none" points="694.56,334.6925,680.11,319.1925,701.07,322.3025,694.56,334.6925" style="stroke: #A80036; stroke-width: 1.0;"/><!--MD5=[99faec0dbdb16852c37e6e30b1aacff5]
reverse link helm-source-async to helm-grep-class--><path d="M698.96,328.3825 C825.93,377.2225 868.66,360.2225 993.5,388.8125 C999.16,390.1125 1005.01,391.4925 1010.88,392.9225 " fill="none" id="helm-source-async&lt;-helm-grep-class" style="stroke: #A80036; stroke-width: 1.0;"/><polygon fill="none" points="696.04,334.7525,680.04,320.8725,701.21,321.7425,696.04,334.7525" style="stroke: #A80036; stroke-width: 1.0;"/><!--MD5=[cbd82c46d814122f1e15098d2d5ebca2]
@startuml
skinparam classFontStyle bold
skinparam captionFontStyle bold
title **Parents and Children of**\n**'helm-source-async'**\n\n
"helm-source" <|- - "helm-source-async"
class "helm-source"
class "helm-source-async" {
	Use this class to define a
	helm source calling an
	external process.
	==
	__ some interesting slots __
	candidates-process
	multimatch
}
note right of "helm-source-async"
	**helm-source-async**:
	Use this class to define a
	helm source calling an
	external process.
end note
"helm-source-async" <|- - "helm-mac-spotlight-source"
"helm-source-async" <|- - "helm-gid-source"
"helm-source-async" <|- - "helm-fd-class"
"helm-source-async" <|- - "helm-locate-source"
"helm-source-async" <|- - "helm-grep-ag-class"
"helm-source-async" <|- - "helm-grep-class"
@enduml

PlantUML version 1.2020.02(Sun Mar 01 15:52:07 IST 2020)
(GPL source distribution)
Java Runtime: OpenJDK Runtime Environment
JVM: OpenJDK 64-Bit Server VM
Java Version: 11.0.11-ea+8-post-Debian-1
Operating System: Linux
Default Encoding: UTF-8
Language: en
Country: IN
--></g></svg>