<?xml version="1.0" encoding="UTF-8" standalone="no"?><svg xmlns="http://www.w3.org/2000/svg" xmlns:xlink="http://www.w3.org/1999/xlink" contentScriptType="application/ecmascript" contentStyleType="text/css" height="401px" preserveAspectRatio="none" style="width:384px;height:401px;" version="1.1" viewBox="0 0 384 401" width="384px" zoomAndPan="magnify"><defs><filter height="300%" id="f10bmx5h08pill" width="300%" x="-1" y="-1"><feGaussianBlur result="blurOut" stdDeviation="2.0"/><feColorMatrix in="blurOut" result="blurOut2" type="matrix" values="0 0 0 0 0 0 0 0 0 0 0 0 0 0 0 0 0 0 .4 0"/><feOffset dx="4.0" dy="4.0" in="blurOut2" result="blurOut3"/><feBlend in="SourceGraphic" in2="blurOut3" mode="normal"/></filter></defs><g><text fill="#000000" font-family="sans-serif" font-size="18" font-weight="bold" lengthAdjust="spacingAndGlyphs" textLength="240" x="75.5" y="16.708">Parents and Children of</text><text fill="#000000" font-family="sans-serif" font-size="18" font-weight="bold" lengthAdjust="spacingAndGlyphs" textLength="200" x="95.5" y="37.6611">'helm-moccur-class'</text><text fill="#000000" font-family="sans-serif" font-size="18" lengthAdjust="spacingAndGlyphs" textLength="0" x="198.5" y="58.6143"/><text fill="#000000" font-family="sans-serif" font-size="18" lengthAdjust="spacingAndGlyphs" textLength="0" x="198.5" y="79.5674"/><!--MD5=[df56542e8c7b1aabe649dc484b739778]
class helm-source-in-buffer--><rect fill="#FEFECE" filter="url(#f10bmx5h08pill)" height="48" id="helm-source-in-buffer" style="stroke: #A80036; stroke-width: 1.5;" width="185" x="6" y="199.8125"/><ellipse cx="21" cy="215.8125" fill="#ADD1B2" rx="11" ry="11" style="stroke: #A80036; stroke-width: 1.0;"/><path d="M23.9688,221.4531 Q23.3906,221.75 22.75,221.8906 Q22.1094,222.0469 21.4063,222.0469 Q18.9063,222.0469 17.5781,220.4063 Q16.2656,218.75 16.2656,215.625 Q16.2656,212.5 17.5781,210.8438 Q18.9063,209.1875 21.4063,209.1875 Q22.1094,209.1875 22.75,209.3438 Q23.4063,209.5 23.9688,209.7969 L23.9688,212.5156 Q23.3438,211.9375 22.75,211.6719 Q22.1563,211.3906 21.5313,211.3906 Q20.1875,211.3906 19.5,212.4688 Q18.8125,213.5313 18.8125,215.625 Q18.8125,217.7188 19.5,218.7969 Q20.1875,219.8594 21.5313,219.8594 Q22.1563,219.8594 22.75,219.5938 Q23.3438,219.3125 23.9688,218.7344 L23.9688,221.4531 Z "/><text fill="#000000" font-family="sans-serif" font-size="12" font-weight="bold" lengthAdjust="spacingAndGlyphs" textLength="153" x="35" y="219.9668">helm-source-in-buffer</text><line style="stroke: #A80036; stroke-width: 1.5;" x1="7" x2="190" y1="231.8125" y2="231.8125"/><line style="stroke: #A80036; stroke-width: 1.5;" x1="7" x2="190" y1="239.8125" y2="239.8125"/><!--MD5=[073c45925f2697dc8d5dd1a44a8a3365]
class helm-moccur-class--><rect fill="#FEFECE" filter="url(#f10bmx5h08pill)" height="82.4141" id="helm-moccur-class" style="stroke: #A80036; stroke-width: 1.5;" width="162" x="17.5" y="307.8125"/><ellipse cx="32.5" cy="323.8125" fill="#ADD1B2" rx="11" ry="11" style="stroke: #A80036; stroke-width: 1.0;"/><path d="M35.4688,329.4531 Q34.8906,329.75 34.25,329.8906 Q33.6094,330.0469 32.9063,330.0469 Q30.4063,330.0469 29.0781,328.4063 Q27.7656,326.75 27.7656,323.625 Q27.7656,320.5 29.0781,318.8438 Q30.4063,317.1875 32.9063,317.1875 Q33.6094,317.1875 34.25,317.3438 Q34.9063,317.5 35.4688,317.7969 L35.4688,320.5156 Q34.8438,319.9375 34.25,319.6719 Q33.6563,319.3906 33.0313,319.3906 Q31.6875,319.3906 31,320.4688 Q30.3125,321.5313 30.3125,323.625 Q30.3125,325.7188 31,326.7969 Q31.6875,327.8594 33.0313,327.8594 Q33.6563,327.8594 34.25,327.5938 Q34.8438,327.3125 35.4688,326.7344 L35.4688,329.4531 Z "/><text fill="#000000" font-family="sans-serif" font-size="12" font-weight="bold" lengthAdjust="spacingAndGlyphs" textLength="130" x="46.5" y="327.9668">helm-moccur-class</text><line style="stroke: #A80036; stroke-width: 1.5;" x1="18.5" x2="178.5" y1="339.8125" y2="339.8125"/><text fill="#000000" font-family="sans-serif" font-size="11" lengthAdjust="spacingAndGlyphs" textLength="70" x="23.5" y="370.8276">buffer-name</text><text fill="#000000" font-family="sans-serif" font-size="11" lengthAdjust="spacingAndGlyphs" textLength="87" x="23.5" y="383.6323">moccur-buffers</text><line style="stroke: #A80036; stroke-width: 1.5;" x1="18.5" x2="35" y1="354.2148" y2="354.2148"/><text fill="#000000" font-family="sans-serif" font-size="11" lengthAdjust="spacingAndGlyphs" textLength="127" x="35" y="357.5229">some interesting slots</text><line style="stroke: #A80036; stroke-width: 1.5;" x1="162" x2="178.5" y1="354.2148" y2="354.2148"/><!--MD5=[8da85e6ec6935d54267014e974a66b51]
class helm-source--><rect fill="#FEFECE" filter="url(#f10bmx5h08pill)" height="48" id="helm-source" style="stroke: #A80036; stroke-width: 1.5;" width="119" x="39" y="91.8125"/><ellipse cx="54" cy="107.8125" fill="#ADD1B2" rx="11" ry="11" style="stroke: #A80036; stroke-width: 1.0;"/><path d="M56.9688,113.4531 Q56.3906,113.75 55.75,113.8906 Q55.1094,114.0469 54.4063,114.0469 Q51.9063,114.0469 50.5781,112.4063 Q49.2656,110.75 49.2656,107.625 Q49.2656,104.5 50.5781,102.8438 Q51.9063,101.1875 54.4063,101.1875 Q55.1094,101.1875 55.75,101.3438 Q56.4063,101.5 56.9688,101.7969 L56.9688,104.5156 Q56.3438,103.9375 55.75,103.6719 Q55.1563,103.3906 54.5313,103.3906 Q53.1875,103.3906 52.5,104.4688 Q51.8125,105.5313 51.8125,107.625 Q51.8125,109.7188 52.5,110.7969 Q53.1875,111.8594 54.5313,111.8594 Q55.1563,111.8594 55.75,111.5938 Q56.3438,111.3125 56.9688,110.7344 L56.9688,113.4531 Z "/><text fill="#000000" font-family="sans-serif" font-size="12" font-weight="bold" lengthAdjust="spacingAndGlyphs" textLength="87" x="68" y="111.9668">helm-source</text><line style="stroke: #A80036; stroke-width: 1.5;" x1="40" x2="157" y1="123.8125" y2="123.8125"/><line style="stroke: #A80036; stroke-width: 1.5;" x1="40" x2="157" y1="131.8125" y2="131.8125"/><path d="M214.5,336.3125 L214.5,344.8125 L179.62,348.8125 L214.5,352.8125 L214.5,361.4453 A0,0 0 0 0 214.5,361.4453 L372.5,361.4453 A0,0 0 0 0 372.5,361.4453 L372.5,346.3125 L362.5,336.3125 L214.5,336.3125 A0,0 0 0 0 214.5,336.3125 " fill="#FBFB77" filter="url(#f10bmx5h08pill)" style="stroke: #A80036; stroke-width: 1.0;"/><path d="M362.5,336.3125 L362.5,346.3125 L372.5,346.3125 L362.5,336.3125 " fill="#FBFB77" style="stroke: #A80036; stroke-width: 1.0;"/><text fill="#000000" font-family="sans-serif" font-size="13" font-weight="bold" lengthAdjust="spacingAndGlyphs" textLength="137" x="220.5" y="353.3794">helm-moccur-class</text><!--MD5=[30ea2babd0fb514dd636adcbe39865ef]
reverse link helm-source-in-buffer to helm-moccur-class--><path d="M98.5,268.4125 C98.5,281.0925 98.5,294.8725 98.5,307.3425 " fill="none" id="helm-source-in-buffer&lt;-helm-moccur-class" style="stroke: #A80036; stroke-width: 1.0;"/><polygon fill="none" points="91.5,267.9525,98.5,247.9525,105.5,267.9525,91.5,267.9525" style="stroke: #A80036; stroke-width: 1.0;"/><!--MD5=[720fe72c7a837b3f6a94e411349ef229]
reverse link helm-source to helm-source-in-buffer--><path d="M98.5,159.8325 C98.5,173.3925 98.5,187.8525 98.5,199.4925 " fill="none" id="helm-source&lt;-helm-source-in-buffer" style="stroke: #A80036; stroke-width: 1.0;"/><polygon fill="none" points="91.5,159.8125,98.5,139.8125,105.5,159.8125,91.5,159.8125" style="stroke: #A80036; stroke-width: 1.0;"/><!--MD5=[8f658504678477bfa832835507559706]
@startuml
skinparam classFontStyle bold
skinparam captionFontStyle bold
title **Parents and Children of**\n**'helm-moccur-class'**\n\n
"helm-source-in-buffer" <|- - "helm-moccur-class"
class "helm-source-in-buffer"
"helm-source" <|- - "helm-source-in-buffer"
class "helm-source"
class "helm-moccur-class" {
	__ some interesting slots __
	buffer-name
	moccur-buffers
}
note right of "helm-moccur-class"
	**helm-moccur-class**
end note
@enduml

PlantUML version 1.2020.02(Sun Mar 01 15:52:07 IST 2020)
(GPL source distribution)
Java Runtime: OpenJDK Runtime Environment
JVM: OpenJDK 64-Bit Server VM
Java Version: 11.0.11-ea+8-post-Debian-1
Operating System: Linux
Default Encoding: UTF-8
Language: en
Country: IN
--></g></svg>