<?xml version="1.0" encoding="UTF-8" standalone="no"?><svg xmlns="http://www.w3.org/2000/svg" xmlns:xlink="http://www.w3.org/1999/xlink" contentScriptType="application/ecmascript" contentStyleType="text/css" height="490px" preserveAspectRatio="none" style="width:381px;height:490px;" version="1.1" viewBox="0 0 381 490" width="381px" zoomAndPan="magnify"><defs><filter height="300%" id="f17yztnzp31wf2" width="300%" x="-1" y="-1"><feGaussianBlur result="blurOut" stdDeviation="2.0"/><feColorMatrix in="blurOut" result="blurOut2" type="matrix" values="0 0 0 0 0 0 0 0 0 0 0 0 0 0 0 0 0 0 .4 0"/><feOffset dx="4.0" dy="4.0" in="blurOut2" result="blurOut3"/><feBlend in="SourceGraphic" in2="blurOut3" mode="normal"/></filter></defs><g><text fill="#000000" font-family="sans-serif" font-size="18" font-weight="bold" lengthAdjust="spacingAndGlyphs" textLength="240" x="73.5" y="16.708">Parents and Children of</text><text fill="#000000" font-family="sans-serif" font-size="18" font-weight="bold" lengthAdjust="spacingAndGlyphs" textLength="205" x="91" y="37.6611">'helm-imenu-source'</text><text fill="#000000" font-family="sans-serif" font-size="18" lengthAdjust="spacingAndGlyphs" textLength="0" x="196.5" y="58.6143"/><text fill="#000000" font-family="sans-serif" font-size="18" lengthAdjust="spacingAndGlyphs" textLength="0" x="196.5" y="79.5674"/><!--MD5=[29825b4f2a07190321f66d6028a4dd26]
class helm-source-sync--><rect fill="#FEFECE" filter="url(#f17yztnzp31wf2)" height="48" id="helm-source-sync" style="stroke: #A80036; stroke-width: 1.5;" width="156" x="11.5" y="199.8125"/><ellipse cx="26.5" cy="215.8125" fill="#ADD1B2" rx="11" ry="11" style="stroke: #A80036; stroke-width: 1.0;"/><path d="M29.4688,221.4531 Q28.8906,221.75 28.25,221.8906 Q27.6094,222.0469 26.9063,222.0469 Q24.4063,222.0469 23.0781,220.4063 Q21.7656,218.75 21.7656,215.625 Q21.7656,212.5 23.0781,210.8438 Q24.4063,209.1875 26.9063,209.1875 Q27.6094,209.1875 28.25,209.3438 Q28.9063,209.5 29.4688,209.7969 L29.4688,212.5156 Q28.8438,211.9375 28.25,211.6719 Q27.6563,211.3906 27.0313,211.3906 Q25.6875,211.3906 25,212.4688 Q24.3125,213.5313 24.3125,215.625 Q24.3125,217.7188 25,218.7969 Q25.6875,219.8594 27.0313,219.8594 Q27.6563,219.8594 28.25,219.5938 Q28.8438,219.3125 29.4688,218.7344 L29.4688,221.4531 Z "/><text fill="#000000" font-family="sans-serif" font-size="12" font-weight="bold" lengthAdjust="spacingAndGlyphs" textLength="124" x="40.5" y="219.9668">helm-source-sync</text><line style="stroke: #A80036; stroke-width: 1.5;" x1="12.5" x2="166.5" y1="231.8125" y2="231.8125"/><line style="stroke: #A80036; stroke-width: 1.5;" x1="12.5" x2="166.5" y1="239.8125" y2="239.8125"/><!--MD5=[a7554553637232b99c06721dc00b929c]
class helm-imenu-source--><rect fill="#FEFECE" filter="url(#f17yztnzp31wf2)" height="172.0469" id="helm-imenu-source" style="stroke: #A80036; stroke-width: 1.5;" width="167" x="6" y="307.8125"/><ellipse cx="21" cy="323.8125" fill="#ADD1B2" rx="11" ry="11" style="stroke: #A80036; stroke-width: 1.0;"/><path d="M23.9688,329.4531 Q23.3906,329.75 22.75,329.8906 Q22.1094,330.0469 21.4063,330.0469 Q18.9063,330.0469 17.5781,328.4063 Q16.2656,326.75 16.2656,323.625 Q16.2656,320.5 17.5781,318.8438 Q18.9063,317.1875 21.4063,317.1875 Q22.1094,317.1875 22.75,317.3438 Q23.4063,317.5 23.9688,317.7969 L23.9688,320.5156 Q23.3438,319.9375 22.75,319.6719 Q22.1563,319.3906 21.5313,319.3906 Q20.1875,319.3906 19.5,320.4688 Q18.8125,321.5313 18.8125,323.625 Q18.8125,325.7188 19.5,326.7969 Q20.1875,327.8594 21.5313,327.8594 Q22.1563,327.8594 22.75,327.5938 Q23.3438,327.3125 23.9688,326.7344 L23.9688,329.4531 Z "/><text fill="#000000" font-family="sans-serif" font-size="12" font-weight="bold" lengthAdjust="spacingAndGlyphs" textLength="135" x="35" y="327.9668">helm-imenu-source</text><line style="stroke: #A80036; stroke-width: 1.5;" x1="7" x2="172" y1="339.8125" y2="339.8125"/><text fill="#000000" font-family="sans-serif" font-size="11" lengthAdjust="spacingAndGlyphs" textLength="34" x="12" y="370.8276">action</text><text fill="#000000" font-family="sans-serif" font-size="11" lengthAdjust="spacingAndGlyphs" textLength="128" x="12" y="383.6323">candidate-transformer</text><text fill="#000000" font-family="sans-serif" font-size="11" lengthAdjust="spacingAndGlyphs" textLength="62" x="12" y="396.437">candidates</text><text fill="#000000" font-family="sans-serif" font-size="11" lengthAdjust="spacingAndGlyphs" textLength="33" x="12" y="409.2417">group</text><text fill="#000000" font-family="sans-serif" font-size="11" lengthAdjust="spacingAndGlyphs" textLength="81" x="12" y="422.0464">help-message</text><text fill="#000000" font-family="sans-serif" font-size="11" lengthAdjust="spacingAndGlyphs" textLength="44" x="12" y="434.8511">keymap</text><text fill="#000000" font-family="sans-serif" font-size="11" lengthAdjust="spacingAndGlyphs" textLength="43" x="12" y="447.6558">nomark</text><text fill="#000000" font-family="sans-serif" font-size="11" lengthAdjust="spacingAndGlyphs" textLength="96" x="12" y="460.4604">persistent-action</text><text fill="#000000" font-family="sans-serif" font-size="11" lengthAdjust="spacingAndGlyphs" textLength="86" x="12" y="473.2651">persistent-help</text><line style="stroke: #A80036; stroke-width: 1.5;" x1="7" x2="26" y1="354.2148" y2="354.2148"/><text fill="#000000" font-family="sans-serif" font-size="11" lengthAdjust="spacingAndGlyphs" textLength="127" x="26" y="357.5229">some interesting slots</text><line style="stroke: #A80036; stroke-width: 1.5;" x1="153" x2="172" y1="354.2148" y2="354.2148"/><!--MD5=[8da85e6ec6935d54267014e974a66b51]
class helm-source--><rect fill="#FEFECE" filter="url(#f17yztnzp31wf2)" height="48" id="helm-source" style="stroke: #A80036; stroke-width: 1.5;" width="119" x="30" y="91.8125"/><ellipse cx="45" cy="107.8125" fill="#ADD1B2" rx="11" ry="11" style="stroke: #A80036; stroke-width: 1.0;"/><path d="M47.9688,113.4531 Q47.3906,113.75 46.75,113.8906 Q46.1094,114.0469 45.4063,114.0469 Q42.9063,114.0469 41.5781,112.4063 Q40.2656,110.75 40.2656,107.625 Q40.2656,104.5 41.5781,102.8438 Q42.9063,101.1875 45.4063,101.1875 Q46.1094,101.1875 46.75,101.3438 Q47.4063,101.5 47.9688,101.7969 L47.9688,104.5156 Q47.3438,103.9375 46.75,103.6719 Q46.1563,103.3906 45.5313,103.3906 Q44.1875,103.3906 43.5,104.4688 Q42.8125,105.5313 42.8125,107.625 Q42.8125,109.7188 43.5,110.7969 Q44.1875,111.8594 45.5313,111.8594 Q46.1563,111.8594 46.75,111.5938 Q47.3438,111.3125 47.9688,110.7344 L47.9688,113.4531 Z "/><text fill="#000000" font-family="sans-serif" font-size="12" font-weight="bold" lengthAdjust="spacingAndGlyphs" textLength="87" x="59" y="111.9668">helm-source</text><line style="stroke: #A80036; stroke-width: 1.5;" x1="31" x2="148" y1="123.8125" y2="123.8125"/><line style="stroke: #A80036; stroke-width: 1.5;" x1="31" x2="148" y1="131.8125" y2="131.8125"/><path d="M208,381.3125 L208,389.8125 L173.06,393.8125 L208,397.8125 L208,406.4453 A0,0 0 0 0 208,406.4453 L369,406.4453 A0,0 0 0 0 369,406.4453 L369,391.3125 L359,381.3125 L208,381.3125 A0,0 0 0 0 208,381.3125 " fill="#FBFB77" filter="url(#f17yztnzp31wf2)" style="stroke: #A80036; stroke-width: 1.0;"/><path d="M359,381.3125 L359,391.3125 L369,391.3125 L359,381.3125 " fill="#FBFB77" style="stroke: #A80036; stroke-width: 1.0;"/><text fill="#000000" font-family="sans-serif" font-size="13" font-weight="bold" lengthAdjust="spacingAndGlyphs" textLength="140" x="214" y="398.3794">helm-imenu-source</text><!--MD5=[ca4b9f09c13c1ff3b2602cf75a58548c]
reverse link helm-source-sync to helm-imenu-source--><path d="M89.5,268.2625 C89.5,280.3425 89.5,293.8925 89.5,307.4925 " fill="none" id="helm-source-sync&lt;-helm-imenu-source" style="stroke: #A80036; stroke-width: 1.0;"/><polygon fill="none" points="82.5,267.8225,89.5,247.8225,96.5,267.8225,82.5,267.8225" style="stroke: #A80036; stroke-width: 1.0;"/><!--MD5=[7fac0f6d78841877506d9722364fbb5e]
reverse link helm-source to helm-source-sync--><path d="M89.5,159.8325 C89.5,173.3925 89.5,187.8525 89.5,199.4925 " fill="none" id="helm-source&lt;-helm-source-sync" style="stroke: #A80036; stroke-width: 1.0;"/><polygon fill="none" points="82.5,159.8125,89.5,139.8125,96.5,159.8125,82.5,159.8125" style="stroke: #A80036; stroke-width: 1.0;"/><!--MD5=[cd8cb0b584136ff74199abe77de19420]
@startuml
skinparam classFontStyle bold
skinparam captionFontStyle bold
title **Parents and Children of**\n**'helm-imenu-source'**\n\n
"helm-source-sync" <|- - "helm-imenu-source"
class "helm-source-sync"
"helm-source" <|- - "helm-source-sync"
class "helm-source"
class "helm-imenu-source" {
	__ some interesting slots __
	action
	candidate-transformer
	candidates
	group
	help-message
	keymap
	nomark
	persistent-action
	persistent-help
}
note right of "helm-imenu-source"
	**helm-imenu-source**
end note
@enduml

PlantUML version 1.2020.02(Sun Mar 01 15:52:07 IST 2020)
(GPL source distribution)
Java Runtime: OpenJDK Runtime Environment
JVM: OpenJDK 64-Bit Server VM
Java Version: 11.0.11-ea+8-post-Debian-1
Operating System: Linux
Default Encoding: UTF-8
Language: en
Country: IN
--></g></svg>