<?xml version="1.0" encoding="UTF-8" standalone="no"?><svg xmlns="http://www.w3.org/2000/svg" xmlns:xlink="http://www.w3.org/1999/xlink" contentScriptType="application/ecmascript" contentStyleType="text/css" height="411px" preserveAspectRatio="none" style="width:422px;height:411px;" version="1.1" viewBox="0 0 422 411" width="422px" zoomAndPan="magnify"><defs><filter height="300%" id="f1cfbaeqz53hlj" width="300%" x="-1" y="-1"><feGaussianBlur result="blurOut" stdDeviation="2.0"/><feColorMatrix in="blurOut" result="blurOut2" type="matrix" values="0 0 0 0 0 0 0 0 0 0 0 0 0 0 0 0 0 0 .4 0"/><feOffset dx="4.0" dy="4.0" in="blurOut2" result="blurOut3"/><feBlend in="SourceGraphic" in2="blurOut3" mode="normal"/></filter></defs><g><text fill="#000000" font-family="sans-serif" font-size="18" font-weight="bold" lengthAdjust="spacingAndGlyphs" textLength="240" x="94.5" y="16.708">Parents and Children of</text><text fill="#000000" font-family="sans-serif" font-size="18" font-weight="bold" lengthAdjust="spacingAndGlyphs" textLength="218" x="105.5" y="37.6611">'helm-type-command'</text><text fill="#000000" font-family="sans-serif" font-size="18" lengthAdjust="spacingAndGlyphs" textLength="0" x="217.5" y="58.6143"/><text fill="#000000" font-family="sans-serif" font-size="18" lengthAdjust="spacingAndGlyphs" textLength="0" x="217.5" y="79.5674"/><!--MD5=[8da85e6ec6935d54267014e974a66b51]
class helm-source--><rect fill="#FEFECE" filter="url(#f1cfbaeqz53hlj)" height="48" id="helm-source" style="stroke: #A80036; stroke-width: 1.5;" width="119" x="34" y="91.8125"/><ellipse cx="49" cy="107.8125" fill="#ADD1B2" rx="11" ry="11" style="stroke: #A80036; stroke-width: 1.0;"/><path d="M51.9688,113.4531 Q51.3906,113.75 50.75,113.8906 Q50.1094,114.0469 49.4063,114.0469 Q46.9063,114.0469 45.5781,112.4063 Q44.2656,110.75 44.2656,107.625 Q44.2656,104.5 45.5781,102.8438 Q46.9063,101.1875 49.4063,101.1875 Q50.1094,101.1875 50.75,101.3438 Q51.4063,101.5 51.9688,101.7969 L51.9688,104.5156 Q51.3438,103.9375 50.75,103.6719 Q50.1563,103.3906 49.5313,103.3906 Q48.1875,103.3906 47.5,104.4688 Q46.8125,105.5313 46.8125,107.625 Q46.8125,109.7188 47.5,110.7969 Q48.1875,111.8594 49.5313,111.8594 Q50.1563,111.8594 50.75,111.5938 Q51.3438,111.3125 51.9688,110.7344 L51.9688,113.4531 Z "/><text fill="#000000" font-family="sans-serif" font-size="12" font-weight="bold" lengthAdjust="spacingAndGlyphs" textLength="87" x="63" y="111.9668">helm-source</text><line style="stroke: #A80036; stroke-width: 1.5;" x1="35" x2="152" y1="123.8125" y2="123.8125"/><line style="stroke: #A80036; stroke-width: 1.5;" x1="35" x2="152" y1="131.8125" y2="131.8125"/><!--MD5=[beabceb98eda0d1152a0edf286dc7000]
class helm-type-command--><rect fill="#FEFECE" filter="url(#f1cfbaeqz53hlj)" height="92.8164" id="helm-type-command" style="stroke: #A80036; stroke-width: 1.5;" width="175" x="6" y="199.8125"/><ellipse cx="21" cy="215.8125" fill="#ADD1B2" rx="11" ry="11" style="stroke: #A80036; stroke-width: 1.0;"/><path d="M23.9688,221.4531 Q23.3906,221.75 22.75,221.8906 Q22.1094,222.0469 21.4063,222.0469 Q18.9063,222.0469 17.5781,220.4063 Q16.2656,218.75 16.2656,215.625 Q16.2656,212.5 17.5781,210.8438 Q18.9063,209.1875 21.4063,209.1875 Q22.1094,209.1875 22.75,209.3438 Q23.4063,209.5 23.9688,209.7969 L23.9688,212.5156 Q23.3438,211.9375 22.75,211.6719 Q22.1563,211.3906 21.5313,211.3906 Q20.1875,211.3906 19.5,212.4688 Q18.8125,213.5313 18.8125,215.625 Q18.8125,217.7188 19.5,218.7969 Q20.1875,219.8594 21.5313,219.8594 Q22.1563,219.8594 22.75,219.5938 Q23.3438,219.3125 23.9688,218.7344 L23.9688,221.4531 Z "/><text fill="#000000" font-family="sans-serif" font-size="12" font-weight="bold" lengthAdjust="spacingAndGlyphs" textLength="143" x="35" y="219.9668">helm-type-command</text><line style="stroke: #A80036; stroke-width: 1.5;" x1="7" x2="180" y1="231.8125" y2="231.8125"/><text fill="#000000" font-family="sans-serif" font-size="11" lengthAdjust="spacingAndGlyphs" textLength="150" x="12" y="246.0229">A class to define helm type</text><text fill="#000000" font-family="sans-serif" font-size="11" lengthAdjust="spacingAndGlyphs" textLength="60" x="12" y="258.8276">command.</text><line style="stroke: #A80036; stroke-width: 1.0;" x1="7" x2="180" y1="265.4219" y2="265.4219"/><line style="stroke: #A80036; stroke-width: 1.0;" x1="7" x2="180" y1="267.4219" y2="267.4219"/><line style="stroke: #A80036; stroke-width: 1.5;" x1="7" x2="30" y1="279.8242" y2="279.8242"/><text fill="#000000" font-family="sans-serif" font-size="11" lengthAdjust="spacingAndGlyphs" textLength="127" x="30" y="283.1323">some interesting slots</text><line style="stroke: #A80036; stroke-width: 1.5;" x1="157" x2="180" y1="279.8242" y2="279.8242"/><path d="M216.5,218.8125 L216.5,242.3125 L181.16,246.3125 L216.5,250.3125 L216.5,274.2109 A0,0 0 0 0 216.5,274.2109 L410.5,274.2109 A0,0 0 0 0 410.5,274.2109 L410.5,228.8125 L400.5,218.8125 L216.5,218.8125 A0,0 0 0 0 216.5,218.8125 " fill="#FBFB77" filter="url(#f1cfbaeqz53hlj)" style="stroke: #A80036; stroke-width: 1.0;"/><path d="M400.5,218.8125 L400.5,228.8125 L410.5,228.8125 L400.5,218.8125 " fill="#FBFB77" style="stroke: #A80036; stroke-width: 1.0;"/><text fill="#000000" font-family="sans-serif" font-size="13" font-weight="bold" lengthAdjust="spacingAndGlyphs" textLength="152" x="222.5" y="235.8794">helm-type-command</text><text fill="#000000" font-family="sans-serif" font-size="13" lengthAdjust="spacingAndGlyphs" textLength="4" x="374.5" y="235.8794">:</text><text fill="#000000" font-family="sans-serif" font-size="13" lengthAdjust="spacingAndGlyphs" textLength="173" x="222.5" y="251.0122">A class to define helm type</text><text fill="#000000" font-family="sans-serif" font-size="13" lengthAdjust="spacingAndGlyphs" textLength="69" x="222.5" y="266.145">command.</text><!--MD5=[9bb915cdd04b5f6bf4c2c1633cbdfbdc]
class helm-M-x-class--><rect fill="#FEFECE" filter="url(#f1cfbaeqz53hlj)" height="48" id="helm-M-x-class" style="stroke: #A80036; stroke-width: 1.5;" width="136" x="25.5" y="352.8125"/><ellipse cx="40.5" cy="368.8125" fill="#ADD1B2" rx="11" ry="11" style="stroke: #A80036; stroke-width: 1.0;"/><path d="M43.4688,374.4531 Q42.8906,374.75 42.25,374.8906 Q41.6094,375.0469 40.9063,375.0469 Q38.4063,375.0469 37.0781,373.4063 Q35.7656,371.75 35.7656,368.625 Q35.7656,365.5 37.0781,363.8438 Q38.4063,362.1875 40.9063,362.1875 Q41.6094,362.1875 42.25,362.3438 Q42.9063,362.5 43.4688,362.7969 L43.4688,365.5156 Q42.8438,364.9375 42.25,364.6719 Q41.6563,364.3906 41.0313,364.3906 Q39.6875,364.3906 39,365.4688 Q38.3125,366.5313 38.3125,368.625 Q38.3125,370.7188 39,371.7969 Q39.6875,372.8594 41.0313,372.8594 Q41.6563,372.8594 42.25,372.5938 Q42.8438,372.3125 43.4688,371.7344 L43.4688,374.4531 Z "/><text fill="#000000" font-family="sans-serif" font-size="12" font-weight="bold" lengthAdjust="spacingAndGlyphs" textLength="104" x="54.5" y="372.9668">helm-M-x-class</text><line style="stroke: #A80036; stroke-width: 1.5;" x1="26.5" x2="160.5" y1="384.8125" y2="384.8125"/><line style="stroke: #A80036; stroke-width: 1.5;" x1="26.5" x2="160.5" y1="392.8125" y2="392.8125"/><!--MD5=[fde896bcedf28e4926ec99232971bb19]
reverse link helm-source to helm-type-command--><path d="M93.5,160.4125 C93.5,173.0325 93.5,186.8425 93.5,199.5825 " fill="none" id="helm-source&lt;-helm-type-command" style="stroke: #A80036; stroke-width: 1.0;"/><polygon fill="none" points="86.5,160.0825,93.5,140.0825,100.5,160.0825,86.5,160.0825" style="stroke: #A80036; stroke-width: 1.0;"/><!--MD5=[4ac71f6dd5cea0c13d2b9c31bc00a812]
reverse link helm-type-command to helm-M-x-class--><path d="M93.5,313.4125 C93.5,327.5125 93.5,341.5025 93.5,352.6425 " fill="none" id="helm-type-command&lt;-helm-M-x-class" style="stroke: #A80036; stroke-width: 1.0;"/><polygon fill="none" points="86.5,312.9825,93.5,292.9825,100.5,312.9825,86.5,312.9825" style="stroke: #A80036; stroke-width: 1.0;"/><!--MD5=[1ef70213ca09967b8d79aac4350d6b32]
@startuml
skinparam classFontStyle bold
skinparam captionFontStyle bold
title **Parents and Children of**\n**'helm-type-command'**\n\n
"helm-source" <|- - "helm-type-command"
class "helm-source"
class "helm-type-command" {
	A class to define helm type
	command.
	==
	__ some interesting slots __
}
note right of "helm-type-command"
	**helm-type-command**:
	A class to define helm type
	command.
end note
"helm-type-command" <|- - "helm-M-x-class"
@enduml

PlantUML version 1.2020.02(Sun Mar 01 15:52:07 IST 2020)
(GPL source distribution)
Java Runtime: OpenJDK Runtime Environment
JVM: OpenJDK 64-Bit Server VM
Java Version: 11.0.11-ea+8-post-Debian-1
Operating System: Linux
Default Encoding: UTF-8
Language: en
Country: IN
--></g></svg>