<?xml version="1.0" encoding="UTF-8" standalone="no"?><svg xmlns="http://www.w3.org/2000/svg" xmlns:xlink="http://www.w3.org/1999/xlink" contentScriptType="application/ecmascript" contentStyleType="text/css" height="503px" preserveAspectRatio="none" style="width:507px;height:503px;" version="1.1" viewBox="0 0 507 503" width="507px" zoomAndPan="magnify"><defs><filter height="300%" id="f1wii9l5jepj0" width="300%" x="-1" y="-1"><feGaussianBlur result="blurOut" stdDeviation="2.0"/><feColorMatrix in="blurOut" result="blurOut2" type="matrix" values="0 0 0 0 0 0 0 0 0 0 0 0 0 0 0 0 0 0 .4 0"/><feOffset dx="4.0" dy="4.0" in="blurOut2" result="blurOut3"/><feBlend in="SourceGraphic" in2="blurOut3" mode="normal"/></filter></defs><g><text fill="#000000" font-family="sans-serif" font-size="18" font-weight="bold" lengthAdjust="spacingAndGlyphs" textLength="240" x="136.5" y="16.708">Parents and Children of</text><text fill="#000000" font-family="sans-serif" font-size="18" font-weight="bold" lengthAdjust="spacingAndGlyphs" textLength="292" x="110.5" y="37.6611">'helm-list-el-package-source'</text><text fill="#000000" font-family="sans-serif" font-size="18" lengthAdjust="spacingAndGlyphs" textLength="0" x="259.5" y="58.6143"/><text fill="#000000" font-family="sans-serif" font-size="18" lengthAdjust="spacingAndGlyphs" textLength="0" x="259.5" y="79.5674"/><!--MD5=[df56542e8c7b1aabe649dc484b739778]
class helm-source-in-buffer--><rect fill="#FEFECE" filter="url(#f1wii9l5jepj0)" height="48" id="helm-source-in-buffer" style="stroke: #A80036; stroke-width: 1.5;" width="185" x="28" y="199.8125"/><ellipse cx="43" cy="215.8125" fill="#ADD1B2" rx="11" ry="11" style="stroke: #A80036; stroke-width: 1.0;"/><path d="M45.9688,221.4531 Q45.3906,221.75 44.75,221.8906 Q44.1094,222.0469 43.4063,222.0469 Q40.9063,222.0469 39.5781,220.4063 Q38.2656,218.75 38.2656,215.625 Q38.2656,212.5 39.5781,210.8438 Q40.9063,209.1875 43.4063,209.1875 Q44.1094,209.1875 44.75,209.3438 Q45.4063,209.5 45.9688,209.7969 L45.9688,212.5156 Q45.3438,211.9375 44.75,211.6719 Q44.1563,211.3906 43.5313,211.3906 Q42.1875,211.3906 41.5,212.4688 Q40.8125,213.5313 40.8125,215.625 Q40.8125,217.7188 41.5,218.7969 Q42.1875,219.8594 43.5313,219.8594 Q44.1563,219.8594 44.75,219.5938 Q45.3438,219.3125 45.9688,218.7344 L45.9688,221.4531 Z "/><text fill="#000000" font-family="sans-serif" font-size="12" font-weight="bold" lengthAdjust="spacingAndGlyphs" textLength="153" x="57" y="219.9668">helm-source-in-buffer</text><line style="stroke: #A80036; stroke-width: 1.5;" x1="29" x2="212" y1="231.8125" y2="231.8125"/><line style="stroke: #A80036; stroke-width: 1.5;" x1="29" x2="212" y1="239.8125" y2="239.8125"/><!--MD5=[cea65451dee1c19877355cf9a9f1c806]
class helm-list-el-package-source--><rect fill="#FEFECE" filter="url(#f1wii9l5jepj0)" height="184.8516" id="helm-list-el-package-source" style="stroke: #A80036; stroke-width: 1.5;" width="229" x="6" y="307.8125"/><ellipse cx="21" cy="323.8125" fill="#ADD1B2" rx="11" ry="11" style="stroke: #A80036; stroke-width: 1.0;"/><path d="M23.9688,329.4531 Q23.3906,329.75 22.75,329.8906 Q22.1094,330.0469 21.4063,330.0469 Q18.9063,330.0469 17.5781,328.4063 Q16.2656,326.75 16.2656,323.625 Q16.2656,320.5 17.5781,318.8438 Q18.9063,317.1875 21.4063,317.1875 Q22.1094,317.1875 22.75,317.3438 Q23.4063,317.5 23.9688,317.7969 L23.9688,320.5156 Q23.3438,319.9375 22.75,319.6719 Q22.1563,319.3906 21.5313,319.3906 Q20.1875,319.3906 19.5,320.4688 Q18.8125,321.5313 18.8125,323.625 Q18.8125,325.7188 19.5,326.7969 Q20.1875,327.8594 21.5313,327.8594 Q22.1563,327.8594 22.75,327.5938 Q23.3438,327.3125 23.9688,326.7344 L23.9688,329.4531 Z "/><text fill="#000000" font-family="sans-serif" font-size="12" font-weight="bold" lengthAdjust="spacingAndGlyphs" textLength="197" x="35" y="327.9668">helm-list-el-package-source</text><line style="stroke: #A80036; stroke-width: 1.5;" x1="7" x2="234" y1="339.8125" y2="339.8125"/><text fill="#000000" font-family="sans-serif" font-size="11" lengthAdjust="spacingAndGlyphs" textLength="17" x="12" y="370.8276">init</text><text fill="#000000" font-family="sans-serif" font-size="11" lengthAdjust="spacingAndGlyphs" textLength="34" x="12" y="383.6323">action</text><text fill="#000000" font-family="sans-serif" font-size="11" lengthAdjust="spacingAndGlyphs" textLength="107" x="12" y="396.437">action-transformer</text><text fill="#000000" font-family="sans-serif" font-size="11" lengthAdjust="spacingAndGlyphs" textLength="131" x="12" y="409.2417">candidate-number-limit</text><text fill="#000000" font-family="sans-serif" font-size="11" lengthAdjust="spacingAndGlyphs" textLength="172" x="12" y="422.0464">filtered-candidate-transformer</text><text fill="#000000" font-family="sans-serif" font-size="11" lengthAdjust="spacingAndGlyphs" textLength="42" x="12" y="434.8511">get-line</text><text fill="#000000" font-family="sans-serif" font-size="11" lengthAdjust="spacingAndGlyphs" textLength="33" x="12" y="447.6558">group</text><text fill="#000000" font-family="sans-serif" font-size="11" lengthAdjust="spacingAndGlyphs" textLength="81" x="12" y="460.4604">help-message</text><text fill="#000000" font-family="sans-serif" font-size="11" lengthAdjust="spacingAndGlyphs" textLength="44" x="12" y="473.2651">keymap</text><text fill="#000000" font-family="sans-serif" font-size="11" lengthAdjust="spacingAndGlyphs" textLength="39" x="12" y="486.0698">update</text><line style="stroke: #A80036; stroke-width: 1.5;" x1="7" x2="57" y1="354.2148" y2="354.2148"/><text fill="#000000" font-family="sans-serif" font-size="11" lengthAdjust="spacingAndGlyphs" textLength="127" x="57" y="357.5229">some interesting slots</text><line style="stroke: #A80036; stroke-width: 1.5;" x1="184" x2="234" y1="354.2148" y2="354.2148"/><!--MD5=[8da85e6ec6935d54267014e974a66b51]
class helm-source--><rect fill="#FEFECE" filter="url(#f1wii9l5jepj0)" height="48" id="helm-source" style="stroke: #A80036; stroke-width: 1.5;" width="119" x="61" y="91.8125"/><ellipse cx="76" cy="107.8125" fill="#ADD1B2" rx="11" ry="11" style="stroke: #A80036; stroke-width: 1.0;"/><path d="M78.9688,113.4531 Q78.3906,113.75 77.75,113.8906 Q77.1094,114.0469 76.4063,114.0469 Q73.9063,114.0469 72.5781,112.4063 Q71.2656,110.75 71.2656,107.625 Q71.2656,104.5 72.5781,102.8438 Q73.9063,101.1875 76.4063,101.1875 Q77.1094,101.1875 77.75,101.3438 Q78.4063,101.5 78.9688,101.7969 L78.9688,104.5156 Q78.3438,103.9375 77.75,103.6719 Q77.1563,103.3906 76.5313,103.3906 Q75.1875,103.3906 74.5,104.4688 Q73.8125,105.5313 73.8125,107.625 Q73.8125,109.7188 74.5,110.7969 Q75.1875,111.8594 76.5313,111.8594 Q77.1563,111.8594 77.75,111.5938 Q78.3438,111.3125 78.9688,110.7344 L78.9688,113.4531 Z "/><text fill="#000000" font-family="sans-serif" font-size="12" font-weight="bold" lengthAdjust="spacingAndGlyphs" textLength="87" x="90" y="111.9668">helm-source</text><line style="stroke: #A80036; stroke-width: 1.5;" x1="62" x2="179" y1="123.8125" y2="123.8125"/><line style="stroke: #A80036; stroke-width: 1.5;" x1="62" x2="179" y1="131.8125" y2="131.8125"/><path d="M270,387.8125 L270,396.3125 L235.12,400.3125 L270,404.3125 L270,412.9453 A0,0 0 0 0 270,412.9453 L495,412.9453 A0,0 0 0 0 495,412.9453 L495,397.8125 L485,387.8125 L270,387.8125 A0,0 0 0 0 270,387.8125 " fill="#FBFB77" filter="url(#f1wii9l5jepj0)" style="stroke: #A80036; stroke-width: 1.0;"/><path d="M485,387.8125 L485,397.8125 L495,397.8125 L485,387.8125 " fill="#FBFB77" style="stroke: #A80036; stroke-width: 1.0;"/><text fill="#000000" font-family="sans-serif" font-size="13" font-weight="bold" lengthAdjust="spacingAndGlyphs" textLength="204" x="276" y="404.8794">helm-list-el-package-source</text><!--MD5=[5553b9a1bd6fa98417769ef19c0d46a1]
reverse link helm-source-in-buffer to helm-list-el-package-source--><path d="M120.5,268.3525 C120.5,280.4125 120.5,293.9625 120.5,307.6625 " fill="none" id="helm-source-in-buffer&lt;-helm-list-el-package-source" style="stroke: #A80036; stroke-width: 1.0;"/><polygon fill="none" points="113.5,267.9825,120.5,247.9825,127.5,267.9825,113.5,267.9825" style="stroke: #A80036; stroke-width: 1.0;"/><!--MD5=[720fe72c7a837b3f6a94e411349ef229]
reverse link helm-source to helm-source-in-buffer--><path d="M120.5,159.8325 C120.5,173.3925 120.5,187.8525 120.5,199.4925 " fill="none" id="helm-source&lt;-helm-source-in-buffer" style="stroke: #A80036; stroke-width: 1.0;"/><polygon fill="none" points="113.5,159.8125,120.5,139.8125,127.5,159.8125,113.5,159.8125" style="stroke: #A80036; stroke-width: 1.0;"/><!--MD5=[7207b76e520088f4515815cc04857152]
@startuml
skinparam classFontStyle bold
skinparam captionFontStyle bold
title **Parents and Children of**\n**'helm-list-el-package-source'**\n\n
"helm-source-in-buffer" <|- - "helm-list-el-package-source"
class "helm-source-in-buffer"
"helm-source" <|- - "helm-source-in-buffer"
class "helm-source"
class "helm-list-el-package-source" {
	__ some interesting slots __
	init
	action
	action-transformer
	candidate-number-limit
	filtered-candidate-transformer
	get-line
	group
	help-message
	keymap
	update
}
note right of "helm-list-el-package-source"
	**helm-list-el-package-source**
end note
@enduml

PlantUML version 1.2020.02(Sun Mar 01 15:52:07 IST 2020)
(GPL source distribution)
Java Runtime: OpenJDK Runtime Environment
JVM: OpenJDK 64-Bit Server VM
Java Version: 11.0.11-ea+8-post-Debian-1
Operating System: Linux
Default Encoding: UTF-8
Language: en
Country: IN
--></g></svg>