<?xml version="1.0" encoding="UTF-8" standalone="no"?><svg xmlns="http://www.w3.org/2000/svg" xmlns:xlink="http://www.w3.org/1999/xlink" contentScriptType="application/ecmascript" contentStyleType="text/css" height="542px" preserveAspectRatio="none" style="width:400px;height:542px;" version="1.1" viewBox="0 0 400 542" width="400px" zoomAndPan="magnify"><defs><filter height="300%" id="f1ixg3k1rclaa4" width="300%" x="-1" y="-1"><feGaussianBlur result="blurOut" stdDeviation="2.0"/><feColorMatrix in="blurOut" result="blurOut2" type="matrix" values="0 0 0 0 0 0 0 0 0 0 0 0 0 0 0 0 0 0 .4 0"/><feOffset dx="4.0" dy="4.0" in="blurOut2" result="blurOut3"/><feBlend in="SourceGraphic" in2="blurOut3" mode="normal"/></filter></defs><g><text fill="#000000" font-family="sans-serif" font-size="18" font-weight="bold" lengthAdjust="spacingAndGlyphs" textLength="240" x="83.5" y="16.708">Parents and Children of</text><text fill="#000000" font-family="sans-serif" font-size="18" font-weight="bold" lengthAdjust="spacingAndGlyphs" textLength="205" x="101" y="37.6611">'helm-grep-ag-class'</text><text fill="#000000" font-family="sans-serif" font-size="18" lengthAdjust="spacingAndGlyphs" textLength="0" x="206.5" y="58.6143"/><text fill="#000000" font-family="sans-serif" font-size="18" lengthAdjust="spacingAndGlyphs" textLength="0" x="206.5" y="79.5674"/><!--MD5=[12d16a9c65828dace8d907a7ab3ef450]
class helm-source-async--><rect fill="#FEFECE" filter="url(#f1ixg3k1rclaa4)" height="48" id="helm-source-async" style="stroke: #A80036; stroke-width: 1.5;" width="165" x="15.5" y="199.8125"/><ellipse cx="30.5" cy="215.8125" fill="#ADD1B2" rx="11" ry="11" style="stroke: #A80036; stroke-width: 1.0;"/><path d="M33.4688,221.4531 Q32.8906,221.75 32.25,221.8906 Q31.6094,222.0469 30.9063,222.0469 Q28.4063,222.0469 27.0781,220.4063 Q25.7656,218.75 25.7656,215.625 Q25.7656,212.5 27.0781,210.8438 Q28.4063,209.1875 30.9063,209.1875 Q31.6094,209.1875 32.25,209.3438 Q32.9063,209.5 33.4688,209.7969 L33.4688,212.5156 Q32.8438,211.9375 32.25,211.6719 Q31.6563,211.3906 31.0313,211.3906 Q29.6875,211.3906 29,212.4688 Q28.3125,213.5313 28.3125,215.625 Q28.3125,217.7188 29,218.7969 Q29.6875,219.8594 31.0313,219.8594 Q31.6563,219.8594 32.25,219.5938 Q32.8438,219.3125 33.4688,218.7344 L33.4688,221.4531 Z "/><text fill="#000000" font-family="sans-serif" font-size="12" font-weight="bold" lengthAdjust="spacingAndGlyphs" textLength="133" x="44.5" y="219.9668">helm-source-async</text><line style="stroke: #A80036; stroke-width: 1.5;" x1="16.5" x2="179.5" y1="231.8125" y2="231.8125"/><line style="stroke: #A80036; stroke-width: 1.5;" x1="16.5" x2="179.5" y1="239.8125" y2="239.8125"/><!--MD5=[48c627d917d22eb9e4865aed3bf653fb]
class helm-grep-ag-class--><rect fill="#FEFECE" filter="url(#f1ixg3k1rclaa4)" height="223.2656" id="helm-grep-ag-class" style="stroke: #A80036; stroke-width: 1.5;" width="184" x="6" y="307.8125"/><ellipse cx="28.2" cy="323.8125" fill="#ADD1B2" rx="11" ry="11" style="stroke: #A80036; stroke-width: 1.0;"/><path d="M31.1688,329.4531 Q30.5906,329.75 29.95,329.8906 Q29.3094,330.0469 28.6063,330.0469 Q26.1063,330.0469 24.7781,328.4063 Q23.4656,326.75 23.4656,323.625 Q23.4656,320.5 24.7781,318.8438 Q26.1063,317.1875 28.6063,317.1875 Q29.3094,317.1875 29.95,317.3438 Q30.6063,317.5 31.1688,317.7969 L31.1688,320.5156 Q30.5438,319.9375 29.95,319.6719 Q29.3563,319.3906 28.7313,319.3906 Q27.3875,319.3906 26.7,320.4688 Q26.0125,321.5313 26.0125,323.625 Q26.0125,325.7188 26.7,326.7969 Q27.3875,327.8594 28.7313,327.8594 Q29.3563,327.8594 29.95,327.5938 Q30.5438,327.3125 31.1688,326.7344 L31.1688,329.4531 Z "/><text fill="#000000" font-family="sans-serif" font-size="12" font-weight="bold" lengthAdjust="spacingAndGlyphs" textLength="136" x="43.8" y="327.9668">helm-grep-ag-class</text><line style="stroke: #A80036; stroke-width: 1.5;" x1="7" x2="189" y1="339.8125" y2="339.8125"/><text fill="#000000" font-family="sans-serif" font-size="11" lengthAdjust="spacingAndGlyphs" textLength="34" x="12" y="370.8276">action</text><text fill="#000000" font-family="sans-serif" font-size="11" lengthAdjust="spacingAndGlyphs" textLength="131" x="12" y="383.6323">candidate-number-limit</text><text fill="#000000" font-family="sans-serif" font-size="11" lengthAdjust="spacingAndGlyphs" textLength="172" x="12" y="396.437">filtered-candidate-transformer</text><text fill="#000000" font-family="sans-serif" font-size="11" lengthAdjust="spacingAndGlyphs" textLength="33" x="12" y="409.2417">group</text><text fill="#000000" font-family="sans-serif" font-size="11" lengthAdjust="spacingAndGlyphs" textLength="81" x="12" y="422.0464">help-message</text><text fill="#000000" font-family="sans-serif" font-size="11" lengthAdjust="spacingAndGlyphs" textLength="39" x="12" y="434.8511">history</text><text fill="#000000" font-family="sans-serif" font-size="11" lengthAdjust="spacingAndGlyphs" textLength="44" x="12" y="447.6558">keymap</text><text fill="#000000" font-family="sans-serif" font-size="11" lengthAdjust="spacingAndGlyphs" textLength="62" x="12" y="460.4604">nohighlight</text><text fill="#000000" font-family="sans-serif" font-size="11" lengthAdjust="spacingAndGlyphs" textLength="43" x="12" y="473.2651">nomark</text><text fill="#000000" font-family="sans-serif" font-size="11" lengthAdjust="spacingAndGlyphs" textLength="25" x="12" y="486.0698">pcre</text><text fill="#000000" font-family="sans-serif" font-size="11" lengthAdjust="spacingAndGlyphs" textLength="96" x="12" y="498.8745">persistent-action</text><text fill="#000000" font-family="sans-serif" font-size="11" lengthAdjust="spacingAndGlyphs" textLength="86" x="12" y="511.6792">persistent-help</text><text fill="#000000" font-family="sans-serif" font-size="11" lengthAdjust="spacingAndGlyphs" textLength="93" x="12" y="524.4839">requires-pattern</text><line style="stroke: #A80036; stroke-width: 1.5;" x1="7" x2="34.5" y1="354.2148" y2="354.2148"/><text fill="#000000" font-family="sans-serif" font-size="11" lengthAdjust="spacingAndGlyphs" textLength="127" x="34.5" y="357.5229">some interesting slots</text><line style="stroke: #A80036; stroke-width: 1.5;" x1="161.5" x2="189" y1="354.2148" y2="354.2148"/><!--MD5=[8da85e6ec6935d54267014e974a66b51]
class helm-source--><rect fill="#FEFECE" filter="url(#f1ixg3k1rclaa4)" height="48" id="helm-source" style="stroke: #A80036; stroke-width: 1.5;" width="119" x="38.5" y="91.8125"/><ellipse cx="53.5" cy="107.8125" fill="#ADD1B2" rx="11" ry="11" style="stroke: #A80036; stroke-width: 1.0;"/><path d="M56.4688,113.4531 Q55.8906,113.75 55.25,113.8906 Q54.6094,114.0469 53.9063,114.0469 Q51.4063,114.0469 50.0781,112.4063 Q48.7656,110.75 48.7656,107.625 Q48.7656,104.5 50.0781,102.8438 Q51.4063,101.1875 53.9063,101.1875 Q54.6094,101.1875 55.25,101.3438 Q55.9063,101.5 56.4688,101.7969 L56.4688,104.5156 Q55.8438,103.9375 55.25,103.6719 Q54.6563,103.3906 54.0313,103.3906 Q52.6875,103.3906 52,104.4688 Q51.3125,105.5313 51.3125,107.625 Q51.3125,109.7188 52,110.7969 Q52.6875,111.8594 54.0313,111.8594 Q54.6563,111.8594 55.25,111.5938 Q55.8438,111.3125 56.4688,110.7344 L56.4688,113.4531 Z "/><text fill="#000000" font-family="sans-serif" font-size="12" font-weight="bold" lengthAdjust="spacingAndGlyphs" textLength="87" x="67.5" y="111.9668">helm-source</text><line style="stroke: #A80036; stroke-width: 1.5;" x1="39.5" x2="156.5" y1="123.8125" y2="123.8125"/><line style="stroke: #A80036; stroke-width: 1.5;" x1="39.5" x2="156.5" y1="131.8125" y2="131.8125"/><path d="M225.5,406.8125 L225.5,415.3125 L190.25,419.3125 L225.5,423.3125 L225.5,431.9453 A0,0 0 0 0 225.5,431.9453 L388.5,431.9453 A0,0 0 0 0 388.5,431.9453 L388.5,416.8125 L378.5,406.8125 L225.5,406.8125 A0,0 0 0 0 225.5,406.8125 " fill="#FBFB77" filter="url(#f1ixg3k1rclaa4)" style="stroke: #A80036; stroke-width: 1.0;"/><path d="M378.5,406.8125 L378.5,416.8125 L388.5,416.8125 L378.5,406.8125 " fill="#FBFB77" style="stroke: #A80036; stroke-width: 1.0;"/><text fill="#000000" font-family="sans-serif" font-size="13" font-weight="bold" lengthAdjust="spacingAndGlyphs" textLength="142" x="231.5" y="423.8794">helm-grep-ag-class</text><!--MD5=[e220d22ad778b6230f0552c8a1eae9ee]
reverse link helm-source-async to helm-grep-ag-class--><path d="M98,268.3225 C98,280.2925 98,293.8425 98,307.7825 " fill="none" id="helm-source-async&lt;-helm-grep-ag-class" style="stroke: #A80036; stroke-width: 1.0;"/><polygon fill="none" points="91,268.1525,98,248.1525,105,268.1525,91,268.1525" style="stroke: #A80036; stroke-width: 1.0;"/><!--MD5=[894eacf2e17d1c2f4b307c7f81f3aeea]
reverse link helm-source to helm-source-async--><path d="M98,159.8325 C98,173.3925 98,187.8525 98,199.4925 " fill="none" id="helm-source&lt;-helm-source-async" style="stroke: #A80036; stroke-width: 1.0;"/><polygon fill="none" points="91,159.8125,98,139.8125,105,159.8125,91,159.8125" style="stroke: #A80036; stroke-width: 1.0;"/><!--MD5=[b7d1f337b208ac00f328bb7eef5406c7]
@startuml
skinparam classFontStyle bold
skinparam captionFontStyle bold
title **Parents and Children of**\n**'helm-grep-ag-class'**\n\n
"helm-source-async" <|- - "helm-grep-ag-class"
class "helm-source-async"
"helm-source" <|- - "helm-source-async"
class "helm-source"
class "helm-grep-ag-class" {
	__ some interesting slots __
	action
	candidate-number-limit
	filtered-candidate-transformer
	group
	help-message
	history
	keymap
	nohighlight
	nomark
	pcre
	persistent-action
	persistent-help
	requires-pattern
}
note right of "helm-grep-ag-class"
	**helm-grep-ag-class**
end note
@enduml

PlantUML version 1.2020.02(Sun Mar 01 15:52:07 IST 2020)
(GPL source distribution)
Java Runtime: OpenJDK Runtime Environment
JVM: OpenJDK 64-Bit Server VM
Java Version: 11.0.11-ea+8-post-Debian-1
Operating System: Linux
Default Encoding: UTF-8
Language: en
Country: IN
--></g></svg>