<?xml version="1.0" encoding="UTF-8" standalone="no"?><svg xmlns="http://www.w3.org/2000/svg" xmlns:xlink="http://www.w3.org/1999/xlink" contentScriptType="application/ecmascript" contentStyleType="text/css" height="460px" preserveAspectRatio="none" style="width:417px;height:460px;" version="1.1" viewBox="0 0 417 460" width="417px" zoomAndPan="magnify"><defs><filter height="300%" id="fo7o9xfh1dsy8" width="300%" x="-1" y="-1"><feGaussianBlur result="blurOut" stdDeviation="2.0"/><feColorMatrix in="blurOut" result="blurOut2" type="matrix" values="0 0 0 0 0 0 0 0 0 0 0 0 0 0 0 0 0 0 .4 0"/><feOffset dx="4.0" dy="4.0" in="blurOut2" result="blurOut3"/><feBlend in="SourceGraphic" in2="blurOut3" mode="normal"/></filter></defs><g><text fill="#000000" font-family="sans-serif" font-size="18" font-weight="bold" lengthAdjust="spacingAndGlyphs" textLength="240" x="91.5" y="16.708">Parents and Children of</text><text fill="#000000" font-family="sans-serif" font-size="18" font-weight="bold" lengthAdjust="spacingAndGlyphs" textLength="105" x="159" y="37.6611">'helm-epa'</text><text fill="#000000" font-family="sans-serif" font-size="18" lengthAdjust="spacingAndGlyphs" textLength="0" x="214.5" y="58.6143"/><text fill="#000000" font-family="sans-serif" font-size="18" lengthAdjust="spacingAndGlyphs" textLength="0" x="214.5" y="79.5674"/><!--MD5=[29825b4f2a07190321f66d6028a4dd26]
class helm-source-sync--><rect fill="#FEFECE" filter="url(#fo7o9xfh1dsy8)" height="48" id="helm-source-sync" style="stroke: #A80036; stroke-width: 1.5;" width="156" x="12" y="199.8125"/><ellipse cx="27" cy="215.8125" fill="#ADD1B2" rx="11" ry="11" style="stroke: #A80036; stroke-width: 1.0;"/><path d="M29.9688,221.4531 Q29.3906,221.75 28.75,221.8906 Q28.1094,222.0469 27.4063,222.0469 Q24.9063,222.0469 23.5781,220.4063 Q22.2656,218.75 22.2656,215.625 Q22.2656,212.5 23.5781,210.8438 Q24.9063,209.1875 27.4063,209.1875 Q28.1094,209.1875 28.75,209.3438 Q29.4063,209.5 29.9688,209.7969 L29.9688,212.5156 Q29.3438,211.9375 28.75,211.6719 Q28.1563,211.3906 27.5313,211.3906 Q26.1875,211.3906 25.5,212.4688 Q24.8125,213.5313 24.8125,215.625 Q24.8125,217.7188 25.5,218.7969 Q26.1875,219.8594 27.5313,219.8594 Q28.1563,219.8594 28.75,219.5938 Q29.3438,219.3125 29.9688,218.7344 L29.9688,221.4531 Z "/><text fill="#000000" font-family="sans-serif" font-size="12" font-weight="bold" lengthAdjust="spacingAndGlyphs" textLength="124" x="41" y="219.9668">helm-source-sync</text><line style="stroke: #A80036; stroke-width: 1.5;" x1="13" x2="167" y1="231.8125" y2="231.8125"/><line style="stroke: #A80036; stroke-width: 1.5;" x1="13" x2="167" y1="239.8125" y2="239.8125"/><!--MD5=[75687e4369f49c6cba1a6ff12ff0e7fa]
class helm-epa--><rect fill="#FEFECE" filter="url(#fo7o9xfh1dsy8)" height="141.6328" id="helm-epa" style="stroke: #A80036; stroke-width: 1.5;" width="168" x="6" y="307.8125"/><ellipse cx="52.75" cy="323.8125" fill="#ADD1B2" rx="11" ry="11" style="stroke: #A80036; stroke-width: 1.0;"/><path d="M55.7188,329.4531 Q55.1406,329.75 54.5,329.8906 Q53.8594,330.0469 53.1563,330.0469 Q50.6563,330.0469 49.3281,328.4063 Q48.0156,326.75 48.0156,323.625 Q48.0156,320.5 49.3281,318.8438 Q50.6563,317.1875 53.1563,317.1875 Q53.8594,317.1875 54.5,317.3438 Q55.1563,317.5 55.7188,317.7969 L55.7188,320.5156 Q55.0938,319.9375 54.5,319.6719 Q53.9063,319.3906 53.2813,319.3906 Q51.9375,319.3906 51.25,320.4688 Q50.5625,321.5313 50.5625,323.625 Q50.5625,325.7188 51.25,326.7969 Q51.9375,327.8594 53.2813,327.8594 Q53.9063,327.8594 54.5,327.5938 Q55.0938,327.3125 55.7188,326.7344 L55.7188,329.4531 Z "/><text fill="#000000" font-family="sans-serif" font-size="12" font-weight="bold" lengthAdjust="spacingAndGlyphs" textLength="66" x="73.25" y="327.9668">helm-epa</text><line style="stroke: #A80036; stroke-width: 1.5;" x1="7" x2="173" y1="339.8125" y2="339.8125"/><text fill="#000000" font-family="sans-serif" font-size="11" lengthAdjust="spacingAndGlyphs" textLength="156" x="12" y="354.0229">Allow building helm sources</text><text fill="#000000" font-family="sans-serif" font-size="11" lengthAdjust="spacingAndGlyphs" textLength="77" x="12" y="366.8276">for GPG keys.</text><line style="stroke: #A80036; stroke-width: 1.0;" x1="7" x2="173" y1="373.4219" y2="373.4219"/><line style="stroke: #A80036; stroke-width: 1.0;" x1="7" x2="173" y1="375.4219" y2="375.4219"/><text fill="#000000" font-family="sans-serif" font-size="11" lengthAdjust="spacingAndGlyphs" textLength="17" x="12" y="404.437">init</text><text fill="#000000" font-family="sans-serif" font-size="11" lengthAdjust="spacingAndGlyphs" textLength="62" x="12" y="417.2417">candidates</text><text fill="#000000" font-family="sans-serif" font-size="11" lengthAdjust="spacingAndGlyphs" textLength="44" x="12" y="430.0464">keymap</text><text fill="#000000" font-family="sans-serif" font-size="11" lengthAdjust="spacingAndGlyphs" textLength="56" x="12" y="442.8511">mode-line</text><line style="stroke: #A80036; stroke-width: 1.5;" x1="7" x2="26.5" y1="387.8242" y2="387.8242"/><text fill="#000000" font-family="sans-serif" font-size="11" lengthAdjust="spacingAndGlyphs" textLength="127" x="26.5" y="391.1323">some interesting slots</text><line style="stroke: #A80036; stroke-width: 1.5;" x1="153.5" x2="173" y1="387.8242" y2="387.8242"/><!--MD5=[8da85e6ec6935d54267014e974a66b51]
class helm-source--><rect fill="#FEFECE" filter="url(#fo7o9xfh1dsy8)" height="48" id="helm-source" style="stroke: #A80036; stroke-width: 1.5;" width="119" x="30.5" y="91.8125"/><ellipse cx="45.5" cy="107.8125" fill="#ADD1B2" rx="11" ry="11" style="stroke: #A80036; stroke-width: 1.0;"/><path d="M48.4688,113.4531 Q47.8906,113.75 47.25,113.8906 Q46.6094,114.0469 45.9063,114.0469 Q43.4063,114.0469 42.0781,112.4063 Q40.7656,110.75 40.7656,107.625 Q40.7656,104.5 42.0781,102.8438 Q43.4063,101.1875 45.9063,101.1875 Q46.6094,101.1875 47.25,101.3438 Q47.9063,101.5 48.4688,101.7969 L48.4688,104.5156 Q47.8438,103.9375 47.25,103.6719 Q46.6563,103.3906 46.0313,103.3906 Q44.6875,103.3906 44,104.4688 Q43.3125,105.5313 43.3125,107.625 Q43.3125,109.7188 44,110.7969 Q44.6875,111.8594 46.0313,111.8594 Q46.6563,111.8594 47.25,111.5938 Q47.8438,111.3125 48.4688,110.7344 L48.4688,113.4531 Z "/><text fill="#000000" font-family="sans-serif" font-size="12" font-weight="bold" lengthAdjust="spacingAndGlyphs" textLength="87" x="59.5" y="111.9668">helm-source</text><line style="stroke: #A80036; stroke-width: 1.5;" x1="31.5" x2="148.5" y1="123.8125" y2="123.8125"/><line style="stroke: #A80036; stroke-width: 1.5;" x1="31.5" x2="148.5" y1="131.8125" y2="131.8125"/><path d="M209,351.3125 L209,374.8125 L174.34,378.8125 L209,382.8125 L209,406.7109 A0,0 0 0 0 209,406.7109 L405,406.7109 A0,0 0 0 0 405,406.7109 L405,361.3125 L395,351.3125 L209,351.3125 A0,0 0 0 0 209,351.3125 " fill="#FBFB77" filter="url(#fo7o9xfh1dsy8)" style="stroke: #A80036; stroke-width: 1.0;"/><path d="M395,351.3125 L395,361.3125 L405,361.3125 L395,351.3125 " fill="#FBFB77" style="stroke: #A80036; stroke-width: 1.0;"/><text fill="#000000" font-family="sans-serif" font-size="13" font-weight="bold" lengthAdjust="spacingAndGlyphs" textLength="69" x="215" y="368.3794">helm-epa</text><text fill="#000000" font-family="sans-serif" font-size="13" lengthAdjust="spacingAndGlyphs" textLength="4" x="284" y="368.3794">:</text><text fill="#000000" font-family="sans-serif" font-size="13" lengthAdjust="spacingAndGlyphs" textLength="175" x="215" y="383.5122">Allow building helm sources</text><text fill="#000000" font-family="sans-serif" font-size="13" lengthAdjust="spacingAndGlyphs" textLength="86" x="215" y="398.645">for GPG keys.</text><!--MD5=[7e5f38bd9ae0e1bb94a273709f715bc1]
reverse link helm-source-sync to helm-epa--><path d="M90,268.2425 C90,280.5125 90,294.1725 90,307.5825 " fill="none" id="helm-source-sync&lt;-helm-epa" style="stroke: #A80036; stroke-width: 1.0;"/><polygon fill="none" points="83,268.0525,90,248.0525,97,268.0525,83,268.0525" style="stroke: #A80036; stroke-width: 1.0;"/><!--MD5=[7fac0f6d78841877506d9722364fbb5e]
reverse link helm-source to helm-source-sync--><path d="M90,159.8325 C90,173.3925 90,187.8525 90,199.4925 " fill="none" id="helm-source&lt;-helm-source-sync" style="stroke: #A80036; stroke-width: 1.0;"/><polygon fill="none" points="83,159.8125,90,139.8125,97,159.8125,83,159.8125" style="stroke: #A80036; stroke-width: 1.0;"/><!--MD5=[7068a30a50db157eca643f07df57529f]
@startuml
skinparam classFontStyle bold
skinparam captionFontStyle bold
title **Parents and Children of**\n**'helm-epa'**\n\n
"helm-source-sync" <|- - "helm-epa"
class "helm-source-sync"
"helm-source" <|- - "helm-source-sync"
class "helm-source"
class "helm-epa" {
	Allow building helm sources
	for GPG keys.
	==
	__ some interesting slots __
	init
	candidates
	keymap
	mode-line
}
note right of "helm-epa"
	**helm-epa**:
	Allow building helm sources
	for GPG keys.
end note
@enduml

PlantUML version 1.2020.02(Sun Mar 01 15:52:07 IST 2020)
(GPL source distribution)
Java Runtime: OpenJDK Runtime Environment
JVM: OpenJDK 64-Bit Server VM
Java Version: 11.0.11-ea+8-post-Debian-1
Operating System: Linux
Default Encoding: UTF-8
Language: en
Country: IN
--></g></svg>