<?xml version="1.0" encoding="UTF-8" standalone="no"?><svg xmlns="http://www.w3.org/2000/svg" xmlns:xlink="http://www.w3.org/1999/xlink" contentScriptType="application/ecmascript" contentStyleType="text/css" height="452px" preserveAspectRatio="none" style="width:615px;height:452px;" version="1.1" viewBox="0 0 615 452" width="615px" zoomAndPan="magnify"><defs><filter height="300%" id="frhsxyrmuci7j" width="300%" x="-1" y="-1"><feGaussianBlur result="blurOut" stdDeviation="2.0"/><feColorMatrix in="blurOut" result="blurOut2" type="matrix" values="0 0 0 0 0 0 0 0 0 0 0 0 0 0 0 0 0 0 .4 0"/><feOffset dx="4.0" dy="4.0" in="blurOut2" result="blurOut3"/><feBlend in="SourceGraphic" in2="blurOut3" mode="normal"/></filter></defs><g><text fill="#000000" font-family="sans-serif" font-size="18" font-weight="bold" lengthAdjust="spacingAndGlyphs" textLength="240" x="190.5" y="16.708">Parents and Children of</text><text fill="#000000" font-family="sans-serif" font-size="18" font-weight="bold" lengthAdjust="spacingAndGlyphs" textLength="338" x="141.5" y="37.6611">'helm-absolute-time-timers-class'</text><text fill="#000000" font-family="sans-serif" font-size="18" lengthAdjust="spacingAndGlyphs" textLength="0" x="313.5" y="58.6143"/><text fill="#000000" font-family="sans-serif" font-size="18" lengthAdjust="spacingAndGlyphs" textLength="0" x="313.5" y="79.5674"/><!--MD5=[29825b4f2a07190321f66d6028a4dd26]
class helm-source-sync--><rect fill="#FEFECE" filter="url(#frhsxyrmuci7j)" height="48" id="helm-source-sync" style="stroke: #A80036; stroke-width: 1.5;" width="156" x="6" y="199.8125"/><ellipse cx="21" cy="215.8125" fill="#ADD1B2" rx="11" ry="11" style="stroke: #A80036; stroke-width: 1.0;"/><path d="M23.9688,221.4531 Q23.3906,221.75 22.75,221.8906 Q22.1094,222.0469 21.4063,222.0469 Q18.9063,222.0469 17.5781,220.4063 Q16.2656,218.75 16.2656,215.625 Q16.2656,212.5 17.5781,210.8438 Q18.9063,209.1875 21.4063,209.1875 Q22.1094,209.1875 22.75,209.3438 Q23.4063,209.5 23.9688,209.7969 L23.9688,212.5156 Q23.3438,211.9375 22.75,211.6719 Q22.1563,211.3906 21.5313,211.3906 Q20.1875,211.3906 19.5,212.4688 Q18.8125,213.5313 18.8125,215.625 Q18.8125,217.7188 19.5,218.7969 Q20.1875,219.8594 21.5313,219.8594 Q22.1563,219.8594 22.75,219.5938 Q23.3438,219.3125 23.9688,218.7344 L23.9688,221.4531 Z "/><text fill="#000000" font-family="sans-serif" font-size="12" font-weight="bold" lengthAdjust="spacingAndGlyphs" textLength="124" x="35" y="219.9668">helm-source-sync</text><line style="stroke: #A80036; stroke-width: 1.5;" x1="7" x2="161" y1="231.8125" y2="231.8125"/><line style="stroke: #A80036; stroke-width: 1.5;" x1="7" x2="161" y1="239.8125" y2="239.8125"/><!--MD5=[b0e60113aba2bebbe59d6cbba30a4a7f]
class helm-absolute-time-timers-class--><rect fill="#FEFECE" filter="url(#frhsxyrmuci7j)" height="133.6328" id="helm-absolute-time-timers-class" style="stroke: #A80036; stroke-width: 1.5;" width="261" x="48.5" y="307.8125"/><ellipse cx="63.5" cy="323.8125" fill="#ADD1B2" rx="11" ry="11" style="stroke: #A80036; stroke-width: 1.0;"/><path d="M66.4688,329.4531 Q65.8906,329.75 65.25,329.8906 Q64.6094,330.0469 63.9063,330.0469 Q61.4063,330.0469 60.0781,328.4063 Q58.7656,326.75 58.7656,323.625 Q58.7656,320.5 60.0781,318.8438 Q61.4063,317.1875 63.9063,317.1875 Q64.6094,317.1875 65.25,317.3438 Q65.9063,317.5 66.4688,317.7969 L66.4688,320.5156 Q65.8438,319.9375 65.25,319.6719 Q64.6563,319.3906 64.0313,319.3906 Q62.6875,319.3906 62,320.4688 Q61.3125,321.5313 61.3125,323.625 Q61.3125,325.7188 62,326.7969 Q62.6875,327.8594 64.0313,327.8594 Q64.6563,327.8594 65.25,327.5938 Q65.8438,327.3125 66.4688,326.7344 L66.4688,329.4531 Z "/><text fill="#000000" font-family="sans-serif" font-size="12" font-weight="bold" lengthAdjust="spacingAndGlyphs" textLength="229" x="77.5" y="327.9668">helm-absolute-time-timers-class</text><line style="stroke: #A80036; stroke-width: 1.5;" x1="49.5" x2="308.5" y1="339.8125" y2="339.8125"/><text fill="#000000" font-family="sans-serif" font-size="11" lengthAdjust="spacingAndGlyphs" textLength="61" x="54.5" y="370.8276">allow-dups</text><text fill="#000000" font-family="sans-serif" font-size="11" lengthAdjust="spacingAndGlyphs" textLength="128" x="54.5" y="383.6323">candidate-transformer</text><text fill="#000000" font-family="sans-serif" font-size="11" lengthAdjust="spacingAndGlyphs" textLength="62" x="54.5" y="396.437">candidates</text><text fill="#000000" font-family="sans-serif" font-size="11" lengthAdjust="spacingAndGlyphs" textLength="86" x="54.5" y="409.2417">match-dynamic</text><text fill="#000000" font-family="sans-serif" font-size="11" lengthAdjust="spacingAndGlyphs" textLength="68" x="54.5" y="422.0464">match-strict</text><text fill="#000000" font-family="sans-serif" font-size="11" lengthAdjust="spacingAndGlyphs" textLength="46" x="54.5" y="434.8511">migemo</text><line style="stroke: #A80036; stroke-width: 1.5;" x1="49.5" x2="115.5" y1="354.2148" y2="354.2148"/><text fill="#000000" font-family="sans-serif" font-size="11" lengthAdjust="spacingAndGlyphs" textLength="127" x="115.5" y="357.5229">some interesting slots</text><line style="stroke: #A80036; stroke-width: 1.5;" x1="242.5" x2="308.5" y1="354.2148" y2="354.2148"/><!--MD5=[d89fbe3a66aa0ad58442d3fbb0e3c04d]
class helm-type-timers--><rect fill="#FEFECE" filter="url(#frhsxyrmuci7j)" height="48" id="helm-type-timers" style="stroke: #A80036; stroke-width: 1.5;" width="153" x="197.5" y="199.8125"/><ellipse cx="212.5" cy="215.8125" fill="#ADD1B2" rx="11" ry="11" style="stroke: #A80036; stroke-width: 1.0;"/><path d="M215.4688,221.4531 Q214.8906,221.75 214.25,221.8906 Q213.6094,222.0469 212.9063,222.0469 Q210.4063,222.0469 209.0781,220.4063 Q207.7656,218.75 207.7656,215.625 Q207.7656,212.5 209.0781,210.8438 Q210.4063,209.1875 212.9063,209.1875 Q213.6094,209.1875 214.25,209.3438 Q214.9063,209.5 215.4688,209.7969 L215.4688,212.5156 Q214.8438,211.9375 214.25,211.6719 Q213.6563,211.3906 213.0313,211.3906 Q211.6875,211.3906 211,212.4688 Q210.3125,213.5313 210.3125,215.625 Q210.3125,217.7188 211,218.7969 Q211.6875,219.8594 213.0313,219.8594 Q213.6563,219.8594 214.25,219.5938 Q214.8438,219.3125 215.4688,218.7344 L215.4688,221.4531 Z "/><text fill="#000000" font-family="sans-serif" font-size="12" font-weight="bold" lengthAdjust="spacingAndGlyphs" textLength="121" x="226.5" y="219.9668">helm-type-timers</text><line style="stroke: #A80036; stroke-width: 1.5;" x1="198.5" x2="349.5" y1="231.8125" y2="231.8125"/><line style="stroke: #A80036; stroke-width: 1.5;" x1="198.5" x2="349.5" y1="239.8125" y2="239.8125"/><!--MD5=[8da85e6ec6935d54267014e974a66b51]
class helm-source--><rect fill="#FEFECE" filter="url(#frhsxyrmuci7j)" height="48" id="helm-source" style="stroke: #A80036; stroke-width: 1.5;" width="119" x="119.5" y="91.8125"/><ellipse cx="134.5" cy="107.8125" fill="#ADD1B2" rx="11" ry="11" style="stroke: #A80036; stroke-width: 1.0;"/><path d="M137.4688,113.4531 Q136.8906,113.75 136.25,113.8906 Q135.6094,114.0469 134.9063,114.0469 Q132.4063,114.0469 131.0781,112.4063 Q129.7656,110.75 129.7656,107.625 Q129.7656,104.5 131.0781,102.8438 Q132.4063,101.1875 134.9063,101.1875 Q135.6094,101.1875 136.25,101.3438 Q136.9063,101.5 137.4688,101.7969 L137.4688,104.5156 Q136.8438,103.9375 136.25,103.6719 Q135.6563,103.3906 135.0313,103.3906 Q133.6875,103.3906 133,104.4688 Q132.3125,105.5313 132.3125,107.625 Q132.3125,109.7188 133,110.7969 Q133.6875,111.8594 135.0313,111.8594 Q135.6563,111.8594 136.25,111.5938 Q136.8438,111.3125 137.4688,110.7344 L137.4688,113.4531 Z "/><text fill="#000000" font-family="sans-serif" font-size="12" font-weight="bold" lengthAdjust="spacingAndGlyphs" textLength="87" x="148.5" y="111.9668">helm-source</text><line style="stroke: #A80036; stroke-width: 1.5;" x1="120.5" x2="237.5" y1="123.8125" y2="123.8125"/><line style="stroke: #A80036; stroke-width: 1.5;" x1="120.5" x2="237.5" y1="131.8125" y2="131.8125"/><path d="M345,362.3125 L345,370.8125 L309.5,374.8125 L345,378.8125 L345,387.4453 A0,0 0 0 0 345,387.4453 L603,387.4453 A0,0 0 0 0 603,387.4453 L603,372.3125 L593,362.3125 L345,362.3125 A0,0 0 0 0 345,362.3125 " fill="#FBFB77" filter="url(#frhsxyrmuci7j)" style="stroke: #A80036; stroke-width: 1.0;"/><path d="M593,362.3125 L593,372.3125 L603,372.3125 L593,362.3125 " fill="#FBFB77" style="stroke: #A80036; stroke-width: 1.0;"/><text fill="#000000" font-family="sans-serif" font-size="13" font-weight="bold" lengthAdjust="spacingAndGlyphs" textLength="237" x="351" y="379.3794">helm-absolute-time-timers-class</text><!--MD5=[2dab3ea9bdbd523a70d6b4309b981517]
reverse link helm-source-sync to helm-absolute-time-timers-class--><path d="M109.73,265.1725 C118.07,278.2525 127.56,293.1325 136.78,307.5925 " fill="none" id="helm-source-sync&lt;-helm-absolute-time-timers-class" style="stroke: #A80036; stroke-width: 1.0;"/><polygon fill="none" points="103.69,268.7225,98.84,248.0925,115.5,261.1925,103.69,268.7225" style="stroke: #A80036; stroke-width: 1.0;"/><!--MD5=[69966f233324ab1b41ca6bc5703528d7]
reverse link helm-type-timers to helm-absolute-time-timers-class--><path d="M248.27,265.1725 C239.93,278.2525 230.44,293.1325 221.22,307.5925 " fill="none" id="helm-type-timers&lt;-helm-absolute-time-timers-class" style="stroke: #A80036; stroke-width: 1.0;"/><polygon fill="none" points="242.5,261.1925,259.16,248.0925,254.31,268.7225,242.5,261.1925" style="stroke: #A80036; stroke-width: 1.0;"/><!--MD5=[7fac0f6d78841877506d9722364fbb5e]
reverse link helm-source to helm-source-sync--><path d="M144.74,155.0425 C131.41,169.9125 116.58,186.4625 104.9,199.4925 " fill="none" id="helm-source&lt;-helm-source-sync" style="stroke: #A80036; stroke-width: 1.0;"/><polygon fill="none" points="139.83,150.0325,158.39,139.8125,150.25,159.3825,139.83,150.0325" style="stroke: #A80036; stroke-width: 1.0;"/><!--MD5=[687fc8ec140e945488f732dae3c46e2b]
reverse link helm-source to helm-type-timers--><path d="M213.26,155.0425 C226.59,169.9125 241.42,186.4625 253.1,199.4925 " fill="none" id="helm-source&lt;-helm-type-timers" style="stroke: #A80036; stroke-width: 1.0;"/><polygon fill="none" points="207.75,159.3825,199.61,139.8125,218.17,150.0325,207.75,159.3825" style="stroke: #A80036; stroke-width: 1.0;"/><!--MD5=[710b4b6be57474b21b724acdc029eeb8]
@startuml
skinparam classFontStyle bold
skinparam captionFontStyle bold
title **Parents and Children of**\n**'helm-absolute-time-timers-class'**\n\n
"helm-source-sync" <|- - "helm-absolute-time-timers-class"
"helm-type-timers" <|- - "helm-absolute-time-timers-class"
class "helm-source-sync"
"helm-source" <|- - "helm-source-sync"
class "helm-source"
class "helm-type-timers"
"helm-source" <|- - "helm-type-timers"
class "helm-source"
class "helm-absolute-time-timers-class" {
	__ some interesting slots __
	allow-dups
	candidate-transformer
	candidates
	match-dynamic
	match-strict
	migemo
}
note right of "helm-absolute-time-timers-class"
	**helm-absolute-time-timers-class**
end note
@enduml

PlantUML version 1.2020.02(Sun Mar 01 15:52:07 IST 2020)
(GPL source distribution)
Java Runtime: OpenJDK Runtime Environment
JVM: OpenJDK 64-Bit Server VM
Java Version: 11.0.11-ea+8-post-Debian-1
Operating System: Linux
Default Encoding: UTF-8
Language: en
Country: IN
--></g></svg>