<?xml version="1.0" encoding="UTF-8" standalone="no"?><svg xmlns="http://www.w3.org/2000/svg" xmlns:xlink="http://www.w3.org/1999/xlink" contentScriptType="application/ecmascript" contentStyleType="text/css" height="303px" preserveAspectRatio="none" style="width:413px;height:303px;" version="1.1" viewBox="0 0 413 303" width="413px" zoomAndPan="magnify"><defs><filter height="300%" id="f1mjft7fad5upw" width="300%" x="-1" y="-1"><feGaussianBlur result="blurOut" stdDeviation="2.0"/><feColorMatrix in="blurOut" result="blurOut2" type="matrix" values="0 0 0 0 0 0 0 0 0 0 0 0 0 0 0 0 0 0 .4 0"/><feOffset dx="4.0" dy="4.0" in="blurOut2" result="blurOut3"/><feBlend in="SourceGraphic" in2="blurOut3" mode="normal"/></filter></defs><g><text fill="#000000" font-family="sans-serif" font-size="18" font-weight="bold" lengthAdjust="spacingAndGlyphs" textLength="240" x="89.5" y="16.708">Parents and Children of</text><text fill="#000000" font-family="sans-serif" font-size="18" font-weight="bold" lengthAdjust="spacingAndGlyphs" textLength="206" x="106.5" y="37.6611">'helm-type-function'</text><text fill="#000000" font-family="sans-serif" font-size="18" lengthAdjust="spacingAndGlyphs" textLength="0" x="212.5" y="58.6143"/><text fill="#000000" font-family="sans-serif" font-size="18" lengthAdjust="spacingAndGlyphs" textLength="0" x="212.5" y="79.5674"/><!--MD5=[8da85e6ec6935d54267014e974a66b51]
class helm-source--><rect fill="#FEFECE" filter="url(#f1mjft7fad5upw)" height="48" id="helm-source" style="stroke: #A80036; stroke-width: 1.5;" width="119" x="29.5" y="91.8125"/><ellipse cx="44.5" cy="107.8125" fill="#ADD1B2" rx="11" ry="11" style="stroke: #A80036; stroke-width: 1.0;"/><path d="M47.4688,113.4531 Q46.8906,113.75 46.25,113.8906 Q45.6094,114.0469 44.9063,114.0469 Q42.4063,114.0469 41.0781,112.4063 Q39.7656,110.75 39.7656,107.625 Q39.7656,104.5 41.0781,102.8438 Q42.4063,101.1875 44.9063,101.1875 Q45.6094,101.1875 46.25,101.3438 Q46.9063,101.5 47.4688,101.7969 L47.4688,104.5156 Q46.8438,103.9375 46.25,103.6719 Q45.6563,103.3906 45.0313,103.3906 Q43.6875,103.3906 43,104.4688 Q42.3125,105.5313 42.3125,107.625 Q42.3125,109.7188 43,110.7969 Q43.6875,111.8594 45.0313,111.8594 Q45.6563,111.8594 46.25,111.5938 Q46.8438,111.3125 47.4688,110.7344 L47.4688,113.4531 Z "/><text fill="#000000" font-family="sans-serif" font-size="12" font-weight="bold" lengthAdjust="spacingAndGlyphs" textLength="87" x="58.5" y="111.9668">helm-source</text><line style="stroke: #A80036; stroke-width: 1.5;" x1="30.5" x2="147.5" y1="123.8125" y2="123.8125"/><line style="stroke: #A80036; stroke-width: 1.5;" x1="30.5" x2="147.5" y1="131.8125" y2="131.8125"/><!--MD5=[e7e10cea49efd04a6bea9ed9f44f1841]
class helm-type-function--><rect fill="#FEFECE" filter="url(#f1mjft7fad5upw)" height="92.8164" id="helm-type-function" style="stroke: #A80036; stroke-width: 1.5;" width="166" x="6" y="199.8125"/><ellipse cx="21" cy="215.8125" fill="#ADD1B2" rx="11" ry="11" style="stroke: #A80036; stroke-width: 1.0;"/><path d="M23.9688,221.4531 Q23.3906,221.75 22.75,221.8906 Q22.1094,222.0469 21.4063,222.0469 Q18.9063,222.0469 17.5781,220.4063 Q16.2656,218.75 16.2656,215.625 Q16.2656,212.5 17.5781,210.8438 Q18.9063,209.1875 21.4063,209.1875 Q22.1094,209.1875 22.75,209.3438 Q23.4063,209.5 23.9688,209.7969 L23.9688,212.5156 Q23.3438,211.9375 22.75,211.6719 Q22.1563,211.3906 21.5313,211.3906 Q20.1875,211.3906 19.5,212.4688 Q18.8125,213.5313 18.8125,215.625 Q18.8125,217.7188 19.5,218.7969 Q20.1875,219.8594 21.5313,219.8594 Q22.1563,219.8594 22.75,219.5938 Q23.3438,219.3125 23.9688,218.7344 L23.9688,221.4531 Z "/><text fill="#000000" font-family="sans-serif" font-size="12" font-weight="bold" lengthAdjust="spacingAndGlyphs" textLength="134" x="35" y="219.9668">helm-type-function</text><line style="stroke: #A80036; stroke-width: 1.5;" x1="7" x2="171" y1="231.8125" y2="231.8125"/><text fill="#000000" font-family="sans-serif" font-size="11" lengthAdjust="spacingAndGlyphs" textLength="150" x="12" y="246.0229">A class to define helm type</text><text fill="#000000" font-family="sans-serif" font-size="11" lengthAdjust="spacingAndGlyphs" textLength="49" x="12" y="258.8276">function.</text><line style="stroke: #A80036; stroke-width: 1.0;" x1="7" x2="171" y1="265.4219" y2="265.4219"/><line style="stroke: #A80036; stroke-width: 1.0;" x1="7" x2="171" y1="267.4219" y2="267.4219"/><line style="stroke: #A80036; stroke-width: 1.5;" x1="7" x2="25.5" y1="279.8242" y2="279.8242"/><text fill="#000000" font-family="sans-serif" font-size="11" lengthAdjust="spacingAndGlyphs" textLength="127" x="25.5" y="283.1323">some interesting slots</text><line style="stroke: #A80036; stroke-width: 1.5;" x1="152.5" x2="171" y1="279.8242" y2="279.8242"/><path d="M207,218.8125 L207,242.3125 L172.14,246.3125 L207,250.3125 L207,274.2109 A0,0 0 0 0 207,274.2109 L401,274.2109 A0,0 0 0 0 401,274.2109 L401,228.8125 L391,218.8125 L207,218.8125 A0,0 0 0 0 207,218.8125 " fill="#FBFB77" filter="url(#f1mjft7fad5upw)" style="stroke: #A80036; stroke-width: 1.0;"/><path d="M391,218.8125 L391,228.8125 L401,228.8125 L391,218.8125 " fill="#FBFB77" style="stroke: #A80036; stroke-width: 1.0;"/><text fill="#000000" font-family="sans-serif" font-size="13" font-weight="bold" lengthAdjust="spacingAndGlyphs" textLength="139" x="213" y="235.8794">helm-type-function</text><text fill="#000000" font-family="sans-serif" font-size="13" lengthAdjust="spacingAndGlyphs" textLength="4" x="352" y="235.8794">:</text><text fill="#000000" font-family="sans-serif" font-size="13" lengthAdjust="spacingAndGlyphs" textLength="173" x="213" y="251.0122">A class to define helm type</text><text fill="#000000" font-family="sans-serif" font-size="13" lengthAdjust="spacingAndGlyphs" textLength="55" x="213" y="266.145">function.</text><!--MD5=[cb8c671e8f25dea26b71b20786c595d4]
reverse link helm-source to helm-type-function--><path d="M89,160.4125 C89,173.0325 89,186.8425 89,199.5825 " fill="none" id="helm-source&lt;-helm-type-function" style="stroke: #A80036; stroke-width: 1.0;"/><polygon fill="none" points="82,160.0825,89,140.0825,96,160.0825,82,160.0825" style="stroke: #A80036; stroke-width: 1.0;"/><!--MD5=[41647364c12015674602e36cc85d91a6]
@startuml
skinparam classFontStyle bold
skinparam captionFontStyle bold
title **Parents and Children of**\n**'helm-type-function'**\n\n
"helm-source" <|- - "helm-type-function"
class "helm-source"
class "helm-type-function" {
	A class to define helm type
	function.
	==
	__ some interesting slots __
}
note right of "helm-type-function"
	**helm-type-function**:
	A class to define helm type
	function.
end note
@enduml

PlantUML version 1.2020.02(Sun Mar 01 15:52:07 IST 2020)
(GPL source distribution)
Java Runtime: OpenJDK Runtime Environment
JVM: OpenJDK 64-Bit Server VM
Java Version: 11.0.11-ea+8-post-Debian-1
Operating System: Linux
Default Encoding: UTF-8
Language: en
Country: IN
--></g></svg>