<?xml version="1.0" encoding="UTF-8" standalone="no"?><svg xmlns="http://www.w3.org/2000/svg" xmlns:xlink="http://www.w3.org/1999/xlink" contentScriptType="application/ecmascript" contentStyleType="text/css" height="478px" preserveAspectRatio="none" style="width:357px;height:478px;" version="1.1" viewBox="0 0 357 478" width="357px" zoomAndPan="magnify"><defs><filter height="300%" id="f18usoniyle2x" width="300%" x="-1" y="-1"><feGaussianBlur result="blurOut" stdDeviation="2.0"/><feColorMatrix in="blurOut" result="blurOut2" type="matrix" values="0 0 0 0 0 0 0 0 0 0 0 0 0 0 0 0 0 0 .4 0"/><feOffset dx="4.0" dy="4.0" in="blurOut2" result="blurOut3"/><feBlend in="SourceGraphic" in2="blurOut3" mode="normal"/></filter></defs><g><text fill="#000000" font-family="sans-serif" font-size="18" font-weight="bold" lengthAdjust="spacingAndGlyphs" textLength="240" x="61.5" y="16.708">Parents and Children of</text><text fill="#000000" font-family="sans-serif" font-size="18" font-weight="bold" lengthAdjust="spacingAndGlyphs" textLength="147" x="108" y="37.6611">'helm-fd-class'</text><text fill="#000000" font-family="sans-serif" font-size="18" lengthAdjust="spacingAndGlyphs" textLength="0" x="184.5" y="58.6143"/><text fill="#000000" font-family="sans-serif" font-size="18" lengthAdjust="spacingAndGlyphs" textLength="0" x="184.5" y="79.5674"/><!--MD5=[12d16a9c65828dace8d907a7ab3ef450]
class helm-source-async--><rect fill="#FEFECE" filter="url(#f18usoniyle2x)" height="48" id="helm-source-async" style="stroke: #A80036; stroke-width: 1.5;" width="165" x="15.5" y="199.8125"/><ellipse cx="30.5" cy="215.8125" fill="#ADD1B2" rx="11" ry="11" style="stroke: #A80036; stroke-width: 1.0;"/><path d="M33.4688,221.4531 Q32.8906,221.75 32.25,221.8906 Q31.6094,222.0469 30.9063,222.0469 Q28.4063,222.0469 27.0781,220.4063 Q25.7656,218.75 25.7656,215.625 Q25.7656,212.5 27.0781,210.8438 Q28.4063,209.1875 30.9063,209.1875 Q31.6094,209.1875 32.25,209.3438 Q32.9063,209.5 33.4688,209.7969 L33.4688,212.5156 Q32.8438,211.9375 32.25,211.6719 Q31.6563,211.3906 31.0313,211.3906 Q29.6875,211.3906 29,212.4688 Q28.3125,213.5313 28.3125,215.625 Q28.3125,217.7188 29,218.7969 Q29.6875,219.8594 31.0313,219.8594 Q31.6563,219.8594 32.25,219.5938 Q32.8438,219.3125 33.4688,218.7344 L33.4688,221.4531 Z "/><text fill="#000000" font-family="sans-serif" font-size="12" font-weight="bold" lengthAdjust="spacingAndGlyphs" textLength="133" x="44.5" y="219.9668">helm-source-async</text><line style="stroke: #A80036; stroke-width: 1.5;" x1="16.5" x2="179.5" y1="231.8125" y2="231.8125"/><line style="stroke: #A80036; stroke-width: 1.5;" x1="16.5" x2="179.5" y1="239.8125" y2="239.8125"/><!--MD5=[bd2ea1af02554a0352e5fd98d33b66ab]
class helm-fd-class--><rect fill="#FEFECE" filter="url(#f18usoniyle2x)" height="159.2422" id="helm-fd-class" style="stroke: #A80036; stroke-width: 1.5;" width="184" x="6" y="307.8125"/><ellipse cx="47.1" cy="323.8125" fill="#ADD1B2" rx="11" ry="11" style="stroke: #A80036; stroke-width: 1.0;"/><path d="M50.0688,329.4531 Q49.4906,329.75 48.85,329.8906 Q48.2094,330.0469 47.5063,330.0469 Q45.0063,330.0469 43.6781,328.4063 Q42.3656,326.75 42.3656,323.625 Q42.3656,320.5 43.6781,318.8438 Q45.0063,317.1875 47.5063,317.1875 Q48.2094,317.1875 48.85,317.3438 Q49.5063,317.5 50.0688,317.7969 L50.0688,320.5156 Q49.4438,319.9375 48.85,319.6719 Q48.2563,319.3906 47.6313,319.3906 Q46.2875,319.3906 45.6,320.4688 Q44.9125,321.5313 44.9125,323.625 Q44.9125,325.7188 45.6,326.7969 Q46.2875,327.8594 47.6313,327.8594 Q48.2563,327.8594 48.85,327.5938 Q49.4438,327.3125 50.0688,326.7344 L50.0688,329.4531 Z "/><text fill="#000000" font-family="sans-serif" font-size="12" font-weight="bold" lengthAdjust="spacingAndGlyphs" textLength="94" x="66.9" y="327.9668">helm-fd-class</text><line style="stroke: #A80036; stroke-width: 1.5;" x1="7" x2="189" y1="339.8125" y2="339.8125"/><text fill="#000000" font-family="sans-serif" font-size="11" lengthAdjust="spacingAndGlyphs" textLength="34" x="12" y="370.8276">action</text><text fill="#000000" font-family="sans-serif" font-size="11" lengthAdjust="spacingAndGlyphs" textLength="131" x="12" y="383.6323">candidate-number-limit</text><text fill="#000000" font-family="sans-serif" font-size="11" lengthAdjust="spacingAndGlyphs" textLength="112" x="12" y="396.437">candidates-process</text><text fill="#000000" font-family="sans-serif" font-size="11" lengthAdjust="spacingAndGlyphs" textLength="172" x="12" y="409.2417">filtered-candidate-transformer</text><text fill="#000000" font-family="sans-serif" font-size="11" lengthAdjust="spacingAndGlyphs" textLength="81" x="12" y="422.0464">help-message</text><text fill="#000000" font-family="sans-serif" font-size="11" lengthAdjust="spacingAndGlyphs" textLength="44" x="12" y="434.8511">keymap</text><text fill="#000000" font-family="sans-serif" font-size="11" lengthAdjust="spacingAndGlyphs" textLength="62" x="12" y="447.6558">nohighlight</text><text fill="#000000" font-family="sans-serif" font-size="11" lengthAdjust="spacingAndGlyphs" textLength="93" x="12" y="460.4604">requires-pattern</text><line style="stroke: #A80036; stroke-width: 1.5;" x1="7" x2="34.5" y1="354.2148" y2="354.2148"/><text fill="#000000" font-family="sans-serif" font-size="11" lengthAdjust="spacingAndGlyphs" textLength="127" x="34.5" y="357.5229">some interesting slots</text><line style="stroke: #A80036; stroke-width: 1.5;" x1="161.5" x2="189" y1="354.2148" y2="354.2148"/><!--MD5=[8da85e6ec6935d54267014e974a66b51]
class helm-source--><rect fill="#FEFECE" filter="url(#f18usoniyle2x)" height="48" id="helm-source" style="stroke: #A80036; stroke-width: 1.5;" width="119" x="38.5" y="91.8125"/><ellipse cx="53.5" cy="107.8125" fill="#ADD1B2" rx="11" ry="11" style="stroke: #A80036; stroke-width: 1.0;"/><path d="M56.4688,113.4531 Q55.8906,113.75 55.25,113.8906 Q54.6094,114.0469 53.9063,114.0469 Q51.4063,114.0469 50.0781,112.4063 Q48.7656,110.75 48.7656,107.625 Q48.7656,104.5 50.0781,102.8438 Q51.4063,101.1875 53.9063,101.1875 Q54.6094,101.1875 55.25,101.3438 Q55.9063,101.5 56.4688,101.7969 L56.4688,104.5156 Q55.8438,103.9375 55.25,103.6719 Q54.6563,103.3906 54.0313,103.3906 Q52.6875,103.3906 52,104.4688 Q51.3125,105.5313 51.3125,107.625 Q51.3125,109.7188 52,110.7969 Q52.6875,111.8594 54.0313,111.8594 Q54.6563,111.8594 55.25,111.5938 Q55.8438,111.3125 56.4688,110.7344 L56.4688,113.4531 Z "/><text fill="#000000" font-family="sans-serif" font-size="12" font-weight="bold" lengthAdjust="spacingAndGlyphs" textLength="87" x="67.5" y="111.9668">helm-source</text><line style="stroke: #A80036; stroke-width: 1.5;" x1="39.5" x2="156.5" y1="123.8125" y2="123.8125"/><line style="stroke: #A80036; stroke-width: 1.5;" x1="39.5" x2="156.5" y1="131.8125" y2="131.8125"/><path d="M225,374.8125 L225,383.3125 L190.04,387.3125 L225,391.3125 L225,399.9453 A0,0 0 0 0 225,399.9453 L345,399.9453 A0,0 0 0 0 345,399.9453 L345,384.8125 L335,374.8125 L225,374.8125 A0,0 0 0 0 225,374.8125 " fill="#FBFB77" filter="url(#f18usoniyle2x)" style="stroke: #A80036; stroke-width: 1.0;"/><path d="M335,374.8125 L335,384.8125 L345,384.8125 L335,374.8125 " fill="#FBFB77" style="stroke: #A80036; stroke-width: 1.0;"/><text fill="#000000" font-family="sans-serif" font-size="13" font-weight="bold" lengthAdjust="spacingAndGlyphs" textLength="99" x="231" y="391.8794">helm-fd-class</text><!--MD5=[5fa17a1efdd398e28fa7575bea335940]
reverse link helm-source-async to helm-fd-class--><path d="M98,268.0825 C98,280.3525 98,294.0925 98,307.7525 " fill="none" id="helm-source-async&lt;-helm-fd-class" style="stroke: #A80036; stroke-width: 1.0;"/><polygon fill="none" points="91,267.9525,98,247.9525,105,267.9525,91,267.9525" style="stroke: #A80036; stroke-width: 1.0;"/><!--MD5=[894eacf2e17d1c2f4b307c7f81f3aeea]
reverse link helm-source to helm-source-async--><path d="M98,159.8325 C98,173.3925 98,187.8525 98,199.4925 " fill="none" id="helm-source&lt;-helm-source-async" style="stroke: #A80036; stroke-width: 1.0;"/><polygon fill="none" points="91,159.8125,98,139.8125,105,159.8125,91,159.8125" style="stroke: #A80036; stroke-width: 1.0;"/><!--MD5=[72237c03af2d61abdcad347f4ab92545]
@startuml
skinparam classFontStyle bold
skinparam captionFontStyle bold
title **Parents and Children of**\n**'helm-fd-class'**\n\n
"helm-source-async" <|- - "helm-fd-class"
class "helm-source-async"
"helm-source" <|- - "helm-source-async"
class "helm-source"
class "helm-fd-class" {
	__ some interesting slots __
	action
	candidate-number-limit
	candidates-process
	filtered-candidate-transformer
	help-message
	keymap
	nohighlight
	requires-pattern
}
note right of "helm-fd-class"
	**helm-fd-class**
end note
@enduml

PlantUML version 1.2020.02(Sun Mar 01 15:52:07 IST 2020)
(GPL source distribution)
Java Runtime: OpenJDK Runtime Environment
JVM: OpenJDK 64-Bit Server VM
Java Version: 11.0.11-ea+8-post-Debian-1
Operating System: Linux
Default Encoding: UTF-8
Language: en
Country: IN
--></g></svg>