<?xml version="1.0" encoding="UTF-8" standalone="no"?><svg xmlns="http://www.w3.org/2000/svg" xmlns:xlink="http://www.w3.org/1999/xlink" contentScriptType="application/ecmascript" contentStyleType="text/css" height="426px" preserveAspectRatio="none" style="width:500px;height:426px;" version="1.1" viewBox="0 0 500 426" width="500px" zoomAndPan="magnify"><defs><filter height="300%" id="f1q4522tgsb4mz" width="300%" x="-1" y="-1"><feGaussianBlur result="blurOut" stdDeviation="2.0"/><feColorMatrix in="blurOut" result="blurOut2" type="matrix" values="0 0 0 0 0 0 0 0 0 0 0 0 0 0 0 0 0 0 .4 0"/><feOffset dx="4.0" dy="4.0" in="blurOut2" result="blurOut3"/><feBlend in="SourceGraphic" in2="blurOut3" mode="normal"/></filter></defs><g><text fill="#000000" font-family="sans-serif" font-size="18" font-weight="bold" lengthAdjust="spacingAndGlyphs" textLength="240" x="133.5" y="16.708">Parents and Children of</text><text fill="#000000" font-family="sans-serif" font-size="18" font-weight="bold" lengthAdjust="spacingAndGlyphs" textLength="288" x="109.5" y="37.6611">'helm-locate-subdirs-source'</text><text fill="#000000" font-family="sans-serif" font-size="18" lengthAdjust="spacingAndGlyphs" textLength="0" x="256.5" y="58.6143"/><text fill="#000000" font-family="sans-serif" font-size="18" lengthAdjust="spacingAndGlyphs" textLength="0" x="256.5" y="79.5674"/><!--MD5=[df56542e8c7b1aabe649dc484b739778]
class helm-source-in-buffer--><rect fill="#FEFECE" filter="url(#f1q4522tgsb4mz)" height="48" id="helm-source-in-buffer" style="stroke: #A80036; stroke-width: 1.5;" width="185" x="26.5" y="199.8125"/><ellipse cx="41.5" cy="215.8125" fill="#ADD1B2" rx="11" ry="11" style="stroke: #A80036; stroke-width: 1.0;"/><path d="M44.4688,221.4531 Q43.8906,221.75 43.25,221.8906 Q42.6094,222.0469 41.9063,222.0469 Q39.4063,222.0469 38.0781,220.4063 Q36.7656,218.75 36.7656,215.625 Q36.7656,212.5 38.0781,210.8438 Q39.4063,209.1875 41.9063,209.1875 Q42.6094,209.1875 43.25,209.3438 Q43.9063,209.5 44.4688,209.7969 L44.4688,212.5156 Q43.8438,211.9375 43.25,211.6719 Q42.6563,211.3906 42.0313,211.3906 Q40.6875,211.3906 40,212.4688 Q39.3125,213.5313 39.3125,215.625 Q39.3125,217.7188 40,218.7969 Q40.6875,219.8594 42.0313,219.8594 Q42.6563,219.8594 43.25,219.5938 Q43.8438,219.3125 44.4688,218.7344 L44.4688,221.4531 Z "/><text fill="#000000" font-family="sans-serif" font-size="12" font-weight="bold" lengthAdjust="spacingAndGlyphs" textLength="153" x="55.5" y="219.9668">helm-source-in-buffer</text><line style="stroke: #A80036; stroke-width: 1.5;" x1="27.5" x2="210.5" y1="231.8125" y2="231.8125"/><line style="stroke: #A80036; stroke-width: 1.5;" x1="27.5" x2="210.5" y1="239.8125" y2="239.8125"/><!--MD5=[56407064ffc9bf78a0cd848588044ef4]
class helm-locate-subdirs-source--><rect fill="#FEFECE" filter="url(#f1q4522tgsb4mz)" height="108.0234" id="helm-locate-subdirs-source" style="stroke: #A80036; stroke-width: 1.5;" width="226" x="6" y="307.8125"/><ellipse cx="21" cy="323.8125" fill="#ADD1B2" rx="11" ry="11" style="stroke: #A80036; stroke-width: 1.0;"/><path d="M23.9688,329.4531 Q23.3906,329.75 22.75,329.8906 Q22.1094,330.0469 21.4063,330.0469 Q18.9063,330.0469 17.5781,328.4063 Q16.2656,326.75 16.2656,323.625 Q16.2656,320.5 17.5781,318.8438 Q18.9063,317.1875 21.4063,317.1875 Q22.1094,317.1875 22.75,317.3438 Q23.4063,317.5 23.9688,317.7969 L23.9688,320.5156 Q23.3438,319.9375 22.75,319.6719 Q22.1563,319.3906 21.5313,319.3906 Q20.1875,319.3906 19.5,320.4688 Q18.8125,321.5313 18.8125,323.625 Q18.8125,325.7188 19.5,326.7969 Q20.1875,327.8594 21.5313,327.8594 Q22.1563,327.8594 22.75,327.5938 Q23.3438,327.3125 23.9688,326.7344 L23.9688,329.4531 Z "/><text fill="#000000" font-family="sans-serif" font-size="12" font-weight="bold" lengthAdjust="spacingAndGlyphs" textLength="194" x="35" y="327.9668">helm-locate-subdirs-source</text><line style="stroke: #A80036; stroke-width: 1.5;" x1="7" x2="231" y1="339.8125" y2="339.8125"/><text fill="#000000" font-family="sans-serif" font-size="11" lengthAdjust="spacingAndGlyphs" textLength="43" x="12" y="370.8276">basedir</text><text fill="#000000" font-family="sans-serif" font-size="11" lengthAdjust="spacingAndGlyphs" textLength="25" x="12" y="383.6323">data</text><text fill="#000000" font-family="sans-serif" font-size="11" lengthAdjust="spacingAndGlyphs" textLength="33" x="12" y="396.437">group</text><text fill="#000000" font-family="sans-serif" font-size="11" lengthAdjust="spacingAndGlyphs" textLength="36" x="12" y="409.2417">subdir</text><line style="stroke: #A80036; stroke-width: 1.5;" x1="7" x2="55.5" y1="354.2148" y2="354.2148"/><text fill="#000000" font-family="sans-serif" font-size="11" lengthAdjust="spacingAndGlyphs" textLength="127" x="55.5" y="357.5229">some interesting slots</text><line style="stroke: #A80036; stroke-width: 1.5;" x1="182.5" x2="231" y1="354.2148" y2="354.2148"/><!--MD5=[8da85e6ec6935d54267014e974a66b51]
class helm-source--><rect fill="#FEFECE" filter="url(#f1q4522tgsb4mz)" height="48" id="helm-source" style="stroke: #A80036; stroke-width: 1.5;" width="119" x="59.5" y="91.8125"/><ellipse cx="74.5" cy="107.8125" fill="#ADD1B2" rx="11" ry="11" style="stroke: #A80036; stroke-width: 1.0;"/><path d="M77.4688,113.4531 Q76.8906,113.75 76.25,113.8906 Q75.6094,114.0469 74.9063,114.0469 Q72.4063,114.0469 71.0781,112.4063 Q69.7656,110.75 69.7656,107.625 Q69.7656,104.5 71.0781,102.8438 Q72.4063,101.1875 74.9063,101.1875 Q75.6094,101.1875 76.25,101.3438 Q76.9063,101.5 77.4688,101.7969 L77.4688,104.5156 Q76.8438,103.9375 76.25,103.6719 Q75.6563,103.3906 75.0313,103.3906 Q73.6875,103.3906 73,104.4688 Q72.3125,105.5313 72.3125,107.625 Q72.3125,109.7188 73,110.7969 Q73.6875,111.8594 75.0313,111.8594 Q75.6563,111.8594 76.25,111.5938 Q76.8438,111.3125 77.4688,110.7344 L77.4688,113.4531 Z "/><text fill="#000000" font-family="sans-serif" font-size="12" font-weight="bold" lengthAdjust="spacingAndGlyphs" textLength="87" x="88.5" y="111.9668">helm-source</text><line style="stroke: #A80036; stroke-width: 1.5;" x1="60.5" x2="177.5" y1="123.8125" y2="123.8125"/><line style="stroke: #A80036; stroke-width: 1.5;" x1="60.5" x2="177.5" y1="131.8125" y2="131.8125"/><path d="M267.5,349.3125 L267.5,357.8125 L232.06,361.8125 L267.5,365.8125 L267.5,374.4453 A0,0 0 0 0 267.5,374.4453 L488.5,374.4453 A0,0 0 0 0 488.5,374.4453 L488.5,359.3125 L478.5,349.3125 L267.5,349.3125 A0,0 0 0 0 267.5,349.3125 " fill="#FBFB77" filter="url(#f1q4522tgsb4mz)" style="stroke: #A80036; stroke-width: 1.0;"/><path d="M478.5,349.3125 L478.5,359.3125 L488.5,359.3125 L478.5,349.3125 " fill="#FBFB77" style="stroke: #A80036; stroke-width: 1.0;"/><text fill="#000000" font-family="sans-serif" font-size="13" font-weight="bold" lengthAdjust="spacingAndGlyphs" textLength="200" x="273.5" y="366.3794">helm-locate-subdirs-source</text><!--MD5=[e807cc974173119fa99446f26fc88bc8]
reverse link helm-source-in-buffer to helm-locate-subdirs-source--><path d="M119,268.0525 C119,280.6325 119,294.5225 119,307.6325 " fill="none" id="helm-source-in-buffer&lt;-helm-locate-subdirs-source" style="stroke: #A80036; stroke-width: 1.0;"/><polygon fill="none" points="112,267.8825,119,247.8825,126,267.8825,112,267.8825" style="stroke: #A80036; stroke-width: 1.0;"/><!--MD5=[720fe72c7a837b3f6a94e411349ef229]
reverse link helm-source to helm-source-in-buffer--><path d="M119,159.8325 C119,173.3925 119,187.8525 119,199.4925 " fill="none" id="helm-source&lt;-helm-source-in-buffer" style="stroke: #A80036; stroke-width: 1.0;"/><polygon fill="none" points="112,159.8125,119,139.8125,126,159.8125,112,159.8125" style="stroke: #A80036; stroke-width: 1.0;"/><!--MD5=[4eb06dc0884b58d70330b754cafe45fa]
@startuml
skinparam classFontStyle bold
skinparam captionFontStyle bold
title **Parents and Children of**\n**'helm-locate-subdirs-source'**\n\n
"helm-source-in-buffer" <|- - "helm-locate-subdirs-source"
class "helm-source-in-buffer"
"helm-source" <|- - "helm-source-in-buffer"
class "helm-source"
class "helm-locate-subdirs-source" {
	__ some interesting slots __
	basedir
	data
	group
	subdir
}
note right of "helm-locate-subdirs-source"
	**helm-locate-subdirs-source**
end note
@enduml

PlantUML version 1.2020.02(Sun Mar 01 15:52:07 IST 2020)
(GPL source distribution)
Java Runtime: OpenJDK Runtime Environment
JVM: OpenJDK 64-Bit Server VM
Java Version: 11.0.11-ea+8-post-Debian-1
Operating System: Linux
Default Encoding: UTF-8
Language: en
Country: IN
--></g></svg>