<?xml version="1.0" encoding="UTF-8" standalone="no"?><svg xmlns="http://www.w3.org/2000/svg" xmlns:xlink="http://www.w3.org/1999/xlink" contentScriptType="application/ecmascript" contentStyleType="text/css" height="611px" preserveAspectRatio="none" style="width:641px;height:611px;" version="1.1" viewBox="0 0 641 611" width="641px" zoomAndPan="magnify"><defs><filter height="300%" id="f1xuqg4iwt23an" width="300%" x="-1" y="-1"><feGaussianBlur result="blurOut" stdDeviation="2.0"/><feColorMatrix in="blurOut" result="blurOut2" type="matrix" values="0 0 0 0 0 0 0 0 0 0 0 0 0 0 0 0 0 0 .4 0"/><feOffset dx="4.0" dy="4.0" in="blurOut2" result="blurOut3"/><feBlend in="SourceGraphic" in2="blurOut3" mode="normal"/></filter></defs><g><text fill="#000000" font-family="sans-serif" font-size="18" font-weight="bold" lengthAdjust="spacingAndGlyphs" textLength="240" x="204" y="16.708">Parents and Children of</text><text fill="#000000" font-family="sans-serif" font-size="18" font-weight="bold" lengthAdjust="spacingAndGlyphs" textLength="336" x="156" y="37.6611">'helm-source-filtered-bookmarks'</text><text fill="#000000" font-family="sans-serif" font-size="18" lengthAdjust="spacingAndGlyphs" textLength="0" x="327" y="58.6143"/><text fill="#000000" font-family="sans-serif" font-size="18" lengthAdjust="spacingAndGlyphs" textLength="0" x="327" y="79.5674"/><!--MD5=[df56542e8c7b1aabe649dc484b739778]
class helm-source-in-buffer--><rect fill="#FEFECE" filter="url(#f1xuqg4iwt23an)" height="48" id="helm-source-in-buffer" style="stroke: #A80036; stroke-width: 1.5;" width="185" x="6" y="199.8125"/><ellipse cx="21" cy="215.8125" fill="#ADD1B2" rx="11" ry="11" style="stroke: #A80036; stroke-width: 1.0;"/><path d="M23.9688,221.4531 Q23.3906,221.75 22.75,221.8906 Q22.1094,222.0469 21.4063,222.0469 Q18.9063,222.0469 17.5781,220.4063 Q16.2656,218.75 16.2656,215.625 Q16.2656,212.5 17.5781,210.8438 Q18.9063,209.1875 21.4063,209.1875 Q22.1094,209.1875 22.75,209.3438 Q23.4063,209.5 23.9688,209.7969 L23.9688,212.5156 Q23.3438,211.9375 22.75,211.6719 Q22.1563,211.3906 21.5313,211.3906 Q20.1875,211.3906 19.5,212.4688 Q18.8125,213.5313 18.8125,215.625 Q18.8125,217.7188 19.5,218.7969 Q20.1875,219.8594 21.5313,219.8594 Q22.1563,219.8594 22.75,219.5938 Q23.3438,219.3125 23.9688,218.7344 L23.9688,221.4531 Z "/><text fill="#000000" font-family="sans-serif" font-size="12" font-weight="bold" lengthAdjust="spacingAndGlyphs" textLength="153" x="35" y="219.9668">helm-source-in-buffer</text><line style="stroke: #A80036; stroke-width: 1.5;" x1="7" x2="190" y1="231.8125" y2="231.8125"/><line style="stroke: #A80036; stroke-width: 1.5;" x1="7" x2="190" y1="239.8125" y2="239.8125"/><!--MD5=[1b5f639ef80bc5f44c8cc4600bf3e2e4]
class helm-source-filtered-bookmarks--><rect fill="#FEFECE" filter="url(#f1xuqg4iwt23an)" height="184.8516" id="helm-source-filtered-bookmarks" style="stroke: #A80036; stroke-width: 1.5;" width="259" x="77" y="307.8125"/><ellipse cx="92" cy="323.8125" fill="#ADD1B2" rx="11" ry="11" style="stroke: #A80036; stroke-width: 1.0;"/><path d="M94.9688,329.4531 Q94.3906,329.75 93.75,329.8906 Q93.1094,330.0469 92.4063,330.0469 Q89.9063,330.0469 88.5781,328.4063 Q87.2656,326.75 87.2656,323.625 Q87.2656,320.5 88.5781,318.8438 Q89.9063,317.1875 92.4063,317.1875 Q93.1094,317.1875 93.75,317.3438 Q94.4063,317.5 94.9688,317.7969 L94.9688,320.5156 Q94.3438,319.9375 93.75,319.6719 Q93.1563,319.3906 92.5313,319.3906 Q91.1875,319.3906 90.5,320.4688 Q89.8125,321.5313 89.8125,323.625 Q89.8125,325.7188 90.5,326.7969 Q91.1875,327.8594 92.5313,327.8594 Q93.1563,327.8594 93.75,327.5938 Q94.3438,327.3125 94.9688,326.7344 L94.9688,329.4531 Z "/><text fill="#000000" font-family="sans-serif" font-size="12" font-weight="bold" lengthAdjust="spacingAndGlyphs" textLength="227" x="106" y="327.9668">helm-source-filtered-bookmarks</text><line style="stroke: #A80036; stroke-width: 1.5;" x1="78" x2="335" y1="339.8125" y2="339.8125"/><text fill="#000000" font-family="sans-serif" font-size="11" lengthAdjust="spacingAndGlyphs" textLength="17" x="83" y="370.8276">init</text><text fill="#000000" font-family="sans-serif" font-size="11" lengthAdjust="spacingAndGlyphs" textLength="62" x="83" y="383.6323">candidates</text><text fill="#000000" font-family="sans-serif" font-size="11" lengthAdjust="spacingAndGlyphs" textLength="25" x="83" y="396.437">data</text><text fill="#000000" font-family="sans-serif" font-size="11" lengthAdjust="spacingAndGlyphs" textLength="172" x="83" y="409.2417">filtered-candidate-transformer</text><text fill="#000000" font-family="sans-serif" font-size="11" lengthAdjust="spacingAndGlyphs" textLength="42" x="83" y="422.0464">get-line</text><text fill="#000000" font-family="sans-serif" font-size="11" lengthAdjust="spacingAndGlyphs" textLength="35" x="83" y="434.8511">match</text><text fill="#000000" font-family="sans-serif" font-size="11" lengthAdjust="spacingAndGlyphs" textLength="46" x="83" y="447.6558">migemo</text><text fill="#000000" font-family="sans-serif" font-size="11" lengthAdjust="spacingAndGlyphs" textLength="39" x="83" y="460.4604">search</text><text fill="#000000" font-family="sans-serif" font-size="11" lengthAdjust="spacingAndGlyphs" textLength="72" x="83" y="473.2651">search-strict</text><text fill="#000000" font-family="sans-serif" font-size="11" lengthAdjust="spacingAndGlyphs" textLength="40" x="83" y="486.0698">volatile</text><line style="stroke: #A80036; stroke-width: 1.5;" x1="78" x2="143" y1="354.2148" y2="354.2148"/><text fill="#000000" font-family="sans-serif" font-size="11" lengthAdjust="spacingAndGlyphs" textLength="127" x="143" y="357.5229">some interesting slots</text><line style="stroke: #A80036; stroke-width: 1.5;" x1="270" x2="335" y1="354.2148" y2="354.2148"/><!--MD5=[257e0c9decabcf296fc5e077c0fe3da7]
class helm-type-bookmark--><rect fill="#FEFECE" filter="url(#f1xuqg4iwt23an)" height="48" id="helm-type-bookmark" style="stroke: #A80036; stroke-width: 1.5;" width="178" x="225.5" y="199.8125"/><ellipse cx="240.5" cy="215.8125" fill="#ADD1B2" rx="11" ry="11" style="stroke: #A80036; stroke-width: 1.0;"/><path d="M243.4688,221.4531 Q242.8906,221.75 242.25,221.8906 Q241.6094,222.0469 240.9063,222.0469 Q238.4063,222.0469 237.0781,220.4063 Q235.7656,218.75 235.7656,215.625 Q235.7656,212.5 237.0781,210.8438 Q238.4063,209.1875 240.9063,209.1875 Q241.6094,209.1875 242.25,209.3438 Q242.9063,209.5 243.4688,209.7969 L243.4688,212.5156 Q242.8438,211.9375 242.25,211.6719 Q241.6563,211.3906 241.0313,211.3906 Q239.6875,211.3906 239,212.4688 Q238.3125,213.5313 238.3125,215.625 Q238.3125,217.7188 239,218.7969 Q239.6875,219.8594 241.0313,219.8594 Q241.6563,219.8594 242.25,219.5938 Q242.8438,219.3125 243.4688,218.7344 L243.4688,221.4531 Z "/><text fill="#000000" font-family="sans-serif" font-size="12" font-weight="bold" lengthAdjust="spacingAndGlyphs" textLength="146" x="254.5" y="219.9668">helm-type-bookmark</text><line style="stroke: #A80036; stroke-width: 1.5;" x1="226.5" x2="402.5" y1="231.8125" y2="231.8125"/><line style="stroke: #A80036; stroke-width: 1.5;" x1="226.5" x2="402.5" y1="239.8125" y2="239.8125"/><!--MD5=[8da85e6ec6935d54267014e974a66b51]
class helm-source--><rect fill="#FEFECE" filter="url(#f1xuqg4iwt23an)" height="48" id="helm-source" style="stroke: #A80036; stroke-width: 1.5;" width="119" x="147" y="91.8125"/><ellipse cx="162" cy="107.8125" fill="#ADD1B2" rx="11" ry="11" style="stroke: #A80036; stroke-width: 1.0;"/><path d="M164.9688,113.4531 Q164.3906,113.75 163.75,113.8906 Q163.1094,114.0469 162.4063,114.0469 Q159.9063,114.0469 158.5781,112.4063 Q157.2656,110.75 157.2656,107.625 Q157.2656,104.5 158.5781,102.8438 Q159.9063,101.1875 162.4063,101.1875 Q163.1094,101.1875 163.75,101.3438 Q164.4063,101.5 164.9688,101.7969 L164.9688,104.5156 Q164.3438,103.9375 163.75,103.6719 Q163.1563,103.3906 162.5313,103.3906 Q161.1875,103.3906 160.5,104.4688 Q159.8125,105.5313 159.8125,107.625 Q159.8125,109.7188 160.5,110.7969 Q161.1875,111.8594 162.5313,111.8594 Q163.1563,111.8594 163.75,111.5938 Q164.3438,111.3125 164.9688,110.7344 L164.9688,113.4531 Z "/><text fill="#000000" font-family="sans-serif" font-size="12" font-weight="bold" lengthAdjust="spacingAndGlyphs" textLength="87" x="176" y="111.9668">helm-source</text><line style="stroke: #A80036; stroke-width: 1.5;" x1="148" x2="265" y1="123.8125" y2="123.8125"/><line style="stroke: #A80036; stroke-width: 1.5;" x1="148" x2="265" y1="131.8125" y2="131.8125"/><path d="M371.5,387.8125 L371.5,396.3125 L336.27,400.3125 L371.5,404.3125 L371.5,412.9453 A0,0 0 0 0 371.5,412.9453 L629.5,412.9453 A0,0 0 0 0 629.5,412.9453 L629.5,397.8125 L619.5,387.8125 L371.5,387.8125 A0,0 0 0 0 371.5,387.8125 " fill="#FBFB77" filter="url(#f1xuqg4iwt23an)" style="stroke: #A80036; stroke-width: 1.0;"/><path d="M619.5,387.8125 L619.5,397.8125 L629.5,397.8125 L619.5,387.8125 " fill="#FBFB77" style="stroke: #A80036; stroke-width: 1.0;"/><text fill="#000000" font-family="sans-serif" font-size="13" font-weight="bold" lengthAdjust="spacingAndGlyphs" textLength="237" x="377.5" y="404.8794">helm-source-filtered-bookmarks</text><!--MD5=[f325aa84e92746ce6f670c419a69be3e]
class helm-bookmark-find-files-class--><rect fill="#FEFECE" filter="url(#f1xuqg4iwt23an)" height="48" id="helm-bookmark-find-files-class" style="stroke: #A80036; stroke-width: 1.5;" width="249" x="82" y="552.8125"/><ellipse cx="97" cy="568.8125" fill="#ADD1B2" rx="11" ry="11" style="stroke: #A80036; stroke-width: 1.0;"/><path d="M99.9688,574.4531 Q99.3906,574.75 98.75,574.8906 Q98.1094,575.0469 97.4063,575.0469 Q94.9063,575.0469 93.5781,573.4063 Q92.2656,571.75 92.2656,568.625 Q92.2656,565.5 93.5781,563.8438 Q94.9063,562.1875 97.4063,562.1875 Q98.1094,562.1875 98.75,562.3438 Q99.4063,562.5 99.9688,562.7969 L99.9688,565.5156 Q99.3438,564.9375 98.75,564.6719 Q98.1563,564.3906 97.5313,564.3906 Q96.1875,564.3906 95.5,565.4688 Q94.8125,566.5313 94.8125,568.625 Q94.8125,570.7188 95.5,571.7969 Q96.1875,572.8594 97.5313,572.8594 Q98.1563,572.8594 98.75,572.5938 Q99.3438,572.3125 99.9688,571.7344 L99.9688,574.4531 Z "/><text fill="#000000" font-family="sans-serif" font-size="12" font-weight="bold" lengthAdjust="spacingAndGlyphs" textLength="217" x="111" y="572.9668">helm-bookmark-find-files-class</text><line style="stroke: #A80036; stroke-width: 1.5;" x1="83" x2="330" y1="584.8125" y2="584.8125"/><line style="stroke: #A80036; stroke-width: 1.5;" x1="83" x2="330" y1="592.8125" y2="592.8125"/><!--MD5=[38d3222c9d6413d0e8be51642b02db5a]
reverse link helm-source-in-buffer to helm-source-filtered-bookmarks--><path d="M123.49,265.1925 C131.42,278.0125 140.55,292.7425 149.77,307.6625 " fill="none" id="helm-source-in-buffer&lt;-helm-source-filtered-bookmarks" style="stroke: #A80036; stroke-width: 1.0;"/><polygon fill="none" points="117.41,268.6725,112.84,247.9825,129.32,261.3025,117.41,268.6725" style="stroke: #A80036; stroke-width: 1.0;"/><!--MD5=[36bf56344c9fb562b92d13c27d56d2e6]
reverse link helm-type-bookmark to helm-source-filtered-bookmarks--><path d="M289.51,265.1925 C281.58,278.0125 272.45,292.7425 263.23,307.6625 " fill="none" id="helm-type-bookmark&lt;-helm-source-filtered-bookmarks" style="stroke: #A80036; stroke-width: 1.0;"/><polygon fill="none" points="283.68,261.3025,300.16,247.9825,295.59,268.6725,283.68,261.3025" style="stroke: #A80036; stroke-width: 1.0;"/><!--MD5=[720fe72c7a837b3f6a94e411349ef229]
reverse link helm-source to helm-source-in-buffer--><path d="M168.52,154.0925 C153.12,169.2025 135.82,186.1925 122.26,199.4925 " fill="none" id="helm-source&lt;-helm-source-in-buffer" style="stroke: #A80036; stroke-width: 1.0;"/><polygon fill="none" points="163.89,148.8225,183.07,139.8125,173.7,158.8225,163.89,148.8225" style="stroke: #A80036; stroke-width: 1.0;"/><!--MD5=[b3073f519ff1e7a9af7ffffd7406ad63]
reverse link helm-source to helm-type-bookmark--><path d="M244.48,154.0925 C259.88,169.2025 277.18,186.1925 290.74,199.4925 " fill="none" id="helm-source&lt;-helm-type-bookmark" style="stroke: #A80036; stroke-width: 1.0;"/><polygon fill="none" points="239.3,158.8225,229.93,139.8125,249.11,148.8225,239.3,158.8225" style="stroke: #A80036; stroke-width: 1.0;"/><!--MD5=[97418b6d899cd58bad59cfd77e9ec07d]
reverse link helm-source-filtered-bookmarks to helm-bookmark-find-files-class--><path d="M206.5,512.9425 C206.5,527.8625 206.5,541.7425 206.5,552.6425 " fill="none" id="helm-source-filtered-bookmarks&lt;-helm-bookmark-find-files-class" style="stroke: #A80036; stroke-width: 1.0;"/><polygon fill="none" points="199.5,512.9025,206.5,492.9025,213.5,512.9025,199.5,512.9025" style="stroke: #A80036; stroke-width: 1.0;"/><!--MD5=[14b8184b4095c9f3e39158d6b3f69e54]
@startuml
skinparam classFontStyle bold
skinparam captionFontStyle bold
title **Parents and Children of**\n**'helm-source-filtered-bookmarks'**\n\n
"helm-source-in-buffer" <|- - "helm-source-filtered-bookmarks"
"helm-type-bookmark" <|- - "helm-source-filtered-bookmarks"
class "helm-source-in-buffer"
"helm-source" <|- - "helm-source-in-buffer"
class "helm-source"
class "helm-type-bookmark"
"helm-source" <|- - "helm-type-bookmark"
class "helm-source"
class "helm-source-filtered-bookmarks" {
	__ some interesting slots __
	init
	candidates
	data
	filtered-candidate-transformer
	get-line
	match
	migemo
	search
	search-strict
	volatile
}
note right of "helm-source-filtered-bookmarks"
	**helm-source-filtered-bookmarks**
end note
"helm-source-filtered-bookmarks" <|- - "helm-bookmark-find-files-class"
@enduml

PlantUML version 1.2020.02(Sun Mar 01 15:52:07 IST 2020)
(GPL source distribution)
Java Runtime: OpenJDK Runtime Environment
JVM: OpenJDK 64-Bit Server VM
Java Version: 11.0.11-ea+8-post-Debian-1
Operating System: Linux
Default Encoding: UTF-8
Language: en
Country: IN
--></g></svg>