<?xml version="1.0" encoding="UTF-8" standalone="no"?><svg xmlns="http://www.w3.org/2000/svg" xmlns:xlink="http://www.w3.org/1999/xlink" contentScriptType="application/ecmascript" contentStyleType="text/css" height="414px" preserveAspectRatio="none" style="width:555px;height:414px;" version="1.1" viewBox="0 0 555 414" width="555px" zoomAndPan="magnify"><defs><filter height="300%" id="f7kms81sgyfzs" width="300%" x="-1" y="-1"><feGaussianBlur result="blurOut" stdDeviation="2.0"/><feColorMatrix in="blurOut" result="blurOut2" type="matrix" values="0 0 0 0 0 0 0 0 0 0 0 0 0 0 0 0 0 0 .4 0"/><feOffset dx="4.0" dy="4.0" in="blurOut2" result="blurOut3"/><feBlend in="SourceGraphic" in2="blurOut3" mode="normal"/></filter></defs><g><text fill="#000000" font-family="sans-serif" font-size="18" font-weight="bold" lengthAdjust="spacingAndGlyphs" textLength="240" x="161" y="16.708">Parents and Children of</text><text fill="#000000" font-family="sans-serif" font-size="18" font-weight="bold" lengthAdjust="spacingAndGlyphs" textLength="283" x="139.5" y="37.6611">'helm-mac-spotlight-source'</text><text fill="#000000" font-family="sans-serif" font-size="18" lengthAdjust="spacingAndGlyphs" textLength="0" x="284" y="58.6143"/><text fill="#000000" font-family="sans-serif" font-size="18" lengthAdjust="spacingAndGlyphs" textLength="0" x="284" y="79.5674"/><!--MD5=[12d16a9c65828dace8d907a7ab3ef450]
class helm-source-async--><rect fill="#FEFECE" filter="url(#f7kms81sgyfzs)" height="48" id="helm-source-async" style="stroke: #A80036; stroke-width: 1.5;" width="165" x="6" y="199.8125"/><ellipse cx="21" cy="215.8125" fill="#ADD1B2" rx="11" ry="11" style="stroke: #A80036; stroke-width: 1.0;"/><path d="M23.9688,221.4531 Q23.3906,221.75 22.75,221.8906 Q22.1094,222.0469 21.4063,222.0469 Q18.9063,222.0469 17.5781,220.4063 Q16.2656,218.75 16.2656,215.625 Q16.2656,212.5 17.5781,210.8438 Q18.9063,209.1875 21.4063,209.1875 Q22.1094,209.1875 22.75,209.3438 Q23.4063,209.5 23.9688,209.7969 L23.9688,212.5156 Q23.3438,211.9375 22.75,211.6719 Q22.1563,211.3906 21.5313,211.3906 Q20.1875,211.3906 19.5,212.4688 Q18.8125,213.5313 18.8125,215.625 Q18.8125,217.7188 19.5,218.7969 Q20.1875,219.8594 21.5313,219.8594 Q22.1563,219.8594 22.75,219.5938 Q23.3438,219.3125 23.9688,218.7344 L23.9688,221.4531 Z "/><text fill="#000000" font-family="sans-serif" font-size="12" font-weight="bold" lengthAdjust="spacingAndGlyphs" textLength="133" x="35" y="219.9668">helm-source-async</text><line style="stroke: #A80036; stroke-width: 1.5;" x1="7" x2="170" y1="231.8125" y2="231.8125"/><line style="stroke: #A80036; stroke-width: 1.5;" x1="7" x2="170" y1="239.8125" y2="239.8125"/><!--MD5=[acc538c4de58be324c7884953f9df4c3]
class helm-mac-spotlight-source--><rect fill="#FEFECE" filter="url(#f7kms81sgyfzs)" height="95.2188" id="helm-mac-spotlight-source" style="stroke: #A80036; stroke-width: 1.5;" width="221" x="69" y="307.8125"/><ellipse cx="84" cy="323.8125" fill="#ADD1B2" rx="11" ry="11" style="stroke: #A80036; stroke-width: 1.0;"/><path d="M86.9688,329.4531 Q86.3906,329.75 85.75,329.8906 Q85.1094,330.0469 84.4063,330.0469 Q81.9063,330.0469 80.5781,328.4063 Q79.2656,326.75 79.2656,323.625 Q79.2656,320.5 80.5781,318.8438 Q81.9063,317.1875 84.4063,317.1875 Q85.1094,317.1875 85.75,317.3438 Q86.4063,317.5 86.9688,317.7969 L86.9688,320.5156 Q86.3438,319.9375 85.75,319.6719 Q85.1563,319.3906 84.5313,319.3906 Q83.1875,319.3906 82.5,320.4688 Q81.8125,321.5313 81.8125,323.625 Q81.8125,325.7188 82.5,326.7969 Q83.1875,327.8594 84.5313,327.8594 Q85.1563,327.8594 85.75,327.5938 Q86.3438,327.3125 86.9688,326.7344 L86.9688,329.4531 Z "/><text fill="#000000" font-family="sans-serif" font-size="12" font-weight="bold" lengthAdjust="spacingAndGlyphs" textLength="189" x="98" y="327.9668">helm-mac-spotlight-source</text><line style="stroke: #A80036; stroke-width: 1.5;" x1="70" x2="289" y1="339.8125" y2="339.8125"/><text fill="#000000" font-family="sans-serif" font-size="11" lengthAdjust="spacingAndGlyphs" textLength="112" x="75" y="370.8276">candidates-process</text><text fill="#000000" font-family="sans-serif" font-size="11" lengthAdjust="spacingAndGlyphs" textLength="63" x="75" y="383.6323">multimatch</text><text fill="#000000" font-family="sans-serif" font-size="11" lengthAdjust="spacingAndGlyphs" textLength="93" x="75" y="396.437">requires-pattern</text><line style="stroke: #A80036; stroke-width: 1.5;" x1="70" x2="116" y1="354.2148" y2="354.2148"/><text fill="#000000" font-family="sans-serif" font-size="11" lengthAdjust="spacingAndGlyphs" textLength="127" x="116" y="357.5229">some interesting slots</text><line style="stroke: #A80036; stroke-width: 1.5;" x1="243" x2="289" y1="354.2148" y2="354.2148"/><!--MD5=[d7d577ca8c64ccce694dba4b3c283648]
class helm-type-file--><rect fill="#FEFECE" filter="url(#f7kms81sgyfzs)" height="48" id="helm-type-file" style="stroke: #A80036; stroke-width: 1.5;" width="130" x="206.5" y="199.8125"/><ellipse cx="221.5" cy="215.8125" fill="#ADD1B2" rx="11" ry="11" style="stroke: #A80036; stroke-width: 1.0;"/><path d="M224.4688,221.4531 Q223.8906,221.75 223.25,221.8906 Q222.6094,222.0469 221.9063,222.0469 Q219.4063,222.0469 218.0781,220.4063 Q216.7656,218.75 216.7656,215.625 Q216.7656,212.5 218.0781,210.8438 Q219.4063,209.1875 221.9063,209.1875 Q222.6094,209.1875 223.25,209.3438 Q223.9063,209.5 224.4688,209.7969 L224.4688,212.5156 Q223.8438,211.9375 223.25,211.6719 Q222.6563,211.3906 222.0313,211.3906 Q220.6875,211.3906 220,212.4688 Q219.3125,213.5313 219.3125,215.625 Q219.3125,217.7188 220,218.7969 Q220.6875,219.8594 222.0313,219.8594 Q222.6563,219.8594 223.25,219.5938 Q223.8438,219.3125 224.4688,218.7344 L224.4688,221.4531 Z "/><text fill="#000000" font-family="sans-serif" font-size="12" font-weight="bold" lengthAdjust="spacingAndGlyphs" textLength="98" x="235.5" y="219.9668">helm-type-file</text><line style="stroke: #A80036; stroke-width: 1.5;" x1="207.5" x2="335.5" y1="231.8125" y2="231.8125"/><line style="stroke: #A80036; stroke-width: 1.5;" x1="207.5" x2="335.5" y1="239.8125" y2="239.8125"/><!--MD5=[8da85e6ec6935d54267014e974a66b51]
class helm-source--><rect fill="#FEFECE" filter="url(#f7kms81sgyfzs)" height="48" id="helm-source" style="stroke: #A80036; stroke-width: 1.5;" width="119" x="120" y="91.8125"/><ellipse cx="135" cy="107.8125" fill="#ADD1B2" rx="11" ry="11" style="stroke: #A80036; stroke-width: 1.0;"/><path d="M137.9688,113.4531 Q137.3906,113.75 136.75,113.8906 Q136.1094,114.0469 135.4063,114.0469 Q132.9063,114.0469 131.5781,112.4063 Q130.2656,110.75 130.2656,107.625 Q130.2656,104.5 131.5781,102.8438 Q132.9063,101.1875 135.4063,101.1875 Q136.1094,101.1875 136.75,101.3438 Q137.4063,101.5 137.9688,101.7969 L137.9688,104.5156 Q137.3438,103.9375 136.75,103.6719 Q136.1563,103.3906 135.5313,103.3906 Q134.1875,103.3906 133.5,104.4688 Q132.8125,105.5313 132.8125,107.625 Q132.8125,109.7188 133.5,110.7969 Q134.1875,111.8594 135.5313,111.8594 Q136.1563,111.8594 136.75,111.5938 Q137.3438,111.3125 137.9688,110.7344 L137.9688,113.4531 Z "/><text fill="#000000" font-family="sans-serif" font-size="12" font-weight="bold" lengthAdjust="spacingAndGlyphs" textLength="87" x="149" y="111.9668">helm-source</text><line style="stroke: #A80036; stroke-width: 1.5;" x1="121" x2="238" y1="123.8125" y2="123.8125"/><line style="stroke: #A80036; stroke-width: 1.5;" x1="121" x2="238" y1="131.8125" y2="131.8125"/><path d="M325.5,342.8125 L325.5,351.3125 L290.07,355.3125 L325.5,359.3125 L325.5,367.9453 A0,0 0 0 0 325.5,367.9453 L543.5,367.9453 A0,0 0 0 0 543.5,367.9453 L543.5,352.8125 L533.5,342.8125 L325.5,342.8125 A0,0 0 0 0 325.5,342.8125 " fill="#FBFB77" filter="url(#f7kms81sgyfzs)" style="stroke: #A80036; stroke-width: 1.0;"/><path d="M533.5,342.8125 L533.5,352.8125 L543.5,352.8125 L533.5,342.8125 " fill="#FBFB77" style="stroke: #A80036; stroke-width: 1.0;"/><text fill="#000000" font-family="sans-serif" font-size="13" font-weight="bold" lengthAdjust="spacingAndGlyphs" textLength="197" x="331.5" y="359.8794">helm-mac-spotlight-source</text><!--MD5=[4124b062e967a48c84822db18248b7ac]
reverse link helm-source-async to helm-mac-spotlight-source--><path d="M116.48,264.6325 C126.06,278.2625 136.87,293.6425 146.79,307.7625 " fill="none" id="helm-source-async&lt;-helm-mac-spotlight-source" style="stroke: #A80036; stroke-width: 1.0;"/><polygon fill="none" points="110.54,268.3525,104.77,247.9625,122,260.3025,110.54,268.3525" style="stroke: #A80036; stroke-width: 1.0;"/><!--MD5=[a474bc848475b2374c1d2bb84f271e9b]
reverse link helm-type-file to helm-mac-spotlight-source--><path d="M243.21,264.6325 C233.52,278.2625 222.6,293.6425 212.57,307.7625 " fill="none" id="helm-type-file&lt;-helm-mac-spotlight-source" style="stroke: #A80036; stroke-width: 1.0;"/><polygon fill="none" points="237.76,260.2125,255.05,247.9625,249.18,268.3225,237.76,260.2125" style="stroke: #A80036; stroke-width: 1.0;"/><!--MD5=[894eacf2e17d1c2f4b307c7f81f3aeea]
reverse link helm-source to helm-source-async--><path d="M146.68,155.0425 C133.92,169.9125 119.7,186.4625 108.52,199.4925 " fill="none" id="helm-source&lt;-helm-source-async" style="stroke: #A80036; stroke-width: 1.0;"/><polygon fill="none" points="141.42,150.4325,159.75,139.8125,152.04,159.5525,141.42,150.4325" style="stroke: #A80036; stroke-width: 1.0;"/><!--MD5=[4dcf8b063d240b570d0bdaa319fd46e4]
reverse link helm-source to helm-type-file--><path d="M212.68,155.0425 C225.58,169.9125 239.95,186.4625 251.26,199.4925 " fill="none" id="helm-source&lt;-helm-type-file" style="stroke: #A80036; stroke-width: 1.0;"/><polygon fill="none" points="207.29,159.5025,199.46,139.8125,217.86,150.3325,207.29,159.5025" style="stroke: #A80036; stroke-width: 1.0;"/><!--MD5=[868f01375a2f44f0a567e0fe20e1a0a8]
@startuml
skinparam classFontStyle bold
skinparam captionFontStyle bold
title **Parents and Children of**\n**'helm-mac-spotlight-source'**\n\n
"helm-source-async" <|- - "helm-mac-spotlight-source"
"helm-type-file" <|- - "helm-mac-spotlight-source"
class "helm-source-async"
"helm-source" <|- - "helm-source-async"
class "helm-source"
class "helm-type-file"
"helm-source" <|- - "helm-type-file"
class "helm-source"
class "helm-mac-spotlight-source" {
	__ some interesting slots __
	candidates-process
	multimatch
	requires-pattern
}
note right of "helm-mac-spotlight-source"
	**helm-mac-spotlight-source**
end note
@enduml

PlantUML version 1.2020.02(Sun Mar 01 15:52:07 IST 2020)
(GPL source distribution)
Java Runtime: OpenJDK Runtime Environment
JVM: OpenJDK 64-Bit Server VM
Java Version: 11.0.11-ea+8-post-Debian-1
Operating System: Linux
Default Encoding: UTF-8
Language: en
Country: IN
--></g></svg>