<?xml version="1.0" encoding="UTF-8" standalone="no"?><svg xmlns="http://www.w3.org/2000/svg" xmlns:xlink="http://www.w3.org/1999/xlink" contentScriptType="application/ecmascript" contentStyleType="text/css" height="411px" preserveAspectRatio="none" style="width:579px;height:411px;" version="1.1" viewBox="0 0 579 411" width="579px" zoomAndPan="magnify"><defs><filter height="300%" id="fi9dpor0vd2ar" width="300%" x="-1" y="-1"><feGaussianBlur result="blurOut" stdDeviation="2.0"/><feColorMatrix in="blurOut" result="blurOut2" type="matrix" values="0 0 0 0 0 0 0 0 0 0 0 0 0 0 0 0 0 0 .4 0"/><feOffset dx="4.0" dy="4.0" in="blurOut2" result="blurOut3"/><feBlend in="SourceGraphic" in2="blurOut3" mode="normal"/></filter></defs><g><text fill="#000000" font-family="sans-serif" font-size="18" font-weight="bold" lengthAdjust="spacingAndGlyphs" textLength="240" x="172.5" y="16.708">Parents and Children of</text><text fill="#000000" font-family="sans-serif" font-size="18" font-weight="bold" lengthAdjust="spacingAndGlyphs" textLength="186" x="199.5" y="37.6611">'helm-type-timers'</text><text fill="#000000" font-family="sans-serif" font-size="18" lengthAdjust="spacingAndGlyphs" textLength="0" x="295.5" y="58.6143"/><text fill="#000000" font-family="sans-serif" font-size="18" lengthAdjust="spacingAndGlyphs" textLength="0" x="295.5" y="79.5674"/><!--MD5=[8da85e6ec6935d54267014e974a66b51]
class helm-source--><rect fill="#FEFECE" filter="url(#fi9dpor0vd2ar)" height="48" id="helm-source" style="stroke: #A80036; stroke-width: 1.5;" width="119" x="197.5" y="91.8125"/><ellipse cx="212.5" cy="107.8125" fill="#ADD1B2" rx="11" ry="11" style="stroke: #A80036; stroke-width: 1.0;"/><path d="M215.4688,113.4531 Q214.8906,113.75 214.25,113.8906 Q213.6094,114.0469 212.9063,114.0469 Q210.4063,114.0469 209.0781,112.4063 Q207.7656,110.75 207.7656,107.625 Q207.7656,104.5 209.0781,102.8438 Q210.4063,101.1875 212.9063,101.1875 Q213.6094,101.1875 214.25,101.3438 Q214.9063,101.5 215.4688,101.7969 L215.4688,104.5156 Q214.8438,103.9375 214.25,103.6719 Q213.6563,103.3906 213.0313,103.3906 Q211.6875,103.3906 211,104.4688 Q210.3125,105.5313 210.3125,107.625 Q210.3125,109.7188 211,110.7969 Q211.6875,111.8594 213.0313,111.8594 Q213.6563,111.8594 214.25,111.5938 Q214.8438,111.3125 215.4688,110.7344 L215.4688,113.4531 Z "/><text fill="#000000" font-family="sans-serif" font-size="12" font-weight="bold" lengthAdjust="spacingAndGlyphs" textLength="87" x="226.5" y="111.9668">helm-source</text><line style="stroke: #A80036; stroke-width: 1.5;" x1="198.5" x2="315.5" y1="123.8125" y2="123.8125"/><line style="stroke: #A80036; stroke-width: 1.5;" x1="198.5" x2="315.5" y1="131.8125" y2="131.8125"/><!--MD5=[d89fbe3a66aa0ad58442d3fbb0e3c04d]
class helm-type-timers--><rect fill="#FEFECE" filter="url(#fi9dpor0vd2ar)" height="92.8164" id="helm-type-timers" style="stroke: #A80036; stroke-width: 1.5;" width="162" x="176" y="199.8125"/><ellipse cx="195.05" cy="215.8125" fill="#ADD1B2" rx="11" ry="11" style="stroke: #A80036; stroke-width: 1.0;"/><path d="M198.0188,221.4531 Q197.4406,221.75 196.8,221.8906 Q196.1594,222.0469 195.4563,222.0469 Q192.9563,222.0469 191.6281,220.4063 Q190.3156,218.75 190.3156,215.625 Q190.3156,212.5 191.6281,210.8438 Q192.9563,209.1875 195.4563,209.1875 Q196.1594,209.1875 196.8,209.3438 Q197.4563,209.5 198.0188,209.7969 L198.0188,212.5156 Q197.3938,211.9375 196.8,211.6719 Q196.2063,211.3906 195.5813,211.3906 Q194.2375,211.3906 193.55,212.4688 Q192.8625,213.5313 192.8625,215.625 Q192.8625,217.7188 193.55,218.7969 Q194.2375,219.8594 195.5813,219.8594 Q196.2063,219.8594 196.8,219.5938 Q197.3938,219.3125 198.0188,218.7344 L198.0188,221.4531 Z "/><text fill="#000000" font-family="sans-serif" font-size="12" font-weight="bold" lengthAdjust="spacingAndGlyphs" textLength="121" x="209.95" y="219.9668">helm-type-timers</text><line style="stroke: #A80036; stroke-width: 1.5;" x1="177" x2="337" y1="231.8125" y2="231.8125"/><text fill="#000000" font-family="sans-serif" font-size="11" lengthAdjust="spacingAndGlyphs" textLength="150" x="182" y="246.0229">A class to define helm type</text><text fill="#000000" font-family="sans-serif" font-size="11" lengthAdjust="spacingAndGlyphs" textLength="41" x="182" y="258.8276">timers.</text><line style="stroke: #A80036; stroke-width: 1.0;" x1="177" x2="337" y1="265.4219" y2="265.4219"/><line style="stroke: #A80036; stroke-width: 1.0;" x1="177" x2="337" y1="267.4219" y2="267.4219"/><line style="stroke: #A80036; stroke-width: 1.5;" x1="177" x2="193.5" y1="279.8242" y2="279.8242"/><text fill="#000000" font-family="sans-serif" font-size="11" lengthAdjust="spacingAndGlyphs" textLength="127" x="193.5" y="283.1323">some interesting slots</text><line style="stroke: #A80036; stroke-width: 1.5;" x1="320.5" x2="337" y1="279.8242" y2="279.8242"/><path d="M373,218.8125 L373,242.3125 L338.12,246.3125 L373,250.3125 L373,274.2109 A0,0 0 0 0 373,274.2109 L567,274.2109 A0,0 0 0 0 567,274.2109 L567,228.8125 L557,218.8125 L373,218.8125 A0,0 0 0 0 373,218.8125 " fill="#FBFB77" filter="url(#fi9dpor0vd2ar)" style="stroke: #A80036; stroke-width: 1.0;"/><path d="M557,218.8125 L557,228.8125 L567,228.8125 L557,218.8125 " fill="#FBFB77" style="stroke: #A80036; stroke-width: 1.0;"/><text fill="#000000" font-family="sans-serif" font-size="13" font-weight="bold" lengthAdjust="spacingAndGlyphs" textLength="126" x="379" y="235.8794">helm-type-timers</text><text fill="#000000" font-family="sans-serif" font-size="13" lengthAdjust="spacingAndGlyphs" textLength="4" x="505" y="235.8794">:</text><text fill="#000000" font-family="sans-serif" font-size="13" lengthAdjust="spacingAndGlyphs" textLength="173" x="379" y="251.0122">A class to define helm type</text><text fill="#000000" font-family="sans-serif" font-size="13" lengthAdjust="spacingAndGlyphs" textLength="45" x="379" y="266.145">timers.</text><!--MD5=[65c9e2a5e033ac2de329b35010304c74]
class helm-idle-time-timers-class--><rect fill="#FEFECE" filter="url(#fi9dpor0vd2ar)" height="48" id="helm-idle-time-timers-class" style="stroke: #A80036; stroke-width: 1.5;" width="224" x="6" y="352.8125"/><ellipse cx="21" cy="368.8125" fill="#ADD1B2" rx="11" ry="11" style="stroke: #A80036; stroke-width: 1.0;"/><path d="M23.9688,374.4531 Q23.3906,374.75 22.75,374.8906 Q22.1094,375.0469 21.4063,375.0469 Q18.9063,375.0469 17.5781,373.4063 Q16.2656,371.75 16.2656,368.625 Q16.2656,365.5 17.5781,363.8438 Q18.9063,362.1875 21.4063,362.1875 Q22.1094,362.1875 22.75,362.3438 Q23.4063,362.5 23.9688,362.7969 L23.9688,365.5156 Q23.3438,364.9375 22.75,364.6719 Q22.1563,364.3906 21.5313,364.3906 Q20.1875,364.3906 19.5,365.4688 Q18.8125,366.5313 18.8125,368.625 Q18.8125,370.7188 19.5,371.7969 Q20.1875,372.8594 21.5313,372.8594 Q22.1563,372.8594 22.75,372.5938 Q23.3438,372.3125 23.9688,371.7344 L23.9688,374.4531 Z "/><text fill="#000000" font-family="sans-serif" font-size="12" font-weight="bold" lengthAdjust="spacingAndGlyphs" textLength="192" x="35" y="372.9668">helm-idle-time-timers-class</text><line style="stroke: #A80036; stroke-width: 1.5;" x1="7" x2="229" y1="384.8125" y2="384.8125"/><line style="stroke: #A80036; stroke-width: 1.5;" x1="7" x2="229" y1="392.8125" y2="392.8125"/><!--MD5=[b0e60113aba2bebbe59d6cbba30a4a7f]
class helm-absolute-time-timers-class--><rect fill="#FEFECE" filter="url(#fi9dpor0vd2ar)" height="48" id="helm-absolute-time-timers-class" style="stroke: #A80036; stroke-width: 1.5;" width="261" x="265.5" y="352.8125"/><ellipse cx="280.5" cy="368.8125" fill="#ADD1B2" rx="11" ry="11" style="stroke: #A80036; stroke-width: 1.0;"/><path d="M283.4688,374.4531 Q282.8906,374.75 282.25,374.8906 Q281.6094,375.0469 280.9063,375.0469 Q278.4063,375.0469 277.0781,373.4063 Q275.7656,371.75 275.7656,368.625 Q275.7656,365.5 277.0781,363.8438 Q278.4063,362.1875 280.9063,362.1875 Q281.6094,362.1875 282.25,362.3438 Q282.9063,362.5 283.4688,362.7969 L283.4688,365.5156 Q282.8438,364.9375 282.25,364.6719 Q281.6563,364.3906 281.0313,364.3906 Q279.6875,364.3906 279,365.4688 Q278.3125,366.5313 278.3125,368.625 Q278.3125,370.7188 279,371.7969 Q279.6875,372.8594 281.0313,372.8594 Q281.6563,372.8594 282.25,372.5938 Q282.8438,372.3125 283.4688,371.7344 L283.4688,374.4531 Z "/><text fill="#000000" font-family="sans-serif" font-size="12" font-weight="bold" lengthAdjust="spacingAndGlyphs" textLength="229" x="294.5" y="372.9668">helm-absolute-time-timers-class</text><line style="stroke: #A80036; stroke-width: 1.5;" x1="266.5" x2="525.5" y1="384.8125" y2="384.8125"/><line style="stroke: #A80036; stroke-width: 1.5;" x1="266.5" x2="525.5" y1="392.8125" y2="392.8125"/><!--MD5=[687fc8ec140e945488f732dae3c46e2b]
reverse link helm-source to helm-type-timers--><path d="M257,160.4125 C257,173.0325 257,186.8425 257,199.5825 " fill="none" id="helm-source&lt;-helm-type-timers" style="stroke: #A80036; stroke-width: 1.0;"/><polygon fill="none" points="250,160.0825,257,140.0825,264,160.0825,250,160.0825" style="stroke: #A80036; stroke-width: 1.0;"/><!--MD5=[f7040a49218bb3669d1c90cd85142f6d]
reverse link helm-type-timers to helm-idle-time-timers-class--><path d="M192.68,306.7725 C175.07,323.0525 157.01,339.7525 143.06,352.6425 " fill="none" id="helm-type-timers&lt;-helm-idle-time-timers-class" style="stroke: #A80036; stroke-width: 1.0;"/><polygon fill="none" points="188.16,301.4125,207.6,292.9825,197.67,311.6925,188.16,301.4125" style="stroke: #A80036; stroke-width: 1.0;"/><!--MD5=[69966f233324ab1b41ca6bc5703528d7]
reverse link helm-type-timers to helm-absolute-time-timers-class--><path d="M321.32,306.7725 C338.93,323.0525 356.99,339.7525 370.94,352.6425 " fill="none" id="helm-type-timers&lt;-helm-absolute-time-timers-class" style="stroke: #A80036; stroke-width: 1.0;"/><polygon fill="none" points="316.33,311.6925,306.4,292.9825,325.84,301.4125,316.33,311.6925" style="stroke: #A80036; stroke-width: 1.0;"/><!--MD5=[d3375284f3586b03537d153f4c9a45f6]
@startuml
skinparam classFontStyle bold
skinparam captionFontStyle bold
title **Parents and Children of**\n**'helm-type-timers'**\n\n
"helm-source" <|- - "helm-type-timers"
class "helm-source"
class "helm-type-timers" {
	A class to define helm type
	timers.
	==
	__ some interesting slots __
}
note right of "helm-type-timers"
	**helm-type-timers**:
	A class to define helm type
	timers.
end note
"helm-type-timers" <|- - "helm-idle-time-timers-class"
"helm-type-timers" <|- - "helm-absolute-time-timers-class"
@enduml

PlantUML version 1.2020.02(Sun Mar 01 15:52:07 IST 2020)
(GPL source distribution)
Java Runtime: OpenJDK Runtime Environment
JVM: OpenJDK 64-Bit Server VM
Java Version: 11.0.11-ea+8-post-Debian-1
Operating System: Linux
Default Encoding: UTF-8
Language: en
Country: IN
--></g></svg>