<?xml version="1.0" encoding="UTF-8" standalone="no"?><svg xmlns="http://www.w3.org/2000/svg" xmlns:xlink="http://www.w3.org/1999/xlink" contentScriptType="application/ecmascript" contentStyleType="text/css" height="398px" preserveAspectRatio="none" style="width:430px;height:398px;" version="1.1" viewBox="0 0 430 398" width="430px" zoomAndPan="magnify"><defs><filter height="300%" id="fuko8b35atc2d" width="300%" x="-1" y="-1"><feGaussianBlur result="blurOut" stdDeviation="2.0"/><feColorMatrix in="blurOut" result="blurOut2" type="matrix" values="0 0 0 0 0 0 0 0 0 0 0 0 0 0 0 0 0 0 .4 0"/><feOffset dx="4.0" dy="4.0" in="blurOut2" result="blurOut3"/><feBlend in="SourceGraphic" in2="blurOut3" mode="normal"/></filter></defs><g><text fill="#000000" font-family="sans-serif" font-size="18" font-weight="bold" lengthAdjust="spacingAndGlyphs" textLength="240" x="98" y="16.708">Parents and Children of</text><text fill="#000000" font-family="sans-serif" font-size="18" font-weight="bold" lengthAdjust="spacingAndGlyphs" textLength="184" x="126" y="37.6611">'helm-type-buffer'</text><text fill="#000000" font-family="sans-serif" font-size="18" lengthAdjust="spacingAndGlyphs" textLength="0" x="221" y="58.6143"/><text fill="#000000" font-family="sans-serif" font-size="18" lengthAdjust="spacingAndGlyphs" textLength="0" x="221" y="79.5674"/><!--MD5=[8da85e6ec6935d54267014e974a66b51]
class helm-source--><rect fill="#FEFECE" filter="url(#fuko8b35atc2d)" height="48" id="helm-source" style="stroke: #A80036; stroke-width: 1.5;" width="119" x="34" y="91.8125"/><ellipse cx="49" cy="107.8125" fill="#ADD1B2" rx="11" ry="11" style="stroke: #A80036; stroke-width: 1.0;"/><path d="M51.9688,113.4531 Q51.3906,113.75 50.75,113.8906 Q50.1094,114.0469 49.4063,114.0469 Q46.9063,114.0469 45.5781,112.4063 Q44.2656,110.75 44.2656,107.625 Q44.2656,104.5 45.5781,102.8438 Q46.9063,101.1875 49.4063,101.1875 Q50.1094,101.1875 50.75,101.3438 Q51.4063,101.5 51.9688,101.7969 L51.9688,104.5156 Q51.3438,103.9375 50.75,103.6719 Q50.1563,103.3906 49.5313,103.3906 Q48.1875,103.3906 47.5,104.4688 Q46.8125,105.5313 46.8125,107.625 Q46.8125,109.7188 47.5,110.7969 Q48.1875,111.8594 49.5313,111.8594 Q50.1563,111.8594 50.75,111.5938 Q51.3438,111.3125 51.9688,110.7344 L51.9688,113.4531 Z "/><text fill="#000000" font-family="sans-serif" font-size="12" font-weight="bold" lengthAdjust="spacingAndGlyphs" textLength="87" x="63" y="111.9668">helm-source</text><line style="stroke: #A80036; stroke-width: 1.5;" x1="35" x2="152" y1="123.8125" y2="123.8125"/><line style="stroke: #A80036; stroke-width: 1.5;" x1="35" x2="152" y1="131.8125" y2="131.8125"/><!--MD5=[44eb50c21698d944c3f7c5a7441762ef]
class helm-type-buffer--><rect fill="#FEFECE" filter="url(#fuko8b35atc2d)" height="80.0117" id="helm-type-buffer" style="stroke: #A80036; stroke-width: 1.5;" width="172" x="7.5" y="199.8125"/><ellipse cx="31.95" cy="215.8125" fill="#ADD1B2" rx="11" ry="11" style="stroke: #A80036; stroke-width: 1.0;"/><path d="M34.9188,221.4531 Q34.3406,221.75 33.7,221.8906 Q33.0594,222.0469 32.3563,222.0469 Q29.8563,222.0469 28.5281,220.4063 Q27.2156,218.75 27.2156,215.625 Q27.2156,212.5 28.5281,210.8438 Q29.8563,209.1875 32.3563,209.1875 Q33.0594,209.1875 33.7,209.3438 Q34.3563,209.5 34.9188,209.7969 L34.9188,212.5156 Q34.2938,211.9375 33.7,211.6719 Q33.1063,211.3906 32.4813,211.3906 Q31.1375,211.3906 30.45,212.4688 Q29.7625,213.5313 29.7625,215.625 Q29.7625,217.7188 30.45,218.7969 Q31.1375,219.8594 32.4813,219.8594 Q33.1063,219.8594 33.7,219.5938 Q34.2938,219.3125 34.9188,218.7344 L34.9188,221.4531 Z "/><text fill="#000000" font-family="sans-serif" font-size="12" font-weight="bold" lengthAdjust="spacingAndGlyphs" textLength="119" x="48.05" y="219.9668">helm-type-buffer</text><line style="stroke: #A80036; stroke-width: 1.5;" x1="8.5" x2="178.5" y1="231.8125" y2="231.8125"/><text fill="#000000" font-family="sans-serif" font-size="11" lengthAdjust="spacingAndGlyphs" textLength="160" x="13.5" y="246.0229">A class to define type buffer.</text><line style="stroke: #A80036; stroke-width: 1.0;" x1="8.5" x2="178.5" y1="252.6172" y2="252.6172"/><line style="stroke: #A80036; stroke-width: 1.0;" x1="8.5" x2="178.5" y1="254.6172" y2="254.6172"/><line style="stroke: #A80036; stroke-width: 1.5;" x1="8.5" x2="30" y1="267.0195" y2="267.0195"/><text fill="#000000" font-family="sans-serif" font-size="11" lengthAdjust="spacingAndGlyphs" textLength="127" x="30" y="270.3276">some interesting slots</text><line style="stroke: #A80036; stroke-width: 1.5;" x1="157" x2="178.5" y1="267.0195" y2="267.0195"/><path d="M215,219.8125 L215,235.8125 L179.74,239.8125 L215,243.8125 L215,260.0781 A0,0 0 0 0 215,260.0781 L418,260.0781 A0,0 0 0 0 418,260.0781 L418,229.8125 L408,219.8125 L215,219.8125 A0,0 0 0 0 215,219.8125 " fill="#FBFB77" filter="url(#fuko8b35atc2d)" style="stroke: #A80036; stroke-width: 1.0;"/><path d="M408,219.8125 L408,229.8125 L418,229.8125 L408,219.8125 " fill="#FBFB77" style="stroke: #A80036; stroke-width: 1.0;"/><text fill="#000000" font-family="sans-serif" font-size="13" font-weight="bold" lengthAdjust="spacingAndGlyphs" textLength="125" x="221" y="236.8794">helm-type-buffer</text><text fill="#000000" font-family="sans-serif" font-size="13" lengthAdjust="spacingAndGlyphs" textLength="4" x="346" y="236.8794">:</text><text fill="#000000" font-family="sans-serif" font-size="13" lengthAdjust="spacingAndGlyphs" textLength="182" x="221" y="252.0122">A class to define type buffer.</text><!--MD5=[5e8ec52a80544584992cb03033476cca]
class helm-source-buffers--><rect fill="#FEFECE" filter="url(#fuko8b35atc2d)" height="48" id="helm-source-buffers" style="stroke: #A80036; stroke-width: 1.5;" width="175" x="6" y="339.8125"/><ellipse cx="21" cy="355.8125" fill="#ADD1B2" rx="11" ry="11" style="stroke: #A80036; stroke-width: 1.0;"/><path d="M23.9688,361.4531 Q23.3906,361.75 22.75,361.8906 Q22.1094,362.0469 21.4063,362.0469 Q18.9063,362.0469 17.5781,360.4063 Q16.2656,358.75 16.2656,355.625 Q16.2656,352.5 17.5781,350.8438 Q18.9063,349.1875 21.4063,349.1875 Q22.1094,349.1875 22.75,349.3438 Q23.4063,349.5 23.9688,349.7969 L23.9688,352.5156 Q23.3438,351.9375 22.75,351.6719 Q22.1563,351.3906 21.5313,351.3906 Q20.1875,351.3906 19.5,352.4688 Q18.8125,353.5313 18.8125,355.625 Q18.8125,357.7188 19.5,358.7969 Q20.1875,359.8594 21.5313,359.8594 Q22.1563,359.8594 22.75,359.5938 Q23.3438,359.3125 23.9688,358.7344 L23.9688,361.4531 Z "/><text fill="#000000" font-family="sans-serif" font-size="12" font-weight="bold" lengthAdjust="spacingAndGlyphs" textLength="143" x="35" y="359.9668">helm-source-buffers</text><line style="stroke: #A80036; stroke-width: 1.5;" x1="7" x2="180" y1="371.8125" y2="371.8125"/><line style="stroke: #A80036; stroke-width: 1.5;" x1="7" x2="180" y1="379.8125" y2="379.8125"/><!--MD5=[528fc0d38c023ea499a6c44f22caf734]
reverse link helm-source to helm-type-buffer--><path d="M93.5,160.0625 C93.5,172.8525 93.5,186.7925 93.5,199.3425 " fill="none" id="helm-source&lt;-helm-type-buffer" style="stroke: #A80036; stroke-width: 1.0;"/><polygon fill="none" points="86.5,160.0425,93.5,140.0425,100.5,160.0425,86.5,160.0425" style="stroke: #A80036; stroke-width: 1.0;"/><!--MD5=[88c02f9cf13fd6689df37b68aefeb8b8]
reverse link helm-type-buffer to helm-source-buffers--><path d="M93.5,300.1925 C93.5,314.2125 93.5,328.3425 93.5,339.6225 " fill="none" id="helm-type-buffer&lt;-helm-source-buffers" style="stroke: #A80036; stroke-width: 1.0;"/><polygon fill="none" points="86.5,300.0825,93.5,280.0825,100.5,300.0825,86.5,300.0825" style="stroke: #A80036; stroke-width: 1.0;"/><!--MD5=[4eb9053afec4b05814ad68d4d45dac60]
@startuml
skinparam classFontStyle bold
skinparam captionFontStyle bold
title **Parents and Children of**\n**'helm-type-buffer'**\n\n
"helm-source" <|- - "helm-type-buffer"
class "helm-source"
class "helm-type-buffer" {
	A class to define type buffer.
	==
	__ some interesting slots __
}
note right of "helm-type-buffer"
	**helm-type-buffer**:
	A class to define type buffer.
end note
"helm-type-buffer" <|- - "helm-source-buffers"
@enduml

PlantUML version 1.2020.02(Sun Mar 01 15:52:07 IST 2020)
(GPL source distribution)
Java Runtime: OpenJDK Runtime Environment
JVM: OpenJDK 64-Bit Server VM
Java Version: 11.0.11-ea+8-post-Debian-1
Operating System: Linux
Default Encoding: UTF-8
Language: en
Country: IN
--></g></svg>