<?xml version="1.0" encoding="UTF-8" standalone="no"?><svg xmlns="http://www.w3.org/2000/svg" xmlns:xlink="http://www.w3.org/1999/xlink" contentScriptType="application/ecmascript" contentStyleType="text/css" height="377px" preserveAspectRatio="none" style="width:595px;height:377px;" version="1.1" viewBox="0 0 595 377" width="595px" zoomAndPan="magnify"><defs><filter height="300%" id="f103vatub0c3t5" width="300%" x="-1" y="-1"><feGaussianBlur result="blurOut" stdDeviation="2.0"/><feColorMatrix in="blurOut" result="blurOut2" type="matrix" values="0 0 0 0 0 0 0 0 0 0 0 0 0 0 0 0 0 0 .4 0"/><feOffset dx="4.0" dy="4.0" in="blurOut2" result="blurOut3"/><feBlend in="SourceGraphic" in2="blurOut3" mode="normal"/></filter></defs><g><text fill="#000000" font-family="sans-serif" font-size="18" font-weight="bold" lengthAdjust="spacingAndGlyphs" textLength="240" x="180.5" y="16.708">Parents and Children of</text><text fill="#000000" font-family="sans-serif" font-size="18" font-weight="bold" lengthAdjust="spacingAndGlyphs" textLength="356" x="122.5" y="37.6611">'helm-bookmark-override-inheritor'</text><text fill="#000000" font-family="sans-serif" font-size="18" lengthAdjust="spacingAndGlyphs" textLength="0" x="303.5" y="58.6143"/><text fill="#000000" font-family="sans-serif" font-size="18" lengthAdjust="spacingAndGlyphs" textLength="0" x="303.5" y="79.5674"/><!--MD5=[8da85e6ec6935d54267014e974a66b51]
class helm-source--><rect fill="#FEFECE" filter="url(#f103vatub0c3t5)" height="48" id="helm-source" style="stroke: #A80036; stroke-width: 1.5;" width="119" x="82.5" y="91.8125"/><ellipse cx="97.5" cy="107.8125" fill="#ADD1B2" rx="11" ry="11" style="stroke: #A80036; stroke-width: 1.0;"/><path d="M100.4688,113.4531 Q99.8906,113.75 99.25,113.8906 Q98.6094,114.0469 97.9063,114.0469 Q95.4063,114.0469 94.0781,112.4063 Q92.7656,110.75 92.7656,107.625 Q92.7656,104.5 94.0781,102.8438 Q95.4063,101.1875 97.9063,101.1875 Q98.6094,101.1875 99.25,101.3438 Q99.9063,101.5 100.4688,101.7969 L100.4688,104.5156 Q99.8438,103.9375 99.25,103.6719 Q98.6563,103.3906 98.0313,103.3906 Q96.6875,103.3906 96,104.4688 Q95.3125,105.5313 95.3125,107.625 Q95.3125,109.7188 96,110.7969 Q96.6875,111.8594 98.0313,111.8594 Q98.6563,111.8594 99.25,111.5938 Q99.8438,111.3125 100.4688,110.7344 L100.4688,113.4531 Z "/><text fill="#000000" font-family="sans-serif" font-size="12" font-weight="bold" lengthAdjust="spacingAndGlyphs" textLength="87" x="111.5" y="111.9668">helm-source</text><line style="stroke: #A80036; stroke-width: 1.5;" x1="83.5" x2="200.5" y1="123.8125" y2="123.8125"/><line style="stroke: #A80036; stroke-width: 1.5;" x1="83.5" x2="200.5" y1="131.8125" y2="131.8125"/><!--MD5=[1a4f21f1efd4e6c0dd550e1e5e387e5d]
class helm-bookmark-override-inheritor--><rect fill="#FEFECE" filter="url(#f103vatub0c3t5)" height="59.207" id="helm-bookmark-override-inheritor" style="stroke: #A80036; stroke-width: 1.5;" width="272" x="6" y="199.8125"/><ellipse cx="21" cy="215.8125" fill="#ADD1B2" rx="11" ry="11" style="stroke: #A80036; stroke-width: 1.0;"/><path d="M23.9688,221.4531 Q23.3906,221.75 22.75,221.8906 Q22.1094,222.0469 21.4063,222.0469 Q18.9063,222.0469 17.5781,220.4063 Q16.2656,218.75 16.2656,215.625 Q16.2656,212.5 17.5781,210.8438 Q18.9063,209.1875 21.4063,209.1875 Q22.1094,209.1875 22.75,209.3438 Q23.4063,209.5 23.9688,209.7969 L23.9688,212.5156 Q23.3438,211.9375 22.75,211.6719 Q22.1563,211.3906 21.5313,211.3906 Q20.1875,211.3906 19.5,212.4688 Q18.8125,213.5313 18.8125,215.625 Q18.8125,217.7188 19.5,218.7969 Q20.1875,219.8594 21.5313,219.8594 Q22.1563,219.8594 22.75,219.5938 Q23.3438,219.3125 23.9688,218.7344 L23.9688,221.4531 Z "/><text fill="#000000" font-family="sans-serif" font-size="12" font-weight="bold" lengthAdjust="spacingAndGlyphs" textLength="240" x="35" y="219.9668">helm-bookmark-override-inheritor</text><line style="stroke: #A80036; stroke-width: 1.5;" x1="7" x2="277" y1="231.8125" y2="231.8125"/><line style="stroke: #A80036; stroke-width: 1.5;" x1="7" x2="78.5" y1="246.2148" y2="246.2148"/><text fill="#000000" font-family="sans-serif" font-size="11" lengthAdjust="spacingAndGlyphs" textLength="127" x="78.5" y="249.5229">some interesting slots</text><line style="stroke: #A80036; stroke-width: 1.5;" x1="205.5" x2="277" y1="246.2148" y2="246.2148"/><path d="M313,216.8125 L313,225.3125 L278.27,229.3125 L313,233.3125 L313,241.9453 A0,0 0 0 0 313,241.9453 L583,241.9453 A0,0 0 0 0 583,241.9453 L583,226.8125 L573,216.8125 L313,216.8125 A0,0 0 0 0 313,216.8125 " fill="#FBFB77" filter="url(#f103vatub0c3t5)" style="stroke: #A80036; stroke-width: 1.0;"/><path d="M573,216.8125 L573,226.8125 L583,226.8125 L573,216.8125 " fill="#FBFB77" style="stroke: #A80036; stroke-width: 1.0;"/><text fill="#000000" font-family="sans-serif" font-size="13" font-weight="bold" lengthAdjust="spacingAndGlyphs" textLength="249" x="319" y="233.8794">helm-bookmark-override-inheritor</text><!--MD5=[f325aa84e92746ce6f670c419a69be3e]
class helm-bookmark-find-files-class--><rect fill="#FEFECE" filter="url(#f103vatub0c3t5)" height="48" id="helm-bookmark-find-files-class" style="stroke: #A80036; stroke-width: 1.5;" width="249" x="17.5" y="318.8125"/><ellipse cx="32.5" cy="334.8125" fill="#ADD1B2" rx="11" ry="11" style="stroke: #A80036; stroke-width: 1.0;"/><path d="M35.4688,340.4531 Q34.8906,340.75 34.25,340.8906 Q33.6094,341.0469 32.9063,341.0469 Q30.4063,341.0469 29.0781,339.4063 Q27.7656,337.75 27.7656,334.625 Q27.7656,331.5 29.0781,329.8438 Q30.4063,328.1875 32.9063,328.1875 Q33.6094,328.1875 34.25,328.3438 Q34.9063,328.5 35.4688,328.7969 L35.4688,331.5156 Q34.8438,330.9375 34.25,330.6719 Q33.6563,330.3906 33.0313,330.3906 Q31.6875,330.3906 31,331.4688 Q30.3125,332.5313 30.3125,334.625 Q30.3125,336.7188 31,337.7969 Q31.6875,338.8594 33.0313,338.8594 Q33.6563,338.8594 34.25,338.5938 Q34.8438,338.3125 35.4688,337.7344 L35.4688,340.4531 Z "/><text fill="#000000" font-family="sans-serif" font-size="12" font-weight="bold" lengthAdjust="spacingAndGlyphs" textLength="217" x="46.5" y="338.9668">helm-bookmark-find-files-class</text><line style="stroke: #A80036; stroke-width: 1.5;" x1="18.5" x2="265.5" y1="350.8125" y2="350.8125"/><line style="stroke: #A80036; stroke-width: 1.5;" x1="18.5" x2="265.5" y1="358.8125" y2="358.8125"/><!--MD5=[116a0e90e894ac99238d97b5f2f654c6]
reverse link helm-source to helm-bookmark-override-inheritor--><path d="M142,160.1125 C142,173.3925 142,187.6525 142,199.6925 " fill="none" id="helm-source&lt;-helm-bookmark-override-inheritor" style="stroke: #A80036; stroke-width: 1.0;"/><polygon fill="none" points="135,159.9125,142,139.9125,149,159.9125,135,159.9125" style="stroke: #A80036; stroke-width: 1.0;"/><!--MD5=[9dfed791578fb3f1a7675a563d26d6dc]
reverse link helm-bookmark-override-inheritor to helm-bookmark-find-files-class--><path d="M142,279.0925 C142,292.9125 142,307.3025 142,318.8125 " fill="none" id="helm-bookmark-override-inheritor&lt;-helm-bookmark-find-files-class" style="stroke: #A80036; stroke-width: 1.0;"/><polygon fill="none" points="135,279.0225,142,259.0225,149,279.0225,135,279.0225" style="stroke: #A80036; stroke-width: 1.0;"/><!--MD5=[8386eea9400d4516d3d9e967cd5e0ba1]
@startuml
skinparam classFontStyle bold
skinparam captionFontStyle bold
title **Parents and Children of**\n**'helm-bookmark-override-inheritor'**\n\n
"helm-source" <|- - "helm-bookmark-override-inheritor"
class "helm-source"
class "helm-bookmark-override-inheritor" {
	__ some interesting slots __
}
note right of "helm-bookmark-override-inheritor"
	**helm-bookmark-override-inheritor**
end note
"helm-bookmark-override-inheritor" <|- - "helm-bookmark-find-files-class"
@enduml

PlantUML version 1.2020.02(Sun Mar 01 15:52:07 IST 2020)
(GPL source distribution)
Java Runtime: OpenJDK Runtime Environment
JVM: OpenJDK 64-Bit Server VM
Java Version: 11.0.11-ea+8-post-Debian-1
Operating System: Linux
Default Encoding: UTF-8
Language: en
Country: IN
--></g></svg>