<?xml version="1.0" encoding="UTF-8" standalone="no"?><svg xmlns="http://www.w3.org/2000/svg" xmlns:xlink="http://www.w3.org/1999/xlink" contentScriptType="application/ecmascript" contentStyleType="text/css" height="485px" preserveAspectRatio="none" style="width:539px;height:485px;" version="1.1" viewBox="0 0 539 485" width="539px" zoomAndPan="magnify"><defs><filter height="300%" id="ffvf8tjrbtpv4" width="300%" x="-1" y="-1"><feGaussianBlur result="blurOut" stdDeviation="2.0"/><feColorMatrix in="blurOut" result="blurOut2" type="matrix" values="0 0 0 0 0 0 0 0 0 0 0 0 0 0 0 0 0 0 .4 0"/><feOffset dx="4.0" dy="4.0" in="blurOut2" result="blurOut3"/><feBlend in="SourceGraphic" in2="blurOut3" mode="normal"/></filter></defs><g><text fill="#000000" font-family="sans-serif" font-size="18" font-weight="bold" lengthAdjust="spacingAndGlyphs" textLength="240" x="152.5" y="16.708">Parents and Children of</text><text fill="#000000" font-family="sans-serif" font-size="18" font-weight="bold" lengthAdjust="spacingAndGlyphs" textLength="318" x="113.5" y="37.6611">'helm-locate-override-inheritor'</text><text fill="#000000" font-family="sans-serif" font-size="18" lengthAdjust="spacingAndGlyphs" textLength="0" x="275.5" y="58.6143"/><text fill="#000000" font-family="sans-serif" font-size="18" lengthAdjust="spacingAndGlyphs" textLength="0" x="275.5" y="79.5674"/><!--MD5=[d7d577ca8c64ccce694dba4b3c283648]
class helm-type-file--><rect fill="#FEFECE" filter="url(#ffvf8tjrbtpv4)" height="48" id="helm-type-file" style="stroke: #A80036; stroke-width: 1.5;" width="130" x="64" y="199.8125"/><ellipse cx="79" cy="215.8125" fill="#ADD1B2" rx="11" ry="11" style="stroke: #A80036; stroke-width: 1.0;"/><path d="M81.9688,221.4531 Q81.3906,221.75 80.75,221.8906 Q80.1094,222.0469 79.4063,222.0469 Q76.9063,222.0469 75.5781,220.4063 Q74.2656,218.75 74.2656,215.625 Q74.2656,212.5 75.5781,210.8438 Q76.9063,209.1875 79.4063,209.1875 Q80.1094,209.1875 80.75,209.3438 Q81.4063,209.5 81.9688,209.7969 L81.9688,212.5156 Q81.3438,211.9375 80.75,211.6719 Q80.1563,211.3906 79.5313,211.3906 Q78.1875,211.3906 77.5,212.4688 Q76.8125,213.5313 76.8125,215.625 Q76.8125,217.7188 77.5,218.7969 Q78.1875,219.8594 79.5313,219.8594 Q80.1563,219.8594 80.75,219.5938 Q81.3438,219.3125 81.9688,218.7344 L81.9688,221.4531 Z "/><text fill="#000000" font-family="sans-serif" font-size="12" font-weight="bold" lengthAdjust="spacingAndGlyphs" textLength="98" x="93" y="219.9668">helm-type-file</text><line style="stroke: #A80036; stroke-width: 1.5;" x1="65" x2="193" y1="231.8125" y2="231.8125"/><line style="stroke: #A80036; stroke-width: 1.5;" x1="65" x2="193" y1="239.8125" y2="239.8125"/><!--MD5=[2e3d3b2922e1daf59c103872c87a469e]
class helm-locate-override-inheritor--><rect fill="#FEFECE" filter="url(#ffvf8tjrbtpv4)" height="59.207" id="helm-locate-override-inheritor" style="stroke: #A80036; stroke-width: 1.5;" width="246" x="6" y="307.8125"/><ellipse cx="21" cy="323.8125" fill="#ADD1B2" rx="11" ry="11" style="stroke: #A80036; stroke-width: 1.0;"/><path d="M23.9688,329.4531 Q23.3906,329.75 22.75,329.8906 Q22.1094,330.0469 21.4063,330.0469 Q18.9063,330.0469 17.5781,328.4063 Q16.2656,326.75 16.2656,323.625 Q16.2656,320.5 17.5781,318.8438 Q18.9063,317.1875 21.4063,317.1875 Q22.1094,317.1875 22.75,317.3438 Q23.4063,317.5 23.9688,317.7969 L23.9688,320.5156 Q23.3438,319.9375 22.75,319.6719 Q22.1563,319.3906 21.5313,319.3906 Q20.1875,319.3906 19.5,320.4688 Q18.8125,321.5313 18.8125,323.625 Q18.8125,325.7188 19.5,326.7969 Q20.1875,327.8594 21.5313,327.8594 Q22.1563,327.8594 22.75,327.5938 Q23.3438,327.3125 23.9688,326.7344 L23.9688,329.4531 Z "/><text fill="#000000" font-family="sans-serif" font-size="12" font-weight="bold" lengthAdjust="spacingAndGlyphs" textLength="214" x="35" y="327.9668">helm-locate-override-inheritor</text><line style="stroke: #A80036; stroke-width: 1.5;" x1="7" x2="251" y1="339.8125" y2="339.8125"/><line style="stroke: #A80036; stroke-width: 1.5;" x1="7" x2="65.5" y1="354.2148" y2="354.2148"/><text fill="#000000" font-family="sans-serif" font-size="11" lengthAdjust="spacingAndGlyphs" textLength="127" x="65.5" y="357.5229">some interesting slots</text><line style="stroke: #A80036; stroke-width: 1.5;" x1="192.5" x2="251" y1="354.2148" y2="354.2148"/><!--MD5=[8da85e6ec6935d54267014e974a66b51]
class helm-source--><rect fill="#FEFECE" filter="url(#ffvf8tjrbtpv4)" height="48" id="helm-source" style="stroke: #A80036; stroke-width: 1.5;" width="119" x="69.5" y="91.8125"/><ellipse cx="84.5" cy="107.8125" fill="#ADD1B2" rx="11" ry="11" style="stroke: #A80036; stroke-width: 1.0;"/><path d="M87.4688,113.4531 Q86.8906,113.75 86.25,113.8906 Q85.6094,114.0469 84.9063,114.0469 Q82.4063,114.0469 81.0781,112.4063 Q79.7656,110.75 79.7656,107.625 Q79.7656,104.5 81.0781,102.8438 Q82.4063,101.1875 84.9063,101.1875 Q85.6094,101.1875 86.25,101.3438 Q86.9063,101.5 87.4688,101.7969 L87.4688,104.5156 Q86.8438,103.9375 86.25,103.6719 Q85.6563,103.3906 85.0313,103.3906 Q83.6875,103.3906 83,104.4688 Q82.3125,105.5313 82.3125,107.625 Q82.3125,109.7188 83,110.7969 Q83.6875,111.8594 85.0313,111.8594 Q85.6563,111.8594 86.25,111.5938 Q86.8438,111.3125 87.4688,110.7344 L87.4688,113.4531 Z "/><text fill="#000000" font-family="sans-serif" font-size="12" font-weight="bold" lengthAdjust="spacingAndGlyphs" textLength="87" x="98.5" y="111.9668">helm-source</text><line style="stroke: #A80036; stroke-width: 1.5;" x1="70.5" x2="187.5" y1="123.8125" y2="123.8125"/><line style="stroke: #A80036; stroke-width: 1.5;" x1="70.5" x2="187.5" y1="131.8125" y2="131.8125"/><path d="M287,324.8125 L287,333.3125 L252.25,337.3125 L287,341.3125 L287,349.9453 A0,0 0 0 0 287,349.9453 L527,349.9453 A0,0 0 0 0 527,349.9453 L527,334.8125 L517,324.8125 L287,324.8125 A0,0 0 0 0 287,324.8125 " fill="#FBFB77" filter="url(#ffvf8tjrbtpv4)" style="stroke: #A80036; stroke-width: 1.0;"/><path d="M517,324.8125 L517,334.8125 L527,334.8125 L517,324.8125 " fill="#FBFB77" style="stroke: #A80036; stroke-width: 1.0;"/><text fill="#000000" font-family="sans-serif" font-size="13" font-weight="bold" lengthAdjust="spacingAndGlyphs" textLength="219" x="293" y="341.8794">helm-locate-override-inheritor</text><!--MD5=[78e52b23f8e756ae73535f85f4ae9d39]
class helm-locate-source--><rect fill="#FEFECE" filter="url(#ffvf8tjrbtpv4)" height="48" id="helm-locate-source" style="stroke: #A80036; stroke-width: 1.5;" width="168" x="45" y="426.8125"/><ellipse cx="60" cy="442.8125" fill="#ADD1B2" rx="11" ry="11" style="stroke: #A80036; stroke-width: 1.0;"/><path d="M62.9688,448.4531 Q62.3906,448.75 61.75,448.8906 Q61.1094,449.0469 60.4063,449.0469 Q57.9063,449.0469 56.5781,447.4063 Q55.2656,445.75 55.2656,442.625 Q55.2656,439.5 56.5781,437.8438 Q57.9063,436.1875 60.4063,436.1875 Q61.1094,436.1875 61.75,436.3438 Q62.4063,436.5 62.9688,436.7969 L62.9688,439.5156 Q62.3438,438.9375 61.75,438.6719 Q61.1563,438.3906 60.5313,438.3906 Q59.1875,438.3906 58.5,439.4688 Q57.8125,440.5313 57.8125,442.625 Q57.8125,444.7188 58.5,445.7969 Q59.1875,446.8594 60.5313,446.8594 Q61.1563,446.8594 61.75,446.5938 Q62.3438,446.3125 62.9688,445.7344 L62.9688,448.4531 Z "/><text fill="#000000" font-family="sans-serif" font-size="12" font-weight="bold" lengthAdjust="spacingAndGlyphs" textLength="136" x="74" y="446.9668">helm-locate-source</text><line style="stroke: #A80036; stroke-width: 1.5;" x1="46" x2="212" y1="458.8125" y2="458.8125"/><line style="stroke: #A80036; stroke-width: 1.5;" x1="46" x2="212" y1="466.8125" y2="466.8125"/><!--MD5=[ea3943677655752665563907a8ed1189]
reverse link helm-type-file to helm-locate-override-inheritor--><path d="M129,268.1125 C129,281.3925 129,295.6525 129,307.6925 " fill="none" id="helm-type-file&lt;-helm-locate-override-inheritor" style="stroke: #A80036; stroke-width: 1.0;"/><polygon fill="none" points="122,267.9125,129,247.9125,136,267.9125,122,267.9125" style="stroke: #A80036; stroke-width: 1.0;"/><!--MD5=[4dcf8b063d240b570d0bdaa319fd46e4]
reverse link helm-source to helm-type-file--><path d="M129,159.8325 C129,173.3925 129,187.8525 129,199.4925 " fill="none" id="helm-source&lt;-helm-type-file" style="stroke: #A80036; stroke-width: 1.0;"/><polygon fill="none" points="122,159.8125,129,139.8125,136,159.8125,122,159.8125" style="stroke: #A80036; stroke-width: 1.0;"/><!--MD5=[59ec1b2dfc99414670695ca2c7ef7be5]
reverse link helm-locate-override-inheritor to helm-locate-source--><path d="M129,387.0925 C129,400.9125 129,415.3025 129,426.8125 " fill="none" id="helm-locate-override-inheritor&lt;-helm-locate-source" style="stroke: #A80036; stroke-width: 1.0;"/><polygon fill="none" points="122,387.0225,129,367.0225,136,387.0225,122,387.0225" style="stroke: #A80036; stroke-width: 1.0;"/><!--MD5=[20c61314a8472416fad516e89db5e308]
@startuml
skinparam classFontStyle bold
skinparam captionFontStyle bold
title **Parents and Children of**\n**'helm-locate-override-inheritor'**\n\n
"helm-type-file" <|- - "helm-locate-override-inheritor"
class "helm-type-file"
"helm-source" <|- - "helm-type-file"
class "helm-source"
class "helm-locate-override-inheritor" {
	__ some interesting slots __
}
note right of "helm-locate-override-inheritor"
	**helm-locate-override-inheritor**
end note
"helm-locate-override-inheritor" <|- - "helm-locate-source"
@enduml

PlantUML version 1.2020.02(Sun Mar 01 15:52:07 IST 2020)
(GPL source distribution)
Java Runtime: OpenJDK Runtime Environment
JVM: OpenJDK 64-Bit Server VM
Java Version: 11.0.11-ea+8-post-Debian-1
Operating System: Linux
Default Encoding: UTF-8
Language: en
Country: IN
--></g></svg>