<?xml version="1.0" encoding="UTF-8" standalone="no"?><svg xmlns="http://www.w3.org/2000/svg" xmlns:xlink="http://www.w3.org/1999/xlink" contentScriptType="application/ecmascript" contentStyleType="text/css" height="465px" preserveAspectRatio="none" style="width:424px;height:465px;" version="1.1" viewBox="0 0 424 465" width="424px" zoomAndPan="magnify"><defs><filter height="300%" id="f12a039m40yjju" width="300%" x="-1" y="-1"><feGaussianBlur result="blurOut" stdDeviation="2.0"/><feColorMatrix in="blurOut" result="blurOut2" type="matrix" values="0 0 0 0 0 0 0 0 0 0 0 0 0 0 0 0 0 0 .4 0"/><feOffset dx="4.0" dy="4.0" in="blurOut2" result="blurOut3"/><feBlend in="SourceGraphic" in2="blurOut3" mode="normal"/></filter></defs><g><text fill="#000000" font-family="sans-serif" font-size="18" font-weight="bold" lengthAdjust="spacingAndGlyphs" textLength="240" x="95.5" y="16.708">Parents and Children of</text><text fill="#000000" font-family="sans-serif" font-size="18" font-weight="bold" lengthAdjust="spacingAndGlyphs" textLength="235" x="98" y="37.6611">'helm-semantic-source'</text><text fill="#000000" font-family="sans-serif" font-size="18" lengthAdjust="spacingAndGlyphs" textLength="0" x="218.5" y="58.6143"/><text fill="#000000" font-family="sans-serif" font-size="18" lengthAdjust="spacingAndGlyphs" textLength="0" x="218.5" y="79.5674"/><!--MD5=[df56542e8c7b1aabe649dc484b739778]
class helm-source-in-buffer--><rect fill="#FEFECE" filter="url(#f12a039m40yjju)" height="48" id="helm-source-in-buffer" style="stroke: #A80036; stroke-width: 1.5;" width="185" x="7.5" y="199.8125"/><ellipse cx="22.5" cy="215.8125" fill="#ADD1B2" rx="11" ry="11" style="stroke: #A80036; stroke-width: 1.0;"/><path d="M25.4688,221.4531 Q24.8906,221.75 24.25,221.8906 Q23.6094,222.0469 22.9063,222.0469 Q20.4063,222.0469 19.0781,220.4063 Q17.7656,218.75 17.7656,215.625 Q17.7656,212.5 19.0781,210.8438 Q20.4063,209.1875 22.9063,209.1875 Q23.6094,209.1875 24.25,209.3438 Q24.9063,209.5 25.4688,209.7969 L25.4688,212.5156 Q24.8438,211.9375 24.25,211.6719 Q23.6563,211.3906 23.0313,211.3906 Q21.6875,211.3906 21,212.4688 Q20.3125,213.5313 20.3125,215.625 Q20.3125,217.7188 21,218.7969 Q21.6875,219.8594 23.0313,219.8594 Q23.6563,219.8594 24.25,219.5938 Q24.8438,219.3125 25.4688,218.7344 L25.4688,221.4531 Z "/><text fill="#000000" font-family="sans-serif" font-size="12" font-weight="bold" lengthAdjust="spacingAndGlyphs" textLength="153" x="36.5" y="219.9668">helm-source-in-buffer</text><line style="stroke: #A80036; stroke-width: 1.5;" x1="8.5" x2="191.5" y1="231.8125" y2="231.8125"/><line style="stroke: #A80036; stroke-width: 1.5;" x1="8.5" x2="191.5" y1="239.8125" y2="239.8125"/><!--MD5=[6a7a1e548828873723640eef38a6053c]
class helm-semantic-source--><rect fill="#FEFECE" filter="url(#f12a039m40yjju)" height="146.4375" id="helm-semantic-source" style="stroke: #A80036; stroke-width: 1.5;" width="188" x="6" y="307.8125"/><ellipse cx="21" cy="323.8125" fill="#ADD1B2" rx="11" ry="11" style="stroke: #A80036; stroke-width: 1.0;"/><path d="M23.9688,329.4531 Q23.3906,329.75 22.75,329.8906 Q22.1094,330.0469 21.4063,330.0469 Q18.9063,330.0469 17.5781,328.4063 Q16.2656,326.75 16.2656,323.625 Q16.2656,320.5 17.5781,318.8438 Q18.9063,317.1875 21.4063,317.1875 Q22.1094,317.1875 22.75,317.3438 Q23.4063,317.5 23.9688,317.7969 L23.9688,320.5156 Q23.3438,319.9375 22.75,319.6719 Q22.1563,319.3906 21.5313,319.3906 Q20.1875,319.3906 19.5,320.4688 Q18.8125,321.5313 18.8125,323.625 Q18.8125,325.7188 19.5,326.7969 Q20.1875,327.8594 21.5313,327.8594 Q22.1563,327.8594 22.75,327.5938 Q23.3438,327.3125 23.9688,326.7344 L23.9688,329.4531 Z "/><text fill="#000000" font-family="sans-serif" font-size="12" font-weight="bold" lengthAdjust="spacingAndGlyphs" textLength="156" x="35" y="327.9668">helm-semantic-source</text><line style="stroke: #A80036; stroke-width: 1.5;" x1="7" x2="193" y1="339.8125" y2="339.8125"/><text fill="#000000" font-family="sans-serif" font-size="11" lengthAdjust="spacingAndGlyphs" textLength="17" x="12" y="370.8276">init</text><text fill="#000000" font-family="sans-serif" font-size="11" lengthAdjust="spacingAndGlyphs" textLength="34" x="12" y="383.6323">action</text><text fill="#000000" font-family="sans-serif" font-size="11" lengthAdjust="spacingAndGlyphs" textLength="42" x="12" y="396.437">get-line</text><text fill="#000000" font-family="sans-serif" font-size="11" lengthAdjust="spacingAndGlyphs" textLength="81" x="12" y="409.2417">help-message</text><text fill="#000000" font-family="sans-serif" font-size="11" lengthAdjust="spacingAndGlyphs" textLength="44" x="12" y="422.0464">keymap</text><text fill="#000000" font-family="sans-serif" font-size="11" lengthAdjust="spacingAndGlyphs" textLength="96" x="12" y="434.8511">persistent-action</text><text fill="#000000" font-family="sans-serif" font-size="11" lengthAdjust="spacingAndGlyphs" textLength="86" x="12" y="447.6558">persistent-help</text><line style="stroke: #A80036; stroke-width: 1.5;" x1="7" x2="36.5" y1="354.2148" y2="354.2148"/><text fill="#000000" font-family="sans-serif" font-size="11" lengthAdjust="spacingAndGlyphs" textLength="127" x="36.5" y="357.5229">some interesting slots</text><line style="stroke: #A80036; stroke-width: 1.5;" x1="163.5" x2="193" y1="354.2148" y2="354.2148"/><!--MD5=[8da85e6ec6935d54267014e974a66b51]
class helm-source--><rect fill="#FEFECE" filter="url(#f12a039m40yjju)" height="48" id="helm-source" style="stroke: #A80036; stroke-width: 1.5;" width="119" x="40.5" y="91.8125"/><ellipse cx="55.5" cy="107.8125" fill="#ADD1B2" rx="11" ry="11" style="stroke: #A80036; stroke-width: 1.0;"/><path d="M58.4688,113.4531 Q57.8906,113.75 57.25,113.8906 Q56.6094,114.0469 55.9063,114.0469 Q53.4063,114.0469 52.0781,112.4063 Q50.7656,110.75 50.7656,107.625 Q50.7656,104.5 52.0781,102.8438 Q53.4063,101.1875 55.9063,101.1875 Q56.6094,101.1875 57.25,101.3438 Q57.9063,101.5 58.4688,101.7969 L58.4688,104.5156 Q57.8438,103.9375 57.25,103.6719 Q56.6563,103.3906 56.0313,103.3906 Q54.6875,103.3906 54,104.4688 Q53.3125,105.5313 53.3125,107.625 Q53.3125,109.7188 54,110.7969 Q54.6875,111.8594 56.0313,111.8594 Q56.6563,111.8594 57.25,111.5938 Q57.8438,111.3125 58.4688,110.7344 L58.4688,113.4531 Z "/><text fill="#000000" font-family="sans-serif" font-size="12" font-weight="bold" lengthAdjust="spacingAndGlyphs" textLength="87" x="69.5" y="111.9668">helm-source</text><line style="stroke: #A80036; stroke-width: 1.5;" x1="41.5" x2="158.5" y1="123.8125" y2="123.8125"/><line style="stroke: #A80036; stroke-width: 1.5;" x1="41.5" x2="158.5" y1="131.8125" y2="131.8125"/><path d="M229.5,368.3125 L229.5,376.8125 L194.1,380.8125 L229.5,384.8125 L229.5,393.4453 A0,0 0 0 0 229.5,393.4453 L412.5,393.4453 A0,0 0 0 0 412.5,393.4453 L412.5,378.3125 L402.5,368.3125 L229.5,368.3125 A0,0 0 0 0 229.5,368.3125 " fill="#FBFB77" filter="url(#f12a039m40yjju)" style="stroke: #A80036; stroke-width: 1.0;"/><path d="M402.5,368.3125 L402.5,378.3125 L412.5,378.3125 L402.5,368.3125 " fill="#FBFB77" style="stroke: #A80036; stroke-width: 1.0;"/><text fill="#000000" font-family="sans-serif" font-size="13" font-weight="bold" lengthAdjust="spacingAndGlyphs" textLength="162" x="235.5" y="385.3794">helm-semantic-source</text><!--MD5=[1ab4d17da5132a1e0f1c08a6c1bf0b9d]
reverse link helm-source-in-buffer to helm-semantic-source--><path d="M100,268.2225 C100,280.5025 100,294.2025 100,307.6925 " fill="none" id="helm-source-in-buffer&lt;-helm-semantic-source" style="stroke: #A80036; stroke-width: 1.0;"/><polygon fill="none" points="93,268.0225,100,248.0225,107,268.0225,93,268.0225" style="stroke: #A80036; stroke-width: 1.0;"/><!--MD5=[720fe72c7a837b3f6a94e411349ef229]
reverse link helm-source to helm-source-in-buffer--><path d="M100,159.8325 C100,173.3925 100,187.8525 100,199.4925 " fill="none" id="helm-source&lt;-helm-source-in-buffer" style="stroke: #A80036; stroke-width: 1.0;"/><polygon fill="none" points="93,159.8125,100,139.8125,107,159.8125,93,159.8125" style="stroke: #A80036; stroke-width: 1.0;"/><!--MD5=[1a1f1363a35d941e349019f8a552718a]
@startuml
skinparam classFontStyle bold
skinparam captionFontStyle bold
title **Parents and Children of**\n**'helm-semantic-source'**\n\n
"helm-source-in-buffer" <|- - "helm-semantic-source"
class "helm-source-in-buffer"
"helm-source" <|- - "helm-source-in-buffer"
class "helm-source"
class "helm-semantic-source" {
	__ some interesting slots __
	init
	action
	get-line
	help-message
	keymap
	persistent-action
	persistent-help
}
note right of "helm-semantic-source"
	**helm-semantic-source**
end note
@enduml

PlantUML version 1.2020.02(Sun Mar 01 15:52:07 IST 2020)
(GPL source distribution)
Java Runtime: OpenJDK Runtime Environment
JVM: OpenJDK 64-Bit Server VM
Java Version: 11.0.11-ea+8-post-Debian-1
Operating System: Linux
Default Encoding: UTF-8
Language: en
Country: IN
--></g></svg>