<?xml version="1.0" encoding="UTF-8" standalone="no"?><svg xmlns="http://www.w3.org/2000/svg" xmlns:xlink="http://www.w3.org/1999/xlink" contentScriptType="application/ecmascript" contentStyleType="text/css" height="452px" preserveAspectRatio="none" style="width:559px;height:452px;" version="1.1" viewBox="0 0 559 452" width="559px" zoomAndPan="magnify"><defs><filter height="300%" id="f5qn4uknt8vv3" width="300%" x="-1" y="-1"><feGaussianBlur result="blurOut" stdDeviation="2.0"/><feColorMatrix in="blurOut" result="blurOut2" type="matrix" values="0 0 0 0 0 0 0 0 0 0 0 0 0 0 0 0 0 0 .4 0"/><feOffset dx="4.0" dy="4.0" in="blurOut2" result="blurOut3"/><feBlend in="SourceGraphic" in2="blurOut3" mode="normal"/></filter></defs><g><text fill="#000000" font-family="sans-serif" font-size="18" font-weight="bold" lengthAdjust="spacingAndGlyphs" textLength="240" x="163" y="16.708">Parents and Children of</text><text fill="#000000" font-family="sans-serif" font-size="18" font-weight="bold" lengthAdjust="spacingAndGlyphs" textLength="287" x="139.5" y="37.6611">'helm-idle-time-timers-class'</text><text fill="#000000" font-family="sans-serif" font-size="18" lengthAdjust="spacingAndGlyphs" textLength="0" x="286" y="58.6143"/><text fill="#000000" font-family="sans-serif" font-size="18" lengthAdjust="spacingAndGlyphs" textLength="0" x="286" y="79.5674"/><!--MD5=[29825b4f2a07190321f66d6028a4dd26]
class helm-source-sync--><rect fill="#FEFECE" filter="url(#f5qn4uknt8vv3)" height="48" id="helm-source-sync" style="stroke: #A80036; stroke-width: 1.5;" width="156" x="6" y="199.8125"/><ellipse cx="21" cy="215.8125" fill="#ADD1B2" rx="11" ry="11" style="stroke: #A80036; stroke-width: 1.0;"/><path d="M23.9688,221.4531 Q23.3906,221.75 22.75,221.8906 Q22.1094,222.0469 21.4063,222.0469 Q18.9063,222.0469 17.5781,220.4063 Q16.2656,218.75 16.2656,215.625 Q16.2656,212.5 17.5781,210.8438 Q18.9063,209.1875 21.4063,209.1875 Q22.1094,209.1875 22.75,209.3438 Q23.4063,209.5 23.9688,209.7969 L23.9688,212.5156 Q23.3438,211.9375 22.75,211.6719 Q22.1563,211.3906 21.5313,211.3906 Q20.1875,211.3906 19.5,212.4688 Q18.8125,213.5313 18.8125,215.625 Q18.8125,217.7188 19.5,218.7969 Q20.1875,219.8594 21.5313,219.8594 Q22.1563,219.8594 22.75,219.5938 Q23.3438,219.3125 23.9688,218.7344 L23.9688,221.4531 Z "/><text fill="#000000" font-family="sans-serif" font-size="12" font-weight="bold" lengthAdjust="spacingAndGlyphs" textLength="124" x="35" y="219.9668">helm-source-sync</text><line style="stroke: #A80036; stroke-width: 1.5;" x1="7" x2="161" y1="231.8125" y2="231.8125"/><line style="stroke: #A80036; stroke-width: 1.5;" x1="7" x2="161" y1="239.8125" y2="239.8125"/><!--MD5=[65c9e2a5e033ac2de329b35010304c74]
class helm-idle-time-timers-class--><rect fill="#FEFECE" filter="url(#f5qn4uknt8vv3)" height="133.6328" id="helm-idle-time-timers-class" style="stroke: #A80036; stroke-width: 1.5;" width="224" x="67" y="307.8125"/><ellipse cx="82" cy="323.8125" fill="#ADD1B2" rx="11" ry="11" style="stroke: #A80036; stroke-width: 1.0;"/><path d="M84.9688,329.4531 Q84.3906,329.75 83.75,329.8906 Q83.1094,330.0469 82.4063,330.0469 Q79.9063,330.0469 78.5781,328.4063 Q77.2656,326.75 77.2656,323.625 Q77.2656,320.5 78.5781,318.8438 Q79.9063,317.1875 82.4063,317.1875 Q83.1094,317.1875 83.75,317.3438 Q84.4063,317.5 84.9688,317.7969 L84.9688,320.5156 Q84.3438,319.9375 83.75,319.6719 Q83.1563,319.3906 82.5313,319.3906 Q81.1875,319.3906 80.5,320.4688 Q79.8125,321.5313 79.8125,323.625 Q79.8125,325.7188 80.5,326.7969 Q81.1875,327.8594 82.5313,327.8594 Q83.1563,327.8594 83.75,327.5938 Q84.3438,327.3125 84.9688,326.7344 L84.9688,329.4531 Z "/><text fill="#000000" font-family="sans-serif" font-size="12" font-weight="bold" lengthAdjust="spacingAndGlyphs" textLength="192" x="96" y="327.9668">helm-idle-time-timers-class</text><line style="stroke: #A80036; stroke-width: 1.5;" x1="68" x2="290" y1="339.8125" y2="339.8125"/><text fill="#000000" font-family="sans-serif" font-size="11" lengthAdjust="spacingAndGlyphs" textLength="61" x="73" y="370.8276">allow-dups</text><text fill="#000000" font-family="sans-serif" font-size="11" lengthAdjust="spacingAndGlyphs" textLength="128" x="73" y="383.6323">candidate-transformer</text><text fill="#000000" font-family="sans-serif" font-size="11" lengthAdjust="spacingAndGlyphs" textLength="62" x="73" y="396.437">candidates</text><text fill="#000000" font-family="sans-serif" font-size="11" lengthAdjust="spacingAndGlyphs" textLength="86" x="73" y="409.2417">match-dynamic</text><text fill="#000000" font-family="sans-serif" font-size="11" lengthAdjust="spacingAndGlyphs" textLength="68" x="73" y="422.0464">match-strict</text><text fill="#000000" font-family="sans-serif" font-size="11" lengthAdjust="spacingAndGlyphs" textLength="46" x="73" y="434.8511">migemo</text><line style="stroke: #A80036; stroke-width: 1.5;" x1="68" x2="115.5" y1="354.2148" y2="354.2148"/><text fill="#000000" font-family="sans-serif" font-size="11" lengthAdjust="spacingAndGlyphs" textLength="127" x="115.5" y="357.5229">some interesting slots</text><line style="stroke: #A80036; stroke-width: 1.5;" x1="242.5" x2="290" y1="354.2148" y2="354.2148"/><!--MD5=[d89fbe3a66aa0ad58442d3fbb0e3c04d]
class helm-type-timers--><rect fill="#FEFECE" filter="url(#f5qn4uknt8vv3)" height="48" id="helm-type-timers" style="stroke: #A80036; stroke-width: 1.5;" width="153" x="197.5" y="199.8125"/><ellipse cx="212.5" cy="215.8125" fill="#ADD1B2" rx="11" ry="11" style="stroke: #A80036; stroke-width: 1.0;"/><path d="M215.4688,221.4531 Q214.8906,221.75 214.25,221.8906 Q213.6094,222.0469 212.9063,222.0469 Q210.4063,222.0469 209.0781,220.4063 Q207.7656,218.75 207.7656,215.625 Q207.7656,212.5 209.0781,210.8438 Q210.4063,209.1875 212.9063,209.1875 Q213.6094,209.1875 214.25,209.3438 Q214.9063,209.5 215.4688,209.7969 L215.4688,212.5156 Q214.8438,211.9375 214.25,211.6719 Q213.6563,211.3906 213.0313,211.3906 Q211.6875,211.3906 211,212.4688 Q210.3125,213.5313 210.3125,215.625 Q210.3125,217.7188 211,218.7969 Q211.6875,219.8594 213.0313,219.8594 Q213.6563,219.8594 214.25,219.5938 Q214.8438,219.3125 215.4688,218.7344 L215.4688,221.4531 Z "/><text fill="#000000" font-family="sans-serif" font-size="12" font-weight="bold" lengthAdjust="spacingAndGlyphs" textLength="121" x="226.5" y="219.9668">helm-type-timers</text><line style="stroke: #A80036; stroke-width: 1.5;" x1="198.5" x2="349.5" y1="231.8125" y2="231.8125"/><line style="stroke: #A80036; stroke-width: 1.5;" x1="198.5" x2="349.5" y1="239.8125" y2="239.8125"/><!--MD5=[8da85e6ec6935d54267014e974a66b51]
class helm-source--><rect fill="#FEFECE" filter="url(#f5qn4uknt8vv3)" height="48" id="helm-source" style="stroke: #A80036; stroke-width: 1.5;" width="119" x="119.5" y="91.8125"/><ellipse cx="134.5" cy="107.8125" fill="#ADD1B2" rx="11" ry="11" style="stroke: #A80036; stroke-width: 1.0;"/><path d="M137.4688,113.4531 Q136.8906,113.75 136.25,113.8906 Q135.6094,114.0469 134.9063,114.0469 Q132.4063,114.0469 131.0781,112.4063 Q129.7656,110.75 129.7656,107.625 Q129.7656,104.5 131.0781,102.8438 Q132.4063,101.1875 134.9063,101.1875 Q135.6094,101.1875 136.25,101.3438 Q136.9063,101.5 137.4688,101.7969 L137.4688,104.5156 Q136.8438,103.9375 136.25,103.6719 Q135.6563,103.3906 135.0313,103.3906 Q133.6875,103.3906 133,104.4688 Q132.3125,105.5313 132.3125,107.625 Q132.3125,109.7188 133,110.7969 Q133.6875,111.8594 135.0313,111.8594 Q135.6563,111.8594 136.25,111.5938 Q136.8438,111.3125 137.4688,110.7344 L137.4688,113.4531 Z "/><text fill="#000000" font-family="sans-serif" font-size="12" font-weight="bold" lengthAdjust="spacingAndGlyphs" textLength="87" x="148.5" y="111.9668">helm-source</text><line style="stroke: #A80036; stroke-width: 1.5;" x1="120.5" x2="237.5" y1="123.8125" y2="123.8125"/><line style="stroke: #A80036; stroke-width: 1.5;" x1="120.5" x2="237.5" y1="131.8125" y2="131.8125"/><path d="M326.5,362.3125 L326.5,370.8125 L291.12,374.8125 L326.5,378.8125 L326.5,387.4453 A0,0 0 0 0 326.5,387.4453 L547.5,387.4453 A0,0 0 0 0 547.5,387.4453 L547.5,372.3125 L537.5,362.3125 L326.5,362.3125 A0,0 0 0 0 326.5,362.3125 " fill="#FBFB77" filter="url(#f5qn4uknt8vv3)" style="stroke: #A80036; stroke-width: 1.0;"/><path d="M537.5,362.3125 L537.5,372.3125 L547.5,372.3125 L537.5,362.3125 " fill="#FBFB77" style="stroke: #A80036; stroke-width: 1.0;"/><text fill="#000000" font-family="sans-serif" font-size="13" font-weight="bold" lengthAdjust="spacingAndGlyphs" textLength="200" x="332.5" y="379.3794">helm-idle-time-timers-class</text><!--MD5=[e9dfd0d46d933b60dace2e76a6fa8e40]
reverse link helm-source-sync to helm-idle-time-timers-class--><path d="M109.73,265.1725 C118.07,278.2525 127.56,293.1325 136.78,307.5925 " fill="none" id="helm-source-sync&lt;-helm-idle-time-timers-class" style="stroke: #A80036; stroke-width: 1.0;"/><polygon fill="none" points="103.69,268.7225,98.84,248.0925,115.5,261.1925,103.69,268.7225" style="stroke: #A80036; stroke-width: 1.0;"/><!--MD5=[f7040a49218bb3669d1c90cd85142f6d]
reverse link helm-type-timers to helm-idle-time-timers-class--><path d="M248.27,265.1725 C239.93,278.2525 230.44,293.1325 221.22,307.5925 " fill="none" id="helm-type-timers&lt;-helm-idle-time-timers-class" style="stroke: #A80036; stroke-width: 1.0;"/><polygon fill="none" points="242.5,261.1925,259.16,248.0925,254.31,268.7225,242.5,261.1925" style="stroke: #A80036; stroke-width: 1.0;"/><!--MD5=[7fac0f6d78841877506d9722364fbb5e]
reverse link helm-source to helm-source-sync--><path d="M144.74,155.0425 C131.41,169.9125 116.58,186.4625 104.9,199.4925 " fill="none" id="helm-source&lt;-helm-source-sync" style="stroke: #A80036; stroke-width: 1.0;"/><polygon fill="none" points="139.83,150.0325,158.39,139.8125,150.25,159.3825,139.83,150.0325" style="stroke: #A80036; stroke-width: 1.0;"/><!--MD5=[687fc8ec140e945488f732dae3c46e2b]
reverse link helm-source to helm-type-timers--><path d="M213.26,155.0425 C226.59,169.9125 241.42,186.4625 253.1,199.4925 " fill="none" id="helm-source&lt;-helm-type-timers" style="stroke: #A80036; stroke-width: 1.0;"/><polygon fill="none" points="207.75,159.3825,199.61,139.8125,218.17,150.0325,207.75,159.3825" style="stroke: #A80036; stroke-width: 1.0;"/><!--MD5=[a3cc4a8c6cbb34c0e13ed82745debc32]
@startuml
skinparam classFontStyle bold
skinparam captionFontStyle bold
title **Parents and Children of**\n**'helm-idle-time-timers-class'**\n\n
"helm-source-sync" <|- - "helm-idle-time-timers-class"
"helm-type-timers" <|- - "helm-idle-time-timers-class"
class "helm-source-sync"
"helm-source" <|- - "helm-source-sync"
class "helm-source"
class "helm-type-timers"
"helm-source" <|- - "helm-type-timers"
class "helm-source"
class "helm-idle-time-timers-class" {
	__ some interesting slots __
	allow-dups
	candidate-transformer
	candidates
	match-dynamic
	match-strict
	migemo
}
note right of "helm-idle-time-timers-class"
	**helm-idle-time-timers-class**
end note
@enduml

PlantUML version 1.2020.02(Sun Mar 01 15:52:07 IST 2020)
(GPL source distribution)
Java Runtime: OpenJDK Runtime Environment
JVM: OpenJDK 64-Bit Server VM
Java Version: 11.0.11-ea+8-post-Debian-1
Operating System: Linux
Default Encoding: UTF-8
Language: en
Country: IN
--></g></svg>